G04 #@! TF.FileFunction,Copper,L2,Bot,Signal*
%FSLAX46Y46*%
G04 Gerber Fmt 4.6, Leading zero omitted, Abs format (unit mm)*
G04 Created by KiCad (PCBNEW 4.0.1-2.fc23-product) date Fri 08 Jan 2016 07:43:49 PM MST*
%MOMM*%
G01*
G04 APERTURE LIST*
%ADD10C,0.100000*%
%ADD11C,1.524000*%
%ADD12O,5.000000X14.500000*%
%ADD13C,3.500000*%
%ADD14R,2.032000X1.727200*%
%ADD15O,2.032000X1.727200*%
%ADD16C,0.600000*%
%ADD17R,2.032000X2.032000*%
%ADD18O,2.032000X2.032000*%
%ADD19C,1.700000*%
%ADD20R,1.700000X1.700000*%
%ADD21C,0.500000*%
%ADD22C,1.500000*%
%ADD23C,0.508000*%
%ADD24C,0.254000*%
%ADD25C,0.152400*%
G04 APERTURE END LIST*
D10*
D11*
X123490000Y-115600000D03*
X126030000Y-115600000D03*
X128570000Y-115600000D03*
X131110000Y-115600000D03*
X133650000Y-115600000D03*
X136190000Y-115600000D03*
X138730000Y-115600000D03*
X141270000Y-115600000D03*
X143810000Y-115600000D03*
X146350000Y-115600000D03*
X148890000Y-115600000D03*
X151430000Y-115600000D03*
X153970000Y-115600000D03*
X156510000Y-115600000D03*
D12*
X137000000Y-73900000D03*
X143000000Y-73900000D03*
X149000000Y-73900000D03*
X131000000Y-73900000D03*
X157000000Y-73900000D03*
D13*
X119680000Y-97000000D03*
X160320000Y-97000000D03*
D14*
X174240000Y-90420000D03*
D15*
X174240000Y-87880000D03*
X174240000Y-85340000D03*
D14*
X171700000Y-90420000D03*
D15*
X171700000Y-87880000D03*
X171700000Y-85340000D03*
D14*
X176780000Y-115820000D03*
D15*
X176780000Y-113280000D03*
X176780000Y-110740000D03*
X176780000Y-108200000D03*
D14*
X176780000Y-90420000D03*
D15*
X176780000Y-87880000D03*
X176780000Y-85340000D03*
D14*
X174240000Y-95500000D03*
D15*
X174240000Y-98040000D03*
X174240000Y-100580000D03*
X174240000Y-103120000D03*
X174240000Y-105660000D03*
D16*
X139560000Y-104280000D03*
X138360000Y-104280000D03*
X137160000Y-104280000D03*
X135960000Y-104280000D03*
X134760000Y-104280000D03*
X139560000Y-105480000D03*
X138360000Y-105480000D03*
X137160000Y-105480000D03*
X135960000Y-105480000D03*
X134760000Y-105480000D03*
X139560000Y-106680000D03*
X138360000Y-106680000D03*
X137160000Y-106680000D03*
X135960000Y-106680000D03*
X134760000Y-106680000D03*
X139560000Y-107880000D03*
X138360000Y-107880000D03*
X137160000Y-107880000D03*
X135960000Y-107880000D03*
X134760000Y-107880000D03*
X139560000Y-109080000D03*
X138360000Y-109080000D03*
X137160000Y-109080000D03*
X135960000Y-109080000D03*
X134760000Y-109080000D03*
D17*
X164715000Y-89150000D03*
D18*
X164715000Y-86610000D03*
D19*
X120650000Y-71200000D03*
D20*
X120650000Y-76200000D03*
D19*
X167640000Y-71200000D03*
D20*
X167640000Y-76200000D03*
D14*
X174240000Y-115820000D03*
D15*
X174240000Y-113280000D03*
X174240000Y-110740000D03*
D14*
X169291000Y-90424000D03*
D15*
X169291000Y-87884000D03*
X169291000Y-85344000D03*
D14*
X176784000Y-95504000D03*
D15*
X176784000Y-98044000D03*
X176784000Y-100584000D03*
X176784000Y-103124000D03*
X176784000Y-105664000D03*
D21*
X152396000Y-109978000D03*
X152396000Y-108708000D03*
X152396000Y-107438000D03*
X154936000Y-109978000D03*
X154936000Y-108708000D03*
X154936000Y-107438000D03*
X157476000Y-109978000D03*
X157476000Y-108708000D03*
X157476000Y-107438000D03*
D22*
X123250000Y-110250000D03*
X125250000Y-103250000D03*
X127250000Y-97250000D03*
X127250000Y-89250000D03*
X151250000Y-99250000D03*
X159250000Y-104250000D03*
X157250000Y-104250000D03*
X155250000Y-104250000D03*
X153407000Y-104250000D03*
X151250000Y-104250000D03*
D23*
X138934000Y-92452000D03*
X136648000Y-92960000D03*
X146808000Y-103755000D03*
X144458500Y-103056500D03*
X160587500Y-114804000D03*
X167636000Y-108517500D03*
X170493500Y-106422000D03*
X170493500Y-103437500D03*
X169970000Y-107890000D03*
X138410000Y-85960000D03*
X133610000Y-93680000D03*
X139660000Y-85170000D03*
X145260000Y-109730000D03*
X131660000Y-109430000D03*
X121050000Y-86370000D03*
X142010000Y-89360000D03*
X141410000Y-94320000D03*
X155730000Y-86610000D03*
X131160000Y-90960000D03*
X131695000Y-104430000D03*
X142510000Y-105430000D03*
X141909800Y-97612200D03*
X151160000Y-88210000D03*
X152660000Y-88210000D03*
X131410000Y-93460000D03*
X128934000Y-93416000D03*
X167360600Y-93014800D03*
X167386000Y-92329000D03*
X141325600Y-97104200D03*
X145034000Y-94716600D03*
X164211000Y-94462600D03*
X171907200Y-109524800D03*
X171907200Y-108864400D03*
X164820600Y-94132400D03*
X171446000Y-112010000D03*
X163550600Y-94792800D03*
X142621000Y-94970600D03*
X137591800Y-83718400D03*
X167462200Y-91287600D03*
X137337800Y-88696800D03*
X146354800Y-91287600D03*
X146786600Y-91821000D03*
X166954200Y-91795600D03*
X137287000Y-89382600D03*
X130910000Y-92960000D03*
X129315000Y-92654000D03*
X130910000Y-87210000D03*
X129660000Y-87210000D03*
X138410000Y-99430000D03*
X138910000Y-98430000D03*
X137410000Y-98930000D03*
X138410000Y-97930000D03*
X141160000Y-93680000D03*
X135910000Y-96930000D03*
X134410000Y-97430000D03*
X139410000Y-93180000D03*
X134910000Y-96930000D03*
X140660000Y-92680000D03*
X135410000Y-97430000D03*
X141910000Y-92180000D03*
X133731000Y-113284000D03*
X138557000Y-113538000D03*
X137363200Y-90068400D03*
X147066000Y-93167200D03*
X171500800Y-97993200D03*
X166674800Y-93167200D03*
X137312400Y-90754200D03*
X146481800Y-93599000D03*
X171907200Y-98602800D03*
X166039800Y-93472000D03*
X171831000Y-99364800D03*
X165430200Y-93802200D03*
X145973800Y-94157800D03*
X137287000Y-91440000D03*
X137033000Y-113030000D03*
X170891200Y-100965000D03*
X163474400Y-95529400D03*
X141351000Y-98044000D03*
X142494000Y-98171000D03*
D24*
X125250000Y-103250000D02*
X123250000Y-105250000D01*
X123250000Y-105250000D02*
X123250000Y-110250000D01*
X127250000Y-89250000D02*
X127250000Y-97250000D01*
X157250000Y-104250000D02*
X159250000Y-104250000D01*
X153407000Y-104250000D02*
X155250000Y-104250000D01*
X151250000Y-104250000D02*
X153407000Y-104250000D01*
X151160000Y-90114600D02*
X143662400Y-97612200D01*
X151160000Y-88210000D02*
X151160000Y-90114600D01*
X143662400Y-97612200D02*
X141909800Y-97612200D01*
X151160000Y-88210000D02*
X152660000Y-88210000D01*
D25*
X128978000Y-93460000D02*
X131410000Y-93460000D01*
X128978000Y-93460000D02*
X128934000Y-93416000D01*
X172440600Y-114020600D02*
X174240000Y-115820000D01*
X172440600Y-98094800D02*
X172440600Y-114020600D01*
X167360600Y-93014800D02*
X172440600Y-98094800D01*
X172770800Y-111810800D02*
X174240000Y-113280000D01*
X172770800Y-97713800D02*
X172770800Y-111810800D01*
X167386000Y-92329000D02*
X172770800Y-97713800D01*
X171399200Y-109169200D02*
X171754800Y-109524800D01*
X171780200Y-100584000D02*
X171780200Y-108280200D01*
X171780200Y-108280200D02*
X171399200Y-108661200D01*
X171399200Y-108661200D02*
X171399200Y-109169200D01*
X141325600Y-97104200D02*
X143713200Y-94716600D01*
X143713200Y-94716600D02*
X145034000Y-94716600D01*
X164388800Y-94640400D02*
X165836600Y-94640400D01*
X164211000Y-94462600D02*
X164388800Y-94640400D01*
X165836600Y-94640400D02*
X171780200Y-100584000D01*
X171754800Y-109524800D02*
X171907200Y-109524800D01*
X165011100Y-94322900D02*
X165950900Y-94322900D01*
X172110400Y-108661200D02*
X171907200Y-108864400D01*
X172110400Y-100482400D02*
X172110400Y-108661200D01*
X165950900Y-94322900D02*
X172110400Y-100482400D01*
X164820600Y-94132400D02*
X165011100Y-94322900D01*
X171069000Y-109372400D02*
X171069000Y-111633000D01*
X171069000Y-111633000D02*
X171446000Y-112010000D01*
X171069000Y-109372400D02*
X171069000Y-108508800D01*
X171069000Y-108508800D02*
X171424600Y-108153200D01*
X171424600Y-108153200D02*
X171424600Y-100736400D01*
X171424600Y-100736400D02*
X165658800Y-94970600D01*
X165658800Y-94970600D02*
X163728400Y-94970600D01*
X163728400Y-94970600D02*
X163550600Y-94792800D01*
X136753600Y-91795600D02*
X136753600Y-84556600D01*
X137566400Y-91998800D02*
X136956800Y-91998800D01*
X138023600Y-91541600D02*
X137566400Y-91998800D01*
X142113000Y-91541600D02*
X138023600Y-91541600D01*
X142621000Y-92049600D02*
X142113000Y-91541600D01*
X142621000Y-94970600D02*
X142621000Y-92049600D01*
X136956800Y-91998800D02*
X136753600Y-91795600D01*
X136753600Y-84556600D02*
X137591800Y-83718400D01*
X172770800Y-96596200D02*
X167462200Y-91287600D01*
X176780000Y-98040000D02*
X175336200Y-96596200D01*
X175336200Y-96596200D02*
X172770800Y-96596200D01*
X138557000Y-89916000D02*
X137337800Y-88696800D01*
X144983200Y-89916000D02*
X138557000Y-89916000D01*
X146354800Y-91287600D02*
X144983200Y-89916000D01*
X138404600Y-90246200D02*
X137541000Y-89382600D01*
X146786600Y-91821000D02*
X146177000Y-91821000D01*
X146177000Y-91821000D02*
X145821400Y-91465400D01*
X145821400Y-91465400D02*
X145821400Y-91211402D01*
X145821400Y-91211402D02*
X144856198Y-90246200D01*
X144856198Y-90246200D02*
X138404600Y-90246200D01*
X175183802Y-96901002D02*
X172644546Y-96901002D01*
X175514000Y-99314000D02*
X175514000Y-97231200D01*
X175514000Y-97231200D02*
X175183802Y-96901002D01*
X176780000Y-100580000D02*
X175514000Y-99314000D01*
X167539144Y-91795600D02*
X166954200Y-91795600D01*
X172644546Y-96901002D02*
X167539144Y-91795600D01*
X137541000Y-89382600D02*
X137287000Y-89382600D01*
X130910000Y-92960000D02*
X129621000Y-92960000D01*
X129621000Y-92960000D02*
X129315000Y-92654000D01*
X129660000Y-87210000D02*
X130910000Y-87210000D01*
X138410000Y-98930000D02*
X138410000Y-99430000D01*
X138910000Y-98430000D02*
X138410000Y-98930000D01*
X138410000Y-97930000D02*
X137410000Y-98930000D01*
X137910000Y-96930000D02*
X141160000Y-93680000D01*
X135910000Y-96930000D02*
X137910000Y-96930000D01*
X137160000Y-95430000D02*
X139410000Y-93180000D01*
X134410000Y-96680000D02*
X135660000Y-95430000D01*
X135660000Y-95430000D02*
X137160000Y-95430000D01*
X134410000Y-97430000D02*
X134410000Y-96680000D01*
X134910000Y-96930000D02*
X134910000Y-96680000D01*
X137410000Y-95930000D02*
X140660000Y-92680000D01*
X135660000Y-95930000D02*
X137410000Y-95930000D01*
X134910000Y-96680000D02*
X135660000Y-95930000D01*
X135410000Y-97430000D02*
X135410000Y-96680000D01*
X137660000Y-96430000D02*
X141910000Y-92180000D01*
X135660000Y-96430000D02*
X137660000Y-96430000D01*
X135410000Y-96680000D02*
X135660000Y-96430000D01*
D24*
X133650000Y-113365000D02*
X133650000Y-115600000D01*
X133731000Y-113284000D02*
X133650000Y-113365000D01*
X150257000Y-114427000D02*
X151430000Y-115600000D01*
X139446000Y-114427000D02*
X150257000Y-114427000D01*
X138557000Y-113538000D02*
X139446000Y-114427000D01*
D25*
X137363200Y-90068400D02*
X137845802Y-90551002D01*
X137845802Y-90551002D02*
X144449802Y-90551002D01*
X144449802Y-90551002D02*
X147066000Y-93167200D01*
X166674800Y-93167200D02*
X171500800Y-97993200D01*
X146481800Y-93065600D02*
X146481800Y-93599000D01*
X137312400Y-90754200D02*
X137439400Y-90881200D01*
X137439400Y-90881200D02*
X144297400Y-90881200D01*
X144297400Y-90881200D02*
X146481800Y-93065600D01*
X171170600Y-98602800D02*
X171907200Y-98602800D01*
X166039800Y-93472000D02*
X171170600Y-98602800D01*
X171475400Y-99364800D02*
X171831000Y-99364800D01*
X166116000Y-94005400D02*
X171475400Y-99364800D01*
X165633400Y-94005400D02*
X166116000Y-94005400D01*
X165430200Y-93802200D02*
X165633400Y-94005400D01*
X137287000Y-91440000D02*
X137515600Y-91211400D01*
X137515600Y-91211400D02*
X144119600Y-91211400D01*
X144119600Y-91211400D02*
X145973800Y-93065600D01*
X145973800Y-93065600D02*
X145973800Y-94157800D01*
D24*
X136190000Y-113873000D02*
X136190000Y-115600000D01*
X137033000Y-113030000D02*
X136190000Y-113873000D01*
D25*
X170891200Y-100761800D02*
X170891200Y-100965000D01*
X165658800Y-95529400D02*
X170891200Y-100761800D01*
X163474400Y-95529400D02*
X165658800Y-95529400D01*
X141351000Y-98044000D02*
X141478000Y-98171000D01*
X141478000Y-98171000D02*
X142494000Y-98171000D01*
G36*
X178608800Y-119172800D02*
X113356200Y-119172800D01*
X113356200Y-115796178D01*
X122499228Y-115796178D01*
X122649721Y-116160397D01*
X122928138Y-116439300D01*
X123292093Y-116590428D01*
X123686178Y-116590772D01*
X124050397Y-116440279D01*
X124329300Y-116161862D01*
X124480428Y-115797907D01*
X124480429Y-115796178D01*
X125039228Y-115796178D01*
X125189721Y-116160397D01*
X125468138Y-116439300D01*
X125832093Y-116590428D01*
X126226178Y-116590772D01*
X126590397Y-116440279D01*
X126869300Y-116161862D01*
X127020428Y-115797907D01*
X127020429Y-115796178D01*
X127579228Y-115796178D01*
X127729721Y-116160397D01*
X128008138Y-116439300D01*
X128372093Y-116590428D01*
X128766178Y-116590772D01*
X129130397Y-116440279D01*
X129409300Y-116161862D01*
X129560428Y-115797907D01*
X129560429Y-115796178D01*
X130119228Y-115796178D01*
X130269721Y-116160397D01*
X130548138Y-116439300D01*
X130912093Y-116590428D01*
X131306178Y-116590772D01*
X131670397Y-116440279D01*
X131949300Y-116161862D01*
X132100428Y-115797907D01*
X132100429Y-115796178D01*
X132659228Y-115796178D01*
X132809721Y-116160397D01*
X133088138Y-116439300D01*
X133452093Y-116590428D01*
X133846178Y-116590772D01*
X134210397Y-116440279D01*
X134489300Y-116161862D01*
X134640428Y-115797907D01*
X134640429Y-115796178D01*
X135199228Y-115796178D01*
X135349721Y-116160397D01*
X135628138Y-116439300D01*
X135992093Y-116590428D01*
X136386178Y-116590772D01*
X136750397Y-116440279D01*
X137029300Y-116161862D01*
X137180428Y-115797907D01*
X137180429Y-115796178D01*
X137739228Y-115796178D01*
X137889721Y-116160397D01*
X138168138Y-116439300D01*
X138532093Y-116590428D01*
X138926178Y-116590772D01*
X139290397Y-116440279D01*
X139569300Y-116161862D01*
X139720428Y-115797907D01*
X139720772Y-115403822D01*
X139570279Y-115039603D01*
X139291862Y-114760700D01*
X138927907Y-114609572D01*
X138533822Y-114609228D01*
X138169603Y-114759721D01*
X137890700Y-115038138D01*
X137739572Y-115402093D01*
X137739228Y-115796178D01*
X137180429Y-115796178D01*
X137180772Y-115403822D01*
X137030279Y-115039603D01*
X136751862Y-114760700D01*
X136545600Y-114675052D01*
X136545600Y-114020294D01*
X136932320Y-113633574D01*
X138074316Y-113633574D01*
X138147633Y-113811014D01*
X138283272Y-113946890D01*
X138460584Y-114020516D01*
X138536689Y-114020583D01*
X139194553Y-114678447D01*
X139309917Y-114755532D01*
X139446000Y-114782600D01*
X140686684Y-114782600D01*
X140430700Y-115038138D01*
X140279572Y-115402093D01*
X140279228Y-115796178D01*
X140429721Y-116160397D01*
X140708138Y-116439300D01*
X141072093Y-116590428D01*
X141466178Y-116590772D01*
X141830397Y-116440279D01*
X142109300Y-116161862D01*
X142260428Y-115797907D01*
X142260772Y-115403822D01*
X142110279Y-115039603D01*
X141853724Y-114782600D01*
X143226684Y-114782600D01*
X142970700Y-115038138D01*
X142819572Y-115402093D01*
X142819228Y-115796178D01*
X142969721Y-116160397D01*
X143248138Y-116439300D01*
X143612093Y-116590428D01*
X144006178Y-116590772D01*
X144370397Y-116440279D01*
X144649300Y-116161862D01*
X144800428Y-115797907D01*
X144800772Y-115403822D01*
X144650279Y-115039603D01*
X144393724Y-114782600D01*
X145766684Y-114782600D01*
X145510700Y-115038138D01*
X145359572Y-115402093D01*
X145359228Y-115796178D01*
X145509721Y-116160397D01*
X145788138Y-116439300D01*
X146152093Y-116590428D01*
X146546178Y-116590772D01*
X146910397Y-116440279D01*
X147189300Y-116161862D01*
X147340428Y-115797907D01*
X147340772Y-115403822D01*
X147190279Y-115039603D01*
X146933724Y-114782600D01*
X148306684Y-114782600D01*
X148050700Y-115038138D01*
X147899572Y-115402093D01*
X147899228Y-115796178D01*
X148049721Y-116160397D01*
X148328138Y-116439300D01*
X148692093Y-116590428D01*
X149086178Y-116590772D01*
X149450397Y-116440279D01*
X149729300Y-116161862D01*
X149880428Y-115797907D01*
X149880772Y-115403822D01*
X149730279Y-115039603D01*
X149473724Y-114782600D01*
X150109706Y-114782600D01*
X150524550Y-115197444D01*
X150439572Y-115402093D01*
X150439228Y-115796178D01*
X150589721Y-116160397D01*
X150868138Y-116439300D01*
X151232093Y-116590428D01*
X151626178Y-116590772D01*
X151987074Y-116441652D01*
X153379795Y-116441652D01*
X153470113Y-116590527D01*
X153887223Y-116706426D01*
X154316935Y-116653882D01*
X154469887Y-116590527D01*
X154560205Y-116441652D01*
X153970000Y-115851447D01*
X153379795Y-116441652D01*
X151987074Y-116441652D01*
X151990397Y-116440279D01*
X152269300Y-116161862D01*
X152420428Y-115797907D01*
X152420673Y-115517223D01*
X152863574Y-115517223D01*
X152916118Y-115946935D01*
X152979473Y-116099887D01*
X153128348Y-116190205D01*
X153718553Y-115600000D01*
X154221447Y-115600000D01*
X154811652Y-116190205D01*
X154960527Y-116099887D01*
X155044916Y-115796178D01*
X155519228Y-115796178D01*
X155669721Y-116160397D01*
X155948138Y-116439300D01*
X156312093Y-116590428D01*
X156706178Y-116590772D01*
X157070397Y-116440279D01*
X157349300Y-116161862D01*
X157500428Y-115797907D01*
X157500772Y-115403822D01*
X157350279Y-115039603D01*
X157071862Y-114760700D01*
X156707907Y-114609572D01*
X156313822Y-114609228D01*
X155949603Y-114759721D01*
X155670700Y-115038138D01*
X155519572Y-115402093D01*
X155519228Y-115796178D01*
X155044916Y-115796178D01*
X155076426Y-115682777D01*
X155023882Y-115253065D01*
X154960527Y-115100113D01*
X154811652Y-115009795D01*
X154221447Y-115600000D01*
X153718553Y-115600000D01*
X153128348Y-115009795D01*
X152979473Y-115100113D01*
X152863574Y-115517223D01*
X152420673Y-115517223D01*
X152420772Y-115403822D01*
X152270279Y-115039603D01*
X151991862Y-114760700D01*
X151986198Y-114758348D01*
X153379795Y-114758348D01*
X153970000Y-115348553D01*
X154560205Y-114758348D01*
X154469887Y-114609473D01*
X154052777Y-114493574D01*
X153623065Y-114546118D01*
X153470113Y-114609473D01*
X153379795Y-114758348D01*
X151986198Y-114758348D01*
X151627907Y-114609572D01*
X151233822Y-114609228D01*
X151027410Y-114694516D01*
X150508447Y-114175553D01*
X150393083Y-114098468D01*
X150257000Y-114071400D01*
X139593294Y-114071400D01*
X139039618Y-113517724D01*
X139039684Y-113442426D01*
X138966367Y-113264986D01*
X138830728Y-113129110D01*
X138653416Y-113055484D01*
X138461426Y-113055316D01*
X138283986Y-113128633D01*
X138148110Y-113264272D01*
X138074484Y-113441584D01*
X138074316Y-113633574D01*
X136932320Y-113633574D01*
X137053276Y-113512618D01*
X137128574Y-113512684D01*
X137306014Y-113439367D01*
X137441890Y-113303728D01*
X137515516Y-113126416D01*
X137515684Y-112934426D01*
X137442367Y-112756986D01*
X137306728Y-112621110D01*
X137129416Y-112547484D01*
X136937426Y-112547316D01*
X136759986Y-112620633D01*
X136624110Y-112756272D01*
X136550484Y-112933584D01*
X136550417Y-113009689D01*
X135938553Y-113621553D01*
X135861468Y-113736917D01*
X135834400Y-113873000D01*
X135834400Y-114675100D01*
X135629603Y-114759721D01*
X135350700Y-115038138D01*
X135199572Y-115402093D01*
X135199228Y-115796178D01*
X134640429Y-115796178D01*
X134640772Y-115403822D01*
X134490279Y-115039603D01*
X134211862Y-114760700D01*
X134005600Y-114675052D01*
X134005600Y-113691784D01*
X134139890Y-113557728D01*
X134213516Y-113380416D01*
X134213684Y-113188426D01*
X134140367Y-113010986D01*
X134004728Y-112875110D01*
X133827416Y-112801484D01*
X133635426Y-112801316D01*
X133457986Y-112874633D01*
X133322110Y-113010272D01*
X133248484Y-113187584D01*
X133248316Y-113379574D01*
X133294400Y-113491105D01*
X133294400Y-114675100D01*
X133089603Y-114759721D01*
X132810700Y-115038138D01*
X132659572Y-115402093D01*
X132659228Y-115796178D01*
X132100429Y-115796178D01*
X132100772Y-115403822D01*
X131950279Y-115039603D01*
X131671862Y-114760700D01*
X131307907Y-114609572D01*
X130913822Y-114609228D01*
X130549603Y-114759721D01*
X130270700Y-115038138D01*
X130119572Y-115402093D01*
X130119228Y-115796178D01*
X129560429Y-115796178D01*
X129560772Y-115403822D01*
X129410279Y-115039603D01*
X129131862Y-114760700D01*
X128767907Y-114609572D01*
X128373822Y-114609228D01*
X128009603Y-114759721D01*
X127730700Y-115038138D01*
X127579572Y-115402093D01*
X127579228Y-115796178D01*
X127020429Y-115796178D01*
X127020772Y-115403822D01*
X126870279Y-115039603D01*
X126591862Y-114760700D01*
X126227907Y-114609572D01*
X125833822Y-114609228D01*
X125469603Y-114759721D01*
X125190700Y-115038138D01*
X125039572Y-115402093D01*
X125039228Y-115796178D01*
X124480429Y-115796178D01*
X124480772Y-115403822D01*
X124330279Y-115039603D01*
X124051862Y-114760700D01*
X123687907Y-114609572D01*
X123293822Y-114609228D01*
X122929603Y-114759721D01*
X122650700Y-115038138D01*
X122499572Y-115402093D01*
X122499228Y-115796178D01*
X113356200Y-115796178D01*
X113356200Y-99025574D01*
X136927316Y-99025574D01*
X137000633Y-99203014D01*
X137136272Y-99338890D01*
X137313584Y-99412516D01*
X137505574Y-99412684D01*
X137683014Y-99339367D01*
X137818890Y-99203728D01*
X137892516Y-99026416D01*
X137892646Y-98878406D01*
X138358497Y-98412555D01*
X138427415Y-98412616D01*
X138427354Y-98481594D01*
X138194474Y-98714474D01*
X138128402Y-98813358D01*
X138105200Y-98930000D01*
X138105200Y-99052364D01*
X138001110Y-99156272D01*
X137927484Y-99333584D01*
X137927316Y-99525574D01*
X138000633Y-99703014D01*
X138136272Y-99838890D01*
X138313584Y-99912516D01*
X138505574Y-99912684D01*
X138683014Y-99839367D01*
X138818890Y-99703728D01*
X138892516Y-99526416D01*
X138892684Y-99334426D01*
X138819367Y-99156986D01*
X138716806Y-99054246D01*
X138858497Y-98912555D01*
X139005574Y-98912684D01*
X139183014Y-98839367D01*
X139318890Y-98703728D01*
X139392516Y-98526416D01*
X139392684Y-98334426D01*
X139319367Y-98156986D01*
X139183728Y-98021110D01*
X139006416Y-97947484D01*
X138892585Y-97947384D01*
X138892684Y-97834426D01*
X138819367Y-97656986D01*
X138683728Y-97521110D01*
X138506416Y-97447484D01*
X138314426Y-97447316D01*
X138136986Y-97520633D01*
X138001110Y-97656272D01*
X137927484Y-97833584D01*
X137927354Y-97981594D01*
X137461503Y-98447445D01*
X137314426Y-98447316D01*
X137136986Y-98520633D01*
X137001110Y-98656272D01*
X136927484Y-98833584D01*
X136927316Y-99025574D01*
X113356200Y-99025574D01*
X113356200Y-97391841D01*
X117701057Y-97391841D01*
X118001647Y-98119323D01*
X118557750Y-98676397D01*
X119284705Y-98978256D01*
X120071841Y-98978943D01*
X120799323Y-98678353D01*
X121356397Y-98122250D01*
X121604159Y-97525574D01*
X133927316Y-97525574D01*
X134000633Y-97703014D01*
X134136272Y-97838890D01*
X134313584Y-97912516D01*
X134505574Y-97912684D01*
X134683014Y-97839367D01*
X134818890Y-97703728D01*
X134892516Y-97526416D01*
X134892616Y-97412585D01*
X134927415Y-97412616D01*
X134927316Y-97525574D01*
X135000633Y-97703014D01*
X135136272Y-97838890D01*
X135313584Y-97912516D01*
X135505574Y-97912684D01*
X135683014Y-97839367D01*
X135818890Y-97703728D01*
X135892516Y-97526416D01*
X135892616Y-97412585D01*
X136005574Y-97412684D01*
X136183014Y-97339367D01*
X136287764Y-97234800D01*
X137910000Y-97234800D01*
X138026642Y-97211598D01*
X138125526Y-97145526D01*
X141108497Y-94162555D01*
X141255574Y-94162684D01*
X141433014Y-94089367D01*
X141568890Y-93953728D01*
X141642516Y-93776416D01*
X141642684Y-93584426D01*
X141569367Y-93406986D01*
X141433728Y-93271110D01*
X141303865Y-93217187D01*
X141858497Y-92662555D01*
X142005574Y-92662684D01*
X142183014Y-92589367D01*
X142316200Y-92456413D01*
X142316200Y-94592964D01*
X142212110Y-94696872D01*
X142138484Y-94874184D01*
X142138316Y-95066174D01*
X142211633Y-95243614D01*
X142347272Y-95379490D01*
X142524584Y-95453116D01*
X142545614Y-95453134D01*
X141377103Y-96621645D01*
X141230026Y-96621516D01*
X141052586Y-96694833D01*
X140916710Y-96830472D01*
X140843084Y-97007784D01*
X140842916Y-97199774D01*
X140916233Y-97377214D01*
X141051872Y-97513090D01*
X141211612Y-97579420D01*
X141077986Y-97634633D01*
X140942110Y-97770272D01*
X140868484Y-97947584D01*
X140868316Y-98139574D01*
X140941633Y-98317014D01*
X141077272Y-98452890D01*
X141254584Y-98526516D01*
X141446574Y-98526684D01*
X141569722Y-98475800D01*
X142116364Y-98475800D01*
X142220272Y-98579890D01*
X142397584Y-98653516D01*
X142589574Y-98653684D01*
X142767014Y-98580367D01*
X142902890Y-98444728D01*
X142976516Y-98267416D01*
X142976684Y-98075426D01*
X142932214Y-97967800D01*
X143662400Y-97967800D01*
X143798483Y-97940732D01*
X143913847Y-97863647D01*
X144385653Y-97391841D01*
X158341057Y-97391841D01*
X158641647Y-98119323D01*
X159197750Y-98676397D01*
X159924705Y-98978256D01*
X160711841Y-98978943D01*
X161439323Y-98678353D01*
X161996397Y-98122250D01*
X162298256Y-97395295D01*
X162298943Y-96608159D01*
X161998353Y-95880677D01*
X161743096Y-95624974D01*
X162991716Y-95624974D01*
X163065033Y-95802414D01*
X163200672Y-95938290D01*
X163377984Y-96011916D01*
X163569974Y-96012084D01*
X163747414Y-95938767D01*
X163852164Y-95834200D01*
X165532548Y-95834200D01*
X170455114Y-100756766D01*
X170408684Y-100868584D01*
X170408516Y-101060574D01*
X170481833Y-101238014D01*
X170617472Y-101373890D01*
X170794784Y-101447516D01*
X170986774Y-101447684D01*
X171119800Y-101392719D01*
X171119800Y-108026948D01*
X170853474Y-108293274D01*
X170787402Y-108392158D01*
X170764200Y-108508800D01*
X170764200Y-111633000D01*
X170787402Y-111749642D01*
X170853474Y-111848526D01*
X170963445Y-111958497D01*
X170963316Y-112105574D01*
X171036633Y-112283014D01*
X171172272Y-112418890D01*
X171349584Y-112492516D01*
X171541574Y-112492684D01*
X171719014Y-112419367D01*
X171854890Y-112283728D01*
X171928516Y-112106416D01*
X171928684Y-111914426D01*
X171855367Y-111736986D01*
X171719728Y-111601110D01*
X171542416Y-111527484D01*
X171394406Y-111527354D01*
X171373800Y-111506748D01*
X171373800Y-109574852D01*
X171428173Y-109629225D01*
X171497833Y-109797814D01*
X171633472Y-109933690D01*
X171810784Y-110007316D01*
X172002774Y-110007484D01*
X172135800Y-109952519D01*
X172135800Y-114020600D01*
X172159002Y-114137242D01*
X172225074Y-114236126D01*
X172990922Y-115001974D01*
X172990922Y-116683600D01*
X173006862Y-116768314D01*
X173056928Y-116846118D01*
X173133320Y-116898315D01*
X173224000Y-116916678D01*
X175256000Y-116916678D01*
X175340714Y-116900738D01*
X175418518Y-116850672D01*
X175470715Y-116774280D01*
X175489078Y-116683600D01*
X175489078Y-114956400D01*
X175530922Y-114956400D01*
X175530922Y-116683600D01*
X175546862Y-116768314D01*
X175596928Y-116846118D01*
X175673320Y-116898315D01*
X175764000Y-116916678D01*
X177796000Y-116916678D01*
X177880714Y-116900738D01*
X177958518Y-116850672D01*
X178010715Y-116774280D01*
X178029078Y-116683600D01*
X178029078Y-114956400D01*
X178013138Y-114871686D01*
X177963072Y-114793882D01*
X177886680Y-114741685D01*
X177796000Y-114723322D01*
X175764000Y-114723322D01*
X175679286Y-114739262D01*
X175601482Y-114789328D01*
X175549285Y-114865720D01*
X175530922Y-114956400D01*
X175489078Y-114956400D01*
X175473138Y-114871686D01*
X175423072Y-114793882D01*
X175346680Y-114741685D01*
X175256000Y-114723322D01*
X173574374Y-114723322D01*
X172745400Y-113894348D01*
X172745400Y-112216452D01*
X173189069Y-112660121D01*
X173054156Y-112862033D01*
X172971017Y-113280000D01*
X173054156Y-113697967D01*
X173290915Y-114052302D01*
X173645250Y-114289061D01*
X174063217Y-114372200D01*
X174416783Y-114372200D01*
X174834750Y-114289061D01*
X175189085Y-114052302D01*
X175425844Y-113697967D01*
X175508983Y-113280000D01*
X175511017Y-113280000D01*
X175594156Y-113697967D01*
X175830915Y-114052302D01*
X176185250Y-114289061D01*
X176603217Y-114372200D01*
X176956783Y-114372200D01*
X177374750Y-114289061D01*
X177729085Y-114052302D01*
X177965844Y-113697967D01*
X178048983Y-113280000D01*
X177965844Y-112862033D01*
X177729085Y-112507698D01*
X177374750Y-112270939D01*
X176956783Y-112187800D01*
X176603217Y-112187800D01*
X176185250Y-112270939D01*
X175830915Y-112507698D01*
X175594156Y-112862033D01*
X175511017Y-113280000D01*
X175508983Y-113280000D01*
X175425844Y-112862033D01*
X175189085Y-112507698D01*
X174834750Y-112270939D01*
X174416783Y-112187800D01*
X174063217Y-112187800D01*
X173659213Y-112268161D01*
X173075600Y-111684548D01*
X173075600Y-111345228D01*
X173111636Y-111417683D01*
X173445265Y-111739583D01*
X173876684Y-111909305D01*
X174062200Y-111846353D01*
X174062200Y-110917800D01*
X174042200Y-110917800D01*
X174042200Y-110562200D01*
X174062200Y-110562200D01*
X174062200Y-109633647D01*
X174417800Y-109633647D01*
X174417800Y-110562200D01*
X174437800Y-110562200D01*
X174437800Y-110917800D01*
X174417800Y-110917800D01*
X174417800Y-111846353D01*
X174603316Y-111909305D01*
X175034735Y-111739583D01*
X175368364Y-111417683D01*
X175526542Y-111099647D01*
X175486295Y-110917802D01*
X175546384Y-110917802D01*
X175594156Y-111157967D01*
X175830915Y-111512302D01*
X176185250Y-111749061D01*
X176603217Y-111832200D01*
X176956783Y-111832200D01*
X177374750Y-111749061D01*
X177729085Y-111512302D01*
X177965844Y-111157967D01*
X178048983Y-110740000D01*
X177965844Y-110322033D01*
X177729085Y-109967698D01*
X177374750Y-109730939D01*
X176956783Y-109647800D01*
X176603217Y-109647800D01*
X176185250Y-109730939D01*
X175830915Y-109967698D01*
X175594156Y-110322033D01*
X175546384Y-110562198D01*
X175486295Y-110562198D01*
X175526542Y-110380353D01*
X175368364Y-110062317D01*
X175034735Y-109740417D01*
X174603316Y-109570695D01*
X174417800Y-109633647D01*
X174062200Y-109633647D01*
X173876684Y-109570695D01*
X173445265Y-109740417D01*
X173111636Y-110062317D01*
X173075600Y-110134772D01*
X173075600Y-108559647D01*
X175493458Y-108559647D01*
X175651636Y-108877683D01*
X175985265Y-109199583D01*
X176416684Y-109369305D01*
X176602200Y-109306353D01*
X176602200Y-108377800D01*
X176957800Y-108377800D01*
X176957800Y-109306353D01*
X177143316Y-109369305D01*
X177574735Y-109199583D01*
X177908364Y-108877683D01*
X178066542Y-108559647D01*
X178026295Y-108377800D01*
X176957800Y-108377800D01*
X176602200Y-108377800D01*
X175533705Y-108377800D01*
X175493458Y-108559647D01*
X173075600Y-108559647D01*
X173075600Y-107840353D01*
X175493458Y-107840353D01*
X175533705Y-108022200D01*
X176602200Y-108022200D01*
X176602200Y-107093647D01*
X176957800Y-107093647D01*
X176957800Y-108022200D01*
X178026295Y-108022200D01*
X178066542Y-107840353D01*
X177908364Y-107522317D01*
X177574735Y-107200417D01*
X177143316Y-107030695D01*
X176957800Y-107093647D01*
X176602200Y-107093647D01*
X176416684Y-107030695D01*
X175985265Y-107200417D01*
X175651636Y-107522317D01*
X175493458Y-107840353D01*
X173075600Y-107840353D01*
X173075600Y-106265228D01*
X173111636Y-106337683D01*
X173445265Y-106659583D01*
X173876684Y-106829305D01*
X174062200Y-106766353D01*
X174062200Y-105837800D01*
X174417800Y-105837800D01*
X174417800Y-106766353D01*
X174603316Y-106829305D01*
X175034735Y-106659583D01*
X175368364Y-106337683D01*
X175511005Y-106050885D01*
X175655636Y-106341683D01*
X175989265Y-106663583D01*
X176420684Y-106833305D01*
X176606200Y-106770353D01*
X176606200Y-105841800D01*
X176961800Y-105841800D01*
X176961800Y-106770353D01*
X177147316Y-106833305D01*
X177578735Y-106663583D01*
X177912364Y-106341683D01*
X178070542Y-106023647D01*
X178030295Y-105841800D01*
X176961800Y-105841800D01*
X176606200Y-105841800D01*
X175537705Y-105841800D01*
X175512443Y-105955942D01*
X175486295Y-105837800D01*
X174417800Y-105837800D01*
X174062200Y-105837800D01*
X174042200Y-105837800D01*
X174042200Y-105482200D01*
X174062200Y-105482200D01*
X174062200Y-104553647D01*
X174417800Y-104553647D01*
X174417800Y-105482200D01*
X175486295Y-105482200D01*
X175511557Y-105368058D01*
X175537705Y-105486200D01*
X176606200Y-105486200D01*
X176606200Y-104557647D01*
X176961800Y-104557647D01*
X176961800Y-105486200D01*
X178030295Y-105486200D01*
X178070542Y-105304353D01*
X177912364Y-104986317D01*
X177578735Y-104664417D01*
X177147316Y-104494695D01*
X176961800Y-104557647D01*
X176606200Y-104557647D01*
X176420684Y-104494695D01*
X175989265Y-104664417D01*
X175655636Y-104986317D01*
X175512995Y-105273115D01*
X175368364Y-104982317D01*
X175034735Y-104660417D01*
X174603316Y-104490695D01*
X174417800Y-104553647D01*
X174062200Y-104553647D01*
X173876684Y-104490695D01*
X173445265Y-104660417D01*
X173111636Y-104982317D01*
X173075600Y-105054772D01*
X173075600Y-103570060D01*
X173290915Y-103892302D01*
X173645250Y-104129061D01*
X174063217Y-104212200D01*
X174416783Y-104212200D01*
X174834750Y-104129061D01*
X175189085Y-103892302D01*
X175425844Y-103537967D01*
X175508187Y-103124000D01*
X175515017Y-103124000D01*
X175598156Y-103541967D01*
X175834915Y-103896302D01*
X176189250Y-104133061D01*
X176607217Y-104216200D01*
X176960783Y-104216200D01*
X177378750Y-104133061D01*
X177733085Y-103896302D01*
X177969844Y-103541967D01*
X178052983Y-103124000D01*
X177969844Y-102706033D01*
X177733085Y-102351698D01*
X177378750Y-102114939D01*
X176960783Y-102031800D01*
X176607217Y-102031800D01*
X176189250Y-102114939D01*
X175834915Y-102351698D01*
X175598156Y-102706033D01*
X175515017Y-103124000D01*
X175508187Y-103124000D01*
X175508983Y-103120000D01*
X175425844Y-102702033D01*
X175189085Y-102347698D01*
X174834750Y-102110939D01*
X174416783Y-102027800D01*
X174063217Y-102027800D01*
X173645250Y-102110939D01*
X173290915Y-102347698D01*
X173075600Y-102669940D01*
X173075600Y-101030060D01*
X173290915Y-101352302D01*
X173645250Y-101589061D01*
X174063217Y-101672200D01*
X174416783Y-101672200D01*
X174834750Y-101589061D01*
X175189085Y-101352302D01*
X175425844Y-100997967D01*
X175508983Y-100580000D01*
X175425844Y-100162033D01*
X175189085Y-99807698D01*
X174834750Y-99570939D01*
X174416783Y-99487800D01*
X174063217Y-99487800D01*
X173645250Y-99570939D01*
X173290915Y-99807698D01*
X173075600Y-100129940D01*
X173075600Y-98490060D01*
X173290915Y-98812302D01*
X173645250Y-99049061D01*
X174063217Y-99132200D01*
X174416783Y-99132200D01*
X174834750Y-99049061D01*
X175189085Y-98812302D01*
X175209200Y-98782198D01*
X175209200Y-99314000D01*
X175232402Y-99430642D01*
X175298474Y-99529526D01*
X175733069Y-99964121D01*
X175598156Y-100166033D01*
X175515017Y-100584000D01*
X175598156Y-101001967D01*
X175834915Y-101356302D01*
X176189250Y-101593061D01*
X176607217Y-101676200D01*
X176960783Y-101676200D01*
X177378750Y-101593061D01*
X177733085Y-101356302D01*
X177969844Y-101001967D01*
X178052983Y-100584000D01*
X177969844Y-100166033D01*
X177733085Y-99811698D01*
X177378750Y-99574939D01*
X176960783Y-99491800D01*
X176607217Y-99491800D01*
X176203213Y-99572161D01*
X175818800Y-99187748D01*
X175818800Y-98792184D01*
X175834915Y-98816302D01*
X176189250Y-99053061D01*
X176607217Y-99136200D01*
X176960783Y-99136200D01*
X177378750Y-99053061D01*
X177733085Y-98816302D01*
X177969844Y-98461967D01*
X178052983Y-98044000D01*
X177969844Y-97626033D01*
X177733085Y-97271698D01*
X177378750Y-97034939D01*
X176960783Y-96951800D01*
X176607217Y-96951800D01*
X176203213Y-97032161D01*
X175771730Y-96600678D01*
X177800000Y-96600678D01*
X177884714Y-96584738D01*
X177962518Y-96534672D01*
X178014715Y-96458280D01*
X178033078Y-96367600D01*
X178033078Y-94640400D01*
X178017138Y-94555686D01*
X177967072Y-94477882D01*
X177890680Y-94425685D01*
X177800000Y-94407322D01*
X175768000Y-94407322D01*
X175683286Y-94423262D01*
X175605482Y-94473328D01*
X175553285Y-94549720D01*
X175534922Y-94640400D01*
X175534922Y-96367600D01*
X175535319Y-96369711D01*
X175489078Y-96338814D01*
X175489078Y-94636400D01*
X175473138Y-94551686D01*
X175423072Y-94473882D01*
X175346680Y-94421685D01*
X175256000Y-94403322D01*
X173224000Y-94403322D01*
X173139286Y-94419262D01*
X173061482Y-94469328D01*
X173009285Y-94545720D01*
X172990922Y-94636400D01*
X172990922Y-96291400D01*
X172897052Y-96291400D01*
X167944755Y-91339103D01*
X167944884Y-91192026D01*
X167871567Y-91014586D01*
X167735928Y-90878710D01*
X167558616Y-90805084D01*
X167366626Y-90804916D01*
X167189186Y-90878233D01*
X167053310Y-91013872D01*
X166979684Y-91191184D01*
X166979577Y-91313022D01*
X166858626Y-91312916D01*
X166681186Y-91386233D01*
X166545310Y-91521872D01*
X166471684Y-91699184D01*
X166471516Y-91891174D01*
X166544833Y-92068614D01*
X166680472Y-92204490D01*
X166857784Y-92278116D01*
X166903444Y-92278156D01*
X166903316Y-92424574D01*
X166976633Y-92602014D01*
X167033722Y-92659203D01*
X166951710Y-92741072D01*
X166945137Y-92756902D01*
X166771216Y-92684684D01*
X166579226Y-92684516D01*
X166401786Y-92757833D01*
X166265910Y-92893472D01*
X166212832Y-93021298D01*
X166136216Y-92989484D01*
X165944226Y-92989316D01*
X165766786Y-93062633D01*
X165630910Y-93198272D01*
X165572572Y-93338766D01*
X165526616Y-93319684D01*
X165334626Y-93319516D01*
X165157186Y-93392833D01*
X165021310Y-93528472D01*
X164962972Y-93668966D01*
X164917016Y-93649884D01*
X164725026Y-93649716D01*
X164547586Y-93723033D01*
X164411710Y-93858672D01*
X164353372Y-93999166D01*
X164307416Y-93980084D01*
X164115426Y-93979916D01*
X163937986Y-94053233D01*
X163802110Y-94188872D01*
X163736301Y-94347358D01*
X163647016Y-94310284D01*
X163455026Y-94310116D01*
X163277586Y-94383433D01*
X163141710Y-94519072D01*
X163068084Y-94696384D01*
X163067916Y-94888374D01*
X163141233Y-95065814D01*
X163198366Y-95123047D01*
X163065510Y-95255672D01*
X162991884Y-95432984D01*
X162991716Y-95624974D01*
X161743096Y-95624974D01*
X161442250Y-95323603D01*
X160715295Y-95021744D01*
X159928159Y-95021057D01*
X159200677Y-95321647D01*
X158643603Y-95877750D01*
X158341744Y-96604705D01*
X158341057Y-97391841D01*
X144385653Y-97391841D01*
X151411447Y-90366047D01*
X151488532Y-90250682D01*
X151515600Y-90114600D01*
X151515600Y-88565600D01*
X152333075Y-88565600D01*
X152386272Y-88618890D01*
X152563584Y-88692516D01*
X152755574Y-88692684D01*
X152933014Y-88619367D01*
X153068890Y-88483728D01*
X153142516Y-88306416D01*
X153142666Y-88134000D01*
X163465922Y-88134000D01*
X163465922Y-90166000D01*
X163481862Y-90250714D01*
X163531928Y-90328518D01*
X163608320Y-90380715D01*
X163699000Y-90399078D01*
X165731000Y-90399078D01*
X165815714Y-90383138D01*
X165893518Y-90333072D01*
X165945715Y-90256680D01*
X165964078Y-90166000D01*
X165964078Y-89560400D01*
X168041922Y-89560400D01*
X168041922Y-91287600D01*
X168057862Y-91372314D01*
X168107928Y-91450118D01*
X168184320Y-91502315D01*
X168275000Y-91520678D01*
X170307000Y-91520678D01*
X170391714Y-91504738D01*
X170469518Y-91454672D01*
X170496769Y-91414790D01*
X170516928Y-91446118D01*
X170593320Y-91498315D01*
X170684000Y-91516678D01*
X172716000Y-91516678D01*
X172800714Y-91500738D01*
X172878518Y-91450672D01*
X172930715Y-91374280D01*
X172949078Y-91283600D01*
X172949078Y-89556400D01*
X172990922Y-89556400D01*
X172990922Y-91283600D01*
X173006862Y-91368314D01*
X173056928Y-91446118D01*
X173133320Y-91498315D01*
X173224000Y-91516678D01*
X175256000Y-91516678D01*
X175340714Y-91500738D01*
X175418518Y-91450672D01*
X175470715Y-91374280D01*
X175489078Y-91283600D01*
X175489078Y-89556400D01*
X175530922Y-89556400D01*
X175530922Y-91283600D01*
X175546862Y-91368314D01*
X175596928Y-91446118D01*
X175673320Y-91498315D01*
X175764000Y-91516678D01*
X177796000Y-91516678D01*
X177880714Y-91500738D01*
X177958518Y-91450672D01*
X178010715Y-91374280D01*
X178029078Y-91283600D01*
X178029078Y-89556400D01*
X178013138Y-89471686D01*
X177963072Y-89393882D01*
X177886680Y-89341685D01*
X177796000Y-89323322D01*
X175764000Y-89323322D01*
X175679286Y-89339262D01*
X175601482Y-89389328D01*
X175549285Y-89465720D01*
X175530922Y-89556400D01*
X175489078Y-89556400D01*
X175473138Y-89471686D01*
X175423072Y-89393882D01*
X175346680Y-89341685D01*
X175256000Y-89323322D01*
X173224000Y-89323322D01*
X173139286Y-89339262D01*
X173061482Y-89389328D01*
X173009285Y-89465720D01*
X172990922Y-89556400D01*
X172949078Y-89556400D01*
X172933138Y-89471686D01*
X172883072Y-89393882D01*
X172806680Y-89341685D01*
X172716000Y-89323322D01*
X170684000Y-89323322D01*
X170599286Y-89339262D01*
X170521482Y-89389328D01*
X170494231Y-89429210D01*
X170474072Y-89397882D01*
X170397680Y-89345685D01*
X170307000Y-89327322D01*
X168275000Y-89327322D01*
X168190286Y-89343262D01*
X168112482Y-89393328D01*
X168060285Y-89469720D01*
X168041922Y-89560400D01*
X165964078Y-89560400D01*
X165964078Y-88243647D01*
X168004458Y-88243647D01*
X168162636Y-88561683D01*
X168496265Y-88883583D01*
X168927684Y-89053305D01*
X169113200Y-88990353D01*
X169113200Y-88061800D01*
X169468800Y-88061800D01*
X169468800Y-88990353D01*
X169654316Y-89053305D01*
X170085735Y-88883583D01*
X170419364Y-88561683D01*
X170496495Y-88406602D01*
X170571636Y-88557683D01*
X170905265Y-88879583D01*
X171336684Y-89049305D01*
X171522200Y-88986353D01*
X171522200Y-88057800D01*
X171877800Y-88057800D01*
X171877800Y-88986353D01*
X172063316Y-89049305D01*
X172494735Y-88879583D01*
X172828364Y-88557683D01*
X172970000Y-88272907D01*
X173111636Y-88557683D01*
X173445265Y-88879583D01*
X173876684Y-89049305D01*
X174062200Y-88986353D01*
X174062200Y-88057800D01*
X174417800Y-88057800D01*
X174417800Y-88986353D01*
X174603316Y-89049305D01*
X175034735Y-88879583D01*
X175368364Y-88557683D01*
X175510000Y-88272907D01*
X175651636Y-88557683D01*
X175985265Y-88879583D01*
X176416684Y-89049305D01*
X176602200Y-88986353D01*
X176602200Y-88057800D01*
X176957800Y-88057800D01*
X176957800Y-88986353D01*
X177143316Y-89049305D01*
X177574735Y-88879583D01*
X177908364Y-88557683D01*
X178066542Y-88239647D01*
X178026295Y-88057800D01*
X176957800Y-88057800D01*
X176602200Y-88057800D01*
X175533705Y-88057800D01*
X175510000Y-88164906D01*
X175486295Y-88057800D01*
X174417800Y-88057800D01*
X174062200Y-88057800D01*
X172993705Y-88057800D01*
X172970000Y-88164906D01*
X172946295Y-88057800D01*
X171877800Y-88057800D01*
X171522200Y-88057800D01*
X170453705Y-88057800D01*
X170452820Y-88061800D01*
X169468800Y-88061800D01*
X169113200Y-88061800D01*
X168044705Y-88061800D01*
X168004458Y-88243647D01*
X165964078Y-88243647D01*
X165964078Y-88134000D01*
X165948138Y-88049286D01*
X165898072Y-87971482D01*
X165821680Y-87919285D01*
X165731000Y-87900922D01*
X163699000Y-87900922D01*
X163614286Y-87916862D01*
X163536482Y-87966928D01*
X163484285Y-88043320D01*
X163465922Y-88134000D01*
X153142666Y-88134000D01*
X153142684Y-88114426D01*
X153069367Y-87936986D01*
X152933728Y-87801110D01*
X152756416Y-87727484D01*
X152564426Y-87727316D01*
X152386986Y-87800633D01*
X152333125Y-87854400D01*
X151486925Y-87854400D01*
X151433728Y-87801110D01*
X151256416Y-87727484D01*
X151064426Y-87727316D01*
X150886986Y-87800633D01*
X150751110Y-87936272D01*
X150677484Y-88113584D01*
X150677316Y-88305574D01*
X150750633Y-88483014D01*
X150804400Y-88536875D01*
X150804400Y-89967306D01*
X147548551Y-93223155D01*
X147548684Y-93071626D01*
X147475367Y-92894186D01*
X147339728Y-92758310D01*
X147162416Y-92684684D01*
X147014406Y-92684554D01*
X146593024Y-92263172D01*
X146690184Y-92303516D01*
X146882174Y-92303684D01*
X147059614Y-92230367D01*
X147195490Y-92094728D01*
X147269116Y-91917416D01*
X147269284Y-91725426D01*
X147195967Y-91547986D01*
X147060328Y-91412110D01*
X146883016Y-91338484D01*
X146837356Y-91338444D01*
X146837484Y-91192026D01*
X146764167Y-91014586D01*
X146628528Y-90878710D01*
X146451216Y-90805084D01*
X146303206Y-90804954D01*
X145198726Y-89700474D01*
X145099842Y-89634402D01*
X144983200Y-89611200D01*
X138683252Y-89611200D01*
X137820355Y-88748303D01*
X137820484Y-88601226D01*
X137747167Y-88423786D01*
X137611528Y-88287910D01*
X137434216Y-88214284D01*
X137242226Y-88214116D01*
X137064786Y-88287433D01*
X137058400Y-88293808D01*
X137058400Y-86610000D01*
X163446017Y-86610000D01*
X163540757Y-87086288D01*
X163810552Y-87490065D01*
X164214329Y-87759860D01*
X164690617Y-87854600D01*
X164739383Y-87854600D01*
X165215671Y-87759860D01*
X165568132Y-87524353D01*
X168004458Y-87524353D01*
X168044705Y-87706200D01*
X169113200Y-87706200D01*
X169113200Y-86777647D01*
X169468800Y-86777647D01*
X169468800Y-87706200D01*
X170537295Y-87706200D01*
X170538180Y-87702200D01*
X171522200Y-87702200D01*
X171522200Y-86773647D01*
X171877800Y-86773647D01*
X171877800Y-87702200D01*
X172946295Y-87702200D01*
X172970000Y-87595094D01*
X172993705Y-87702200D01*
X174062200Y-87702200D01*
X174062200Y-86773647D01*
X174417800Y-86773647D01*
X174417800Y-87702200D01*
X175486295Y-87702200D01*
X175510000Y-87595094D01*
X175533705Y-87702200D01*
X176602200Y-87702200D01*
X176602200Y-86773647D01*
X176957800Y-86773647D01*
X176957800Y-87702200D01*
X178026295Y-87702200D01*
X178066542Y-87520353D01*
X177908364Y-87202317D01*
X177574735Y-86880417D01*
X177143316Y-86710695D01*
X176957800Y-86773647D01*
X176602200Y-86773647D01*
X176416684Y-86710695D01*
X175985265Y-86880417D01*
X175651636Y-87202317D01*
X175510000Y-87487093D01*
X175368364Y-87202317D01*
X175034735Y-86880417D01*
X174603316Y-86710695D01*
X174417800Y-86773647D01*
X174062200Y-86773647D01*
X173876684Y-86710695D01*
X173445265Y-86880417D01*
X173111636Y-87202317D01*
X172970000Y-87487093D01*
X172828364Y-87202317D01*
X172494735Y-86880417D01*
X172063316Y-86710695D01*
X171877800Y-86773647D01*
X171522200Y-86773647D01*
X171336684Y-86710695D01*
X170905265Y-86880417D01*
X170571636Y-87202317D01*
X170494505Y-87357398D01*
X170419364Y-87206317D01*
X170085735Y-86884417D01*
X169654316Y-86714695D01*
X169468800Y-86777647D01*
X169113200Y-86777647D01*
X168927684Y-86714695D01*
X168496265Y-86884417D01*
X168162636Y-87206317D01*
X168004458Y-87524353D01*
X165568132Y-87524353D01*
X165619448Y-87490065D01*
X165889243Y-87086288D01*
X165983983Y-86610000D01*
X165889243Y-86133712D01*
X165619448Y-85729935D01*
X165215671Y-85460140D01*
X164739383Y-85365400D01*
X164690617Y-85365400D01*
X164214329Y-85460140D01*
X163810552Y-85729935D01*
X163540757Y-86133712D01*
X163446017Y-86610000D01*
X137058400Y-86610000D01*
X137058400Y-85344000D01*
X168022017Y-85344000D01*
X168105156Y-85761967D01*
X168341915Y-86116302D01*
X168696250Y-86353061D01*
X169114217Y-86436200D01*
X169467783Y-86436200D01*
X169885750Y-86353061D01*
X170240085Y-86116302D01*
X170476844Y-85761967D01*
X170495898Y-85666177D01*
X170514156Y-85757967D01*
X170750915Y-86112302D01*
X171105250Y-86349061D01*
X171523217Y-86432200D01*
X171876783Y-86432200D01*
X172294750Y-86349061D01*
X172649085Y-86112302D01*
X172885844Y-85757967D01*
X172968983Y-85340000D01*
X172971017Y-85340000D01*
X173054156Y-85757967D01*
X173290915Y-86112302D01*
X173645250Y-86349061D01*
X174063217Y-86432200D01*
X174416783Y-86432200D01*
X174834750Y-86349061D01*
X175189085Y-86112302D01*
X175425844Y-85757967D01*
X175508983Y-85340000D01*
X175511017Y-85340000D01*
X175594156Y-85757967D01*
X175830915Y-86112302D01*
X176185250Y-86349061D01*
X176603217Y-86432200D01*
X176956783Y-86432200D01*
X177374750Y-86349061D01*
X177729085Y-86112302D01*
X177965844Y-85757967D01*
X178048983Y-85340000D01*
X177965844Y-84922033D01*
X177729085Y-84567698D01*
X177374750Y-84330939D01*
X176956783Y-84247800D01*
X176603217Y-84247800D01*
X176185250Y-84330939D01*
X175830915Y-84567698D01*
X175594156Y-84922033D01*
X175511017Y-85340000D01*
X175508983Y-85340000D01*
X175425844Y-84922033D01*
X175189085Y-84567698D01*
X174834750Y-84330939D01*
X174416783Y-84247800D01*
X174063217Y-84247800D01*
X173645250Y-84330939D01*
X173290915Y-84567698D01*
X173054156Y-84922033D01*
X172971017Y-85340000D01*
X172968983Y-85340000D01*
X172885844Y-84922033D01*
X172649085Y-84567698D01*
X172294750Y-84330939D01*
X171876783Y-84247800D01*
X171523217Y-84247800D01*
X171105250Y-84330939D01*
X170750915Y-84567698D01*
X170514156Y-84922033D01*
X170495102Y-85017823D01*
X170476844Y-84926033D01*
X170240085Y-84571698D01*
X169885750Y-84334939D01*
X169467783Y-84251800D01*
X169114217Y-84251800D01*
X168696250Y-84334939D01*
X168341915Y-84571698D01*
X168105156Y-84926033D01*
X168022017Y-85344000D01*
X137058400Y-85344000D01*
X137058400Y-84682852D01*
X137540297Y-84200955D01*
X137687374Y-84201084D01*
X137864814Y-84127767D01*
X138000690Y-83992128D01*
X138074316Y-83814816D01*
X138074484Y-83622826D01*
X138001167Y-83445386D01*
X137865528Y-83309510D01*
X137688216Y-83235884D01*
X137496226Y-83235716D01*
X137318786Y-83309033D01*
X137182910Y-83444672D01*
X137109284Y-83621984D01*
X137109154Y-83769994D01*
X136538074Y-84341074D01*
X136472002Y-84439958D01*
X136448800Y-84556600D01*
X136448800Y-91795600D01*
X136472002Y-91912242D01*
X136538074Y-92011126D01*
X136741274Y-92214326D01*
X136840158Y-92280398D01*
X136956800Y-92303600D01*
X137566400Y-92303600D01*
X137683042Y-92280398D01*
X137781926Y-92214326D01*
X138149852Y-91846400D01*
X141561087Y-91846400D01*
X141501110Y-91906272D01*
X141427484Y-92083584D01*
X141427354Y-92231594D01*
X141122755Y-92536193D01*
X141069367Y-92406986D01*
X140933728Y-92271110D01*
X140756416Y-92197484D01*
X140564426Y-92197316D01*
X140386986Y-92270633D01*
X140251110Y-92406272D01*
X140177484Y-92583584D01*
X140177354Y-92731594D01*
X139872755Y-93036193D01*
X139819367Y-92906986D01*
X139683728Y-92771110D01*
X139506416Y-92697484D01*
X139314426Y-92697316D01*
X139136986Y-92770633D01*
X139001110Y-92906272D01*
X138927484Y-93083584D01*
X138927354Y-93231594D01*
X137033748Y-95125200D01*
X135660000Y-95125200D01*
X135543358Y-95148402D01*
X135486900Y-95186126D01*
X135444474Y-95214474D01*
X134194474Y-96464474D01*
X134128402Y-96563358D01*
X134105200Y-96680000D01*
X134105200Y-97052364D01*
X134001110Y-97156272D01*
X133927484Y-97333584D01*
X133927316Y-97525574D01*
X121604159Y-97525574D01*
X121658256Y-97395295D01*
X121658943Y-96608159D01*
X121358353Y-95880677D01*
X120802250Y-95323603D01*
X120075295Y-95021744D01*
X119288159Y-95021057D01*
X118560677Y-95321647D01*
X118003603Y-95877750D01*
X117701744Y-96604705D01*
X117701057Y-97391841D01*
X113356200Y-97391841D01*
X113356200Y-93511574D01*
X128451316Y-93511574D01*
X128524633Y-93689014D01*
X128660272Y-93824890D01*
X128837584Y-93898516D01*
X129029574Y-93898684D01*
X129207014Y-93825367D01*
X129267687Y-93764800D01*
X131032364Y-93764800D01*
X131136272Y-93868890D01*
X131313584Y-93942516D01*
X131505574Y-93942684D01*
X131683014Y-93869367D01*
X131818890Y-93733728D01*
X131892516Y-93556416D01*
X131892684Y-93364426D01*
X131819367Y-93186986D01*
X131683728Y-93051110D01*
X131506416Y-92977484D01*
X131392585Y-92977384D01*
X131392684Y-92864426D01*
X131319367Y-92686986D01*
X131183728Y-92551110D01*
X131006416Y-92477484D01*
X130814426Y-92477316D01*
X130636986Y-92550633D01*
X130532236Y-92655200D01*
X129797599Y-92655200D01*
X129797684Y-92558426D01*
X129724367Y-92380986D01*
X129588728Y-92245110D01*
X129411416Y-92171484D01*
X129219426Y-92171316D01*
X129041986Y-92244633D01*
X128906110Y-92380272D01*
X128832484Y-92557584D01*
X128832316Y-92749574D01*
X128905633Y-92927014D01*
X128911988Y-92933380D01*
X128838426Y-92933316D01*
X128660986Y-93006633D01*
X128525110Y-93142272D01*
X128451484Y-93319584D01*
X128451316Y-93511574D01*
X113356200Y-93511574D01*
X113356200Y-87305574D01*
X129177316Y-87305574D01*
X129250633Y-87483014D01*
X129386272Y-87618890D01*
X129563584Y-87692516D01*
X129755574Y-87692684D01*
X129933014Y-87619367D01*
X130037764Y-87514800D01*
X130532364Y-87514800D01*
X130636272Y-87618890D01*
X130813584Y-87692516D01*
X131005574Y-87692684D01*
X131183014Y-87619367D01*
X131318890Y-87483728D01*
X131392516Y-87306416D01*
X131392684Y-87114426D01*
X131319367Y-86936986D01*
X131183728Y-86801110D01*
X131006416Y-86727484D01*
X130814426Y-86727316D01*
X130636986Y-86800633D01*
X130532236Y-86905200D01*
X130037636Y-86905200D01*
X129933728Y-86801110D01*
X129756416Y-86727484D01*
X129564426Y-86727316D01*
X129386986Y-86800633D01*
X129251110Y-86936272D01*
X129177484Y-87113584D01*
X129177316Y-87305574D01*
X113356200Y-87305574D01*
X113356200Y-75350000D01*
X119566922Y-75350000D01*
X119566922Y-77050000D01*
X119582862Y-77134714D01*
X119632928Y-77212518D01*
X119709320Y-77264715D01*
X119800000Y-77283078D01*
X121500000Y-77283078D01*
X121584714Y-77267138D01*
X121662518Y-77217072D01*
X121714715Y-77140680D01*
X121733078Y-77050000D01*
X121733078Y-75350000D01*
X121717138Y-75265286D01*
X121667072Y-75187482D01*
X121590680Y-75135285D01*
X121500000Y-75116922D01*
X119800000Y-75116922D01*
X119715286Y-75132862D01*
X119637482Y-75182928D01*
X119585285Y-75259320D01*
X119566922Y-75350000D01*
X113356200Y-75350000D01*
X113356200Y-72105988D01*
X119995460Y-72105988D01*
X120096737Y-72263993D01*
X120546024Y-72394726D01*
X121011141Y-72343573D01*
X121203263Y-72263993D01*
X121304540Y-72105988D01*
X120650000Y-71451447D01*
X119995460Y-72105988D01*
X113356200Y-72105988D01*
X113356200Y-71096024D01*
X119455274Y-71096024D01*
X119506427Y-71561141D01*
X119586007Y-71753263D01*
X119744012Y-71854540D01*
X120398553Y-71200000D01*
X120901447Y-71200000D01*
X121555988Y-71854540D01*
X121713993Y-71753263D01*
X121844726Y-71303976D01*
X121793573Y-70838859D01*
X121713993Y-70646737D01*
X121555988Y-70545460D01*
X120901447Y-71200000D01*
X120398553Y-71200000D01*
X119744012Y-70545460D01*
X119586007Y-70646737D01*
X119455274Y-71096024D01*
X113356200Y-71096024D01*
X113356200Y-70294012D01*
X119995460Y-70294012D01*
X120650000Y-70948553D01*
X121304540Y-70294012D01*
X121203263Y-70136007D01*
X120753976Y-70005274D01*
X120288859Y-70056427D01*
X120096737Y-70136007D01*
X119995460Y-70294012D01*
X113356200Y-70294012D01*
X113356200Y-69003486D01*
X128271400Y-69003486D01*
X128271400Y-78796514D01*
X128479102Y-79840704D01*
X129070588Y-80725926D01*
X129955810Y-81317412D01*
X131000000Y-81525114D01*
X132044190Y-81317412D01*
X132929412Y-80725926D01*
X133520898Y-79840704D01*
X133728600Y-78796514D01*
X133728600Y-69003486D01*
X134271400Y-69003486D01*
X134271400Y-78796514D01*
X134479102Y-79840704D01*
X135070588Y-80725926D01*
X135955810Y-81317412D01*
X137000000Y-81525114D01*
X138044190Y-81317412D01*
X138929412Y-80725926D01*
X139520898Y-79840704D01*
X139728600Y-78796514D01*
X139728600Y-69003486D01*
X140271400Y-69003486D01*
X140271400Y-78796514D01*
X140479102Y-79840704D01*
X141070588Y-80725926D01*
X141955810Y-81317412D01*
X143000000Y-81525114D01*
X144044190Y-81317412D01*
X144929412Y-80725926D01*
X145520898Y-79840704D01*
X145728600Y-78796514D01*
X145728600Y-69003486D01*
X154271400Y-69003486D01*
X154271400Y-78796514D01*
X154479102Y-79840704D01*
X155070588Y-80725926D01*
X155955810Y-81317412D01*
X157000000Y-81525114D01*
X158044190Y-81317412D01*
X158929412Y-80725926D01*
X159520898Y-79840704D01*
X159728600Y-78796514D01*
X159728600Y-75350000D01*
X166556922Y-75350000D01*
X166556922Y-77050000D01*
X166572862Y-77134714D01*
X166622928Y-77212518D01*
X166699320Y-77264715D01*
X166790000Y-77283078D01*
X168490000Y-77283078D01*
X168574714Y-77267138D01*
X168652518Y-77217072D01*
X168704715Y-77140680D01*
X168723078Y-77050000D01*
X168723078Y-75350000D01*
X168707138Y-75265286D01*
X168657072Y-75187482D01*
X168580680Y-75135285D01*
X168490000Y-75116922D01*
X166790000Y-75116922D01*
X166705286Y-75132862D01*
X166627482Y-75182928D01*
X166575285Y-75259320D01*
X166556922Y-75350000D01*
X159728600Y-75350000D01*
X159728600Y-72105988D01*
X166985460Y-72105988D01*
X167086737Y-72263993D01*
X167536024Y-72394726D01*
X168001141Y-72343573D01*
X168193263Y-72263993D01*
X168294540Y-72105988D01*
X167640000Y-71451447D01*
X166985460Y-72105988D01*
X159728600Y-72105988D01*
X159728600Y-71096024D01*
X166445274Y-71096024D01*
X166496427Y-71561141D01*
X166576007Y-71753263D01*
X166734012Y-71854540D01*
X167388553Y-71200000D01*
X167891447Y-71200000D01*
X168545988Y-71854540D01*
X168703993Y-71753263D01*
X168834726Y-71303976D01*
X168783573Y-70838859D01*
X168703993Y-70646737D01*
X168545988Y-70545460D01*
X167891447Y-71200000D01*
X167388553Y-71200000D01*
X166734012Y-70545460D01*
X166576007Y-70646737D01*
X166445274Y-71096024D01*
X159728600Y-71096024D01*
X159728600Y-70294012D01*
X166985460Y-70294012D01*
X167640000Y-70948553D01*
X168294540Y-70294012D01*
X168193263Y-70136007D01*
X167743976Y-70005274D01*
X167278859Y-70056427D01*
X167086737Y-70136007D01*
X166985460Y-70294012D01*
X159728600Y-70294012D01*
X159728600Y-69003486D01*
X159520898Y-67959296D01*
X158929412Y-67074074D01*
X158044190Y-66482588D01*
X157000000Y-66274886D01*
X155955810Y-66482588D01*
X155070588Y-67074074D01*
X154479102Y-67959296D01*
X154271400Y-69003486D01*
X145728600Y-69003486D01*
X145520898Y-67959296D01*
X144929412Y-67074074D01*
X144044190Y-66482588D01*
X143000000Y-66274886D01*
X141955810Y-66482588D01*
X141070588Y-67074074D01*
X140479102Y-67959296D01*
X140271400Y-69003486D01*
X139728600Y-69003486D01*
X139520898Y-67959296D01*
X138929412Y-67074074D01*
X138044190Y-66482588D01*
X137000000Y-66274886D01*
X135955810Y-66482588D01*
X135070588Y-67074074D01*
X134479102Y-67959296D01*
X134271400Y-69003486D01*
X133728600Y-69003486D01*
X133520898Y-67959296D01*
X132929412Y-67074074D01*
X132044190Y-66482588D01*
X131000000Y-66274886D01*
X129955810Y-66482588D01*
X129070588Y-67074074D01*
X128479102Y-67959296D01*
X128271400Y-69003486D01*
X113356200Y-69003486D01*
X113356200Y-64461200D01*
X178608800Y-64461200D01*
X178608800Y-119172800D01*
X178608800Y-119172800D01*
G37*
X178608800Y-119172800D02*
X113356200Y-119172800D01*
X113356200Y-115796178D01*
X122499228Y-115796178D01*
X122649721Y-116160397D01*
X122928138Y-116439300D01*
X123292093Y-116590428D01*
X123686178Y-116590772D01*
X124050397Y-116440279D01*
X124329300Y-116161862D01*
X124480428Y-115797907D01*
X124480429Y-115796178D01*
X125039228Y-115796178D01*
X125189721Y-116160397D01*
X125468138Y-116439300D01*
X125832093Y-116590428D01*
X126226178Y-116590772D01*
X126590397Y-116440279D01*
X126869300Y-116161862D01*
X127020428Y-115797907D01*
X127020429Y-115796178D01*
X127579228Y-115796178D01*
X127729721Y-116160397D01*
X128008138Y-116439300D01*
X128372093Y-116590428D01*
X128766178Y-116590772D01*
X129130397Y-116440279D01*
X129409300Y-116161862D01*
X129560428Y-115797907D01*
X129560429Y-115796178D01*
X130119228Y-115796178D01*
X130269721Y-116160397D01*
X130548138Y-116439300D01*
X130912093Y-116590428D01*
X131306178Y-116590772D01*
X131670397Y-116440279D01*
X131949300Y-116161862D01*
X132100428Y-115797907D01*
X132100429Y-115796178D01*
X132659228Y-115796178D01*
X132809721Y-116160397D01*
X133088138Y-116439300D01*
X133452093Y-116590428D01*
X133846178Y-116590772D01*
X134210397Y-116440279D01*
X134489300Y-116161862D01*
X134640428Y-115797907D01*
X134640429Y-115796178D01*
X135199228Y-115796178D01*
X135349721Y-116160397D01*
X135628138Y-116439300D01*
X135992093Y-116590428D01*
X136386178Y-116590772D01*
X136750397Y-116440279D01*
X137029300Y-116161862D01*
X137180428Y-115797907D01*
X137180429Y-115796178D01*
X137739228Y-115796178D01*
X137889721Y-116160397D01*
X138168138Y-116439300D01*
X138532093Y-116590428D01*
X138926178Y-116590772D01*
X139290397Y-116440279D01*
X139569300Y-116161862D01*
X139720428Y-115797907D01*
X139720772Y-115403822D01*
X139570279Y-115039603D01*
X139291862Y-114760700D01*
X138927907Y-114609572D01*
X138533822Y-114609228D01*
X138169603Y-114759721D01*
X137890700Y-115038138D01*
X137739572Y-115402093D01*
X137739228Y-115796178D01*
X137180429Y-115796178D01*
X137180772Y-115403822D01*
X137030279Y-115039603D01*
X136751862Y-114760700D01*
X136545600Y-114675052D01*
X136545600Y-114020294D01*
X136932320Y-113633574D01*
X138074316Y-113633574D01*
X138147633Y-113811014D01*
X138283272Y-113946890D01*
X138460584Y-114020516D01*
X138536689Y-114020583D01*
X139194553Y-114678447D01*
X139309917Y-114755532D01*
X139446000Y-114782600D01*
X140686684Y-114782600D01*
X140430700Y-115038138D01*
X140279572Y-115402093D01*
X140279228Y-115796178D01*
X140429721Y-116160397D01*
X140708138Y-116439300D01*
X141072093Y-116590428D01*
X141466178Y-116590772D01*
X141830397Y-116440279D01*
X142109300Y-116161862D01*
X142260428Y-115797907D01*
X142260772Y-115403822D01*
X142110279Y-115039603D01*
X141853724Y-114782600D01*
X143226684Y-114782600D01*
X142970700Y-115038138D01*
X142819572Y-115402093D01*
X142819228Y-115796178D01*
X142969721Y-116160397D01*
X143248138Y-116439300D01*
X143612093Y-116590428D01*
X144006178Y-116590772D01*
X144370397Y-116440279D01*
X144649300Y-116161862D01*
X144800428Y-115797907D01*
X144800772Y-115403822D01*
X144650279Y-115039603D01*
X144393724Y-114782600D01*
X145766684Y-114782600D01*
X145510700Y-115038138D01*
X145359572Y-115402093D01*
X145359228Y-115796178D01*
X145509721Y-116160397D01*
X145788138Y-116439300D01*
X146152093Y-116590428D01*
X146546178Y-116590772D01*
X146910397Y-116440279D01*
X147189300Y-116161862D01*
X147340428Y-115797907D01*
X147340772Y-115403822D01*
X147190279Y-115039603D01*
X146933724Y-114782600D01*
X148306684Y-114782600D01*
X148050700Y-115038138D01*
X147899572Y-115402093D01*
X147899228Y-115796178D01*
X148049721Y-116160397D01*
X148328138Y-116439300D01*
X148692093Y-116590428D01*
X149086178Y-116590772D01*
X149450397Y-116440279D01*
X149729300Y-116161862D01*
X149880428Y-115797907D01*
X149880772Y-115403822D01*
X149730279Y-115039603D01*
X149473724Y-114782600D01*
X150109706Y-114782600D01*
X150524550Y-115197444D01*
X150439572Y-115402093D01*
X150439228Y-115796178D01*
X150589721Y-116160397D01*
X150868138Y-116439300D01*
X151232093Y-116590428D01*
X151626178Y-116590772D01*
X151987074Y-116441652D01*
X153379795Y-116441652D01*
X153470113Y-116590527D01*
X153887223Y-116706426D01*
X154316935Y-116653882D01*
X154469887Y-116590527D01*
X154560205Y-116441652D01*
X153970000Y-115851447D01*
X153379795Y-116441652D01*
X151987074Y-116441652D01*
X151990397Y-116440279D01*
X152269300Y-116161862D01*
X152420428Y-115797907D01*
X152420673Y-115517223D01*
X152863574Y-115517223D01*
X152916118Y-115946935D01*
X152979473Y-116099887D01*
X153128348Y-116190205D01*
X153718553Y-115600000D01*
X154221447Y-115600000D01*
X154811652Y-116190205D01*
X154960527Y-116099887D01*
X155044916Y-115796178D01*
X155519228Y-115796178D01*
X155669721Y-116160397D01*
X155948138Y-116439300D01*
X156312093Y-116590428D01*
X156706178Y-116590772D01*
X157070397Y-116440279D01*
X157349300Y-116161862D01*
X157500428Y-115797907D01*
X157500772Y-115403822D01*
X157350279Y-115039603D01*
X157071862Y-114760700D01*
X156707907Y-114609572D01*
X156313822Y-114609228D01*
X155949603Y-114759721D01*
X155670700Y-115038138D01*
X155519572Y-115402093D01*
X155519228Y-115796178D01*
X155044916Y-115796178D01*
X155076426Y-115682777D01*
X155023882Y-115253065D01*
X154960527Y-115100113D01*
X154811652Y-115009795D01*
X154221447Y-115600000D01*
X153718553Y-115600000D01*
X153128348Y-115009795D01*
X152979473Y-115100113D01*
X152863574Y-115517223D01*
X152420673Y-115517223D01*
X152420772Y-115403822D01*
X152270279Y-115039603D01*
X151991862Y-114760700D01*
X151986198Y-114758348D01*
X153379795Y-114758348D01*
X153970000Y-115348553D01*
X154560205Y-114758348D01*
X154469887Y-114609473D01*
X154052777Y-114493574D01*
X153623065Y-114546118D01*
X153470113Y-114609473D01*
X153379795Y-114758348D01*
X151986198Y-114758348D01*
X151627907Y-114609572D01*
X151233822Y-114609228D01*
X151027410Y-114694516D01*
X150508447Y-114175553D01*
X150393083Y-114098468D01*
X150257000Y-114071400D01*
X139593294Y-114071400D01*
X139039618Y-113517724D01*
X139039684Y-113442426D01*
X138966367Y-113264986D01*
X138830728Y-113129110D01*
X138653416Y-113055484D01*
X138461426Y-113055316D01*
X138283986Y-113128633D01*
X138148110Y-113264272D01*
X138074484Y-113441584D01*
X138074316Y-113633574D01*
X136932320Y-113633574D01*
X137053276Y-113512618D01*
X137128574Y-113512684D01*
X137306014Y-113439367D01*
X137441890Y-113303728D01*
X137515516Y-113126416D01*
X137515684Y-112934426D01*
X137442367Y-112756986D01*
X137306728Y-112621110D01*
X137129416Y-112547484D01*
X136937426Y-112547316D01*
X136759986Y-112620633D01*
X136624110Y-112756272D01*
X136550484Y-112933584D01*
X136550417Y-113009689D01*
X135938553Y-113621553D01*
X135861468Y-113736917D01*
X135834400Y-113873000D01*
X135834400Y-114675100D01*
X135629603Y-114759721D01*
X135350700Y-115038138D01*
X135199572Y-115402093D01*
X135199228Y-115796178D01*
X134640429Y-115796178D01*
X134640772Y-115403822D01*
X134490279Y-115039603D01*
X134211862Y-114760700D01*
X134005600Y-114675052D01*
X134005600Y-113691784D01*
X134139890Y-113557728D01*
X134213516Y-113380416D01*
X134213684Y-113188426D01*
X134140367Y-113010986D01*
X134004728Y-112875110D01*
X133827416Y-112801484D01*
X133635426Y-112801316D01*
X133457986Y-112874633D01*
X133322110Y-113010272D01*
X133248484Y-113187584D01*
X133248316Y-113379574D01*
X133294400Y-113491105D01*
X133294400Y-114675100D01*
X133089603Y-114759721D01*
X132810700Y-115038138D01*
X132659572Y-115402093D01*
X132659228Y-115796178D01*
X132100429Y-115796178D01*
X132100772Y-115403822D01*
X131950279Y-115039603D01*
X131671862Y-114760700D01*
X131307907Y-114609572D01*
X130913822Y-114609228D01*
X130549603Y-114759721D01*
X130270700Y-115038138D01*
X130119572Y-115402093D01*
X130119228Y-115796178D01*
X129560429Y-115796178D01*
X129560772Y-115403822D01*
X129410279Y-115039603D01*
X129131862Y-114760700D01*
X128767907Y-114609572D01*
X128373822Y-114609228D01*
X128009603Y-114759721D01*
X127730700Y-115038138D01*
X127579572Y-115402093D01*
X127579228Y-115796178D01*
X127020429Y-115796178D01*
X127020772Y-115403822D01*
X126870279Y-115039603D01*
X126591862Y-114760700D01*
X126227907Y-114609572D01*
X125833822Y-114609228D01*
X125469603Y-114759721D01*
X125190700Y-115038138D01*
X125039572Y-115402093D01*
X125039228Y-115796178D01*
X124480429Y-115796178D01*
X124480772Y-115403822D01*
X124330279Y-115039603D01*
X124051862Y-114760700D01*
X123687907Y-114609572D01*
X123293822Y-114609228D01*
X122929603Y-114759721D01*
X122650700Y-115038138D01*
X122499572Y-115402093D01*
X122499228Y-115796178D01*
X113356200Y-115796178D01*
X113356200Y-99025574D01*
X136927316Y-99025574D01*
X137000633Y-99203014D01*
X137136272Y-99338890D01*
X137313584Y-99412516D01*
X137505574Y-99412684D01*
X137683014Y-99339367D01*
X137818890Y-99203728D01*
X137892516Y-99026416D01*
X137892646Y-98878406D01*
X138358497Y-98412555D01*
X138427415Y-98412616D01*
X138427354Y-98481594D01*
X138194474Y-98714474D01*
X138128402Y-98813358D01*
X138105200Y-98930000D01*
X138105200Y-99052364D01*
X138001110Y-99156272D01*
X137927484Y-99333584D01*
X137927316Y-99525574D01*
X138000633Y-99703014D01*
X138136272Y-99838890D01*
X138313584Y-99912516D01*
X138505574Y-99912684D01*
X138683014Y-99839367D01*
X138818890Y-99703728D01*
X138892516Y-99526416D01*
X138892684Y-99334426D01*
X138819367Y-99156986D01*
X138716806Y-99054246D01*
X138858497Y-98912555D01*
X139005574Y-98912684D01*
X139183014Y-98839367D01*
X139318890Y-98703728D01*
X139392516Y-98526416D01*
X139392684Y-98334426D01*
X139319367Y-98156986D01*
X139183728Y-98021110D01*
X139006416Y-97947484D01*
X138892585Y-97947384D01*
X138892684Y-97834426D01*
X138819367Y-97656986D01*
X138683728Y-97521110D01*
X138506416Y-97447484D01*
X138314426Y-97447316D01*
X138136986Y-97520633D01*
X138001110Y-97656272D01*
X137927484Y-97833584D01*
X137927354Y-97981594D01*
X137461503Y-98447445D01*
X137314426Y-98447316D01*
X137136986Y-98520633D01*
X137001110Y-98656272D01*
X136927484Y-98833584D01*
X136927316Y-99025574D01*
X113356200Y-99025574D01*
X113356200Y-97391841D01*
X117701057Y-97391841D01*
X118001647Y-98119323D01*
X118557750Y-98676397D01*
X119284705Y-98978256D01*
X120071841Y-98978943D01*
X120799323Y-98678353D01*
X121356397Y-98122250D01*
X121604159Y-97525574D01*
X133927316Y-97525574D01*
X134000633Y-97703014D01*
X134136272Y-97838890D01*
X134313584Y-97912516D01*
X134505574Y-97912684D01*
X134683014Y-97839367D01*
X134818890Y-97703728D01*
X134892516Y-97526416D01*
X134892616Y-97412585D01*
X134927415Y-97412616D01*
X134927316Y-97525574D01*
X135000633Y-97703014D01*
X135136272Y-97838890D01*
X135313584Y-97912516D01*
X135505574Y-97912684D01*
X135683014Y-97839367D01*
X135818890Y-97703728D01*
X135892516Y-97526416D01*
X135892616Y-97412585D01*
X136005574Y-97412684D01*
X136183014Y-97339367D01*
X136287764Y-97234800D01*
X137910000Y-97234800D01*
X138026642Y-97211598D01*
X138125526Y-97145526D01*
X141108497Y-94162555D01*
X141255574Y-94162684D01*
X141433014Y-94089367D01*
X141568890Y-93953728D01*
X141642516Y-93776416D01*
X141642684Y-93584426D01*
X141569367Y-93406986D01*
X141433728Y-93271110D01*
X141303865Y-93217187D01*
X141858497Y-92662555D01*
X142005574Y-92662684D01*
X142183014Y-92589367D01*
X142316200Y-92456413D01*
X142316200Y-94592964D01*
X142212110Y-94696872D01*
X142138484Y-94874184D01*
X142138316Y-95066174D01*
X142211633Y-95243614D01*
X142347272Y-95379490D01*
X142524584Y-95453116D01*
X142545614Y-95453134D01*
X141377103Y-96621645D01*
X141230026Y-96621516D01*
X141052586Y-96694833D01*
X140916710Y-96830472D01*
X140843084Y-97007784D01*
X140842916Y-97199774D01*
X140916233Y-97377214D01*
X141051872Y-97513090D01*
X141211612Y-97579420D01*
X141077986Y-97634633D01*
X140942110Y-97770272D01*
X140868484Y-97947584D01*
X140868316Y-98139574D01*
X140941633Y-98317014D01*
X141077272Y-98452890D01*
X141254584Y-98526516D01*
X141446574Y-98526684D01*
X141569722Y-98475800D01*
X142116364Y-98475800D01*
X142220272Y-98579890D01*
X142397584Y-98653516D01*
X142589574Y-98653684D01*
X142767014Y-98580367D01*
X142902890Y-98444728D01*
X142976516Y-98267416D01*
X142976684Y-98075426D01*
X142932214Y-97967800D01*
X143662400Y-97967800D01*
X143798483Y-97940732D01*
X143913847Y-97863647D01*
X144385653Y-97391841D01*
X158341057Y-97391841D01*
X158641647Y-98119323D01*
X159197750Y-98676397D01*
X159924705Y-98978256D01*
X160711841Y-98978943D01*
X161439323Y-98678353D01*
X161996397Y-98122250D01*
X162298256Y-97395295D01*
X162298943Y-96608159D01*
X161998353Y-95880677D01*
X161743096Y-95624974D01*
X162991716Y-95624974D01*
X163065033Y-95802414D01*
X163200672Y-95938290D01*
X163377984Y-96011916D01*
X163569974Y-96012084D01*
X163747414Y-95938767D01*
X163852164Y-95834200D01*
X165532548Y-95834200D01*
X170455114Y-100756766D01*
X170408684Y-100868584D01*
X170408516Y-101060574D01*
X170481833Y-101238014D01*
X170617472Y-101373890D01*
X170794784Y-101447516D01*
X170986774Y-101447684D01*
X171119800Y-101392719D01*
X171119800Y-108026948D01*
X170853474Y-108293274D01*
X170787402Y-108392158D01*
X170764200Y-108508800D01*
X170764200Y-111633000D01*
X170787402Y-111749642D01*
X170853474Y-111848526D01*
X170963445Y-111958497D01*
X170963316Y-112105574D01*
X171036633Y-112283014D01*
X171172272Y-112418890D01*
X171349584Y-112492516D01*
X171541574Y-112492684D01*
X171719014Y-112419367D01*
X171854890Y-112283728D01*
X171928516Y-112106416D01*
X171928684Y-111914426D01*
X171855367Y-111736986D01*
X171719728Y-111601110D01*
X171542416Y-111527484D01*
X171394406Y-111527354D01*
X171373800Y-111506748D01*
X171373800Y-109574852D01*
X171428173Y-109629225D01*
X171497833Y-109797814D01*
X171633472Y-109933690D01*
X171810784Y-110007316D01*
X172002774Y-110007484D01*
X172135800Y-109952519D01*
X172135800Y-114020600D01*
X172159002Y-114137242D01*
X172225074Y-114236126D01*
X172990922Y-115001974D01*
X172990922Y-116683600D01*
X173006862Y-116768314D01*
X173056928Y-116846118D01*
X173133320Y-116898315D01*
X173224000Y-116916678D01*
X175256000Y-116916678D01*
X175340714Y-116900738D01*
X175418518Y-116850672D01*
X175470715Y-116774280D01*
X175489078Y-116683600D01*
X175489078Y-114956400D01*
X175530922Y-114956400D01*
X175530922Y-116683600D01*
X175546862Y-116768314D01*
X175596928Y-116846118D01*
X175673320Y-116898315D01*
X175764000Y-116916678D01*
X177796000Y-116916678D01*
X177880714Y-116900738D01*
X177958518Y-116850672D01*
X178010715Y-116774280D01*
X178029078Y-116683600D01*
X178029078Y-114956400D01*
X178013138Y-114871686D01*
X177963072Y-114793882D01*
X177886680Y-114741685D01*
X177796000Y-114723322D01*
X175764000Y-114723322D01*
X175679286Y-114739262D01*
X175601482Y-114789328D01*
X175549285Y-114865720D01*
X175530922Y-114956400D01*
X175489078Y-114956400D01*
X175473138Y-114871686D01*
X175423072Y-114793882D01*
X175346680Y-114741685D01*
X175256000Y-114723322D01*
X173574374Y-114723322D01*
X172745400Y-113894348D01*
X172745400Y-112216452D01*
X173189069Y-112660121D01*
X173054156Y-112862033D01*
X172971017Y-113280000D01*
X173054156Y-113697967D01*
X173290915Y-114052302D01*
X173645250Y-114289061D01*
X174063217Y-114372200D01*
X174416783Y-114372200D01*
X174834750Y-114289061D01*
X175189085Y-114052302D01*
X175425844Y-113697967D01*
X175508983Y-113280000D01*
X175511017Y-113280000D01*
X175594156Y-113697967D01*
X175830915Y-114052302D01*
X176185250Y-114289061D01*
X176603217Y-114372200D01*
X176956783Y-114372200D01*
X177374750Y-114289061D01*
X177729085Y-114052302D01*
X177965844Y-113697967D01*
X178048983Y-113280000D01*
X177965844Y-112862033D01*
X177729085Y-112507698D01*
X177374750Y-112270939D01*
X176956783Y-112187800D01*
X176603217Y-112187800D01*
X176185250Y-112270939D01*
X175830915Y-112507698D01*
X175594156Y-112862033D01*
X175511017Y-113280000D01*
X175508983Y-113280000D01*
X175425844Y-112862033D01*
X175189085Y-112507698D01*
X174834750Y-112270939D01*
X174416783Y-112187800D01*
X174063217Y-112187800D01*
X173659213Y-112268161D01*
X173075600Y-111684548D01*
X173075600Y-111345228D01*
X173111636Y-111417683D01*
X173445265Y-111739583D01*
X173876684Y-111909305D01*
X174062200Y-111846353D01*
X174062200Y-110917800D01*
X174042200Y-110917800D01*
X174042200Y-110562200D01*
X174062200Y-110562200D01*
X174062200Y-109633647D01*
X174417800Y-109633647D01*
X174417800Y-110562200D01*
X174437800Y-110562200D01*
X174437800Y-110917800D01*
X174417800Y-110917800D01*
X174417800Y-111846353D01*
X174603316Y-111909305D01*
X175034735Y-111739583D01*
X175368364Y-111417683D01*
X175526542Y-111099647D01*
X175486295Y-110917802D01*
X175546384Y-110917802D01*
X175594156Y-111157967D01*
X175830915Y-111512302D01*
X176185250Y-111749061D01*
X176603217Y-111832200D01*
X176956783Y-111832200D01*
X177374750Y-111749061D01*
X177729085Y-111512302D01*
X177965844Y-111157967D01*
X178048983Y-110740000D01*
X177965844Y-110322033D01*
X177729085Y-109967698D01*
X177374750Y-109730939D01*
X176956783Y-109647800D01*
X176603217Y-109647800D01*
X176185250Y-109730939D01*
X175830915Y-109967698D01*
X175594156Y-110322033D01*
X175546384Y-110562198D01*
X175486295Y-110562198D01*
X175526542Y-110380353D01*
X175368364Y-110062317D01*
X175034735Y-109740417D01*
X174603316Y-109570695D01*
X174417800Y-109633647D01*
X174062200Y-109633647D01*
X173876684Y-109570695D01*
X173445265Y-109740417D01*
X173111636Y-110062317D01*
X173075600Y-110134772D01*
X173075600Y-108559647D01*
X175493458Y-108559647D01*
X175651636Y-108877683D01*
X175985265Y-109199583D01*
X176416684Y-109369305D01*
X176602200Y-109306353D01*
X176602200Y-108377800D01*
X176957800Y-108377800D01*
X176957800Y-109306353D01*
X177143316Y-109369305D01*
X177574735Y-109199583D01*
X177908364Y-108877683D01*
X178066542Y-108559647D01*
X178026295Y-108377800D01*
X176957800Y-108377800D01*
X176602200Y-108377800D01*
X175533705Y-108377800D01*
X175493458Y-108559647D01*
X173075600Y-108559647D01*
X173075600Y-107840353D01*
X175493458Y-107840353D01*
X175533705Y-108022200D01*
X176602200Y-108022200D01*
X176602200Y-107093647D01*
X176957800Y-107093647D01*
X176957800Y-108022200D01*
X178026295Y-108022200D01*
X178066542Y-107840353D01*
X177908364Y-107522317D01*
X177574735Y-107200417D01*
X177143316Y-107030695D01*
X176957800Y-107093647D01*
X176602200Y-107093647D01*
X176416684Y-107030695D01*
X175985265Y-107200417D01*
X175651636Y-107522317D01*
X175493458Y-107840353D01*
X173075600Y-107840353D01*
X173075600Y-106265228D01*
X173111636Y-106337683D01*
X173445265Y-106659583D01*
X173876684Y-106829305D01*
X174062200Y-106766353D01*
X174062200Y-105837800D01*
X174417800Y-105837800D01*
X174417800Y-106766353D01*
X174603316Y-106829305D01*
X175034735Y-106659583D01*
X175368364Y-106337683D01*
X175511005Y-106050885D01*
X175655636Y-106341683D01*
X175989265Y-106663583D01*
X176420684Y-106833305D01*
X176606200Y-106770353D01*
X176606200Y-105841800D01*
X176961800Y-105841800D01*
X176961800Y-106770353D01*
X177147316Y-106833305D01*
X177578735Y-106663583D01*
X177912364Y-106341683D01*
X178070542Y-106023647D01*
X178030295Y-105841800D01*
X176961800Y-105841800D01*
X176606200Y-105841800D01*
X175537705Y-105841800D01*
X175512443Y-105955942D01*
X175486295Y-105837800D01*
X174417800Y-105837800D01*
X174062200Y-105837800D01*
X174042200Y-105837800D01*
X174042200Y-105482200D01*
X174062200Y-105482200D01*
X174062200Y-104553647D01*
X174417800Y-104553647D01*
X174417800Y-105482200D01*
X175486295Y-105482200D01*
X175511557Y-105368058D01*
X175537705Y-105486200D01*
X176606200Y-105486200D01*
X176606200Y-104557647D01*
X176961800Y-104557647D01*
X176961800Y-105486200D01*
X178030295Y-105486200D01*
X178070542Y-105304353D01*
X177912364Y-104986317D01*
X177578735Y-104664417D01*
X177147316Y-104494695D01*
X176961800Y-104557647D01*
X176606200Y-104557647D01*
X176420684Y-104494695D01*
X175989265Y-104664417D01*
X175655636Y-104986317D01*
X175512995Y-105273115D01*
X175368364Y-104982317D01*
X175034735Y-104660417D01*
X174603316Y-104490695D01*
X174417800Y-104553647D01*
X174062200Y-104553647D01*
X173876684Y-104490695D01*
X173445265Y-104660417D01*
X173111636Y-104982317D01*
X173075600Y-105054772D01*
X173075600Y-103570060D01*
X173290915Y-103892302D01*
X173645250Y-104129061D01*
X174063217Y-104212200D01*
X174416783Y-104212200D01*
X174834750Y-104129061D01*
X175189085Y-103892302D01*
X175425844Y-103537967D01*
X175508187Y-103124000D01*
X175515017Y-103124000D01*
X175598156Y-103541967D01*
X175834915Y-103896302D01*
X176189250Y-104133061D01*
X176607217Y-104216200D01*
X176960783Y-104216200D01*
X177378750Y-104133061D01*
X177733085Y-103896302D01*
X177969844Y-103541967D01*
X178052983Y-103124000D01*
X177969844Y-102706033D01*
X177733085Y-102351698D01*
X177378750Y-102114939D01*
X176960783Y-102031800D01*
X176607217Y-102031800D01*
X176189250Y-102114939D01*
X175834915Y-102351698D01*
X175598156Y-102706033D01*
X175515017Y-103124000D01*
X175508187Y-103124000D01*
X175508983Y-103120000D01*
X175425844Y-102702033D01*
X175189085Y-102347698D01*
X174834750Y-102110939D01*
X174416783Y-102027800D01*
X174063217Y-102027800D01*
X173645250Y-102110939D01*
X173290915Y-102347698D01*
X173075600Y-102669940D01*
X173075600Y-101030060D01*
X173290915Y-101352302D01*
X173645250Y-101589061D01*
X174063217Y-101672200D01*
X174416783Y-101672200D01*
X174834750Y-101589061D01*
X175189085Y-101352302D01*
X175425844Y-100997967D01*
X175508983Y-100580000D01*
X175425844Y-100162033D01*
X175189085Y-99807698D01*
X174834750Y-99570939D01*
X174416783Y-99487800D01*
X174063217Y-99487800D01*
X173645250Y-99570939D01*
X173290915Y-99807698D01*
X173075600Y-100129940D01*
X173075600Y-98490060D01*
X173290915Y-98812302D01*
X173645250Y-99049061D01*
X174063217Y-99132200D01*
X174416783Y-99132200D01*
X174834750Y-99049061D01*
X175189085Y-98812302D01*
X175209200Y-98782198D01*
X175209200Y-99314000D01*
X175232402Y-99430642D01*
X175298474Y-99529526D01*
X175733069Y-99964121D01*
X175598156Y-100166033D01*
X175515017Y-100584000D01*
X175598156Y-101001967D01*
X175834915Y-101356302D01*
X176189250Y-101593061D01*
X176607217Y-101676200D01*
X176960783Y-101676200D01*
X177378750Y-101593061D01*
X177733085Y-101356302D01*
X177969844Y-101001967D01*
X178052983Y-100584000D01*
X177969844Y-100166033D01*
X177733085Y-99811698D01*
X177378750Y-99574939D01*
X176960783Y-99491800D01*
X176607217Y-99491800D01*
X176203213Y-99572161D01*
X175818800Y-99187748D01*
X175818800Y-98792184D01*
X175834915Y-98816302D01*
X176189250Y-99053061D01*
X176607217Y-99136200D01*
X176960783Y-99136200D01*
X177378750Y-99053061D01*
X177733085Y-98816302D01*
X177969844Y-98461967D01*
X178052983Y-98044000D01*
X177969844Y-97626033D01*
X177733085Y-97271698D01*
X177378750Y-97034939D01*
X176960783Y-96951800D01*
X176607217Y-96951800D01*
X176203213Y-97032161D01*
X175771730Y-96600678D01*
X177800000Y-96600678D01*
X177884714Y-96584738D01*
X177962518Y-96534672D01*
X178014715Y-96458280D01*
X178033078Y-96367600D01*
X178033078Y-94640400D01*
X178017138Y-94555686D01*
X177967072Y-94477882D01*
X177890680Y-94425685D01*
X177800000Y-94407322D01*
X175768000Y-94407322D01*
X175683286Y-94423262D01*
X175605482Y-94473328D01*
X175553285Y-94549720D01*
X175534922Y-94640400D01*
X175534922Y-96367600D01*
X175535319Y-96369711D01*
X175489078Y-96338814D01*
X175489078Y-94636400D01*
X175473138Y-94551686D01*
X175423072Y-94473882D01*
X175346680Y-94421685D01*
X175256000Y-94403322D01*
X173224000Y-94403322D01*
X173139286Y-94419262D01*
X173061482Y-94469328D01*
X173009285Y-94545720D01*
X172990922Y-94636400D01*
X172990922Y-96291400D01*
X172897052Y-96291400D01*
X167944755Y-91339103D01*
X167944884Y-91192026D01*
X167871567Y-91014586D01*
X167735928Y-90878710D01*
X167558616Y-90805084D01*
X167366626Y-90804916D01*
X167189186Y-90878233D01*
X167053310Y-91013872D01*
X166979684Y-91191184D01*
X166979577Y-91313022D01*
X166858626Y-91312916D01*
X166681186Y-91386233D01*
X166545310Y-91521872D01*
X166471684Y-91699184D01*
X166471516Y-91891174D01*
X166544833Y-92068614D01*
X166680472Y-92204490D01*
X166857784Y-92278116D01*
X166903444Y-92278156D01*
X166903316Y-92424574D01*
X166976633Y-92602014D01*
X167033722Y-92659203D01*
X166951710Y-92741072D01*
X166945137Y-92756902D01*
X166771216Y-92684684D01*
X166579226Y-92684516D01*
X166401786Y-92757833D01*
X166265910Y-92893472D01*
X166212832Y-93021298D01*
X166136216Y-92989484D01*
X165944226Y-92989316D01*
X165766786Y-93062633D01*
X165630910Y-93198272D01*
X165572572Y-93338766D01*
X165526616Y-93319684D01*
X165334626Y-93319516D01*
X165157186Y-93392833D01*
X165021310Y-93528472D01*
X164962972Y-93668966D01*
X164917016Y-93649884D01*
X164725026Y-93649716D01*
X164547586Y-93723033D01*
X164411710Y-93858672D01*
X164353372Y-93999166D01*
X164307416Y-93980084D01*
X164115426Y-93979916D01*
X163937986Y-94053233D01*
X163802110Y-94188872D01*
X163736301Y-94347358D01*
X163647016Y-94310284D01*
X163455026Y-94310116D01*
X163277586Y-94383433D01*
X163141710Y-94519072D01*
X163068084Y-94696384D01*
X163067916Y-94888374D01*
X163141233Y-95065814D01*
X163198366Y-95123047D01*
X163065510Y-95255672D01*
X162991884Y-95432984D01*
X162991716Y-95624974D01*
X161743096Y-95624974D01*
X161442250Y-95323603D01*
X160715295Y-95021744D01*
X159928159Y-95021057D01*
X159200677Y-95321647D01*
X158643603Y-95877750D01*
X158341744Y-96604705D01*
X158341057Y-97391841D01*
X144385653Y-97391841D01*
X151411447Y-90366047D01*
X151488532Y-90250682D01*
X151515600Y-90114600D01*
X151515600Y-88565600D01*
X152333075Y-88565600D01*
X152386272Y-88618890D01*
X152563584Y-88692516D01*
X152755574Y-88692684D01*
X152933014Y-88619367D01*
X153068890Y-88483728D01*
X153142516Y-88306416D01*
X153142666Y-88134000D01*
X163465922Y-88134000D01*
X163465922Y-90166000D01*
X163481862Y-90250714D01*
X163531928Y-90328518D01*
X163608320Y-90380715D01*
X163699000Y-90399078D01*
X165731000Y-90399078D01*
X165815714Y-90383138D01*
X165893518Y-90333072D01*
X165945715Y-90256680D01*
X165964078Y-90166000D01*
X165964078Y-89560400D01*
X168041922Y-89560400D01*
X168041922Y-91287600D01*
X168057862Y-91372314D01*
X168107928Y-91450118D01*
X168184320Y-91502315D01*
X168275000Y-91520678D01*
X170307000Y-91520678D01*
X170391714Y-91504738D01*
X170469518Y-91454672D01*
X170496769Y-91414790D01*
X170516928Y-91446118D01*
X170593320Y-91498315D01*
X170684000Y-91516678D01*
X172716000Y-91516678D01*
X172800714Y-91500738D01*
X172878518Y-91450672D01*
X172930715Y-91374280D01*
X172949078Y-91283600D01*
X172949078Y-89556400D01*
X172990922Y-89556400D01*
X172990922Y-91283600D01*
X173006862Y-91368314D01*
X173056928Y-91446118D01*
X173133320Y-91498315D01*
X173224000Y-91516678D01*
X175256000Y-91516678D01*
X175340714Y-91500738D01*
X175418518Y-91450672D01*
X175470715Y-91374280D01*
X175489078Y-91283600D01*
X175489078Y-89556400D01*
X175530922Y-89556400D01*
X175530922Y-91283600D01*
X175546862Y-91368314D01*
X175596928Y-91446118D01*
X175673320Y-91498315D01*
X175764000Y-91516678D01*
X177796000Y-91516678D01*
X177880714Y-91500738D01*
X177958518Y-91450672D01*
X178010715Y-91374280D01*
X178029078Y-91283600D01*
X178029078Y-89556400D01*
X178013138Y-89471686D01*
X177963072Y-89393882D01*
X177886680Y-89341685D01*
X177796000Y-89323322D01*
X175764000Y-89323322D01*
X175679286Y-89339262D01*
X175601482Y-89389328D01*
X175549285Y-89465720D01*
X175530922Y-89556400D01*
X175489078Y-89556400D01*
X175473138Y-89471686D01*
X175423072Y-89393882D01*
X175346680Y-89341685D01*
X175256000Y-89323322D01*
X173224000Y-89323322D01*
X173139286Y-89339262D01*
X173061482Y-89389328D01*
X173009285Y-89465720D01*
X172990922Y-89556400D01*
X172949078Y-89556400D01*
X172933138Y-89471686D01*
X172883072Y-89393882D01*
X172806680Y-89341685D01*
X172716000Y-89323322D01*
X170684000Y-89323322D01*
X170599286Y-89339262D01*
X170521482Y-89389328D01*
X170494231Y-89429210D01*
X170474072Y-89397882D01*
X170397680Y-89345685D01*
X170307000Y-89327322D01*
X168275000Y-89327322D01*
X168190286Y-89343262D01*
X168112482Y-89393328D01*
X168060285Y-89469720D01*
X168041922Y-89560400D01*
X165964078Y-89560400D01*
X165964078Y-88243647D01*
X168004458Y-88243647D01*
X168162636Y-88561683D01*
X168496265Y-88883583D01*
X168927684Y-89053305D01*
X169113200Y-88990353D01*
X169113200Y-88061800D01*
X169468800Y-88061800D01*
X169468800Y-88990353D01*
X169654316Y-89053305D01*
X170085735Y-88883583D01*
X170419364Y-88561683D01*
X170496495Y-88406602D01*
X170571636Y-88557683D01*
X170905265Y-88879583D01*
X171336684Y-89049305D01*
X171522200Y-88986353D01*
X171522200Y-88057800D01*
X171877800Y-88057800D01*
X171877800Y-88986353D01*
X172063316Y-89049305D01*
X172494735Y-88879583D01*
X172828364Y-88557683D01*
X172970000Y-88272907D01*
X173111636Y-88557683D01*
X173445265Y-88879583D01*
X173876684Y-89049305D01*
X174062200Y-88986353D01*
X174062200Y-88057800D01*
X174417800Y-88057800D01*
X174417800Y-88986353D01*
X174603316Y-89049305D01*
X175034735Y-88879583D01*
X175368364Y-88557683D01*
X175510000Y-88272907D01*
X175651636Y-88557683D01*
X175985265Y-88879583D01*
X176416684Y-89049305D01*
X176602200Y-88986353D01*
X176602200Y-88057800D01*
X176957800Y-88057800D01*
X176957800Y-88986353D01*
X177143316Y-89049305D01*
X177574735Y-88879583D01*
X177908364Y-88557683D01*
X178066542Y-88239647D01*
X178026295Y-88057800D01*
X176957800Y-88057800D01*
X176602200Y-88057800D01*
X175533705Y-88057800D01*
X175510000Y-88164906D01*
X175486295Y-88057800D01*
X174417800Y-88057800D01*
X174062200Y-88057800D01*
X172993705Y-88057800D01*
X172970000Y-88164906D01*
X172946295Y-88057800D01*
X171877800Y-88057800D01*
X171522200Y-88057800D01*
X170453705Y-88057800D01*
X170452820Y-88061800D01*
X169468800Y-88061800D01*
X169113200Y-88061800D01*
X168044705Y-88061800D01*
X168004458Y-88243647D01*
X165964078Y-88243647D01*
X165964078Y-88134000D01*
X165948138Y-88049286D01*
X165898072Y-87971482D01*
X165821680Y-87919285D01*
X165731000Y-87900922D01*
X163699000Y-87900922D01*
X163614286Y-87916862D01*
X163536482Y-87966928D01*
X163484285Y-88043320D01*
X163465922Y-88134000D01*
X153142666Y-88134000D01*
X153142684Y-88114426D01*
X153069367Y-87936986D01*
X152933728Y-87801110D01*
X152756416Y-87727484D01*
X152564426Y-87727316D01*
X152386986Y-87800633D01*
X152333125Y-87854400D01*
X151486925Y-87854400D01*
X151433728Y-87801110D01*
X151256416Y-87727484D01*
X151064426Y-87727316D01*
X150886986Y-87800633D01*
X150751110Y-87936272D01*
X150677484Y-88113584D01*
X150677316Y-88305574D01*
X150750633Y-88483014D01*
X150804400Y-88536875D01*
X150804400Y-89967306D01*
X147548551Y-93223155D01*
X147548684Y-93071626D01*
X147475367Y-92894186D01*
X147339728Y-92758310D01*
X147162416Y-92684684D01*
X147014406Y-92684554D01*
X146593024Y-92263172D01*
X146690184Y-92303516D01*
X146882174Y-92303684D01*
X147059614Y-92230367D01*
X147195490Y-92094728D01*
X147269116Y-91917416D01*
X147269284Y-91725426D01*
X147195967Y-91547986D01*
X147060328Y-91412110D01*
X146883016Y-91338484D01*
X146837356Y-91338444D01*
X146837484Y-91192026D01*
X146764167Y-91014586D01*
X146628528Y-90878710D01*
X146451216Y-90805084D01*
X146303206Y-90804954D01*
X145198726Y-89700474D01*
X145099842Y-89634402D01*
X144983200Y-89611200D01*
X138683252Y-89611200D01*
X137820355Y-88748303D01*
X137820484Y-88601226D01*
X137747167Y-88423786D01*
X137611528Y-88287910D01*
X137434216Y-88214284D01*
X137242226Y-88214116D01*
X137064786Y-88287433D01*
X137058400Y-88293808D01*
X137058400Y-86610000D01*
X163446017Y-86610000D01*
X163540757Y-87086288D01*
X163810552Y-87490065D01*
X164214329Y-87759860D01*
X164690617Y-87854600D01*
X164739383Y-87854600D01*
X165215671Y-87759860D01*
X165568132Y-87524353D01*
X168004458Y-87524353D01*
X168044705Y-87706200D01*
X169113200Y-87706200D01*
X169113200Y-86777647D01*
X169468800Y-86777647D01*
X169468800Y-87706200D01*
X170537295Y-87706200D01*
X170538180Y-87702200D01*
X171522200Y-87702200D01*
X171522200Y-86773647D01*
X171877800Y-86773647D01*
X171877800Y-87702200D01*
X172946295Y-87702200D01*
X172970000Y-87595094D01*
X172993705Y-87702200D01*
X174062200Y-87702200D01*
X174062200Y-86773647D01*
X174417800Y-86773647D01*
X174417800Y-87702200D01*
X175486295Y-87702200D01*
X175510000Y-87595094D01*
X175533705Y-87702200D01*
X176602200Y-87702200D01*
X176602200Y-86773647D01*
X176957800Y-86773647D01*
X176957800Y-87702200D01*
X178026295Y-87702200D01*
X178066542Y-87520353D01*
X177908364Y-87202317D01*
X177574735Y-86880417D01*
X177143316Y-86710695D01*
X176957800Y-86773647D01*
X176602200Y-86773647D01*
X176416684Y-86710695D01*
X175985265Y-86880417D01*
X175651636Y-87202317D01*
X175510000Y-87487093D01*
X175368364Y-87202317D01*
X175034735Y-86880417D01*
X174603316Y-86710695D01*
X174417800Y-86773647D01*
X174062200Y-86773647D01*
X173876684Y-86710695D01*
X173445265Y-86880417D01*
X173111636Y-87202317D01*
X172970000Y-87487093D01*
X172828364Y-87202317D01*
X172494735Y-86880417D01*
X172063316Y-86710695D01*
X171877800Y-86773647D01*
X171522200Y-86773647D01*
X171336684Y-86710695D01*
X170905265Y-86880417D01*
X170571636Y-87202317D01*
X170494505Y-87357398D01*
X170419364Y-87206317D01*
X170085735Y-86884417D01*
X169654316Y-86714695D01*
X169468800Y-86777647D01*
X169113200Y-86777647D01*
X168927684Y-86714695D01*
X168496265Y-86884417D01*
X168162636Y-87206317D01*
X168004458Y-87524353D01*
X165568132Y-87524353D01*
X165619448Y-87490065D01*
X165889243Y-87086288D01*
X165983983Y-86610000D01*
X165889243Y-86133712D01*
X165619448Y-85729935D01*
X165215671Y-85460140D01*
X164739383Y-85365400D01*
X164690617Y-85365400D01*
X164214329Y-85460140D01*
X163810552Y-85729935D01*
X163540757Y-86133712D01*
X163446017Y-86610000D01*
X137058400Y-86610000D01*
X137058400Y-85344000D01*
X168022017Y-85344000D01*
X168105156Y-85761967D01*
X168341915Y-86116302D01*
X168696250Y-86353061D01*
X169114217Y-86436200D01*
X169467783Y-86436200D01*
X169885750Y-86353061D01*
X170240085Y-86116302D01*
X170476844Y-85761967D01*
X170495898Y-85666177D01*
X170514156Y-85757967D01*
X170750915Y-86112302D01*
X171105250Y-86349061D01*
X171523217Y-86432200D01*
X171876783Y-86432200D01*
X172294750Y-86349061D01*
X172649085Y-86112302D01*
X172885844Y-85757967D01*
X172968983Y-85340000D01*
X172971017Y-85340000D01*
X173054156Y-85757967D01*
X173290915Y-86112302D01*
X173645250Y-86349061D01*
X174063217Y-86432200D01*
X174416783Y-86432200D01*
X174834750Y-86349061D01*
X175189085Y-86112302D01*
X175425844Y-85757967D01*
X175508983Y-85340000D01*
X175511017Y-85340000D01*
X175594156Y-85757967D01*
X175830915Y-86112302D01*
X176185250Y-86349061D01*
X176603217Y-86432200D01*
X176956783Y-86432200D01*
X177374750Y-86349061D01*
X177729085Y-86112302D01*
X177965844Y-85757967D01*
X178048983Y-85340000D01*
X177965844Y-84922033D01*
X177729085Y-84567698D01*
X177374750Y-84330939D01*
X176956783Y-84247800D01*
X176603217Y-84247800D01*
X176185250Y-84330939D01*
X175830915Y-84567698D01*
X175594156Y-84922033D01*
X175511017Y-85340000D01*
X175508983Y-85340000D01*
X175425844Y-84922033D01*
X175189085Y-84567698D01*
X174834750Y-84330939D01*
X174416783Y-84247800D01*
X174063217Y-84247800D01*
X173645250Y-84330939D01*
X173290915Y-84567698D01*
X173054156Y-84922033D01*
X172971017Y-85340000D01*
X172968983Y-85340000D01*
X172885844Y-84922033D01*
X172649085Y-84567698D01*
X172294750Y-84330939D01*
X171876783Y-84247800D01*
X171523217Y-84247800D01*
X171105250Y-84330939D01*
X170750915Y-84567698D01*
X170514156Y-84922033D01*
X170495102Y-85017823D01*
X170476844Y-84926033D01*
X170240085Y-84571698D01*
X169885750Y-84334939D01*
X169467783Y-84251800D01*
X169114217Y-84251800D01*
X168696250Y-84334939D01*
X168341915Y-84571698D01*
X168105156Y-84926033D01*
X168022017Y-85344000D01*
X137058400Y-85344000D01*
X137058400Y-84682852D01*
X137540297Y-84200955D01*
X137687374Y-84201084D01*
X137864814Y-84127767D01*
X138000690Y-83992128D01*
X138074316Y-83814816D01*
X138074484Y-83622826D01*
X138001167Y-83445386D01*
X137865528Y-83309510D01*
X137688216Y-83235884D01*
X137496226Y-83235716D01*
X137318786Y-83309033D01*
X137182910Y-83444672D01*
X137109284Y-83621984D01*
X137109154Y-83769994D01*
X136538074Y-84341074D01*
X136472002Y-84439958D01*
X136448800Y-84556600D01*
X136448800Y-91795600D01*
X136472002Y-91912242D01*
X136538074Y-92011126D01*
X136741274Y-92214326D01*
X136840158Y-92280398D01*
X136956800Y-92303600D01*
X137566400Y-92303600D01*
X137683042Y-92280398D01*
X137781926Y-92214326D01*
X138149852Y-91846400D01*
X141561087Y-91846400D01*
X141501110Y-91906272D01*
X141427484Y-92083584D01*
X141427354Y-92231594D01*
X141122755Y-92536193D01*
X141069367Y-92406986D01*
X140933728Y-92271110D01*
X140756416Y-92197484D01*
X140564426Y-92197316D01*
X140386986Y-92270633D01*
X140251110Y-92406272D01*
X140177484Y-92583584D01*
X140177354Y-92731594D01*
X139872755Y-93036193D01*
X139819367Y-92906986D01*
X139683728Y-92771110D01*
X139506416Y-92697484D01*
X139314426Y-92697316D01*
X139136986Y-92770633D01*
X139001110Y-92906272D01*
X138927484Y-93083584D01*
X138927354Y-93231594D01*
X137033748Y-95125200D01*
X135660000Y-95125200D01*
X135543358Y-95148402D01*
X135486900Y-95186126D01*
X135444474Y-95214474D01*
X134194474Y-96464474D01*
X134128402Y-96563358D01*
X134105200Y-96680000D01*
X134105200Y-97052364D01*
X134001110Y-97156272D01*
X133927484Y-97333584D01*
X133927316Y-97525574D01*
X121604159Y-97525574D01*
X121658256Y-97395295D01*
X121658943Y-96608159D01*
X121358353Y-95880677D01*
X120802250Y-95323603D01*
X120075295Y-95021744D01*
X119288159Y-95021057D01*
X118560677Y-95321647D01*
X118003603Y-95877750D01*
X117701744Y-96604705D01*
X117701057Y-97391841D01*
X113356200Y-97391841D01*
X113356200Y-93511574D01*
X128451316Y-93511574D01*
X128524633Y-93689014D01*
X128660272Y-93824890D01*
X128837584Y-93898516D01*
X129029574Y-93898684D01*
X129207014Y-93825367D01*
X129267687Y-93764800D01*
X131032364Y-93764800D01*
X131136272Y-93868890D01*
X131313584Y-93942516D01*
X131505574Y-93942684D01*
X131683014Y-93869367D01*
X131818890Y-93733728D01*
X131892516Y-93556416D01*
X131892684Y-93364426D01*
X131819367Y-93186986D01*
X131683728Y-93051110D01*
X131506416Y-92977484D01*
X131392585Y-92977384D01*
X131392684Y-92864426D01*
X131319367Y-92686986D01*
X131183728Y-92551110D01*
X131006416Y-92477484D01*
X130814426Y-92477316D01*
X130636986Y-92550633D01*
X130532236Y-92655200D01*
X129797599Y-92655200D01*
X129797684Y-92558426D01*
X129724367Y-92380986D01*
X129588728Y-92245110D01*
X129411416Y-92171484D01*
X129219426Y-92171316D01*
X129041986Y-92244633D01*
X128906110Y-92380272D01*
X128832484Y-92557584D01*
X128832316Y-92749574D01*
X128905633Y-92927014D01*
X128911988Y-92933380D01*
X128838426Y-92933316D01*
X128660986Y-93006633D01*
X128525110Y-93142272D01*
X128451484Y-93319584D01*
X128451316Y-93511574D01*
X113356200Y-93511574D01*
X113356200Y-87305574D01*
X129177316Y-87305574D01*
X129250633Y-87483014D01*
X129386272Y-87618890D01*
X129563584Y-87692516D01*
X129755574Y-87692684D01*
X129933014Y-87619367D01*
X130037764Y-87514800D01*
X130532364Y-87514800D01*
X130636272Y-87618890D01*
X130813584Y-87692516D01*
X131005574Y-87692684D01*
X131183014Y-87619367D01*
X131318890Y-87483728D01*
X131392516Y-87306416D01*
X131392684Y-87114426D01*
X131319367Y-86936986D01*
X131183728Y-86801110D01*
X131006416Y-86727484D01*
X130814426Y-86727316D01*
X130636986Y-86800633D01*
X130532236Y-86905200D01*
X130037636Y-86905200D01*
X129933728Y-86801110D01*
X129756416Y-86727484D01*
X129564426Y-86727316D01*
X129386986Y-86800633D01*
X129251110Y-86936272D01*
X129177484Y-87113584D01*
X129177316Y-87305574D01*
X113356200Y-87305574D01*
X113356200Y-75350000D01*
X119566922Y-75350000D01*
X119566922Y-77050000D01*
X119582862Y-77134714D01*
X119632928Y-77212518D01*
X119709320Y-77264715D01*
X119800000Y-77283078D01*
X121500000Y-77283078D01*
X121584714Y-77267138D01*
X121662518Y-77217072D01*
X121714715Y-77140680D01*
X121733078Y-77050000D01*
X121733078Y-75350000D01*
X121717138Y-75265286D01*
X121667072Y-75187482D01*
X121590680Y-75135285D01*
X121500000Y-75116922D01*
X119800000Y-75116922D01*
X119715286Y-75132862D01*
X119637482Y-75182928D01*
X119585285Y-75259320D01*
X119566922Y-75350000D01*
X113356200Y-75350000D01*
X113356200Y-72105988D01*
X119995460Y-72105988D01*
X120096737Y-72263993D01*
X120546024Y-72394726D01*
X121011141Y-72343573D01*
X121203263Y-72263993D01*
X121304540Y-72105988D01*
X120650000Y-71451447D01*
X119995460Y-72105988D01*
X113356200Y-72105988D01*
X113356200Y-71096024D01*
X119455274Y-71096024D01*
X119506427Y-71561141D01*
X119586007Y-71753263D01*
X119744012Y-71854540D01*
X120398553Y-71200000D01*
X120901447Y-71200000D01*
X121555988Y-71854540D01*
X121713993Y-71753263D01*
X121844726Y-71303976D01*
X121793573Y-70838859D01*
X121713993Y-70646737D01*
X121555988Y-70545460D01*
X120901447Y-71200000D01*
X120398553Y-71200000D01*
X119744012Y-70545460D01*
X119586007Y-70646737D01*
X119455274Y-71096024D01*
X113356200Y-71096024D01*
X113356200Y-70294012D01*
X119995460Y-70294012D01*
X120650000Y-70948553D01*
X121304540Y-70294012D01*
X121203263Y-70136007D01*
X120753976Y-70005274D01*
X120288859Y-70056427D01*
X120096737Y-70136007D01*
X119995460Y-70294012D01*
X113356200Y-70294012D01*
X113356200Y-69003486D01*
X128271400Y-69003486D01*
X128271400Y-78796514D01*
X128479102Y-79840704D01*
X129070588Y-80725926D01*
X129955810Y-81317412D01*
X131000000Y-81525114D01*
X132044190Y-81317412D01*
X132929412Y-80725926D01*
X133520898Y-79840704D01*
X133728600Y-78796514D01*
X133728600Y-69003486D01*
X134271400Y-69003486D01*
X134271400Y-78796514D01*
X134479102Y-79840704D01*
X135070588Y-80725926D01*
X135955810Y-81317412D01*
X137000000Y-81525114D01*
X138044190Y-81317412D01*
X138929412Y-80725926D01*
X139520898Y-79840704D01*
X139728600Y-78796514D01*
X139728600Y-69003486D01*
X140271400Y-69003486D01*
X140271400Y-78796514D01*
X140479102Y-79840704D01*
X141070588Y-80725926D01*
X141955810Y-81317412D01*
X143000000Y-81525114D01*
X144044190Y-81317412D01*
X144929412Y-80725926D01*
X145520898Y-79840704D01*
X145728600Y-78796514D01*
X145728600Y-69003486D01*
X154271400Y-69003486D01*
X154271400Y-78796514D01*
X154479102Y-79840704D01*
X155070588Y-80725926D01*
X155955810Y-81317412D01*
X157000000Y-81525114D01*
X158044190Y-81317412D01*
X158929412Y-80725926D01*
X159520898Y-79840704D01*
X159728600Y-78796514D01*
X159728600Y-75350000D01*
X166556922Y-75350000D01*
X166556922Y-77050000D01*
X166572862Y-77134714D01*
X166622928Y-77212518D01*
X166699320Y-77264715D01*
X166790000Y-77283078D01*
X168490000Y-77283078D01*
X168574714Y-77267138D01*
X168652518Y-77217072D01*
X168704715Y-77140680D01*
X168723078Y-77050000D01*
X168723078Y-75350000D01*
X168707138Y-75265286D01*
X168657072Y-75187482D01*
X168580680Y-75135285D01*
X168490000Y-75116922D01*
X166790000Y-75116922D01*
X166705286Y-75132862D01*
X166627482Y-75182928D01*
X166575285Y-75259320D01*
X166556922Y-75350000D01*
X159728600Y-75350000D01*
X159728600Y-72105988D01*
X166985460Y-72105988D01*
X167086737Y-72263993D01*
X167536024Y-72394726D01*
X168001141Y-72343573D01*
X168193263Y-72263993D01*
X168294540Y-72105988D01*
X167640000Y-71451447D01*
X166985460Y-72105988D01*
X159728600Y-72105988D01*
X159728600Y-71096024D01*
X166445274Y-71096024D01*
X166496427Y-71561141D01*
X166576007Y-71753263D01*
X166734012Y-71854540D01*
X167388553Y-71200000D01*
X167891447Y-71200000D01*
X168545988Y-71854540D01*
X168703993Y-71753263D01*
X168834726Y-71303976D01*
X168783573Y-70838859D01*
X168703993Y-70646737D01*
X168545988Y-70545460D01*
X167891447Y-71200000D01*
X167388553Y-71200000D01*
X166734012Y-70545460D01*
X166576007Y-70646737D01*
X166445274Y-71096024D01*
X159728600Y-71096024D01*
X159728600Y-70294012D01*
X166985460Y-70294012D01*
X167640000Y-70948553D01*
X168294540Y-70294012D01*
X168193263Y-70136007D01*
X167743976Y-70005274D01*
X167278859Y-70056427D01*
X167086737Y-70136007D01*
X166985460Y-70294012D01*
X159728600Y-70294012D01*
X159728600Y-69003486D01*
X159520898Y-67959296D01*
X158929412Y-67074074D01*
X158044190Y-66482588D01*
X157000000Y-66274886D01*
X155955810Y-66482588D01*
X155070588Y-67074074D01*
X154479102Y-67959296D01*
X154271400Y-69003486D01*
X145728600Y-69003486D01*
X145520898Y-67959296D01*
X144929412Y-67074074D01*
X144044190Y-66482588D01*
X143000000Y-66274886D01*
X141955810Y-66482588D01*
X141070588Y-67074074D01*
X140479102Y-67959296D01*
X140271400Y-69003486D01*
X139728600Y-69003486D01*
X139520898Y-67959296D01*
X138929412Y-67074074D01*
X138044190Y-66482588D01*
X137000000Y-66274886D01*
X135955810Y-66482588D01*
X135070588Y-67074074D01*
X134479102Y-67959296D01*
X134271400Y-69003486D01*
X133728600Y-69003486D01*
X133520898Y-67959296D01*
X132929412Y-67074074D01*
X132044190Y-66482588D01*
X131000000Y-66274886D01*
X129955810Y-66482588D01*
X129070588Y-67074074D01*
X128479102Y-67959296D01*
X128271400Y-69003486D01*
X113356200Y-69003486D01*
X113356200Y-64461200D01*
X178608800Y-64461200D01*
X178608800Y-119172800D01*
M02*
