G04 #@! TF.FileFunction,Soldermask,Top*
%FSLAX46Y46*%
G04 Gerber Fmt 4.6, Leading zero omitted, Abs format (unit mm)*
G04 Created by KiCad (PCBNEW 4.0.1-2.fc23-product) date Fri 08 Jan 2016 07:43:49 PM MST*
%MOMM*%
G01*
G04 APERTURE LIST*
%ADD10C,0.100000*%
%ADD11C,1.674000*%
%ADD12O,5.150000X14.650000*%
%ADD13C,3.650000*%
%ADD14R,0.650000X0.750000*%
%ADD15R,0.750000X0.650000*%
%ADD16R,2.182000X1.877200*%
%ADD17O,2.182000X1.877200*%
%ADD18R,1.750000X1.150000*%
%ADD19R,0.550000X0.750000*%
%ADD20R,1.850000X0.800000*%
%ADD21R,0.450000X1.650000*%
%ADD22R,1.650000X0.450000*%
%ADD23R,5.600000X5.600000*%
%ADD24R,2.271320X2.271320*%
%ADD25C,0.750000*%
%ADD26R,2.182000X2.182000*%
%ADD27O,2.182000X2.182000*%
%ADD28C,1.850000*%
%ADD29R,1.850000X1.850000*%
%ADD30R,2.330000X1.750000*%
%ADD31R,0.550000X2.150000*%
%ADD32R,1.150000X1.750000*%
%ADD33R,0.750000X0.550000*%
%ADD34R,8.690000X5.500000*%
%ADD35R,3.210000X1.040000*%
%ADD36C,0.650000*%
G04 APERTURE END LIST*
D10*
D11*
X123490000Y-115600000D03*
X126030000Y-115600000D03*
X128570000Y-115600000D03*
X131110000Y-115600000D03*
X133650000Y-115600000D03*
X136190000Y-115600000D03*
X138730000Y-115600000D03*
X141270000Y-115600000D03*
X143810000Y-115600000D03*
X146350000Y-115600000D03*
X148890000Y-115600000D03*
X151430000Y-115600000D03*
X153970000Y-115600000D03*
X156510000Y-115600000D03*
D12*
X137000000Y-73900000D03*
X143000000Y-73900000D03*
X149000000Y-73900000D03*
X131000000Y-73900000D03*
X157000000Y-73900000D03*
D13*
X119680000Y-97000000D03*
X160320000Y-97000000D03*
D14*
X166878000Y-107400000D03*
X166878000Y-108500000D03*
D15*
X144460000Y-105030000D03*
X143360000Y-105030000D03*
X130975000Y-104390000D03*
X129875000Y-104390000D03*
D16*
X174240000Y-90420000D03*
D17*
X174240000Y-87880000D03*
X174240000Y-85340000D03*
D15*
X143360000Y-106830000D03*
X144460000Y-106830000D03*
X143360000Y-108030000D03*
X144460000Y-108030000D03*
D18*
X146810000Y-105830000D03*
X146810000Y-102830000D03*
X146810000Y-110430000D03*
X146810000Y-107430000D03*
D15*
X143360000Y-103830000D03*
X144460000Y-103830000D03*
D16*
X171700000Y-90420000D03*
D17*
X171700000Y-87880000D03*
X171700000Y-85340000D03*
D16*
X176780000Y-115820000D03*
D17*
X176780000Y-113280000D03*
X176780000Y-110740000D03*
X176780000Y-108200000D03*
D16*
X176780000Y-90420000D03*
D17*
X176780000Y-87880000D03*
X176780000Y-85340000D03*
D16*
X174240000Y-95500000D03*
D17*
X174240000Y-98040000D03*
X174240000Y-100580000D03*
X174240000Y-103120000D03*
X174240000Y-105660000D03*
D19*
X132110000Y-91710000D03*
X131210000Y-91710000D03*
D20*
X153953000Y-85340000D03*
X153953000Y-86610000D03*
X153953000Y-87880000D03*
X153953000Y-89150000D03*
X161253000Y-89150000D03*
X161253000Y-87880000D03*
X161253000Y-86610000D03*
X161253000Y-85340000D03*
D21*
X141910000Y-87230000D03*
X141410000Y-87230000D03*
X140910000Y-87230000D03*
X140410000Y-87230000D03*
X139910000Y-87230000D03*
X139410000Y-87230000D03*
X138910000Y-87230000D03*
X138410000Y-87230000D03*
X137910000Y-87230000D03*
X137410000Y-87230000D03*
X136910000Y-87230000D03*
X136410000Y-87230000D03*
X136410000Y-95630000D03*
X136910000Y-95630000D03*
X137410000Y-95630000D03*
X137910000Y-95630000D03*
X138410000Y-95630000D03*
X138910000Y-95630000D03*
X139410000Y-95630000D03*
X139910000Y-95630000D03*
X140410000Y-95630000D03*
X140910000Y-95630000D03*
X141410000Y-95630000D03*
X141910000Y-95630000D03*
D22*
X134960000Y-88680000D03*
X134960000Y-89180000D03*
X134960000Y-89680000D03*
X134960000Y-90180000D03*
X134960000Y-90680000D03*
X134960000Y-91180000D03*
X134960000Y-91680000D03*
X134960000Y-92180000D03*
X134960000Y-92680000D03*
X134960000Y-93180000D03*
X134960000Y-93680000D03*
X134960000Y-94180000D03*
X143360000Y-94180000D03*
X143360000Y-93680000D03*
X143360000Y-93180000D03*
X143360000Y-92680000D03*
X143360000Y-92180000D03*
X143360000Y-91680000D03*
X143360000Y-91180000D03*
X143360000Y-90680000D03*
X143360000Y-90180000D03*
X143360000Y-89680000D03*
X143360000Y-89180000D03*
X143360000Y-88680000D03*
D21*
X139910000Y-102480000D03*
X139410000Y-102480000D03*
X138910000Y-102480000D03*
X138410000Y-102480000D03*
X137910000Y-102480000D03*
X137410000Y-102480000D03*
X136910000Y-102480000D03*
X136410000Y-102480000D03*
X135910000Y-102480000D03*
X135410000Y-102480000D03*
X134910000Y-102480000D03*
X134410000Y-102480000D03*
X134410000Y-110880000D03*
X134910000Y-110880000D03*
X135410000Y-110880000D03*
X135910000Y-110880000D03*
X136410000Y-110880000D03*
X136910000Y-110880000D03*
X137410000Y-110880000D03*
X137910000Y-110880000D03*
X138410000Y-110880000D03*
X138910000Y-110880000D03*
X139410000Y-110880000D03*
X139910000Y-110880000D03*
D22*
X132960000Y-103930000D03*
X132960000Y-104430000D03*
X132960000Y-104930000D03*
X132960000Y-105430000D03*
X132960000Y-105930000D03*
X132960000Y-106430000D03*
X132960000Y-106930000D03*
X132960000Y-107430000D03*
X132960000Y-107930000D03*
X132960000Y-108430000D03*
X132960000Y-108930000D03*
X132960000Y-109430000D03*
X141360000Y-109430000D03*
X141360000Y-108930000D03*
X141360000Y-108430000D03*
X141360000Y-107930000D03*
X141360000Y-107430000D03*
X141360000Y-106930000D03*
X141360000Y-106430000D03*
X141360000Y-105930000D03*
X141360000Y-105430000D03*
X141360000Y-104930000D03*
X141360000Y-104430000D03*
X141360000Y-103930000D03*
D23*
X137160000Y-106680000D03*
D24*
X138660000Y-105180000D03*
X135660000Y-105180000D03*
X138660000Y-108180000D03*
X135660000Y-108180000D03*
D25*
X139560000Y-104280000D03*
X138360000Y-104280000D03*
X137160000Y-104280000D03*
X135960000Y-104280000D03*
X134760000Y-104280000D03*
X139560000Y-105480000D03*
X138360000Y-105480000D03*
X137160000Y-105480000D03*
X135960000Y-105480000D03*
X134760000Y-105480000D03*
X139560000Y-106680000D03*
X138360000Y-106680000D03*
X137160000Y-106680000D03*
X135960000Y-106680000D03*
X134760000Y-106680000D03*
X139560000Y-107880000D03*
X138360000Y-107880000D03*
X137160000Y-107880000D03*
X135960000Y-107880000D03*
X134760000Y-107880000D03*
X139560000Y-109080000D03*
X138360000Y-109080000D03*
X137160000Y-109080000D03*
X135960000Y-109080000D03*
X134760000Y-109080000D03*
D26*
X164715000Y-89150000D03*
D27*
X164715000Y-86610000D03*
D28*
X120650000Y-71200000D03*
D29*
X120650000Y-76200000D03*
D28*
X167640000Y-71200000D03*
D29*
X167640000Y-76200000D03*
D15*
X144460000Y-109730000D03*
X143360000Y-109730000D03*
D19*
X135960000Y-83710000D03*
X136860000Y-83710000D03*
D30*
X121057570Y-84957680D03*
X130262430Y-84962320D03*
D31*
X139660000Y-83680000D03*
X138460000Y-83680000D03*
X140860000Y-83680000D03*
D16*
X174240000Y-115820000D03*
D17*
X174240000Y-113280000D03*
X174240000Y-110740000D03*
D32*
X162151000Y-114804000D03*
X159151000Y-114804000D03*
X167533000Y-104898000D03*
X170533000Y-104898000D03*
D33*
X169033000Y-106988000D03*
X169033000Y-107888000D03*
D19*
X167313000Y-100707000D03*
X168213000Y-100707000D03*
D33*
X164842000Y-112460000D03*
X164842000Y-111560000D03*
D16*
X169291000Y-90424000D03*
D17*
X169291000Y-87884000D03*
X169291000Y-85344000D03*
D15*
X167369400Y-102590600D03*
X168469400Y-102590600D03*
D16*
X176784000Y-95504000D03*
D17*
X176784000Y-98044000D03*
X176784000Y-100584000D03*
X176784000Y-103124000D03*
X176784000Y-105664000D03*
D34*
X154936000Y-108708000D03*
D35*
X162241000Y-112518000D03*
X162241000Y-111248000D03*
X162241000Y-109978000D03*
X162241000Y-108708000D03*
X162241000Y-107438000D03*
X162241000Y-106168000D03*
X162241000Y-104898000D03*
D36*
X152396000Y-109978000D03*
X152396000Y-108708000D03*
X152396000Y-107438000D03*
X154936000Y-109978000D03*
X154936000Y-108708000D03*
X154936000Y-107438000D03*
X157476000Y-109978000D03*
X157476000Y-108708000D03*
X157476000Y-107438000D03*
M02*
