G04 #@! TF.FileFunction,Legend,Top*
%FSLAX46Y46*%
G04 Gerber Fmt 4.6, Leading zero omitted, Abs format (unit mm)*
G04 Created by KiCad (PCBNEW 4.0.1-2.fc23-product) date Fri 08 Jan 2016 07:43:49 PM MST*
%MOMM*%
G01*
G04 APERTURE LIST*
%ADD10C,0.100000*%
%ADD11C,0.150000*%
%ADD12C,0.155000*%
%ADD13C,0.127000*%
G04 APERTURE END LIST*
D10*
D11*
X167353000Y-108200000D02*
X167353000Y-107700000D01*
X166403000Y-107700000D02*
X166403000Y-108200000D01*
X143660000Y-105505000D02*
X144160000Y-105505000D01*
X144160000Y-104555000D02*
X143660000Y-104555000D01*
X130175000Y-104865000D02*
X130675000Y-104865000D01*
X130675000Y-103915000D02*
X130175000Y-103915000D01*
X175510000Y-89150000D02*
X175510000Y-84070000D01*
X175510000Y-84070000D02*
X172970000Y-84070000D01*
X172970000Y-84070000D02*
X172970000Y-89150000D01*
X172690000Y-91970000D02*
X172690000Y-90420000D01*
X172970000Y-89150000D02*
X175510000Y-89150000D01*
X175790000Y-90420000D02*
X175790000Y-91970000D01*
X175790000Y-91970000D02*
X172690000Y-91970000D01*
X144160000Y-106355000D02*
X143660000Y-106355000D01*
X143660000Y-107305000D02*
X144160000Y-107305000D01*
X144160000Y-107555000D02*
X143660000Y-107555000D01*
X143660000Y-108505000D02*
X144160000Y-108505000D01*
X145785000Y-103330000D02*
X145785000Y-105330000D01*
X147835000Y-105330000D02*
X147835000Y-103330000D01*
X145785000Y-107930000D02*
X145785000Y-109930000D01*
X147835000Y-109930000D02*
X147835000Y-107930000D01*
X144160000Y-103355000D02*
X143660000Y-103355000D01*
X143660000Y-104305000D02*
X144160000Y-104305000D01*
X172970000Y-89150000D02*
X172970000Y-84070000D01*
X172970000Y-84070000D02*
X170430000Y-84070000D01*
X170430000Y-84070000D02*
X170430000Y-89150000D01*
X170150000Y-91970000D02*
X170150000Y-90420000D01*
X170430000Y-89150000D02*
X172970000Y-89150000D01*
X173250000Y-90420000D02*
X173250000Y-91970000D01*
X173250000Y-91970000D02*
X170150000Y-91970000D01*
X178050000Y-114550000D02*
X178050000Y-106930000D01*
X175510000Y-114550000D02*
X175510000Y-106930000D01*
X175230000Y-117370000D02*
X175230000Y-115820000D01*
X178050000Y-106930000D02*
X175510000Y-106930000D01*
X175510000Y-114550000D02*
X178050000Y-114550000D01*
X178330000Y-115820000D02*
X178330000Y-117370000D01*
X178330000Y-117370000D02*
X175230000Y-117370000D01*
X178050000Y-89150000D02*
X178050000Y-84070000D01*
X178050000Y-84070000D02*
X175510000Y-84070000D01*
X175510000Y-84070000D02*
X175510000Y-89150000D01*
X175230000Y-91970000D02*
X175230000Y-90420000D01*
X175510000Y-89150000D02*
X178050000Y-89150000D01*
X178330000Y-90420000D02*
X178330000Y-91970000D01*
X178330000Y-91970000D02*
X175230000Y-91970000D01*
X172690000Y-95500000D02*
X172690000Y-93950000D01*
X172690000Y-93950000D02*
X175790000Y-93950000D01*
X175790000Y-93950000D02*
X175790000Y-95500000D01*
X175510000Y-96770000D02*
X175510000Y-106930000D01*
X175510000Y-106930000D02*
X172970000Y-106930000D01*
X172970000Y-106930000D02*
X172970000Y-96770000D01*
X175510000Y-96770000D02*
X172970000Y-96770000D01*
X131410000Y-92235000D02*
X131910000Y-92235000D01*
X131910000Y-91185000D02*
X131410000Y-91185000D01*
X154853000Y-84490000D02*
X154853000Y-84790000D01*
X160353000Y-84490000D02*
X160353000Y-84790000D01*
X160353000Y-90000000D02*
X160353000Y-89700000D01*
X154853000Y-90000000D02*
X154853000Y-89700000D01*
X154853000Y-84490000D02*
X160353000Y-84490000D01*
X154853000Y-90000000D02*
X160353000Y-90000000D01*
X154853000Y-84790000D02*
X153103000Y-84790000D01*
D12*
X143160000Y-87680000D02*
G75*
G03X143160000Y-87680000I-250000J0D01*
G01*
X142660000Y-87930000D02*
X142370000Y-87930000D01*
X142660000Y-87930000D02*
X142660000Y-88220000D01*
X135660000Y-87930000D02*
X135950000Y-87930000D01*
X135660000Y-87930000D02*
X135660000Y-88220000D01*
X142660000Y-94930000D02*
X142660000Y-94640000D01*
X142660000Y-94930000D02*
X142370000Y-94930000D01*
X135660000Y-94930000D02*
X135660000Y-94640000D01*
X135660000Y-94930000D02*
X135950000Y-94930000D01*
X141160000Y-102930000D02*
G75*
G03X141160000Y-102930000I-250000J0D01*
G01*
X140660000Y-103180000D02*
X140370000Y-103180000D01*
X140660000Y-103180000D02*
X140660000Y-103470000D01*
X133660000Y-103180000D02*
X133950000Y-103180000D01*
X133660000Y-103180000D02*
X133660000Y-103470000D01*
X140660000Y-110180000D02*
X140660000Y-109890000D01*
X140660000Y-110180000D02*
X140370000Y-110180000D01*
X133660000Y-110180000D02*
X133660000Y-109890000D01*
X133660000Y-110180000D02*
X133950000Y-110180000D01*
D11*
X163445000Y-87880000D02*
X163445000Y-85340000D01*
X163165000Y-90700000D02*
X163165000Y-89150000D01*
X163445000Y-87880000D02*
X165985000Y-87880000D01*
X166265000Y-89150000D02*
X166265000Y-90700000D01*
X166265000Y-90700000D02*
X163165000Y-90700000D01*
X165985000Y-87880000D02*
X165985000Y-85340000D01*
X165985000Y-85340000D02*
X163445000Y-85340000D01*
X114400000Y-73625000D02*
X126900000Y-73625000D01*
X114404000Y-73485000D02*
X126896000Y-73485000D01*
X114410000Y-73345000D02*
X126890000Y-73345000D01*
X114420000Y-73205000D02*
X126880000Y-73205000D01*
X114432000Y-73065000D02*
X126868000Y-73065000D01*
X114448000Y-72925000D02*
X126852000Y-72925000D01*
X114467000Y-72785000D02*
X126833000Y-72785000D01*
X114490000Y-72645000D02*
X126810000Y-72645000D01*
X114515000Y-72505000D02*
X126785000Y-72505000D01*
X114544000Y-72365000D02*
X126756000Y-72365000D01*
X114577000Y-72225000D02*
X120129000Y-72225000D01*
X121171000Y-72225000D02*
X126723000Y-72225000D01*
X114612000Y-72085000D02*
X119916000Y-72085000D01*
X121384000Y-72085000D02*
X126688000Y-72085000D01*
X114651000Y-71945000D02*
X119774000Y-71945000D01*
X121526000Y-71945000D02*
X126649000Y-71945000D01*
X114694000Y-71805000D02*
X119672000Y-71805000D01*
X121628000Y-71805000D02*
X126606000Y-71805000D01*
X114741000Y-71665000D02*
X119598000Y-71665000D01*
X121702000Y-71665000D02*
X126559000Y-71665000D01*
X114791000Y-71525000D02*
X119547000Y-71525000D01*
X121753000Y-71525000D02*
X126509000Y-71525000D01*
X114845000Y-71385000D02*
X119515000Y-71385000D01*
X121785000Y-71385000D02*
X126455000Y-71385000D01*
X114902000Y-71245000D02*
X119501000Y-71245000D01*
X121799000Y-71245000D02*
X126398000Y-71245000D01*
X114964000Y-71105000D02*
X119504000Y-71105000D01*
X121796000Y-71105000D02*
X126336000Y-71105000D01*
X115030000Y-70965000D02*
X119524000Y-70965000D01*
X121776000Y-70965000D02*
X126270000Y-70965000D01*
X115101000Y-70825000D02*
X119563000Y-70825000D01*
X121737000Y-70825000D02*
X126199000Y-70825000D01*
X115175000Y-70685000D02*
X119622000Y-70685000D01*
X121678000Y-70685000D02*
X126125000Y-70685000D01*
X115255000Y-70545000D02*
X119705000Y-70545000D01*
X121595000Y-70545000D02*
X126045000Y-70545000D01*
X115339000Y-70405000D02*
X119819000Y-70405000D01*
X121481000Y-70405000D02*
X125961000Y-70405000D01*
X115429000Y-70265000D02*
X119980000Y-70265000D01*
X121320000Y-70265000D02*
X125871000Y-70265000D01*
X115523000Y-70125000D02*
X120241000Y-70125000D01*
X121059000Y-70125000D02*
X125777000Y-70125000D01*
X115624000Y-69985000D02*
X125676000Y-69985000D01*
X115731000Y-69845000D02*
X125569000Y-69845000D01*
X115843000Y-69705000D02*
X125457000Y-69705000D01*
X115963000Y-69565000D02*
X125337000Y-69565000D01*
X116091000Y-69425000D02*
X125209000Y-69425000D01*
X116226000Y-69285000D02*
X125074000Y-69285000D01*
X116370000Y-69145000D02*
X124930000Y-69145000D01*
X116525000Y-69005000D02*
X124775000Y-69005000D01*
X116690000Y-68865000D02*
X124610000Y-68865000D01*
X116867000Y-68725000D02*
X124433000Y-68725000D01*
X117058000Y-68585000D02*
X124242000Y-68585000D01*
X117267000Y-68445000D02*
X124033000Y-68445000D01*
X117495000Y-68305000D02*
X123805000Y-68305000D01*
X117747000Y-68165000D02*
X123553000Y-68165000D01*
X118031000Y-68025000D02*
X123269000Y-68025000D01*
X118359000Y-67885000D02*
X122941000Y-67885000D01*
X118753000Y-67745000D02*
X122547000Y-67745000D01*
X119267000Y-67605000D02*
X122033000Y-67605000D01*
X120217000Y-67465000D02*
X121083000Y-67465000D01*
X121800000Y-71200000D02*
G75*
G03X121800000Y-71200000I-1150000J0D01*
G01*
X126937500Y-73700000D02*
G75*
G03X126937500Y-73700000I-6287500J0D01*
G01*
X161390000Y-73625000D02*
X173890000Y-73625000D01*
X161394000Y-73485000D02*
X173886000Y-73485000D01*
X161400000Y-73345000D02*
X173880000Y-73345000D01*
X161410000Y-73205000D02*
X173870000Y-73205000D01*
X161422000Y-73065000D02*
X173858000Y-73065000D01*
X161438000Y-72925000D02*
X173842000Y-72925000D01*
X161457000Y-72785000D02*
X173823000Y-72785000D01*
X161480000Y-72645000D02*
X173800000Y-72645000D01*
X161505000Y-72505000D02*
X173775000Y-72505000D01*
X161534000Y-72365000D02*
X173746000Y-72365000D01*
X161567000Y-72225000D02*
X167119000Y-72225000D01*
X168161000Y-72225000D02*
X173713000Y-72225000D01*
X161602000Y-72085000D02*
X166906000Y-72085000D01*
X168374000Y-72085000D02*
X173678000Y-72085000D01*
X161641000Y-71945000D02*
X166764000Y-71945000D01*
X168516000Y-71945000D02*
X173639000Y-71945000D01*
X161684000Y-71805000D02*
X166662000Y-71805000D01*
X168618000Y-71805000D02*
X173596000Y-71805000D01*
X161731000Y-71665000D02*
X166588000Y-71665000D01*
X168692000Y-71665000D02*
X173549000Y-71665000D01*
X161781000Y-71525000D02*
X166537000Y-71525000D01*
X168743000Y-71525000D02*
X173499000Y-71525000D01*
X161835000Y-71385000D02*
X166505000Y-71385000D01*
X168775000Y-71385000D02*
X173445000Y-71385000D01*
X161892000Y-71245000D02*
X166491000Y-71245000D01*
X168789000Y-71245000D02*
X173388000Y-71245000D01*
X161954000Y-71105000D02*
X166494000Y-71105000D01*
X168786000Y-71105000D02*
X173326000Y-71105000D01*
X162020000Y-70965000D02*
X166514000Y-70965000D01*
X168766000Y-70965000D02*
X173260000Y-70965000D01*
X162091000Y-70825000D02*
X166553000Y-70825000D01*
X168727000Y-70825000D02*
X173189000Y-70825000D01*
X162165000Y-70685000D02*
X166612000Y-70685000D01*
X168668000Y-70685000D02*
X173115000Y-70685000D01*
X162245000Y-70545000D02*
X166695000Y-70545000D01*
X168585000Y-70545000D02*
X173035000Y-70545000D01*
X162329000Y-70405000D02*
X166809000Y-70405000D01*
X168471000Y-70405000D02*
X172951000Y-70405000D01*
X162419000Y-70265000D02*
X166970000Y-70265000D01*
X168310000Y-70265000D02*
X172861000Y-70265000D01*
X162513000Y-70125000D02*
X167231000Y-70125000D01*
X168049000Y-70125000D02*
X172767000Y-70125000D01*
X162614000Y-69985000D02*
X172666000Y-69985000D01*
X162721000Y-69845000D02*
X172559000Y-69845000D01*
X162833000Y-69705000D02*
X172447000Y-69705000D01*
X162953000Y-69565000D02*
X172327000Y-69565000D01*
X163081000Y-69425000D02*
X172199000Y-69425000D01*
X163216000Y-69285000D02*
X172064000Y-69285000D01*
X163360000Y-69145000D02*
X171920000Y-69145000D01*
X163515000Y-69005000D02*
X171765000Y-69005000D01*
X163680000Y-68865000D02*
X171600000Y-68865000D01*
X163857000Y-68725000D02*
X171423000Y-68725000D01*
X164048000Y-68585000D02*
X171232000Y-68585000D01*
X164257000Y-68445000D02*
X171023000Y-68445000D01*
X164485000Y-68305000D02*
X170795000Y-68305000D01*
X164737000Y-68165000D02*
X170543000Y-68165000D01*
X165021000Y-68025000D02*
X170259000Y-68025000D01*
X165349000Y-67885000D02*
X169931000Y-67885000D01*
X165743000Y-67745000D02*
X169537000Y-67745000D01*
X166257000Y-67605000D02*
X169023000Y-67605000D01*
X167207000Y-67465000D02*
X168073000Y-67465000D01*
X168790000Y-71200000D02*
G75*
G03X168790000Y-71200000I-1150000J0D01*
G01*
X173927500Y-73700000D02*
G75*
G03X173927500Y-73700000I-6287500J0D01*
G01*
X143660000Y-110205000D02*
X144160000Y-110205000D01*
X144160000Y-109255000D02*
X143660000Y-109255000D01*
X136660000Y-83185000D02*
X136160000Y-83185000D01*
X136160000Y-84235000D02*
X136660000Y-84235000D01*
X124420110Y-84409780D02*
X126920110Y-84409780D01*
X126920110Y-84409780D02*
X126920110Y-85509780D01*
X126920110Y-85509780D02*
X124420110Y-85509780D01*
X124420110Y-85509780D02*
X124420110Y-84409780D01*
X124170110Y-85759780D02*
X127170110Y-85759780D01*
X124170110Y-84159780D02*
X127170110Y-84159780D01*
X127170110Y-84159780D02*
X127170110Y-85759780D01*
X124170110Y-84159780D02*
X124170110Y-85759780D01*
X122670110Y-86709780D02*
X128670110Y-86709780D01*
X122670110Y-83209780D02*
X128670110Y-83209780D01*
X122670110Y-83209780D02*
X122670110Y-86709780D01*
X128670110Y-83209780D02*
X128670110Y-86709780D01*
X175510000Y-114550000D02*
X175510000Y-109470000D01*
X175510000Y-109470000D02*
X172970000Y-109470000D01*
X172970000Y-109470000D02*
X172970000Y-114550000D01*
X172690000Y-117370000D02*
X172690000Y-115820000D01*
X172970000Y-114550000D02*
X175510000Y-114550000D01*
X175790000Y-115820000D02*
X175790000Y-117370000D01*
X175790000Y-117370000D02*
X172690000Y-117370000D01*
X159651000Y-115829000D02*
X161651000Y-115829000D01*
X161651000Y-113779000D02*
X159651000Y-113779000D01*
X170033000Y-103873000D02*
X168033000Y-103873000D01*
X168033000Y-105923000D02*
X170033000Y-105923000D01*
X169558000Y-107688000D02*
X169558000Y-107188000D01*
X168508000Y-107188000D02*
X168508000Y-107688000D01*
X168013000Y-100182000D02*
X167513000Y-100182000D01*
X167513000Y-101232000D02*
X168013000Y-101232000D01*
X164317000Y-111760000D02*
X164317000Y-112260000D01*
X165367000Y-112260000D02*
X165367000Y-111760000D01*
X170561000Y-89154000D02*
X170561000Y-84074000D01*
X170561000Y-84074000D02*
X168021000Y-84074000D01*
X168021000Y-84074000D02*
X168021000Y-89154000D01*
X167741000Y-91974000D02*
X167741000Y-90424000D01*
X168021000Y-89154000D02*
X170561000Y-89154000D01*
X170841000Y-90424000D02*
X170841000Y-91974000D01*
X170841000Y-91974000D02*
X167741000Y-91974000D01*
X168169400Y-102115600D02*
X167669400Y-102115600D01*
X167669400Y-103065600D02*
X168169400Y-103065600D01*
X175234000Y-95504000D02*
X175234000Y-93954000D01*
X175234000Y-93954000D02*
X178334000Y-93954000D01*
X178334000Y-93954000D02*
X178334000Y-95504000D01*
X178054000Y-96774000D02*
X178054000Y-106934000D01*
X178054000Y-106934000D02*
X175514000Y-106934000D01*
X175514000Y-106934000D02*
X175514000Y-96774000D01*
X178054000Y-96774000D02*
X175514000Y-96774000D01*
X167235143Y-111847190D02*
X167282762Y-111894809D01*
X167330381Y-112037666D01*
X167330381Y-112132904D01*
X167282762Y-112275762D01*
X167187524Y-112371000D01*
X167092286Y-112418619D01*
X166901810Y-112466238D01*
X166758952Y-112466238D01*
X166568476Y-112418619D01*
X166473238Y-112371000D01*
X166378000Y-112275762D01*
X166330381Y-112132904D01*
X166330381Y-112037666D01*
X166378000Y-111894809D01*
X166425619Y-111847190D01*
X167282762Y-111466238D02*
X167330381Y-111371000D01*
X167330381Y-111180524D01*
X167282762Y-111085285D01*
X167187524Y-111037666D01*
X167139905Y-111037666D01*
X167044667Y-111085285D01*
X166997048Y-111180524D01*
X166997048Y-111323381D01*
X166949429Y-111418619D01*
X166854190Y-111466238D01*
X166806571Y-111466238D01*
X166711333Y-111418619D01*
X166663714Y-111323381D01*
X166663714Y-111180524D01*
X166711333Y-111085285D01*
X167282762Y-110656714D02*
X167330381Y-110561476D01*
X167330381Y-110371000D01*
X167282762Y-110275761D01*
X167187524Y-110228142D01*
X167139905Y-110228142D01*
X167044667Y-110275761D01*
X166997048Y-110371000D01*
X166997048Y-110513857D01*
X166949429Y-110609095D01*
X166854190Y-110656714D01*
X166806571Y-110656714D01*
X166711333Y-110609095D01*
X166663714Y-110513857D01*
X166663714Y-110371000D01*
X166711333Y-110275761D01*
X167330381Y-109275761D02*
X167330381Y-109847190D01*
X167330381Y-109561476D02*
X166330381Y-109561476D01*
X166473238Y-109656714D01*
X166568476Y-109751952D01*
X166616095Y-109847190D01*
X143192762Y-97766143D02*
X143145143Y-97813762D01*
X143002286Y-97861381D01*
X142907048Y-97861381D01*
X142764190Y-97813762D01*
X142668952Y-97718524D01*
X142621333Y-97623286D01*
X142573714Y-97432810D01*
X142573714Y-97289952D01*
X142621333Y-97099476D01*
X142668952Y-97004238D01*
X142764190Y-96909000D01*
X142907048Y-96861381D01*
X143002286Y-96861381D01*
X143145143Y-96909000D01*
X143192762Y-96956619D01*
X143621333Y-97861381D02*
X143621333Y-96861381D01*
X143859428Y-96861381D01*
X144002286Y-96909000D01*
X144097524Y-97004238D01*
X144145143Y-97099476D01*
X144192762Y-97289952D01*
X144192762Y-97432810D01*
X144145143Y-97623286D01*
X144097524Y-97718524D01*
X144002286Y-97813762D01*
X143859428Y-97861381D01*
X143621333Y-97861381D01*
X144478476Y-96861381D02*
X144811809Y-97861381D01*
X145145143Y-96861381D01*
X145478476Y-97861381D02*
X145478476Y-96861381D01*
X145716571Y-96861381D01*
X145859429Y-96909000D01*
X145954667Y-97004238D01*
X146002286Y-97099476D01*
X146049905Y-97289952D01*
X146049905Y-97432810D01*
X146002286Y-97623286D01*
X145954667Y-97718524D01*
X145859429Y-97813762D01*
X145716571Y-97861381D01*
X145478476Y-97861381D01*
X146478476Y-97861381D02*
X146478476Y-96861381D01*
X146716571Y-96861381D01*
X146859429Y-96909000D01*
X146954667Y-97004238D01*
X147002286Y-97099476D01*
X147049905Y-97289952D01*
X147049905Y-97432810D01*
X147002286Y-97623286D01*
X146954667Y-97718524D01*
X146859429Y-97813762D01*
X146716571Y-97861381D01*
X146478476Y-97861381D01*
X148002286Y-97861381D02*
X147430857Y-97861381D01*
X147716571Y-97861381D02*
X147716571Y-96861381D01*
X147621333Y-97004238D01*
X147526095Y-97099476D01*
X147430857Y-97147095D01*
X124468191Y-104751143D02*
X124420572Y-104798762D01*
X124277715Y-104846381D01*
X124182477Y-104846381D01*
X124039619Y-104798762D01*
X123944381Y-104703524D01*
X123896762Y-104608286D01*
X123849143Y-104417810D01*
X123849143Y-104274952D01*
X123896762Y-104084476D01*
X123944381Y-103989238D01*
X124039619Y-103894000D01*
X124182477Y-103846381D01*
X124277715Y-103846381D01*
X124420572Y-103894000D01*
X124468191Y-103941619D01*
X124849143Y-104560667D02*
X125325334Y-104560667D01*
X124753905Y-104846381D02*
X125087238Y-103846381D01*
X125420572Y-104846381D01*
X125611048Y-103846381D02*
X125944381Y-104846381D01*
X126277715Y-103846381D01*
X126611048Y-104846381D02*
X126611048Y-103846381D01*
X126849143Y-103846381D01*
X126992001Y-103894000D01*
X127087239Y-103989238D01*
X127134858Y-104084476D01*
X127182477Y-104274952D01*
X127182477Y-104417810D01*
X127134858Y-104608286D01*
X127087239Y-104703524D01*
X126992001Y-104798762D01*
X126849143Y-104846381D01*
X126611048Y-104846381D01*
X127611048Y-104846381D02*
X127611048Y-103846381D01*
X127849143Y-103846381D01*
X127992001Y-103894000D01*
X128087239Y-103989238D01*
X128134858Y-104084476D01*
X128182477Y-104274952D01*
X128182477Y-104417810D01*
X128134858Y-104608286D01*
X128087239Y-104703524D01*
X127992001Y-104798762D01*
X127849143Y-104846381D01*
X127611048Y-104846381D01*
X129134858Y-104846381D02*
X128563429Y-104846381D01*
X128849143Y-104846381D02*
X128849143Y-103846381D01*
X128753905Y-103989238D01*
X128658667Y-104084476D01*
X128563429Y-104132095D01*
X174601143Y-82772095D02*
X174648762Y-82819714D01*
X174696381Y-82962571D01*
X174696381Y-83057809D01*
X174648762Y-83200667D01*
X174553524Y-83295905D01*
X174458286Y-83343524D01*
X174267810Y-83391143D01*
X174124952Y-83391143D01*
X173934476Y-83343524D01*
X173839238Y-83295905D01*
X173744000Y-83200667D01*
X173696381Y-83057809D01*
X173696381Y-82962571D01*
X173744000Y-82819714D01*
X173791619Y-82772095D01*
X174601143Y-81772095D02*
X174648762Y-81819714D01*
X174696381Y-81962571D01*
X174696381Y-82057809D01*
X174648762Y-82200667D01*
X174553524Y-82295905D01*
X174458286Y-82343524D01*
X174267810Y-82391143D01*
X174124952Y-82391143D01*
X173934476Y-82343524D01*
X173839238Y-82295905D01*
X173744000Y-82200667D01*
X173696381Y-82057809D01*
X173696381Y-81962571D01*
X173744000Y-81819714D01*
X173791619Y-81772095D01*
X173696381Y-81438762D02*
X174696381Y-81200667D01*
X173982095Y-81010190D01*
X174696381Y-80819714D01*
X173696381Y-80581619D01*
X174696381Y-79676857D02*
X174696381Y-80248286D01*
X174696381Y-79962572D02*
X173696381Y-79962572D01*
X173839238Y-80057810D01*
X173934476Y-80153048D01*
X173982095Y-80248286D01*
X143097334Y-99036143D02*
X143049715Y-99083762D01*
X142906858Y-99131381D01*
X142811620Y-99131381D01*
X142668762Y-99083762D01*
X142573524Y-98988524D01*
X142525905Y-98893286D01*
X142478286Y-98702810D01*
X142478286Y-98559952D01*
X142525905Y-98369476D01*
X142573524Y-98274238D01*
X142668762Y-98179000D01*
X142811620Y-98131381D01*
X142906858Y-98131381D01*
X143049715Y-98179000D01*
X143097334Y-98226619D01*
X143525905Y-99131381D02*
X143525905Y-98131381D01*
X143906858Y-98131381D01*
X144002096Y-98179000D01*
X144049715Y-98226619D01*
X144097334Y-98321857D01*
X144097334Y-98464714D01*
X144049715Y-98559952D01*
X144002096Y-98607571D01*
X143906858Y-98655190D01*
X143525905Y-98655190D01*
X145049715Y-99131381D02*
X144478286Y-99131381D01*
X144764000Y-99131381D02*
X144764000Y-98131381D01*
X144668762Y-98274238D01*
X144573524Y-98369476D01*
X144478286Y-98417095D01*
X143097334Y-100306143D02*
X143049715Y-100353762D01*
X142906858Y-100401381D01*
X142811620Y-100401381D01*
X142668762Y-100353762D01*
X142573524Y-100258524D01*
X142525905Y-100163286D01*
X142478286Y-99972810D01*
X142478286Y-99829952D01*
X142525905Y-99639476D01*
X142573524Y-99544238D01*
X142668762Y-99449000D01*
X142811620Y-99401381D01*
X142906858Y-99401381D01*
X143049715Y-99449000D01*
X143097334Y-99496619D01*
X143525905Y-100401381D02*
X143525905Y-99401381D01*
X143906858Y-99401381D01*
X144002096Y-99449000D01*
X144049715Y-99496619D01*
X144097334Y-99591857D01*
X144097334Y-99734714D01*
X144049715Y-99829952D01*
X144002096Y-99877571D01*
X143906858Y-99925190D01*
X143525905Y-99925190D01*
X144478286Y-99496619D02*
X144525905Y-99449000D01*
X144621143Y-99401381D01*
X144859239Y-99401381D01*
X144954477Y-99449000D01*
X145002096Y-99496619D01*
X145049715Y-99591857D01*
X145049715Y-99687095D01*
X145002096Y-99829952D01*
X144430667Y-100401381D01*
X145049715Y-100401381D01*
X149074143Y-106362238D02*
X149121762Y-106409857D01*
X149169381Y-106552714D01*
X149169381Y-106647952D01*
X149121762Y-106790810D01*
X149026524Y-106886048D01*
X148931286Y-106933667D01*
X148740810Y-106981286D01*
X148597952Y-106981286D01*
X148407476Y-106933667D01*
X148312238Y-106886048D01*
X148217000Y-106790810D01*
X148169381Y-106647952D01*
X148169381Y-106552714D01*
X148217000Y-106409857D01*
X148264619Y-106362238D01*
X149169381Y-105933667D02*
X148169381Y-105933667D01*
X148169381Y-105552714D01*
X148217000Y-105457476D01*
X148264619Y-105409857D01*
X148359857Y-105362238D01*
X148502714Y-105362238D01*
X148597952Y-105409857D01*
X148645571Y-105457476D01*
X148693190Y-105552714D01*
X148693190Y-105933667D01*
X148169381Y-105076524D02*
X149169381Y-104743191D01*
X148169381Y-104409857D01*
X149169381Y-104076524D02*
X148169381Y-104076524D01*
X148169381Y-103838429D01*
X148217000Y-103695571D01*
X148312238Y-103600333D01*
X148407476Y-103552714D01*
X148597952Y-103505095D01*
X148740810Y-103505095D01*
X148931286Y-103552714D01*
X149026524Y-103600333D01*
X149121762Y-103695571D01*
X149169381Y-103838429D01*
X149169381Y-104076524D01*
X149169381Y-103076524D02*
X148169381Y-103076524D01*
X148169381Y-102838429D01*
X148217000Y-102695571D01*
X148312238Y-102600333D01*
X148407476Y-102552714D01*
X148597952Y-102505095D01*
X148740810Y-102505095D01*
X148931286Y-102552714D01*
X149026524Y-102600333D01*
X149121762Y-102695571D01*
X149169381Y-102838429D01*
X149169381Y-103076524D01*
X149169381Y-101552714D02*
X149169381Y-102124143D01*
X149169381Y-101838429D02*
X148169381Y-101838429D01*
X148312238Y-101933667D01*
X148407476Y-102028905D01*
X148455095Y-102124143D01*
X149074143Y-111085047D02*
X149121762Y-111132666D01*
X149169381Y-111275523D01*
X149169381Y-111370761D01*
X149121762Y-111513619D01*
X149026524Y-111608857D01*
X148931286Y-111656476D01*
X148740810Y-111704095D01*
X148597952Y-111704095D01*
X148407476Y-111656476D01*
X148312238Y-111608857D01*
X148217000Y-111513619D01*
X148169381Y-111370761D01*
X148169381Y-111275523D01*
X148217000Y-111132666D01*
X148264619Y-111085047D01*
X148169381Y-110799333D02*
X149169381Y-110466000D01*
X148169381Y-110132666D01*
X149074143Y-109227904D02*
X149121762Y-109275523D01*
X149169381Y-109418380D01*
X149169381Y-109513618D01*
X149121762Y-109656476D01*
X149026524Y-109751714D01*
X148931286Y-109799333D01*
X148740810Y-109846952D01*
X148597952Y-109846952D01*
X148407476Y-109799333D01*
X148312238Y-109751714D01*
X148217000Y-109656476D01*
X148169381Y-109513618D01*
X148169381Y-109418380D01*
X148217000Y-109275523D01*
X148264619Y-109227904D01*
X149169381Y-108799333D02*
X148169381Y-108799333D01*
X148169381Y-108418380D01*
X148217000Y-108323142D01*
X148264619Y-108275523D01*
X148359857Y-108227904D01*
X148502714Y-108227904D01*
X148597952Y-108275523D01*
X148645571Y-108323142D01*
X148693190Y-108418380D01*
X148693190Y-108799333D01*
X149169381Y-107799333D02*
X148169381Y-107799333D01*
X148645571Y-107799333D02*
X148645571Y-107227904D01*
X149169381Y-107227904D02*
X148169381Y-107227904D01*
X149169381Y-106227904D02*
X149169381Y-106799333D01*
X149169381Y-106513619D02*
X148169381Y-106513619D01*
X148312238Y-106608857D01*
X148407476Y-106704095D01*
X148455095Y-106799333D01*
X143113381Y-96369143D02*
X143065762Y-96416762D01*
X142922905Y-96464381D01*
X142827667Y-96464381D01*
X142684809Y-96416762D01*
X142589571Y-96321524D01*
X142541952Y-96226286D01*
X142494333Y-96035810D01*
X142494333Y-95892952D01*
X142541952Y-95702476D01*
X142589571Y-95607238D01*
X142684809Y-95512000D01*
X142827667Y-95464381D01*
X142922905Y-95464381D01*
X143065762Y-95512000D01*
X143113381Y-95559619D01*
X143399095Y-95464381D02*
X143732428Y-96464381D01*
X144065762Y-95464381D01*
X144970524Y-96464381D02*
X144637190Y-95988190D01*
X144399095Y-96464381D02*
X144399095Y-95464381D01*
X144780048Y-95464381D01*
X144875286Y-95512000D01*
X144922905Y-95559619D01*
X144970524Y-95654857D01*
X144970524Y-95797714D01*
X144922905Y-95892952D01*
X144875286Y-95940571D01*
X144780048Y-95988190D01*
X144399095Y-95988190D01*
X145399095Y-95940571D02*
X145732429Y-95940571D01*
X145875286Y-96464381D02*
X145399095Y-96464381D01*
X145399095Y-95464381D01*
X145875286Y-95464381D01*
X146827667Y-95512000D02*
X146732429Y-95464381D01*
X146589572Y-95464381D01*
X146446714Y-95512000D01*
X146351476Y-95607238D01*
X146303857Y-95702476D01*
X146256238Y-95892952D01*
X146256238Y-96035810D01*
X146303857Y-96226286D01*
X146351476Y-96321524D01*
X146446714Y-96416762D01*
X146589572Y-96464381D01*
X146684810Y-96464381D01*
X146827667Y-96416762D01*
X146875286Y-96369143D01*
X146875286Y-96035810D01*
X146684810Y-96035810D01*
X147827667Y-96464381D02*
X147256238Y-96464381D01*
X147541952Y-96464381D02*
X147541952Y-95464381D01*
X147446714Y-95607238D01*
X147351476Y-95702476D01*
X147256238Y-95750095D01*
X172061143Y-82780095D02*
X172108762Y-82827714D01*
X172156381Y-82970571D01*
X172156381Y-83065809D01*
X172108762Y-83208667D01*
X172013524Y-83303905D01*
X171918286Y-83351524D01*
X171727810Y-83399143D01*
X171584952Y-83399143D01*
X171394476Y-83351524D01*
X171299238Y-83303905D01*
X171204000Y-83208667D01*
X171156381Y-83065809D01*
X171156381Y-82970571D01*
X171204000Y-82827714D01*
X171251619Y-82780095D01*
X171156381Y-82446762D02*
X172156381Y-82208667D01*
X171442095Y-82018190D01*
X172156381Y-81827714D01*
X171156381Y-81589619D01*
X172156381Y-80684857D02*
X172156381Y-81256286D01*
X172156381Y-80970572D02*
X171156381Y-80970572D01*
X171299238Y-81065810D01*
X171394476Y-81161048D01*
X171442095Y-81256286D01*
X177236381Y-118848095D02*
X176236381Y-118848095D01*
X176236381Y-118610000D01*
X176284000Y-118467142D01*
X176379238Y-118371904D01*
X176474476Y-118324285D01*
X176664952Y-118276666D01*
X176807810Y-118276666D01*
X176998286Y-118324285D01*
X177093524Y-118371904D01*
X177188762Y-118467142D01*
X177236381Y-118610000D01*
X177236381Y-118848095D01*
X177236381Y-117324285D02*
X177236381Y-117895714D01*
X177236381Y-117610000D02*
X176236381Y-117610000D01*
X176379238Y-117705238D01*
X176474476Y-117800476D01*
X176522095Y-117895714D01*
X176712571Y-83089429D02*
X176712571Y-82756095D01*
X177236381Y-82613238D02*
X177236381Y-83089429D01*
X176236381Y-83089429D01*
X176236381Y-82613238D01*
X177188762Y-82232286D02*
X177236381Y-82089429D01*
X177236381Y-81851333D01*
X177188762Y-81756095D01*
X177141143Y-81708476D01*
X177045905Y-81660857D01*
X176950667Y-81660857D01*
X176855429Y-81708476D01*
X176807810Y-81756095D01*
X176760190Y-81851333D01*
X176712571Y-82041810D01*
X176664952Y-82137048D01*
X176617333Y-82184667D01*
X176522095Y-82232286D01*
X176426857Y-82232286D01*
X176331619Y-82184667D01*
X176284000Y-82137048D01*
X176236381Y-82041810D01*
X176236381Y-81803714D01*
X176284000Y-81660857D01*
X176236381Y-81375143D02*
X176236381Y-80803714D01*
X177236381Y-81089429D02*
X176236381Y-81089429D01*
X176236381Y-80279905D02*
X176236381Y-80089428D01*
X176284000Y-79994190D01*
X176379238Y-79898952D01*
X176569714Y-79851333D01*
X176903048Y-79851333D01*
X177093524Y-79898952D01*
X177188762Y-79994190D01*
X177236381Y-80089428D01*
X177236381Y-80279905D01*
X177188762Y-80375143D01*
X177093524Y-80470381D01*
X176903048Y-80518000D01*
X176569714Y-80518000D01*
X176379238Y-80470381D01*
X176284000Y-80375143D01*
X176236381Y-80279905D01*
X177236381Y-79422762D02*
X176236381Y-79422762D01*
X176236381Y-79041809D01*
X176284000Y-78946571D01*
X176331619Y-78898952D01*
X176426857Y-78851333D01*
X176569714Y-78851333D01*
X176664952Y-78898952D01*
X176712571Y-78946571D01*
X176760190Y-79041809D01*
X176760190Y-79422762D01*
X177236381Y-77898952D02*
X177236381Y-78470381D01*
X177236381Y-78184667D02*
X176236381Y-78184667D01*
X176379238Y-78279905D01*
X176474476Y-78375143D01*
X176522095Y-78470381D01*
X174696381Y-93725905D02*
X173696381Y-93725905D01*
X174172571Y-93725905D02*
X174172571Y-93154476D01*
X174696381Y-93154476D02*
X173696381Y-93154476D01*
X174696381Y-92154476D02*
X174696381Y-92725905D01*
X174696381Y-92440191D02*
X173696381Y-92440191D01*
X173839238Y-92535429D01*
X173934476Y-92630667D01*
X173982095Y-92725905D01*
X131493334Y-93962381D02*
X131160000Y-93486190D01*
X130921905Y-93962381D02*
X130921905Y-92962381D01*
X131302858Y-92962381D01*
X131398096Y-93010000D01*
X131445715Y-93057619D01*
X131493334Y-93152857D01*
X131493334Y-93295714D01*
X131445715Y-93390952D01*
X131398096Y-93438571D01*
X131302858Y-93486190D01*
X130921905Y-93486190D01*
X131826667Y-92962381D02*
X132445715Y-92962381D01*
X132112381Y-93343333D01*
X132255239Y-93343333D01*
X132350477Y-93390952D01*
X132398096Y-93438571D01*
X132445715Y-93533810D01*
X132445715Y-93771905D01*
X132398096Y-93867143D01*
X132350477Y-93914762D01*
X132255239Y-93962381D01*
X131969524Y-93962381D01*
X131874286Y-93914762D01*
X131826667Y-93867143D01*
X156841095Y-83017381D02*
X156841095Y-83826905D01*
X156888714Y-83922143D01*
X156936333Y-83969762D01*
X157031571Y-84017381D01*
X157222048Y-84017381D01*
X157317286Y-83969762D01*
X157364905Y-83922143D01*
X157412524Y-83826905D01*
X157412524Y-83017381D01*
X158412524Y-84017381D02*
X157841095Y-84017381D01*
X158126809Y-84017381D02*
X158126809Y-83017381D01*
X158031571Y-83160238D01*
X157936333Y-83255476D01*
X157841095Y-83303095D01*
D13*
X140046667Y-91963333D02*
X140613333Y-91963333D01*
X140680000Y-91930000D01*
X140713333Y-91896667D01*
X140746667Y-91830000D01*
X140746667Y-91696667D01*
X140713333Y-91630000D01*
X140680000Y-91596667D01*
X140613333Y-91563333D01*
X140046667Y-91563333D01*
X140113333Y-91263334D02*
X140080000Y-91230000D01*
X140046667Y-91163334D01*
X140046667Y-90996667D01*
X140080000Y-90930000D01*
X140113333Y-90896667D01*
X140180000Y-90863334D01*
X140246667Y-90863334D01*
X140346667Y-90896667D01*
X140746667Y-91296667D01*
X140746667Y-90863334D01*
X138046667Y-107213333D02*
X138613333Y-107213333D01*
X138680000Y-107180000D01*
X138713333Y-107146667D01*
X138746667Y-107080000D01*
X138746667Y-106946667D01*
X138713333Y-106880000D01*
X138680000Y-106846667D01*
X138613333Y-106813333D01*
X138046667Y-106813333D01*
X138046667Y-106546667D02*
X138046667Y-106113334D01*
X138313333Y-106346667D01*
X138313333Y-106246667D01*
X138346667Y-106180000D01*
X138380000Y-106146667D01*
X138446667Y-106113334D01*
X138613333Y-106113334D01*
X138680000Y-106146667D01*
X138713333Y-106180000D01*
X138746667Y-106246667D01*
X138746667Y-106446667D01*
X138713333Y-106513334D01*
X138680000Y-106546667D01*
D11*
X163599953Y-84761343D02*
X163552334Y-84808962D01*
X163409477Y-84856581D01*
X163314239Y-84856581D01*
X163171381Y-84808962D01*
X163076143Y-84713724D01*
X163028524Y-84618486D01*
X162980905Y-84428010D01*
X162980905Y-84285152D01*
X163028524Y-84094676D01*
X163076143Y-83999438D01*
X163171381Y-83904200D01*
X163314239Y-83856581D01*
X163409477Y-83856581D01*
X163552334Y-83904200D01*
X163599953Y-83951819D01*
X163980905Y-84570867D02*
X164457096Y-84570867D01*
X163885667Y-84856581D02*
X164219000Y-83856581D01*
X164552334Y-84856581D01*
X164885667Y-84856581D02*
X164885667Y-83856581D01*
X165457096Y-84856581D01*
X165457096Y-83856581D01*
X166457096Y-84856581D02*
X165885667Y-84856581D01*
X166171381Y-84856581D02*
X166171381Y-83856581D01*
X166076143Y-83999438D01*
X165980905Y-84094676D01*
X165885667Y-84142295D01*
X118554762Y-66270143D02*
X118507143Y-66317762D01*
X118364286Y-66365381D01*
X118269048Y-66365381D01*
X118126190Y-66317762D01*
X118030952Y-66222524D01*
X117983333Y-66127286D01*
X117935714Y-65936810D01*
X117935714Y-65793952D01*
X117983333Y-65603476D01*
X118030952Y-65508238D01*
X118126190Y-65413000D01*
X118269048Y-65365381D01*
X118364286Y-65365381D01*
X118507143Y-65413000D01*
X118554762Y-65460619D01*
X119316667Y-65841571D02*
X119459524Y-65889190D01*
X119507143Y-65936810D01*
X119554762Y-66032048D01*
X119554762Y-66174905D01*
X119507143Y-66270143D01*
X119459524Y-66317762D01*
X119364286Y-66365381D01*
X118983333Y-66365381D01*
X118983333Y-65365381D01*
X119316667Y-65365381D01*
X119411905Y-65413000D01*
X119459524Y-65460619D01*
X119507143Y-65555857D01*
X119507143Y-65651095D01*
X119459524Y-65746333D01*
X119411905Y-65793952D01*
X119316667Y-65841571D01*
X118983333Y-65841571D01*
X119983333Y-65365381D02*
X119983333Y-66174905D01*
X120030952Y-66270143D01*
X120078571Y-66317762D01*
X120173809Y-66365381D01*
X120364286Y-66365381D01*
X120459524Y-66317762D01*
X120507143Y-66270143D01*
X120554762Y-66174905D01*
X120554762Y-65365381D01*
X121507143Y-66365381D02*
X121030952Y-66365381D01*
X121030952Y-65365381D01*
X121840476Y-66365381D02*
X121840476Y-65365381D01*
X122411905Y-66365381D02*
X121983333Y-65793952D01*
X122411905Y-65365381D02*
X121840476Y-65936810D01*
X123364286Y-66365381D02*
X122792857Y-66365381D01*
X123078571Y-66365381D02*
X123078571Y-65365381D01*
X122983333Y-65508238D01*
X122888095Y-65603476D01*
X122792857Y-65651095D01*
X165544762Y-66270143D02*
X165497143Y-66317762D01*
X165354286Y-66365381D01*
X165259048Y-66365381D01*
X165116190Y-66317762D01*
X165020952Y-66222524D01*
X164973333Y-66127286D01*
X164925714Y-65936810D01*
X164925714Y-65793952D01*
X164973333Y-65603476D01*
X165020952Y-65508238D01*
X165116190Y-65413000D01*
X165259048Y-65365381D01*
X165354286Y-65365381D01*
X165497143Y-65413000D01*
X165544762Y-65460619D01*
X166306667Y-65841571D02*
X166449524Y-65889190D01*
X166497143Y-65936810D01*
X166544762Y-66032048D01*
X166544762Y-66174905D01*
X166497143Y-66270143D01*
X166449524Y-66317762D01*
X166354286Y-66365381D01*
X165973333Y-66365381D01*
X165973333Y-65365381D01*
X166306667Y-65365381D01*
X166401905Y-65413000D01*
X166449524Y-65460619D01*
X166497143Y-65555857D01*
X166497143Y-65651095D01*
X166449524Y-65746333D01*
X166401905Y-65793952D01*
X166306667Y-65841571D01*
X165973333Y-65841571D01*
X166973333Y-65365381D02*
X166973333Y-66174905D01*
X167020952Y-66270143D01*
X167068571Y-66317762D01*
X167163809Y-66365381D01*
X167354286Y-66365381D01*
X167449524Y-66317762D01*
X167497143Y-66270143D01*
X167544762Y-66174905D01*
X167544762Y-65365381D01*
X168497143Y-66365381D02*
X168020952Y-66365381D01*
X168020952Y-65365381D01*
X168830476Y-66365381D02*
X168830476Y-65365381D01*
X169401905Y-66365381D02*
X168973333Y-65793952D01*
X169401905Y-65365381D02*
X168830476Y-65936810D01*
X169782857Y-65460619D02*
X169830476Y-65413000D01*
X169925714Y-65365381D01*
X170163810Y-65365381D01*
X170259048Y-65413000D01*
X170306667Y-65460619D01*
X170354286Y-65555857D01*
X170354286Y-65651095D01*
X170306667Y-65793952D01*
X169735238Y-66365381D01*
X170354286Y-66365381D01*
X142946857Y-101703143D02*
X142899238Y-101750762D01*
X142756381Y-101798381D01*
X142661143Y-101798381D01*
X142518285Y-101750762D01*
X142423047Y-101655524D01*
X142375428Y-101560286D01*
X142327809Y-101369810D01*
X142327809Y-101226952D01*
X142375428Y-101036476D01*
X142423047Y-100941238D01*
X142518285Y-100846000D01*
X142661143Y-100798381D01*
X142756381Y-100798381D01*
X142899238Y-100846000D01*
X142946857Y-100893619D01*
X143946857Y-101703143D02*
X143899238Y-101750762D01*
X143756381Y-101798381D01*
X143661143Y-101798381D01*
X143518285Y-101750762D01*
X143423047Y-101655524D01*
X143375428Y-101560286D01*
X143327809Y-101369810D01*
X143327809Y-101226952D01*
X143375428Y-101036476D01*
X143423047Y-100941238D01*
X143518285Y-100846000D01*
X143661143Y-100798381D01*
X143756381Y-100798381D01*
X143899238Y-100846000D01*
X143946857Y-100893619D01*
X144375428Y-101798381D02*
X144375428Y-100798381D01*
X144756381Y-100798381D01*
X144851619Y-100846000D01*
X144899238Y-100893619D01*
X144946857Y-100988857D01*
X144946857Y-101131714D01*
X144899238Y-101226952D01*
X144851619Y-101274571D01*
X144756381Y-101322190D01*
X144375428Y-101322190D01*
X145232571Y-100798381D02*
X145565904Y-101798381D01*
X145899238Y-100798381D01*
X145994476Y-101893619D02*
X146756381Y-101893619D01*
X147470667Y-101798381D02*
X146994476Y-101798381D01*
X146994476Y-100798381D01*
X147756381Y-101750762D02*
X147899238Y-101798381D01*
X148137334Y-101798381D01*
X148232572Y-101750762D01*
X148280191Y-101703143D01*
X148327810Y-101607905D01*
X148327810Y-101512667D01*
X148280191Y-101417429D01*
X148232572Y-101369810D01*
X148137334Y-101322190D01*
X147946857Y-101274571D01*
X147851619Y-101226952D01*
X147804000Y-101179333D01*
X147756381Y-101084095D01*
X147756381Y-100988857D01*
X147804000Y-100893619D01*
X147851619Y-100846000D01*
X147946857Y-100798381D01*
X148184953Y-100798381D01*
X148327810Y-100846000D01*
X148756381Y-101798381D02*
X148756381Y-100798381D01*
X148994476Y-100798381D01*
X149137334Y-100846000D01*
X149232572Y-100941238D01*
X149280191Y-101036476D01*
X149327810Y-101226952D01*
X149327810Y-101369810D01*
X149280191Y-101560286D01*
X149232572Y-101655524D01*
X149137334Y-101750762D01*
X148994476Y-101798381D01*
X148756381Y-101798381D01*
X150280191Y-101798381D02*
X149708762Y-101798381D01*
X149994476Y-101798381D02*
X149994476Y-100798381D01*
X149899238Y-100941238D01*
X149804000Y-101036476D01*
X149708762Y-101084095D01*
X136243334Y-82362381D02*
X135910000Y-81886190D01*
X135671905Y-82362381D02*
X135671905Y-81362381D01*
X136052858Y-81362381D01*
X136148096Y-81410000D01*
X136195715Y-81457619D01*
X136243334Y-81552857D01*
X136243334Y-81695714D01*
X136195715Y-81790952D01*
X136148096Y-81838571D01*
X136052858Y-81886190D01*
X135671905Y-81886190D01*
X137195715Y-82362381D02*
X136624286Y-82362381D01*
X136910000Y-82362381D02*
X136910000Y-81362381D01*
X136814762Y-81505238D01*
X136719524Y-81600476D01*
X136624286Y-81648095D01*
X124336777Y-82764542D02*
X124479634Y-82812161D01*
X124717730Y-82812161D01*
X124812968Y-82764542D01*
X124860587Y-82716923D01*
X124908206Y-82621685D01*
X124908206Y-82526447D01*
X124860587Y-82431209D01*
X124812968Y-82383590D01*
X124717730Y-82335970D01*
X124527253Y-82288351D01*
X124432015Y-82240732D01*
X124384396Y-82193113D01*
X124336777Y-82097875D01*
X124336777Y-82002637D01*
X124384396Y-81907399D01*
X124432015Y-81859780D01*
X124527253Y-81812161D01*
X124765349Y-81812161D01*
X124908206Y-81859780D01*
X125241539Y-81812161D02*
X125479634Y-82812161D01*
X125670111Y-82097875D01*
X125860587Y-82812161D01*
X126098682Y-81812161D01*
X127003444Y-82812161D02*
X126432015Y-82812161D01*
X126717729Y-82812161D02*
X126717729Y-81812161D01*
X126622491Y-81955018D01*
X126527253Y-82050256D01*
X126432015Y-82097875D01*
X137969524Y-82132381D02*
X137969524Y-81132381D01*
X137969524Y-81608571D02*
X138540953Y-81608571D01*
X138540953Y-82132381D02*
X138540953Y-81132381D01*
X138969524Y-82084762D02*
X139112381Y-82132381D01*
X139350477Y-82132381D01*
X139445715Y-82084762D01*
X139493334Y-82037143D01*
X139540953Y-81941905D01*
X139540953Y-81846667D01*
X139493334Y-81751429D01*
X139445715Y-81703810D01*
X139350477Y-81656190D01*
X139160000Y-81608571D01*
X139064762Y-81560952D01*
X139017143Y-81513333D01*
X138969524Y-81418095D01*
X138969524Y-81322857D01*
X139017143Y-81227619D01*
X139064762Y-81180000D01*
X139160000Y-81132381D01*
X139398096Y-81132381D01*
X139540953Y-81180000D01*
X139969524Y-81608571D02*
X140302858Y-81608571D01*
X140445715Y-82132381D02*
X139969524Y-82132381D01*
X139969524Y-81132381D01*
X140445715Y-81132381D01*
X141398096Y-82132381D02*
X140826667Y-82132381D01*
X141112381Y-82132381D02*
X141112381Y-81132381D01*
X141017143Y-81275238D01*
X140921905Y-81370476D01*
X140826667Y-81418095D01*
X173696381Y-118871905D02*
X174505905Y-118871905D01*
X174601143Y-118824286D01*
X174648762Y-118776667D01*
X174696381Y-118681429D01*
X174696381Y-118490952D01*
X174648762Y-118395714D01*
X174601143Y-118348095D01*
X174505905Y-118300476D01*
X173696381Y-118300476D01*
X173696381Y-117395714D02*
X173696381Y-117586191D01*
X173744000Y-117681429D01*
X173791619Y-117729048D01*
X173934476Y-117824286D01*
X174124952Y-117871905D01*
X174505905Y-117871905D01*
X174601143Y-117824286D01*
X174648762Y-117776667D01*
X174696381Y-117681429D01*
X174696381Y-117490952D01*
X174648762Y-117395714D01*
X174601143Y-117348095D01*
X174505905Y-117300476D01*
X174267810Y-117300476D01*
X174172571Y-117348095D01*
X174124952Y-117395714D01*
X174077333Y-117490952D01*
X174077333Y-117681429D01*
X174124952Y-117776667D01*
X174172571Y-117824286D01*
X174267810Y-117871905D01*
X159793858Y-117461143D02*
X159746239Y-117508762D01*
X159603382Y-117556381D01*
X159508144Y-117556381D01*
X159365286Y-117508762D01*
X159270048Y-117413524D01*
X159222429Y-117318286D01*
X159174810Y-117127810D01*
X159174810Y-116984952D01*
X159222429Y-116794476D01*
X159270048Y-116699238D01*
X159365286Y-116604000D01*
X159508144Y-116556381D01*
X159603382Y-116556381D01*
X159746239Y-116604000D01*
X159793858Y-116651619D01*
X160222429Y-117556381D02*
X160222429Y-116889714D01*
X160222429Y-116556381D02*
X160174810Y-116604000D01*
X160222429Y-116651619D01*
X160270048Y-116604000D01*
X160222429Y-116556381D01*
X160222429Y-116651619D01*
X160698619Y-116889714D02*
X160698619Y-117556381D01*
X160698619Y-116984952D02*
X160746238Y-116937333D01*
X160841476Y-116889714D01*
X160984334Y-116889714D01*
X161079572Y-116937333D01*
X161127191Y-117032571D01*
X161127191Y-117556381D01*
X162127191Y-117556381D02*
X161555762Y-117556381D01*
X161841476Y-117556381D02*
X161841476Y-116556381D01*
X161746238Y-116699238D01*
X161651000Y-116794476D01*
X161555762Y-116842095D01*
X163234857Y-103862143D02*
X163187238Y-103909762D01*
X163044381Y-103957381D01*
X162949143Y-103957381D01*
X162806285Y-103909762D01*
X162711047Y-103814524D01*
X162663428Y-103719286D01*
X162615809Y-103528810D01*
X162615809Y-103385952D01*
X162663428Y-103195476D01*
X162711047Y-103100238D01*
X162806285Y-103005000D01*
X162949143Y-102957381D01*
X163044381Y-102957381D01*
X163187238Y-103005000D01*
X163234857Y-103052619D01*
X163806285Y-103957381D02*
X163711047Y-103909762D01*
X163663428Y-103862143D01*
X163615809Y-103766905D01*
X163615809Y-103481190D01*
X163663428Y-103385952D01*
X163711047Y-103338333D01*
X163806285Y-103290714D01*
X163949143Y-103290714D01*
X164044381Y-103338333D01*
X164092000Y-103385952D01*
X164139619Y-103481190D01*
X164139619Y-103766905D01*
X164092000Y-103862143D01*
X164044381Y-103909762D01*
X163949143Y-103957381D01*
X163806285Y-103957381D01*
X164996762Y-103290714D02*
X164996762Y-103957381D01*
X164568190Y-103290714D02*
X164568190Y-103814524D01*
X164615809Y-103909762D01*
X164711047Y-103957381D01*
X164853905Y-103957381D01*
X164949143Y-103909762D01*
X164996762Y-103862143D01*
X165330095Y-103290714D02*
X165711047Y-103290714D01*
X165472952Y-102957381D02*
X165472952Y-103814524D01*
X165520571Y-103909762D01*
X165615809Y-103957381D01*
X165711047Y-103957381D01*
X166568191Y-103957381D02*
X165996762Y-103957381D01*
X166282476Y-103957381D02*
X166282476Y-102957381D01*
X166187238Y-103100238D01*
X166092000Y-103195476D01*
X165996762Y-103243095D01*
X169489381Y-111847143D02*
X169013190Y-112180477D01*
X169489381Y-112418572D02*
X168489381Y-112418572D01*
X168489381Y-112037619D01*
X168537000Y-111942381D01*
X168584619Y-111894762D01*
X168679857Y-111847143D01*
X168822714Y-111847143D01*
X168917952Y-111894762D01*
X168965571Y-111942381D01*
X169013190Y-112037619D01*
X169013190Y-112418572D01*
X168822714Y-111561429D02*
X168822714Y-111180477D01*
X169489381Y-111418572D02*
X168632238Y-111418572D01*
X168537000Y-111370953D01*
X168489381Y-111275715D01*
X168489381Y-111180477D01*
X169489381Y-110847143D02*
X168489381Y-110847143D01*
X168870333Y-110847143D02*
X168822714Y-110751905D01*
X168822714Y-110561428D01*
X168870333Y-110466190D01*
X168917952Y-110418571D01*
X169013190Y-110370952D01*
X169298905Y-110370952D01*
X169394143Y-110418571D01*
X169441762Y-110466190D01*
X169489381Y-110561428D01*
X169489381Y-110751905D01*
X169441762Y-110847143D01*
X169489381Y-109942381D02*
X168489381Y-109942381D01*
X168870333Y-109942381D02*
X168822714Y-109847143D01*
X168822714Y-109656666D01*
X168870333Y-109561428D01*
X168917952Y-109513809D01*
X169013190Y-109466190D01*
X169298905Y-109466190D01*
X169394143Y-109513809D01*
X169441762Y-109561428D01*
X169489381Y-109656666D01*
X169489381Y-109847143D01*
X169441762Y-109942381D01*
X169489381Y-108513809D02*
X169489381Y-109085238D01*
X169489381Y-108799524D02*
X168489381Y-108799524D01*
X168632238Y-108894762D01*
X168727476Y-108990000D01*
X168775095Y-109085238D01*
X163655524Y-100655381D02*
X163322190Y-100179190D01*
X163084095Y-100655381D02*
X163084095Y-99655381D01*
X163465048Y-99655381D01*
X163560286Y-99703000D01*
X163607905Y-99750619D01*
X163655524Y-99845857D01*
X163655524Y-99988714D01*
X163607905Y-100083952D01*
X163560286Y-100131571D01*
X163465048Y-100179190D01*
X163084095Y-100179190D01*
X163941238Y-99988714D02*
X164322190Y-99988714D01*
X164084095Y-100655381D02*
X164084095Y-99798238D01*
X164131714Y-99703000D01*
X164226952Y-99655381D01*
X164322190Y-99655381D01*
X164655524Y-100655381D02*
X164655524Y-99655381D01*
X164655524Y-100036333D02*
X164750762Y-99988714D01*
X164941239Y-99988714D01*
X165036477Y-100036333D01*
X165084096Y-100083952D01*
X165131715Y-100179190D01*
X165131715Y-100464905D01*
X165084096Y-100560143D01*
X165036477Y-100607762D01*
X164941239Y-100655381D01*
X164750762Y-100655381D01*
X164655524Y-100607762D01*
X165417429Y-99988714D02*
X165798381Y-99988714D01*
X165560286Y-99655381D02*
X165560286Y-100512524D01*
X165607905Y-100607762D01*
X165703143Y-100655381D01*
X165798381Y-100655381D01*
X166655525Y-100655381D02*
X166084096Y-100655381D01*
X166369810Y-100655381D02*
X166369810Y-99655381D01*
X166274572Y-99798238D01*
X166179334Y-99893476D01*
X166084096Y-99941095D01*
X165298381Y-115879428D02*
X164822190Y-116212762D01*
X165298381Y-116450857D02*
X164298381Y-116450857D01*
X164298381Y-116069904D01*
X164346000Y-115974666D01*
X164393619Y-115927047D01*
X164488857Y-115879428D01*
X164631714Y-115879428D01*
X164726952Y-115927047D01*
X164774571Y-115974666D01*
X164822190Y-116069904D01*
X164822190Y-116450857D01*
X165298381Y-115308000D02*
X165250762Y-115403238D01*
X165203143Y-115450857D01*
X165107905Y-115498476D01*
X164822190Y-115498476D01*
X164726952Y-115450857D01*
X164679333Y-115403238D01*
X164631714Y-115308000D01*
X164631714Y-115165142D01*
X164679333Y-115069904D01*
X164726952Y-115022285D01*
X164822190Y-114974666D01*
X165107905Y-114974666D01*
X165203143Y-115022285D01*
X165250762Y-115069904D01*
X165298381Y-115165142D01*
X165298381Y-115308000D01*
X164631714Y-114546095D02*
X165298381Y-114546095D01*
X164726952Y-114546095D02*
X164679333Y-114498476D01*
X164631714Y-114403238D01*
X164631714Y-114260380D01*
X164679333Y-114165142D01*
X164774571Y-114117523D01*
X165298381Y-114117523D01*
X165298381Y-113117523D02*
X165298381Y-113688952D01*
X165298381Y-113403238D02*
X164298381Y-113403238D01*
X164441238Y-113498476D01*
X164536476Y-113593714D01*
X164584095Y-113688952D01*
X169695762Y-84129286D02*
X169743381Y-83986429D01*
X169743381Y-83748333D01*
X169695762Y-83653095D01*
X169648143Y-83605476D01*
X169552905Y-83557857D01*
X169457667Y-83557857D01*
X169362429Y-83605476D01*
X169314810Y-83653095D01*
X169267190Y-83748333D01*
X169219571Y-83938810D01*
X169171952Y-84034048D01*
X169124333Y-84081667D01*
X169029095Y-84129286D01*
X168933857Y-84129286D01*
X168838619Y-84081667D01*
X168791000Y-84034048D01*
X168743381Y-83938810D01*
X168743381Y-83700714D01*
X168791000Y-83557857D01*
X169267190Y-82938810D02*
X169743381Y-82938810D01*
X168743381Y-83272143D02*
X169267190Y-82938810D01*
X168743381Y-82605476D01*
X169743381Y-82272143D02*
X168743381Y-82272143D01*
X169743381Y-81700714D01*
X168743381Y-81700714D01*
X169648143Y-80653095D02*
X169695762Y-80700714D01*
X169743381Y-80843571D01*
X169743381Y-80938809D01*
X169695762Y-81081667D01*
X169600524Y-81176905D01*
X169505286Y-81224524D01*
X169314810Y-81272143D01*
X169171952Y-81272143D01*
X168981476Y-81224524D01*
X168886238Y-81176905D01*
X168791000Y-81081667D01*
X168743381Y-80938809D01*
X168743381Y-80843571D01*
X168791000Y-80700714D01*
X168838619Y-80653095D01*
X169743381Y-79700714D02*
X169743381Y-80272143D01*
X169743381Y-79986429D02*
X168743381Y-79986429D01*
X168886238Y-80081667D01*
X168981476Y-80176905D01*
X169029095Y-80272143D01*
X164463505Y-102261943D02*
X164415886Y-102309562D01*
X164273029Y-102357181D01*
X164177791Y-102357181D01*
X164034933Y-102309562D01*
X163939695Y-102214324D01*
X163892076Y-102119086D01*
X163844457Y-101928610D01*
X163844457Y-101785752D01*
X163892076Y-101595276D01*
X163939695Y-101500038D01*
X164034933Y-101404800D01*
X164177791Y-101357181D01*
X164273029Y-101357181D01*
X164415886Y-101404800D01*
X164463505Y-101452419D01*
X164749219Y-101690514D02*
X165130171Y-101690514D01*
X164892076Y-102357181D02*
X164892076Y-101500038D01*
X164939695Y-101404800D01*
X165034933Y-101357181D01*
X165130171Y-101357181D01*
X165320648Y-101690514D02*
X165701600Y-101690514D01*
X165463505Y-102357181D02*
X165463505Y-101500038D01*
X165511124Y-101404800D01*
X165606362Y-101357181D01*
X165701600Y-101357181D01*
X166558744Y-102357181D02*
X165987315Y-102357181D01*
X166273029Y-102357181D02*
X166273029Y-101357181D01*
X166177791Y-101500038D01*
X166082553Y-101595276D01*
X165987315Y-101642895D01*
X176712571Y-93654476D02*
X176712571Y-93321142D01*
X177236381Y-93178285D02*
X177236381Y-93654476D01*
X176236381Y-93654476D01*
X176236381Y-93178285D01*
X177236381Y-92225904D02*
X177236381Y-92797333D01*
X177236381Y-92511619D02*
X176236381Y-92511619D01*
X176379238Y-92606857D01*
X176474476Y-92702095D01*
X176522095Y-92797333D01*
X154174095Y-104540881D02*
X154174095Y-105350405D01*
X154221714Y-105445643D01*
X154269333Y-105493262D01*
X154364571Y-105540881D01*
X154555048Y-105540881D01*
X154650286Y-105493262D01*
X154697905Y-105445643D01*
X154745524Y-105350405D01*
X154745524Y-104540881D01*
X155697905Y-104540881D02*
X155221714Y-104540881D01*
X155174095Y-105017071D01*
X155221714Y-104969452D01*
X155316952Y-104921833D01*
X155555048Y-104921833D01*
X155650286Y-104969452D01*
X155697905Y-105017071D01*
X155745524Y-105112310D01*
X155745524Y-105350405D01*
X155697905Y-105445643D01*
X155650286Y-105493262D01*
X155555048Y-105540881D01*
X155316952Y-105540881D01*
X155221714Y-105493262D01*
X155174095Y-105445643D01*
M02*
