G04 #@! TF.FileFunction,Paste,Top*
%FSLAX46Y46*%
G04 Gerber Fmt 4.6, Leading zero omitted, Abs format (unit mm)*
G04 Created by KiCad (PCBNEW 4.0.1-2.fc23-product) date Fri 08 Jan 2016 07:43:49 PM MST*
%MOMM*%
G01*
G04 APERTURE LIST*
%ADD10C,0.100000*%
%ADD11R,0.500000X0.600000*%
%ADD12R,0.600000X0.500000*%
%ADD13R,1.600000X1.000000*%
%ADD14R,0.400000X0.600000*%
%ADD15R,1.700000X0.650000*%
%ADD16R,0.300000X1.500000*%
%ADD17R,1.500000X0.300000*%
%ADD18R,2.121320X2.121320*%
%ADD19R,2.180000X1.600000*%
%ADD20R,0.400000X2.000000*%
%ADD21R,1.000000X1.600000*%
%ADD22R,0.600000X0.400000*%
%ADD23R,8.540000X5.350000*%
%ADD24R,3.060000X0.890000*%
G04 APERTURE END LIST*
D10*
D11*
X166878000Y-107400000D03*
X166878000Y-108500000D03*
D12*
X144460000Y-105030000D03*
X143360000Y-105030000D03*
X130975000Y-104390000D03*
X129875000Y-104390000D03*
X143360000Y-106830000D03*
X144460000Y-106830000D03*
X143360000Y-108030000D03*
X144460000Y-108030000D03*
D13*
X146810000Y-105830000D03*
X146810000Y-102830000D03*
X146810000Y-110430000D03*
X146810000Y-107430000D03*
D12*
X143360000Y-103830000D03*
X144460000Y-103830000D03*
D14*
X132110000Y-91710000D03*
X131210000Y-91710000D03*
D15*
X153953000Y-85340000D03*
X153953000Y-86610000D03*
X153953000Y-87880000D03*
X153953000Y-89150000D03*
X161253000Y-89150000D03*
X161253000Y-87880000D03*
X161253000Y-86610000D03*
X161253000Y-85340000D03*
D16*
X141910000Y-87230000D03*
X141410000Y-87230000D03*
X140910000Y-87230000D03*
X140410000Y-87230000D03*
X139910000Y-87230000D03*
X139410000Y-87230000D03*
X138910000Y-87230000D03*
X138410000Y-87230000D03*
X137910000Y-87230000D03*
X137410000Y-87230000D03*
X136910000Y-87230000D03*
X136410000Y-87230000D03*
X136410000Y-95630000D03*
X136910000Y-95630000D03*
X137410000Y-95630000D03*
X137910000Y-95630000D03*
X138410000Y-95630000D03*
X138910000Y-95630000D03*
X139410000Y-95630000D03*
X139910000Y-95630000D03*
X140410000Y-95630000D03*
X140910000Y-95630000D03*
X141410000Y-95630000D03*
X141910000Y-95630000D03*
D17*
X134960000Y-88680000D03*
X134960000Y-89180000D03*
X134960000Y-89680000D03*
X134960000Y-90180000D03*
X134960000Y-90680000D03*
X134960000Y-91180000D03*
X134960000Y-91680000D03*
X134960000Y-92180000D03*
X134960000Y-92680000D03*
X134960000Y-93180000D03*
X134960000Y-93680000D03*
X134960000Y-94180000D03*
X143360000Y-94180000D03*
X143360000Y-93680000D03*
X143360000Y-93180000D03*
X143360000Y-92680000D03*
X143360000Y-92180000D03*
X143360000Y-91680000D03*
X143360000Y-91180000D03*
X143360000Y-90680000D03*
X143360000Y-90180000D03*
X143360000Y-89680000D03*
X143360000Y-89180000D03*
X143360000Y-88680000D03*
D16*
X139910000Y-102480000D03*
X139410000Y-102480000D03*
X138910000Y-102480000D03*
X138410000Y-102480000D03*
X137910000Y-102480000D03*
X137410000Y-102480000D03*
X136910000Y-102480000D03*
X136410000Y-102480000D03*
X135910000Y-102480000D03*
X135410000Y-102480000D03*
X134910000Y-102480000D03*
X134410000Y-102480000D03*
X134410000Y-110880000D03*
X134910000Y-110880000D03*
X135410000Y-110880000D03*
X135910000Y-110880000D03*
X136410000Y-110880000D03*
X136910000Y-110880000D03*
X137410000Y-110880000D03*
X137910000Y-110880000D03*
X138410000Y-110880000D03*
X138910000Y-110880000D03*
X139410000Y-110880000D03*
X139910000Y-110880000D03*
D17*
X132960000Y-103930000D03*
X132960000Y-104430000D03*
X132960000Y-104930000D03*
X132960000Y-105430000D03*
X132960000Y-105930000D03*
X132960000Y-106430000D03*
X132960000Y-106930000D03*
X132960000Y-107430000D03*
X132960000Y-107930000D03*
X132960000Y-108430000D03*
X132960000Y-108930000D03*
X132960000Y-109430000D03*
X141360000Y-109430000D03*
X141360000Y-108930000D03*
X141360000Y-108430000D03*
X141360000Y-107930000D03*
X141360000Y-107430000D03*
X141360000Y-106930000D03*
X141360000Y-106430000D03*
X141360000Y-105930000D03*
X141360000Y-105430000D03*
X141360000Y-104930000D03*
X141360000Y-104430000D03*
X141360000Y-103930000D03*
D18*
X138660000Y-105180000D03*
X135660000Y-105180000D03*
X138660000Y-108180000D03*
X135660000Y-108180000D03*
D12*
X144460000Y-109730000D03*
X143360000Y-109730000D03*
D14*
X135960000Y-83710000D03*
X136860000Y-83710000D03*
D19*
X121057570Y-84957680D03*
X130262430Y-84962320D03*
D20*
X139660000Y-83680000D03*
X138460000Y-83680000D03*
X140860000Y-83680000D03*
D21*
X162151000Y-114804000D03*
X159151000Y-114804000D03*
X167533000Y-104898000D03*
X170533000Y-104898000D03*
D22*
X169033000Y-106988000D03*
X169033000Y-107888000D03*
D14*
X167313000Y-100707000D03*
X168213000Y-100707000D03*
D22*
X164842000Y-112460000D03*
X164842000Y-111560000D03*
D12*
X167369400Y-102590600D03*
X168469400Y-102590600D03*
D23*
X154936000Y-108708000D03*
D24*
X162241000Y-112518000D03*
X162241000Y-111248000D03*
X162241000Y-109978000D03*
X162241000Y-108708000D03*
X162241000Y-107438000D03*
X162241000Y-106168000D03*
X162241000Y-104898000D03*
M02*
