G04 #@! TF.FileFunction,Legend,Bot*
%FSLAX46Y46*%
G04 Gerber Fmt 4.6, Leading zero omitted, Abs format (unit mm)*
G04 Created by KiCad (PCBNEW 4.0.1-2.fc23-product) date Fri 08 Jan 2016 07:43:49 PM MST*
%MOMM*%
G01*
G04 APERTURE LIST*
%ADD10C,0.100000*%
%ADD11C,0.150000*%
G04 APERTURE END LIST*
D10*
D11*
X125680000Y-97000000D02*
G75*
G03X125680000Y-97000000I-6000000J0D01*
G01*
X166320000Y-97000000D02*
G75*
G03X166320000Y-97000000I-6000000J0D01*
G01*
X160000000Y-98500000D02*
X162000000Y-98500000D01*
X160000000Y-95500000D02*
X162000000Y-95500000D01*
X120000000Y-95500000D02*
X118000000Y-95500000D01*
X120000000Y-98500000D02*
X118000000Y-98500000D01*
X120000000Y-95500000D02*
G75*
G02X120000000Y-98500000I0J-1500000D01*
G01*
X160000000Y-98500000D02*
G75*
G02X160000000Y-95500000I0J1500000D01*
G01*
X160000000Y-98500000D02*
G75*
G02X160000000Y-95500000I0J1500000D01*
G01*
X160000000Y-98500000D02*
G75*
G02X160000000Y-95500000I0J1500000D01*
G01*
X160000000Y-98500000D02*
G75*
G02X160000000Y-95500000I0J1500000D01*
G01*
X118000000Y-82500000D02*
X162000000Y-82500000D01*
X162000000Y-82500000D02*
X162000000Y-111500000D01*
X162000000Y-111500000D02*
X118000000Y-111500000D01*
X118000000Y-82500000D02*
X118000000Y-111500000D01*
X140761905Y-95182381D02*
X140761905Y-95991905D01*
X140714286Y-96087143D01*
X140666667Y-96134762D01*
X140571429Y-96182381D01*
X140380952Y-96182381D01*
X140285714Y-96134762D01*
X140238095Y-96087143D01*
X140190476Y-95991905D01*
X140190476Y-95182381D01*
X139285714Y-95515714D02*
X139285714Y-96182381D01*
X139523810Y-95134762D02*
X139761905Y-95849048D01*
X139142857Y-95849048D01*
M02*
