M48
;DRILL file {KiCad 4.0.1-2.fc23-product} date Fri 08 Jan 2016 07:02:45 PM MST
;FORMAT={-:-/ absolute / inch / decimal}
FMAT,2
INCH,TZ
T1C0.012
T2C0.013
T3C0.030
T4C0.039
T5C0.040
T6C0.047
T7C0.126
T8C0.177
%
G90
G05
M72
T1
X5.3055Y-4.1055
X5.3055Y-4.1528
X5.3055Y-4.2
X5.3055Y-4.2472
X5.3055Y-4.2945
X5.3528Y-4.1055
X5.3528Y-4.1528
X5.3528Y-4.2
X5.3528Y-4.2472
X5.3528Y-4.2945
X5.4Y-4.1055
X5.4Y-4.1528
X5.4Y-4.2
X5.4Y-4.2472
X5.4Y-4.2945
X5.4472Y-4.1055
X5.4472Y-4.1528
X5.4472Y-4.2
X5.4472Y-4.2472
X5.4472Y-4.2945
X5.4945Y-4.1055
X5.4945Y-4.1528
X5.4945Y-4.2
X5.4945Y-4.2472
X5.4945Y-4.2945
T2
X4.7657Y-3.4004
X5.0761Y-3.6778
X5.0911Y-3.6478
X5.1047Y-3.4335
X5.1539Y-3.4335
X5.1539Y-3.6598
X5.1638Y-3.5811
X5.1736Y-3.6795
X5.1835Y-4.3083
X5.1848Y-4.1114
X5.2602Y-3.6882
X5.265Y-4.46
X5.2917Y-3.8358
X5.3114Y-3.8161
X5.3311Y-3.8358
X5.3508Y-3.8161
X5.3798Y-3.6598
X5.395Y-4.45
X5.405Y-3.519
X5.405Y-3.6
X5.406Y-3.573
X5.407Y-3.492
X5.408Y-3.546
X5.4098Y-3.8949
X5.417Y-3.296
X5.4492Y-3.3843
X5.4492Y-3.8555
X5.4492Y-3.9146
X5.455Y-4.47
X5.4689Y-3.8752
X5.4698Y-3.6398
X5.4886Y-3.6685
X5.4984Y-3.3531
X5.5378Y-3.6488
X5.5575Y-3.6882
X5.564Y-3.823
X5.565Y-3.86
X5.5673Y-3.7134
X5.587Y-3.843
X5.587Y-3.6291
X5.5909Y-3.5181
X5.61Y-3.865
X5.6106Y-4.1508
X5.615Y-3.739
X5.6873Y-4.0573
X5.71Y-3.729
X5.7189Y-4.3201
X5.747Y-3.707
X5.762Y-3.594
X5.767Y-3.685
X5.779Y-3.615
X5.7798Y-4.0848
X5.79Y-3.668
X5.9512Y-3.4728
X5.9998Y-4.2298
X5.9998Y-4.2798
X5.9998Y-4.3298
X6.0102Y-3.4728
X6.0998Y-4.2298
X6.0998Y-4.2798
X6.0998Y-4.3298
X6.1311Y-3.4098
X6.1998Y-4.2298
X6.1998Y-4.2798
X6.1998Y-4.3298
X6.3223Y-4.5198
X6.436Y-3.761
X6.439Y-3.732
X6.465Y-3.719
X6.489Y-3.706
X6.513Y-3.693
X6.537Y-3.68
X6.562Y-3.668
X6.573Y-3.614
X6.589Y-3.662
X6.59Y-3.635
X6.593Y-3.594
X6.5998Y-4.2723
X6.6917Y-4.2476
X6.7123Y-4.0723
X6.7123Y-4.1898
X6.728Y-3.975
X6.7498Y-4.4098
X6.752Y-3.858
X6.765Y-3.912
X6.768Y-3.882
X6.768Y-4.286
X6.768Y-4.312
T3
X4.8618Y-4.5512
X4.9618Y-4.5512
X5.0618Y-4.5512
X5.1618Y-4.5512
X5.2618Y-4.5512
X5.3618Y-4.5512
X5.4618Y-4.5512
X5.5618Y-4.5512
X5.6618Y-4.5512
X5.7618Y-4.5512
X5.8618Y-4.5512
X5.9618Y-4.5512
X6.0618Y-4.5512
X6.1618Y-4.5512
T4
X4.8524Y-4.3406
X4.9311Y-4.065
X5.0098Y-3.5138
X5.0098Y-3.8287
X5.9547Y-3.9075
X5.9547Y-4.1043
X6.0396Y-4.1043
X6.1122Y-4.1043
X6.1909Y-4.1043
X6.2697Y-4.1043
T5
X6.4848Y-3.4098
X6.4848Y-3.5098
X6.665Y-3.36
X6.665Y-3.46
X6.665Y-3.56
X6.7598Y-3.3598
X6.7598Y-3.4598
X6.7598Y-3.5598
X6.8598Y-3.3598
X6.8598Y-3.4598
X6.8598Y-3.5598
X6.8598Y-3.7598
X6.8598Y-3.8598
X6.8598Y-3.9598
X6.8598Y-4.0598
X6.8598Y-4.1598
X6.8598Y-4.3598
X6.8598Y-4.4598
X6.8598Y-4.5598
X6.9598Y-3.3598
X6.9598Y-3.4598
X6.9598Y-3.5598
X6.9598Y-4.2598
X6.9598Y-4.3598
X6.9598Y-4.4598
X6.9598Y-4.5598
X6.96Y-3.76
X6.96Y-3.86
X6.96Y-3.96
X6.96Y-4.06
X6.96Y-4.16
T6
X4.75Y-2.8031
X4.75Y-3.
X6.6Y-2.8031
X6.6Y-3.
T7
X4.7118Y-3.8189
X6.3118Y-3.8189
T8
X5.1575Y-3.0866
X5.3937Y-3.0866
X5.6299Y-3.0866
X5.8661Y-3.0866
X6.1811Y-3.0866
T0
M30
