G04 #@! TF.FileFunction,Copper,L1,Top,Signal*
%FSLAX46Y46*%
G04 Gerber Fmt 4.6, Leading zero omitted, Abs format (unit mm)*
G04 Created by KiCad (PCBNEW 4.0.1-2.fc23-product) date Fri 08 Jan 2016 07:43:49 PM MST*
%MOMM*%
G01*
G04 APERTURE LIST*
%ADD10C,0.100000*%
%ADD11C,1.524000*%
%ADD12O,5.000000X14.500000*%
%ADD13C,3.500000*%
%ADD14R,0.500000X0.600000*%
%ADD15R,0.600000X0.500000*%
%ADD16R,2.032000X1.727200*%
%ADD17O,2.032000X1.727200*%
%ADD18R,1.600000X1.000000*%
%ADD19R,0.400000X0.600000*%
%ADD20R,1.700000X0.650000*%
%ADD21R,0.300000X1.500000*%
%ADD22R,1.500000X0.300000*%
%ADD23R,6.000000X6.000000*%
%ADD24R,2.121320X2.121320*%
%ADD25C,0.600000*%
%ADD26R,2.032000X2.032000*%
%ADD27O,2.032000X2.032000*%
%ADD28C,1.700000*%
%ADD29R,1.700000X1.700000*%
%ADD30R,2.180000X1.600000*%
%ADD31R,0.400000X2.000000*%
%ADD32R,1.000000X1.600000*%
%ADD33R,0.600000X0.400000*%
%ADD34R,8.540000X5.350000*%
%ADD35R,3.060000X0.890000*%
%ADD36C,0.500000*%
%ADD37C,1.500000*%
%ADD38C,0.508000*%
%ADD39C,0.254000*%
%ADD40C,0.152400*%
G04 APERTURE END LIST*
D10*
D11*
X123490000Y-115600000D03*
X126030000Y-115600000D03*
X128570000Y-115600000D03*
X131110000Y-115600000D03*
X133650000Y-115600000D03*
X136190000Y-115600000D03*
X138730000Y-115600000D03*
X141270000Y-115600000D03*
X143810000Y-115600000D03*
X146350000Y-115600000D03*
X148890000Y-115600000D03*
X151430000Y-115600000D03*
X153970000Y-115600000D03*
X156510000Y-115600000D03*
D12*
X137000000Y-73900000D03*
X143000000Y-73900000D03*
X149000000Y-73900000D03*
X131000000Y-73900000D03*
X157000000Y-73900000D03*
D13*
X119680000Y-97000000D03*
X160320000Y-97000000D03*
D14*
X166878000Y-107400000D03*
X166878000Y-108500000D03*
D15*
X144460000Y-105030000D03*
X143360000Y-105030000D03*
X130975000Y-104390000D03*
X129875000Y-104390000D03*
D16*
X174240000Y-90420000D03*
D17*
X174240000Y-87880000D03*
X174240000Y-85340000D03*
D15*
X143360000Y-106830000D03*
X144460000Y-106830000D03*
X143360000Y-108030000D03*
X144460000Y-108030000D03*
D18*
X146810000Y-105830000D03*
X146810000Y-102830000D03*
X146810000Y-110430000D03*
X146810000Y-107430000D03*
D15*
X143360000Y-103830000D03*
X144460000Y-103830000D03*
D16*
X171700000Y-90420000D03*
D17*
X171700000Y-87880000D03*
X171700000Y-85340000D03*
D16*
X176780000Y-115820000D03*
D17*
X176780000Y-113280000D03*
X176780000Y-110740000D03*
X176780000Y-108200000D03*
D16*
X176780000Y-90420000D03*
D17*
X176780000Y-87880000D03*
X176780000Y-85340000D03*
D16*
X174240000Y-95500000D03*
D17*
X174240000Y-98040000D03*
X174240000Y-100580000D03*
X174240000Y-103120000D03*
X174240000Y-105660000D03*
D19*
X132110000Y-91710000D03*
X131210000Y-91710000D03*
D20*
X153953000Y-85340000D03*
X153953000Y-86610000D03*
X153953000Y-87880000D03*
X153953000Y-89150000D03*
X161253000Y-89150000D03*
X161253000Y-87880000D03*
X161253000Y-86610000D03*
X161253000Y-85340000D03*
D21*
X141910000Y-87230000D03*
X141410000Y-87230000D03*
X140910000Y-87230000D03*
X140410000Y-87230000D03*
X139910000Y-87230000D03*
X139410000Y-87230000D03*
X138910000Y-87230000D03*
X138410000Y-87230000D03*
X137910000Y-87230000D03*
X137410000Y-87230000D03*
X136910000Y-87230000D03*
X136410000Y-87230000D03*
X136410000Y-95630000D03*
X136910000Y-95630000D03*
X137410000Y-95630000D03*
X137910000Y-95630000D03*
X138410000Y-95630000D03*
X138910000Y-95630000D03*
X139410000Y-95630000D03*
X139910000Y-95630000D03*
X140410000Y-95630000D03*
X140910000Y-95630000D03*
X141410000Y-95630000D03*
X141910000Y-95630000D03*
D22*
X134960000Y-88680000D03*
X134960000Y-89180000D03*
X134960000Y-89680000D03*
X134960000Y-90180000D03*
X134960000Y-90680000D03*
X134960000Y-91180000D03*
X134960000Y-91680000D03*
X134960000Y-92180000D03*
X134960000Y-92680000D03*
X134960000Y-93180000D03*
X134960000Y-93680000D03*
X134960000Y-94180000D03*
X143360000Y-94180000D03*
X143360000Y-93680000D03*
X143360000Y-93180000D03*
X143360000Y-92680000D03*
X143360000Y-92180000D03*
X143360000Y-91680000D03*
X143360000Y-91180000D03*
X143360000Y-90680000D03*
X143360000Y-90180000D03*
X143360000Y-89680000D03*
X143360000Y-89180000D03*
X143360000Y-88680000D03*
D21*
X139910000Y-102480000D03*
X139410000Y-102480000D03*
X138910000Y-102480000D03*
X138410000Y-102480000D03*
X137910000Y-102480000D03*
X137410000Y-102480000D03*
X136910000Y-102480000D03*
X136410000Y-102480000D03*
X135910000Y-102480000D03*
X135410000Y-102480000D03*
X134910000Y-102480000D03*
X134410000Y-102480000D03*
X134410000Y-110880000D03*
X134910000Y-110880000D03*
X135410000Y-110880000D03*
X135910000Y-110880000D03*
X136410000Y-110880000D03*
X136910000Y-110880000D03*
X137410000Y-110880000D03*
X137910000Y-110880000D03*
X138410000Y-110880000D03*
X138910000Y-110880000D03*
X139410000Y-110880000D03*
X139910000Y-110880000D03*
D22*
X132960000Y-103930000D03*
X132960000Y-104430000D03*
X132960000Y-104930000D03*
X132960000Y-105430000D03*
X132960000Y-105930000D03*
X132960000Y-106430000D03*
X132960000Y-106930000D03*
X132960000Y-107430000D03*
X132960000Y-107930000D03*
X132960000Y-108430000D03*
X132960000Y-108930000D03*
X132960000Y-109430000D03*
X141360000Y-109430000D03*
X141360000Y-108930000D03*
X141360000Y-108430000D03*
X141360000Y-107930000D03*
X141360000Y-107430000D03*
X141360000Y-106930000D03*
X141360000Y-106430000D03*
X141360000Y-105930000D03*
X141360000Y-105430000D03*
X141360000Y-104930000D03*
X141360000Y-104430000D03*
X141360000Y-103930000D03*
D23*
X137160000Y-106680000D03*
D24*
X138660000Y-105180000D03*
X135660000Y-105180000D03*
X138660000Y-108180000D03*
X135660000Y-108180000D03*
D25*
X139560000Y-104280000D03*
X138360000Y-104280000D03*
X137160000Y-104280000D03*
X135960000Y-104280000D03*
X134760000Y-104280000D03*
X139560000Y-105480000D03*
X138360000Y-105480000D03*
X137160000Y-105480000D03*
X135960000Y-105480000D03*
X134760000Y-105480000D03*
X139560000Y-106680000D03*
X138360000Y-106680000D03*
X137160000Y-106680000D03*
X135960000Y-106680000D03*
X134760000Y-106680000D03*
X139560000Y-107880000D03*
X138360000Y-107880000D03*
X137160000Y-107880000D03*
X135960000Y-107880000D03*
X134760000Y-107880000D03*
X139560000Y-109080000D03*
X138360000Y-109080000D03*
X137160000Y-109080000D03*
X135960000Y-109080000D03*
X134760000Y-109080000D03*
D26*
X164715000Y-89150000D03*
D27*
X164715000Y-86610000D03*
D28*
X120650000Y-71200000D03*
D29*
X120650000Y-76200000D03*
D28*
X167640000Y-71200000D03*
D29*
X167640000Y-76200000D03*
D15*
X144460000Y-109730000D03*
X143360000Y-109730000D03*
D19*
X135960000Y-83710000D03*
X136860000Y-83710000D03*
D30*
X121057570Y-84957680D03*
X130262430Y-84962320D03*
D31*
X139660000Y-83680000D03*
X138460000Y-83680000D03*
X140860000Y-83680000D03*
D16*
X174240000Y-115820000D03*
D17*
X174240000Y-113280000D03*
X174240000Y-110740000D03*
D32*
X162151000Y-114804000D03*
X159151000Y-114804000D03*
X167533000Y-104898000D03*
X170533000Y-104898000D03*
D33*
X169033000Y-106988000D03*
X169033000Y-107888000D03*
D19*
X167313000Y-100707000D03*
X168213000Y-100707000D03*
D33*
X164842000Y-112460000D03*
X164842000Y-111560000D03*
D16*
X169291000Y-90424000D03*
D17*
X169291000Y-87884000D03*
X169291000Y-85344000D03*
D15*
X167369400Y-102590600D03*
X168469400Y-102590600D03*
D16*
X176784000Y-95504000D03*
D17*
X176784000Y-98044000D03*
X176784000Y-100584000D03*
X176784000Y-103124000D03*
X176784000Y-105664000D03*
D34*
X154936000Y-108708000D03*
D35*
X162241000Y-112518000D03*
X162241000Y-111248000D03*
X162241000Y-109978000D03*
X162241000Y-108708000D03*
X162241000Y-107438000D03*
X162241000Y-106168000D03*
X162241000Y-104898000D03*
D36*
X152396000Y-109978000D03*
X152396000Y-108708000D03*
X152396000Y-107438000D03*
X154936000Y-109978000D03*
X154936000Y-108708000D03*
X154936000Y-107438000D03*
X157476000Y-109978000D03*
X157476000Y-108708000D03*
X157476000Y-107438000D03*
D37*
X123250000Y-110250000D03*
X125250000Y-103250000D03*
X127250000Y-97250000D03*
X127250000Y-89250000D03*
X151250000Y-99250000D03*
X159250000Y-104250000D03*
X157250000Y-104250000D03*
X155250000Y-104250000D03*
X153407000Y-104250000D03*
X151250000Y-104250000D03*
D38*
X138934000Y-92452000D03*
X136648000Y-92960000D03*
X146808000Y-103755000D03*
X144458500Y-103056500D03*
X160587500Y-114804000D03*
X167636000Y-108517500D03*
X170493500Y-106422000D03*
X170493500Y-103437500D03*
X169970000Y-107890000D03*
X138410000Y-85960000D03*
X133610000Y-93680000D03*
X139660000Y-85170000D03*
X145260000Y-109730000D03*
X131660000Y-109430000D03*
X121050000Y-86370000D03*
X142010000Y-89360000D03*
X141410000Y-94320000D03*
X155730000Y-86610000D03*
X131160000Y-90960000D03*
X131695000Y-104430000D03*
X142510000Y-105430000D03*
X141909800Y-97612200D03*
X151160000Y-88210000D03*
X152660000Y-88210000D03*
X131410000Y-93460000D03*
X128934000Y-93416000D03*
X167360600Y-93014800D03*
X167386000Y-92329000D03*
X141325600Y-97104200D03*
X145034000Y-94716600D03*
X164211000Y-94462600D03*
X171907200Y-109524800D03*
X171907200Y-108864400D03*
X164820600Y-94132400D03*
X171446000Y-112010000D03*
X163550600Y-94792800D03*
X142621000Y-94970600D03*
X137591800Y-83718400D03*
X167462200Y-91287600D03*
X137337800Y-88696800D03*
X146354800Y-91287600D03*
X146786600Y-91821000D03*
X166954200Y-91795600D03*
X137287000Y-89382600D03*
X130910000Y-92960000D03*
X129315000Y-92654000D03*
X130910000Y-87210000D03*
X129660000Y-87210000D03*
X138410000Y-99430000D03*
X138910000Y-98430000D03*
X137410000Y-98930000D03*
X138410000Y-97930000D03*
X141160000Y-93680000D03*
X135910000Y-96930000D03*
X134410000Y-97430000D03*
X139410000Y-93180000D03*
X134910000Y-96930000D03*
X140660000Y-92680000D03*
X135410000Y-97430000D03*
X141910000Y-92180000D03*
X133731000Y-113284000D03*
X138557000Y-113538000D03*
X137363200Y-90068400D03*
X147066000Y-93167200D03*
X171500800Y-97993200D03*
X166674800Y-93167200D03*
X137312400Y-90754200D03*
X146481800Y-93599000D03*
X171907200Y-98602800D03*
X166039800Y-93472000D03*
X171831000Y-99364800D03*
X165430200Y-93802200D03*
X145973800Y-94157800D03*
X137287000Y-91440000D03*
X137033000Y-113030000D03*
X170891200Y-100965000D03*
X163474400Y-95529400D03*
X141351000Y-98044000D03*
X142494000Y-98171000D03*
D39*
X127250000Y-97250000D02*
X127250000Y-101250000D01*
X127250000Y-101250000D02*
X125250000Y-103250000D01*
X118250000Y-87250000D02*
X120250000Y-89250000D01*
X120250000Y-89250000D02*
X127250000Y-89250000D01*
X118250000Y-85665360D02*
X118250000Y-87250000D01*
X117542320Y-84957680D02*
X118250000Y-85665360D01*
X121057570Y-84957680D02*
X117542320Y-84957680D01*
X154936000Y-108708000D02*
X154936000Y-102936000D01*
X154936000Y-102936000D02*
X151250000Y-99250000D01*
X155250000Y-104250000D02*
X157250000Y-104250000D01*
X154936000Y-108708000D02*
X154936000Y-105779000D01*
X154936000Y-105779000D02*
X153407000Y-104250000D01*
X143360000Y-89180000D02*
X142356000Y-89180000D01*
X142356000Y-89180000D02*
X139084000Y-92452000D01*
X139084000Y-92452000D02*
X138934000Y-92452000D01*
X134960000Y-93680000D02*
X135928000Y-93680000D01*
X135928000Y-93680000D02*
X136648000Y-92960000D01*
X146810000Y-102830000D02*
X146810000Y-103753000D01*
X146810000Y-103753000D02*
X146808000Y-103755000D01*
X144460000Y-103830000D02*
X144460000Y-103058000D01*
X144460000Y-103058000D02*
X144458500Y-103056500D01*
X159151000Y-114804000D02*
X160587500Y-114804000D01*
X166878000Y-108500000D02*
X167618500Y-108500000D01*
X167618500Y-108500000D02*
X167636000Y-108517500D01*
X170533000Y-104898000D02*
X170533000Y-106382500D01*
X170533000Y-106382500D02*
X170493500Y-106422000D01*
X170533000Y-104898000D02*
X170533000Y-103477000D01*
X170533000Y-103477000D02*
X170493500Y-103437500D01*
X169033000Y-107888000D02*
X169968000Y-107888000D01*
X169968000Y-107888000D02*
X169970000Y-107890000D01*
X162241000Y-108708000D02*
X166670000Y-108708000D01*
X166670000Y-108708000D02*
X166878000Y-108500000D01*
D40*
X166878000Y-108500000D02*
X166878000Y-108508800D01*
D39*
X138410000Y-87230000D02*
X138410000Y-85960000D01*
D40*
X134960000Y-93680000D02*
X133610000Y-93680000D01*
X139660000Y-83680000D02*
X139660000Y-85170000D01*
X144460000Y-109730000D02*
X145260000Y-109730000D01*
X132960000Y-109430000D02*
X131660000Y-109430000D01*
X121057570Y-84957680D02*
X121057570Y-86362430D01*
X121057570Y-86362430D02*
X121050000Y-86370000D01*
X143360000Y-89180000D02*
X142190000Y-89180000D01*
X142190000Y-89180000D02*
X142010000Y-89360000D01*
X141410000Y-95630000D02*
X141410000Y-94320000D01*
X153953000Y-86610000D02*
X155730000Y-86610000D01*
X131210000Y-91010000D02*
X131160000Y-90960000D01*
X131210000Y-91710000D02*
X131210000Y-91010000D01*
X131160000Y-90960000D02*
X131210000Y-91010000D01*
D39*
X134910000Y-110880000D02*
X134910000Y-108930000D01*
X134910000Y-108930000D02*
X137160000Y-106680000D01*
X138910000Y-110880000D02*
X138910000Y-108430000D01*
X138910000Y-108430000D02*
X137160000Y-106680000D01*
X137410000Y-110880000D02*
X137410000Y-106930000D01*
X137410000Y-106930000D02*
X137160000Y-106680000D01*
D40*
X132960000Y-104430000D02*
X131695000Y-104430000D01*
X131695000Y-104430000D02*
X131015000Y-104430000D01*
X131015000Y-104430000D02*
X130975000Y-104390000D01*
X141360000Y-105430000D02*
X142510000Y-105430000D01*
X142510000Y-105430000D02*
X142810000Y-105430000D01*
X143960000Y-105530000D02*
X144460000Y-105030000D01*
X142910000Y-105530000D02*
X143960000Y-105530000D01*
X142810000Y-105430000D02*
X142910000Y-105530000D01*
X132960000Y-104930000D02*
X130415000Y-104930000D01*
X130415000Y-104930000D02*
X129875000Y-104390000D01*
D39*
X150800790Y-88210000D02*
X151160000Y-88210000D01*
X144834000Y-88210000D02*
X150800790Y-88210000D01*
X143360000Y-88680000D02*
X144364000Y-88680000D01*
X144364000Y-88680000D02*
X144834000Y-88210000D01*
X141909800Y-97612200D02*
X141910000Y-97612200D01*
X141910000Y-88680000D02*
X137910000Y-88680000D01*
X137910000Y-88680000D02*
X137910000Y-88710000D01*
X137190000Y-94180000D02*
X137910000Y-93460000D01*
X137910000Y-93460000D02*
X137910000Y-88710000D01*
X134960000Y-94180000D02*
X137190000Y-94180000D01*
X137910000Y-88710000D02*
X137910000Y-87230000D01*
X141910000Y-101710000D02*
X143360000Y-103160000D01*
X143360000Y-103160000D02*
X143360000Y-103830000D01*
X141910000Y-97612200D02*
X141910000Y-101710000D01*
X141910000Y-95630000D02*
X141910000Y-97612200D01*
X141910000Y-87230000D02*
X141910000Y-88680000D01*
X141910000Y-88680000D02*
X143360000Y-88680000D01*
X152990000Y-87880000D02*
X153953000Y-87880000D01*
X152660000Y-88210000D02*
X152990000Y-87880000D01*
X141360000Y-103930000D02*
X143260000Y-103930000D01*
X143260000Y-103930000D02*
X143360000Y-103830000D01*
D40*
X132130000Y-94180000D02*
X134960000Y-94180000D01*
X131410000Y-93460000D02*
X132130000Y-94180000D01*
X128934000Y-93416000D02*
X128978000Y-93460000D01*
X128978000Y-93460000D02*
X129168000Y-93460000D01*
X123490000Y-115600000D02*
X125660000Y-113430000D01*
X125660000Y-113430000D02*
X125660000Y-105960000D01*
X125660000Y-105960000D02*
X129168000Y-102452000D01*
X129168000Y-102452000D02*
X129168000Y-93460000D01*
X137910000Y-87230000D02*
X137910000Y-85710000D01*
X137910000Y-85710000D02*
X137160000Y-84960000D01*
X137160000Y-84960000D02*
X136410000Y-84960000D01*
X136410000Y-84960000D02*
X135960000Y-84510000D01*
X135960000Y-84510000D02*
X135960000Y-83710000D01*
X143260000Y-103930000D02*
X143360000Y-103830000D01*
X174240000Y-85340000D02*
X172775198Y-83875198D01*
X140910000Y-85930000D02*
X140910000Y-87230000D01*
X142964802Y-83875198D02*
X140910000Y-85930000D01*
X172775198Y-83875198D02*
X142964802Y-83875198D01*
X141360000Y-104930000D02*
X143260000Y-104930000D01*
X143260000Y-104930000D02*
X143360000Y-105030000D01*
X143360000Y-91680000D02*
X145121600Y-91680000D01*
X146100800Y-92659200D02*
X167005000Y-92659200D01*
X145121600Y-91680000D02*
X146100800Y-92659200D01*
X167005000Y-92659200D02*
X167360600Y-93014800D01*
X145078800Y-91180000D02*
X146227800Y-92329000D01*
X146227800Y-92329000D02*
X167386000Y-92329000D01*
X145078800Y-91180000D02*
X143360000Y-91180000D01*
X161253000Y-86610000D02*
X164715000Y-86610000D01*
X161253000Y-87880000D02*
X163445000Y-87880000D01*
X163445000Y-87880000D02*
X164715000Y-89150000D01*
X164461000Y-88896000D02*
X164715000Y-89150000D01*
X141360000Y-106930000D02*
X143260000Y-106930000D01*
X143260000Y-106930000D02*
X143360000Y-106830000D01*
X142910000Y-106330000D02*
X143960000Y-106330000D01*
X142810000Y-106430000D02*
X142910000Y-106330000D01*
X141360000Y-106430000D02*
X142810000Y-106430000D01*
X143960000Y-106330000D02*
X144460000Y-106830000D01*
X141360000Y-107930000D02*
X143260000Y-107930000D01*
X143260000Y-107930000D02*
X143360000Y-108030000D01*
X141360000Y-108430000D02*
X142810000Y-108430000D01*
X143960000Y-108530000D02*
X144460000Y-108030000D01*
X142910000Y-108530000D02*
X143960000Y-108530000D01*
X142810000Y-108430000D02*
X142910000Y-108530000D01*
D39*
X162241000Y-112518000D02*
X164784000Y-112518000D01*
X164784000Y-112518000D02*
X164842000Y-112460000D01*
X162241000Y-112518000D02*
X162241000Y-114714000D01*
X162241000Y-114714000D02*
X162151000Y-114804000D01*
D40*
X141360000Y-105930000D02*
X145410000Y-105930000D01*
D39*
X146910000Y-104430000D02*
X141360000Y-104430000D01*
X146710000Y-105930000D02*
X146810000Y-105830000D01*
X145610000Y-107430000D02*
X141360000Y-107430000D01*
X146810000Y-110430000D02*
X146810000Y-109530000D01*
X146210000Y-108930000D02*
X146810000Y-109530000D01*
X146210000Y-108930000D02*
X141360000Y-108930000D01*
D40*
X141410000Y-87230000D02*
X141410000Y-85930000D01*
X170540000Y-84180000D02*
X143160000Y-84180000D01*
X143160000Y-84180000D02*
X141410000Y-85930000D01*
X170540000Y-84180000D02*
X171700000Y-85340000D01*
X164109400Y-94284800D02*
X164211000Y-94386400D01*
X140910000Y-96688600D02*
X141325600Y-97104200D01*
X145034000Y-94716600D02*
X145364200Y-95046800D01*
X145364200Y-95046800D02*
X147396200Y-95046800D01*
X147396200Y-95046800D02*
X148158200Y-94284800D01*
X148158200Y-94284800D02*
X164109400Y-94284800D01*
X140910000Y-95630000D02*
X140910000Y-96688600D01*
X164211000Y-94386400D02*
X164211000Y-94462600D01*
X175514000Y-112014000D02*
X176780000Y-113280000D01*
X175514000Y-110159800D02*
X175514000Y-112014000D01*
X174879000Y-109524800D02*
X175514000Y-110159800D01*
X171907200Y-109524800D02*
X174879000Y-109524800D01*
X174904400Y-108864400D02*
X176780000Y-110740000D01*
X171907200Y-108864400D02*
X174904400Y-108864400D01*
X145796000Y-94691200D02*
X147218400Y-94691200D01*
X145284800Y-94180000D02*
X145796000Y-94691200D01*
X143360000Y-94180000D02*
X145284800Y-94180000D01*
X164642800Y-93954600D02*
X164820600Y-94132400D01*
X147955000Y-93954600D02*
X164642800Y-93954600D01*
X147218400Y-94691200D02*
X147955000Y-93954600D01*
X171446000Y-112010000D02*
X173732000Y-112010000D01*
X163372800Y-94615000D02*
X163550600Y-94792800D01*
X175514000Y-114554000D02*
X176780000Y-115820000D01*
X175056800Y-112014000D02*
X173710600Y-112014000D01*
X175514000Y-112471200D02*
X175056800Y-112014000D01*
X175514000Y-114554000D02*
X175514000Y-112471200D01*
X143027400Y-95377000D02*
X142621000Y-94970600D01*
X147574000Y-95377000D02*
X143027400Y-95377000D01*
X148336000Y-94615000D02*
X147574000Y-95377000D01*
X163372800Y-94615000D02*
X148336000Y-94615000D01*
X137583400Y-83710000D02*
X136860000Y-83710000D01*
X137591800Y-83718400D02*
X137583400Y-83710000D01*
X138910000Y-87230000D02*
X138910000Y-85710000D01*
X136860000Y-84160000D02*
X136860000Y-83710000D01*
X137660000Y-84960000D02*
X136860000Y-84160000D01*
X138160000Y-84960000D02*
X137660000Y-84960000D01*
X138910000Y-85710000D02*
X138160000Y-84960000D01*
X132960000Y-103930000D02*
X131880000Y-103930000D01*
X130262430Y-102312430D02*
X130262430Y-84962320D01*
X131880000Y-103930000D02*
X130262430Y-102312430D01*
X136860000Y-83710000D02*
X136860000Y-83660000D01*
X136860000Y-83660000D02*
X136160000Y-82960000D01*
X132264750Y-82960000D02*
X130262430Y-84962320D01*
X136160000Y-82960000D02*
X132264750Y-82960000D01*
X176780000Y-85340000D02*
X175010396Y-83570396D01*
X140410000Y-85930000D02*
X140410000Y-87230000D01*
X142769604Y-83570396D02*
X140410000Y-85930000D01*
X175010396Y-83570396D02*
X142769604Y-83570396D01*
X167462200Y-91287600D02*
X146354800Y-91287600D01*
X137410000Y-88624600D02*
X137410000Y-87230000D01*
X137337800Y-88696800D02*
X137410000Y-88624600D01*
X166751002Y-91592402D02*
X147015198Y-91592402D01*
X147015198Y-91592402D02*
X146786600Y-91821000D01*
X166954200Y-91795600D02*
X166751002Y-91592402D01*
X136910000Y-88438800D02*
X136910000Y-87230000D01*
X136829800Y-88519000D02*
X136910000Y-88438800D01*
X136829800Y-88925400D02*
X136829800Y-88519000D01*
X137287000Y-89382600D02*
X136829800Y-88925400D01*
X139410000Y-87230000D02*
X139410000Y-85680000D01*
X138460000Y-84730000D02*
X138460000Y-83680000D01*
X139410000Y-85680000D02*
X138460000Y-84730000D01*
X132110000Y-91760000D02*
X130910000Y-92960000D01*
X129315000Y-92654000D02*
X129541000Y-92880000D01*
X126030000Y-115600000D02*
X126030000Y-106090000D01*
X126030000Y-106090000D02*
X129541000Y-102579000D01*
X129541000Y-102579000D02*
X129541000Y-92880000D01*
X132110000Y-91760000D02*
X132110000Y-91710000D01*
X134960000Y-91680000D02*
X132140000Y-91680000D01*
X132140000Y-91680000D02*
X132110000Y-91710000D01*
X143360000Y-90680000D02*
X154657000Y-90680000D01*
X168304802Y-84484802D02*
X156915198Y-84484802D01*
X156915198Y-84484802D02*
X156366000Y-85034000D01*
X156366000Y-85034000D02*
X156366000Y-88971000D01*
X168304802Y-84484802D02*
X169160000Y-85340000D01*
X154657000Y-90680000D02*
X156366000Y-88971000D01*
X139910000Y-87230000D02*
X139910000Y-85680000D01*
X140860000Y-84730000D02*
X140860000Y-83680000D01*
X139910000Y-85680000D02*
X140860000Y-84730000D01*
X129910000Y-102960000D02*
X129910000Y-87460000D01*
X129380000Y-105430000D02*
X129160000Y-105210000D01*
X129160000Y-105210000D02*
X129160000Y-103710000D01*
X129160000Y-103710000D02*
X129910000Y-102960000D01*
X132960000Y-105430000D02*
X129380000Y-105430000D01*
X130930000Y-87230000D02*
X136410000Y-87230000D01*
X130910000Y-87210000D02*
X130930000Y-87230000D01*
X129910000Y-87460000D02*
X129660000Y-87210000D01*
X137910000Y-95630000D02*
X137910000Y-98180000D01*
X138910000Y-99180000D02*
X138910000Y-102480000D01*
X137910000Y-98180000D02*
X138910000Y-99180000D01*
X137410000Y-95630000D02*
X137410000Y-98180000D01*
X137910000Y-98680000D02*
X137910000Y-102480000D01*
X137410000Y-98180000D02*
X137910000Y-98680000D01*
X136910000Y-95630000D02*
X136910000Y-102480000D01*
X139410000Y-95630000D02*
X139410000Y-102480000D01*
X138910000Y-95630000D02*
X138910000Y-98430000D01*
X138410000Y-99430000D02*
X138410000Y-102480000D01*
X138410000Y-95630000D02*
X138410000Y-97930000D01*
X137410000Y-98930000D02*
X137410000Y-102480000D01*
X143360000Y-93680000D02*
X141160000Y-93680000D01*
X135910000Y-96930000D02*
X135910000Y-102480000D01*
X134410000Y-102480000D02*
X134410000Y-97430000D01*
X139410000Y-93180000D02*
X143360000Y-93180000D01*
X134910000Y-102480000D02*
X134910000Y-96930000D01*
X140660000Y-92680000D02*
X143360000Y-92680000D01*
X135410000Y-102480000D02*
X135410000Y-97430000D01*
X141910000Y-92180000D02*
X143360000Y-92180000D01*
X153953000Y-89150000D02*
X145538000Y-89150000D01*
X145538000Y-89150000D02*
X144508000Y-90180000D01*
X144508000Y-90180000D02*
X143360000Y-90180000D01*
X143374000Y-90166000D02*
X143360000Y-90180000D01*
X152015000Y-88261000D02*
X151507000Y-88769000D01*
X152015000Y-86753000D02*
X152015000Y-88261000D01*
X145173400Y-88769000D02*
X144262400Y-89680000D01*
X151507000Y-88769000D02*
X145173400Y-88769000D01*
X153428000Y-85340000D02*
X152015000Y-86753000D01*
X153953000Y-85340000D02*
X153428000Y-85340000D01*
X144262400Y-89680000D02*
X143360000Y-89680000D01*
X139910000Y-95630000D02*
X139910000Y-102480000D01*
D39*
X134410000Y-110880000D02*
X134410000Y-112605000D01*
X134410000Y-112605000D02*
X133731000Y-113284000D01*
X135910000Y-110880000D02*
X135910000Y-113264000D01*
X132283000Y-114427000D02*
X131110000Y-115600000D01*
X134747000Y-114427000D02*
X132283000Y-114427000D01*
X135910000Y-113264000D02*
X134747000Y-114427000D01*
X136410000Y-110880000D02*
X136410000Y-114210000D01*
X137800000Y-115600000D02*
X138730000Y-115600000D01*
X136410000Y-114210000D02*
X137800000Y-115600000D01*
X137910000Y-110880000D02*
X137910000Y-113780000D01*
X140097000Y-114427000D02*
X141270000Y-115600000D01*
X138557000Y-114427000D02*
X140097000Y-114427000D01*
X137910000Y-113780000D02*
X138557000Y-114427000D01*
X138410000Y-110880000D02*
X138410000Y-113391000D01*
X138410000Y-113391000D02*
X138557000Y-113538000D01*
X139910000Y-110880000D02*
X139910000Y-112478000D01*
X145177000Y-114427000D02*
X146350000Y-115600000D01*
X143383000Y-114427000D02*
X145177000Y-114427000D01*
X142875000Y-113919000D02*
X143383000Y-114427000D01*
X141351000Y-113919000D02*
X142875000Y-113919000D01*
X139910000Y-112478000D02*
X141351000Y-113919000D01*
D40*
X156510000Y-115600000D02*
X155400000Y-116710000D01*
X129690000Y-108930000D02*
X132960000Y-108930000D01*
X127410000Y-111210000D02*
X129690000Y-108930000D01*
X127410000Y-116210000D02*
X127410000Y-111210000D01*
X127910000Y-116710000D02*
X127410000Y-116210000D01*
X155400000Y-116710000D02*
X127910000Y-116710000D01*
X143060000Y-109430000D02*
X143360000Y-109730000D01*
X141360000Y-109430000D02*
X143060000Y-109430000D01*
X166674800Y-92964002D02*
X166674800Y-93167200D01*
X137251600Y-90180000D02*
X137363200Y-90068400D01*
X147066000Y-93167200D02*
X147269198Y-92964002D01*
X147269198Y-92964002D02*
X166674800Y-92964002D01*
X134960000Y-90180000D02*
X137251600Y-90180000D01*
X171547600Y-98040000D02*
X174240000Y-98040000D01*
X171500800Y-97993200D02*
X171547600Y-98040000D01*
X166039800Y-93294200D02*
X166039800Y-93472000D01*
X147650200Y-93294200D02*
X166039800Y-93294200D01*
X137238200Y-90680000D02*
X137312400Y-90754200D01*
X134960000Y-90680000D02*
X137238200Y-90680000D01*
X147269200Y-93675200D02*
X147650200Y-93294200D01*
X146558000Y-93675200D02*
X147269200Y-93675200D01*
X146481800Y-93599000D02*
X146558000Y-93675200D01*
X171907200Y-98602800D02*
X173884400Y-100580000D01*
X173884400Y-100580000D02*
X174240000Y-100580000D01*
X165404800Y-93624400D02*
X165404800Y-93776800D01*
X147269200Y-94157800D02*
X147802600Y-93624400D01*
X147802600Y-93624400D02*
X165404800Y-93624400D01*
X145973800Y-94157800D02*
X147269200Y-94157800D01*
X172720000Y-101600000D02*
X174240000Y-103120000D01*
X172720000Y-100253800D02*
X172720000Y-101600000D01*
X171831000Y-99364800D02*
X172720000Y-100253800D01*
X165404800Y-93776800D02*
X165430200Y-93802200D01*
X137027000Y-91180000D02*
X137287000Y-91440000D01*
X134960000Y-91180000D02*
X137027000Y-91180000D01*
D39*
X167369400Y-102590600D02*
X166293800Y-102590600D01*
X167313000Y-100707000D02*
X166239000Y-100707000D01*
X167533000Y-104898000D02*
X166239000Y-104898000D01*
D40*
X136360000Y-95680000D02*
X136410000Y-95630000D01*
X136410000Y-95630000D02*
X136410000Y-102480000D01*
X136394000Y-102464000D02*
X136410000Y-102480000D01*
D39*
X135410000Y-113157000D02*
X134648000Y-113919000D01*
X129743000Y-114427000D02*
X128570000Y-115600000D01*
X131699000Y-114427000D02*
X129743000Y-114427000D01*
X132207000Y-113919000D02*
X131699000Y-114427000D01*
X134648000Y-113919000D02*
X132207000Y-113919000D01*
X135410000Y-110880000D02*
X135410000Y-113157000D01*
X136910000Y-110880000D02*
X136910000Y-112907000D01*
X136910000Y-112907000D02*
X137033000Y-113030000D01*
X139410000Y-110880000D02*
X139410000Y-112740000D01*
X142637000Y-114427000D02*
X143810000Y-115600000D01*
X141097000Y-114427000D02*
X142637000Y-114427000D01*
X139410000Y-112740000D02*
X141097000Y-114427000D01*
X169021000Y-102612000D02*
X169021000Y-106250000D01*
X169021000Y-106250000D02*
X169021000Y-106976000D01*
X162241000Y-106168000D02*
X168939000Y-106168000D01*
X168939000Y-106168000D02*
X169021000Y-106250000D01*
X168469400Y-102590600D02*
X169021000Y-102590600D01*
X169021000Y-102590600D02*
X169021000Y-102612000D01*
D40*
X169033000Y-106988000D02*
X169033000Y-106180000D01*
X162253000Y-106180000D02*
X162241000Y-106168000D01*
D39*
X169021000Y-102612000D02*
X169021000Y-101515000D01*
X169021000Y-101515000D02*
X168213000Y-100707000D01*
X169021000Y-106976000D02*
X169033000Y-106988000D01*
X162241000Y-107438000D02*
X166840000Y-107438000D01*
X166840000Y-107438000D02*
X166878000Y-107400000D01*
X164842000Y-111560000D02*
X164530000Y-111248000D01*
X164530000Y-111248000D02*
X162241000Y-111248000D01*
D40*
X158927800Y-94945200D02*
X162890200Y-94945200D01*
X175666400Y-104241600D02*
X176784000Y-103124000D01*
X173355000Y-104241600D02*
X175666400Y-104241600D01*
X170891200Y-101777800D02*
X173355000Y-104241600D01*
X170891200Y-100965000D02*
X170891200Y-101777800D01*
X162890200Y-94945200D02*
X163474400Y-95529400D01*
X158953200Y-94945200D02*
X158927800Y-94945200D01*
X158927800Y-94945200D02*
X148463000Y-94945200D01*
X147701000Y-95707200D02*
X148463000Y-94945200D01*
X144399000Y-96266000D02*
X144957800Y-95707200D01*
X140410000Y-97103000D02*
X141351000Y-98044000D01*
X142494000Y-98171000D02*
X144399000Y-96266000D01*
X140410000Y-97103000D02*
X140410000Y-95630000D01*
X144957800Y-95707200D02*
X147548600Y-95707200D01*
X147548600Y-95707200D02*
X147701000Y-95707200D01*
G36*
X149883000Y-111930000D02*
X149889003Y-111959646D01*
X149906068Y-111984621D01*
X149931505Y-112000989D01*
X149959200Y-112006200D01*
X163833800Y-112006200D01*
X163833800Y-113103800D01*
X149959200Y-113103800D01*
X149929554Y-113109803D01*
X149904579Y-113126868D01*
X149888211Y-113152305D01*
X149883000Y-113180000D01*
X149883000Y-115106083D01*
X149880527Y-115100113D01*
X149731652Y-115009795D01*
X149141447Y-115600000D01*
X149155590Y-115614143D01*
X149154132Y-115615600D01*
X148625868Y-115615600D01*
X148624411Y-115614143D01*
X148638553Y-115600000D01*
X148048348Y-115009795D01*
X147911600Y-115092756D01*
X147911600Y-114758348D01*
X148299795Y-114758348D01*
X148890000Y-115348553D01*
X149480205Y-114758348D01*
X149389887Y-114609473D01*
X148972777Y-114493574D01*
X148543065Y-114546118D01*
X148390113Y-114609473D01*
X148299795Y-114758348D01*
X147911600Y-114758348D01*
X147911600Y-109930000D01*
X147905597Y-109900354D01*
X147888758Y-109875600D01*
X146563358Y-108575600D01*
X146537989Y-108559127D01*
X146510000Y-108553800D01*
X145286200Y-108553800D01*
X145286200Y-107689350D01*
X145683800Y-107689350D01*
X145683800Y-107994885D01*
X145733461Y-108114777D01*
X145825222Y-108206539D01*
X145945115Y-108256200D01*
X146550650Y-108256200D01*
X146632200Y-108174650D01*
X146632200Y-107607800D01*
X146987800Y-107607800D01*
X146987800Y-108174650D01*
X147069350Y-108256200D01*
X147674885Y-108256200D01*
X147794778Y-108206539D01*
X147886539Y-108114777D01*
X147936200Y-107994885D01*
X147936200Y-107689350D01*
X147854650Y-107607800D01*
X146987800Y-107607800D01*
X146632200Y-107607800D01*
X145765350Y-107607800D01*
X145683800Y-107689350D01*
X145286200Y-107689350D01*
X145286200Y-106089350D01*
X145683800Y-106089350D01*
X145683800Y-106394885D01*
X145733461Y-106514777D01*
X145825222Y-106606539D01*
X145881862Y-106630000D01*
X145825222Y-106653461D01*
X145733461Y-106745223D01*
X145683800Y-106865115D01*
X145683800Y-107170650D01*
X145765350Y-107252200D01*
X146632200Y-107252200D01*
X146632200Y-106685350D01*
X146576850Y-106630000D01*
X146632200Y-106574650D01*
X146632200Y-106007800D01*
X146987800Y-106007800D01*
X146987800Y-106574650D01*
X147043150Y-106630000D01*
X146987800Y-106685350D01*
X146987800Y-107252200D01*
X147854650Y-107252200D01*
X147936200Y-107170650D01*
X147936200Y-106865115D01*
X147886539Y-106745223D01*
X147794778Y-106653461D01*
X147738138Y-106630000D01*
X147794778Y-106606539D01*
X147886539Y-106514777D01*
X147936200Y-106394885D01*
X147936200Y-106089350D01*
X147854650Y-106007800D01*
X146987800Y-106007800D01*
X146632200Y-106007800D01*
X145765350Y-106007800D01*
X145683800Y-106089350D01*
X145286200Y-106089350D01*
X145286200Y-105265115D01*
X145683800Y-105265115D01*
X145683800Y-105570650D01*
X145765350Y-105652200D01*
X146632200Y-105652200D01*
X146632200Y-105085350D01*
X146987800Y-105085350D01*
X146987800Y-105652200D01*
X147854650Y-105652200D01*
X147936200Y-105570650D01*
X147936200Y-105265115D01*
X147886539Y-105145223D01*
X147794778Y-105053461D01*
X147674885Y-105003800D01*
X147069350Y-105003800D01*
X146987800Y-105085350D01*
X146632200Y-105085350D01*
X146550650Y-105003800D01*
X145945115Y-105003800D01*
X145825222Y-105053461D01*
X145733461Y-105145223D01*
X145683800Y-105265115D01*
X145286200Y-105265115D01*
X145286200Y-104306200D01*
X149883000Y-104306200D01*
X149883000Y-111930000D01*
X149883000Y-111930000D01*
G37*
X149883000Y-111930000D02*
X149889003Y-111959646D01*
X149906068Y-111984621D01*
X149931505Y-112000989D01*
X149959200Y-112006200D01*
X163833800Y-112006200D01*
X163833800Y-113103800D01*
X149959200Y-113103800D01*
X149929554Y-113109803D01*
X149904579Y-113126868D01*
X149888211Y-113152305D01*
X149883000Y-113180000D01*
X149883000Y-115106083D01*
X149880527Y-115100113D01*
X149731652Y-115009795D01*
X149141447Y-115600000D01*
X149155590Y-115614143D01*
X149154132Y-115615600D01*
X148625868Y-115615600D01*
X148624411Y-115614143D01*
X148638553Y-115600000D01*
X148048348Y-115009795D01*
X147911600Y-115092756D01*
X147911600Y-114758348D01*
X148299795Y-114758348D01*
X148890000Y-115348553D01*
X149480205Y-114758348D01*
X149389887Y-114609473D01*
X148972777Y-114493574D01*
X148543065Y-114546118D01*
X148390113Y-114609473D01*
X148299795Y-114758348D01*
X147911600Y-114758348D01*
X147911600Y-109930000D01*
X147905597Y-109900354D01*
X147888758Y-109875600D01*
X146563358Y-108575600D01*
X146537989Y-108559127D01*
X146510000Y-108553800D01*
X145286200Y-108553800D01*
X145286200Y-107689350D01*
X145683800Y-107689350D01*
X145683800Y-107994885D01*
X145733461Y-108114777D01*
X145825222Y-108206539D01*
X145945115Y-108256200D01*
X146550650Y-108256200D01*
X146632200Y-108174650D01*
X146632200Y-107607800D01*
X146987800Y-107607800D01*
X146987800Y-108174650D01*
X147069350Y-108256200D01*
X147674885Y-108256200D01*
X147794778Y-108206539D01*
X147886539Y-108114777D01*
X147936200Y-107994885D01*
X147936200Y-107689350D01*
X147854650Y-107607800D01*
X146987800Y-107607800D01*
X146632200Y-107607800D01*
X145765350Y-107607800D01*
X145683800Y-107689350D01*
X145286200Y-107689350D01*
X145286200Y-106089350D01*
X145683800Y-106089350D01*
X145683800Y-106394885D01*
X145733461Y-106514777D01*
X145825222Y-106606539D01*
X145881862Y-106630000D01*
X145825222Y-106653461D01*
X145733461Y-106745223D01*
X145683800Y-106865115D01*
X145683800Y-107170650D01*
X145765350Y-107252200D01*
X146632200Y-107252200D01*
X146632200Y-106685350D01*
X146576850Y-106630000D01*
X146632200Y-106574650D01*
X146632200Y-106007800D01*
X146987800Y-106007800D01*
X146987800Y-106574650D01*
X147043150Y-106630000D01*
X146987800Y-106685350D01*
X146987800Y-107252200D01*
X147854650Y-107252200D01*
X147936200Y-107170650D01*
X147936200Y-106865115D01*
X147886539Y-106745223D01*
X147794778Y-106653461D01*
X147738138Y-106630000D01*
X147794778Y-106606539D01*
X147886539Y-106514777D01*
X147936200Y-106394885D01*
X147936200Y-106089350D01*
X147854650Y-106007800D01*
X146987800Y-106007800D01*
X146632200Y-106007800D01*
X145765350Y-106007800D01*
X145683800Y-106089350D01*
X145286200Y-106089350D01*
X145286200Y-105265115D01*
X145683800Y-105265115D01*
X145683800Y-105570650D01*
X145765350Y-105652200D01*
X146632200Y-105652200D01*
X146632200Y-105085350D01*
X146987800Y-105085350D01*
X146987800Y-105652200D01*
X147854650Y-105652200D01*
X147936200Y-105570650D01*
X147936200Y-105265115D01*
X147886539Y-105145223D01*
X147794778Y-105053461D01*
X147674885Y-105003800D01*
X147069350Y-105003800D01*
X146987800Y-105085350D01*
X146632200Y-105085350D01*
X146550650Y-105003800D01*
X145945115Y-105003800D01*
X145825222Y-105053461D01*
X145733461Y-105145223D01*
X145683800Y-105265115D01*
X145286200Y-105265115D01*
X145286200Y-104306200D01*
X149883000Y-104306200D01*
X149883000Y-111930000D01*
G36*
X171877800Y-90242200D02*
X172960650Y-90242200D01*
X172970000Y-90232850D01*
X172979350Y-90242200D01*
X174062200Y-90242200D01*
X174062200Y-90222200D01*
X174417800Y-90222200D01*
X174417800Y-90242200D01*
X175500650Y-90242200D01*
X175510000Y-90232850D01*
X175519350Y-90242200D01*
X176602200Y-90242200D01*
X176602200Y-90222200D01*
X176957800Y-90222200D01*
X176957800Y-90242200D01*
X176977800Y-90242200D01*
X176977800Y-90597800D01*
X176957800Y-90597800D01*
X176957800Y-91528250D01*
X177039350Y-91609800D01*
X177860885Y-91609800D01*
X177913800Y-91587882D01*
X177913800Y-94334461D01*
X177864885Y-94314200D01*
X177043350Y-94314200D01*
X176961800Y-94395750D01*
X176961800Y-95326200D01*
X176981800Y-95326200D01*
X176981800Y-95681800D01*
X176961800Y-95681800D01*
X176961800Y-95701800D01*
X176606200Y-95701800D01*
X176606200Y-95681800D01*
X175523350Y-95681800D01*
X175514000Y-95691150D01*
X175500650Y-95677800D01*
X174417800Y-95677800D01*
X174417800Y-95697800D01*
X174062200Y-95697800D01*
X174062200Y-95677800D01*
X172979350Y-95677800D01*
X172897800Y-95759350D01*
X172897800Y-96256959D01*
X166747095Y-96249300D01*
X166717441Y-96255267D01*
X166692445Y-96272300D01*
X166676046Y-96297716D01*
X166670800Y-96325500D01*
X166670800Y-105329800D01*
X160600200Y-105329800D01*
X160600200Y-104466200D01*
X164080000Y-104466200D01*
X164109646Y-104460197D01*
X164134621Y-104443132D01*
X164150989Y-104417695D01*
X164156200Y-104390000D01*
X164156200Y-94945152D01*
X164306574Y-94945284D01*
X164484014Y-94871967D01*
X164619890Y-94736328D01*
X164678228Y-94595834D01*
X164724184Y-94614916D01*
X164916174Y-94615084D01*
X165021618Y-94571515D01*
X172897800Y-94571515D01*
X172897800Y-95240650D01*
X172979350Y-95322200D01*
X174062200Y-95322200D01*
X174062200Y-94391750D01*
X174417800Y-94391750D01*
X174417800Y-95322200D01*
X175500650Y-95322200D01*
X175510000Y-95312850D01*
X175523350Y-95326200D01*
X176606200Y-95326200D01*
X176606200Y-94395750D01*
X176524650Y-94314200D01*
X175703115Y-94314200D01*
X175583223Y-94363861D01*
X175514000Y-94433083D01*
X175440777Y-94359861D01*
X175320885Y-94310200D01*
X174499350Y-94310200D01*
X174417800Y-94391750D01*
X174062200Y-94391750D01*
X173980650Y-94310200D01*
X173159115Y-94310200D01*
X173039223Y-94359861D01*
X172947461Y-94451622D01*
X172897800Y-94571515D01*
X165021618Y-94571515D01*
X165093614Y-94541767D01*
X165229490Y-94406128D01*
X165270931Y-94306326D01*
X167989992Y-94306615D01*
X168019639Y-94300615D01*
X168044615Y-94283553D01*
X168060986Y-94258118D01*
X168066200Y-94230415D01*
X168066200Y-91540116D01*
X168090223Y-91564139D01*
X168210115Y-91613800D01*
X169031650Y-91613800D01*
X169113200Y-91532250D01*
X169113200Y-90601800D01*
X169468800Y-90601800D01*
X169468800Y-91532250D01*
X169550350Y-91613800D01*
X170371885Y-91613800D01*
X170491777Y-91564139D01*
X170497500Y-91558416D01*
X170499223Y-91560139D01*
X170619115Y-91609800D01*
X171440650Y-91609800D01*
X171522200Y-91528250D01*
X171522200Y-90597800D01*
X171877800Y-90597800D01*
X171877800Y-91528250D01*
X171959350Y-91609800D01*
X172780885Y-91609800D01*
X172900777Y-91560139D01*
X172970000Y-91490917D01*
X173039223Y-91560139D01*
X173159115Y-91609800D01*
X173980650Y-91609800D01*
X174062200Y-91528250D01*
X174062200Y-90597800D01*
X174417800Y-90597800D01*
X174417800Y-91528250D01*
X174499350Y-91609800D01*
X175320885Y-91609800D01*
X175440777Y-91560139D01*
X175510000Y-91490917D01*
X175579223Y-91560139D01*
X175699115Y-91609800D01*
X176520650Y-91609800D01*
X176602200Y-91528250D01*
X176602200Y-90597800D01*
X175519350Y-90597800D01*
X175510000Y-90607150D01*
X175500650Y-90597800D01*
X174417800Y-90597800D01*
X174062200Y-90597800D01*
X172979350Y-90597800D01*
X172970000Y-90607150D01*
X172960650Y-90597800D01*
X171877800Y-90597800D01*
X171522200Y-90597800D01*
X170439350Y-90597800D01*
X170435350Y-90601800D01*
X169468800Y-90601800D01*
X169113200Y-90601800D01*
X169093200Y-90601800D01*
X169093200Y-90246200D01*
X169113200Y-90246200D01*
X169113200Y-90226200D01*
X169468800Y-90226200D01*
X169468800Y-90246200D01*
X170551650Y-90246200D01*
X170555650Y-90242200D01*
X171522200Y-90242200D01*
X171522200Y-90222200D01*
X171877800Y-90222200D01*
X171877800Y-90242200D01*
X171877800Y-90242200D01*
G37*
X171877800Y-90242200D02*
X172960650Y-90242200D01*
X172970000Y-90232850D01*
X172979350Y-90242200D01*
X174062200Y-90242200D01*
X174062200Y-90222200D01*
X174417800Y-90222200D01*
X174417800Y-90242200D01*
X175500650Y-90242200D01*
X175510000Y-90232850D01*
X175519350Y-90242200D01*
X176602200Y-90242200D01*
X176602200Y-90222200D01*
X176957800Y-90222200D01*
X176957800Y-90242200D01*
X176977800Y-90242200D01*
X176977800Y-90597800D01*
X176957800Y-90597800D01*
X176957800Y-91528250D01*
X177039350Y-91609800D01*
X177860885Y-91609800D01*
X177913800Y-91587882D01*
X177913800Y-94334461D01*
X177864885Y-94314200D01*
X177043350Y-94314200D01*
X176961800Y-94395750D01*
X176961800Y-95326200D01*
X176981800Y-95326200D01*
X176981800Y-95681800D01*
X176961800Y-95681800D01*
X176961800Y-95701800D01*
X176606200Y-95701800D01*
X176606200Y-95681800D01*
X175523350Y-95681800D01*
X175514000Y-95691150D01*
X175500650Y-95677800D01*
X174417800Y-95677800D01*
X174417800Y-95697800D01*
X174062200Y-95697800D01*
X174062200Y-95677800D01*
X172979350Y-95677800D01*
X172897800Y-95759350D01*
X172897800Y-96256959D01*
X166747095Y-96249300D01*
X166717441Y-96255267D01*
X166692445Y-96272300D01*
X166676046Y-96297716D01*
X166670800Y-96325500D01*
X166670800Y-105329800D01*
X160600200Y-105329800D01*
X160600200Y-104466200D01*
X164080000Y-104466200D01*
X164109646Y-104460197D01*
X164134621Y-104443132D01*
X164150989Y-104417695D01*
X164156200Y-104390000D01*
X164156200Y-94945152D01*
X164306574Y-94945284D01*
X164484014Y-94871967D01*
X164619890Y-94736328D01*
X164678228Y-94595834D01*
X164724184Y-94614916D01*
X164916174Y-94615084D01*
X165021618Y-94571515D01*
X172897800Y-94571515D01*
X172897800Y-95240650D01*
X172979350Y-95322200D01*
X174062200Y-95322200D01*
X174062200Y-94391750D01*
X174417800Y-94391750D01*
X174417800Y-95322200D01*
X175500650Y-95322200D01*
X175510000Y-95312850D01*
X175523350Y-95326200D01*
X176606200Y-95326200D01*
X176606200Y-94395750D01*
X176524650Y-94314200D01*
X175703115Y-94314200D01*
X175583223Y-94363861D01*
X175514000Y-94433083D01*
X175440777Y-94359861D01*
X175320885Y-94310200D01*
X174499350Y-94310200D01*
X174417800Y-94391750D01*
X174062200Y-94391750D01*
X173980650Y-94310200D01*
X173159115Y-94310200D01*
X173039223Y-94359861D01*
X172947461Y-94451622D01*
X172897800Y-94571515D01*
X165021618Y-94571515D01*
X165093614Y-94541767D01*
X165229490Y-94406128D01*
X165270931Y-94306326D01*
X167989992Y-94306615D01*
X168019639Y-94300615D01*
X168044615Y-94283553D01*
X168060986Y-94258118D01*
X168066200Y-94230415D01*
X168066200Y-91540116D01*
X168090223Y-91564139D01*
X168210115Y-91613800D01*
X169031650Y-91613800D01*
X169113200Y-91532250D01*
X169113200Y-90601800D01*
X169468800Y-90601800D01*
X169468800Y-91532250D01*
X169550350Y-91613800D01*
X170371885Y-91613800D01*
X170491777Y-91564139D01*
X170497500Y-91558416D01*
X170499223Y-91560139D01*
X170619115Y-91609800D01*
X171440650Y-91609800D01*
X171522200Y-91528250D01*
X171522200Y-90597800D01*
X171877800Y-90597800D01*
X171877800Y-91528250D01*
X171959350Y-91609800D01*
X172780885Y-91609800D01*
X172900777Y-91560139D01*
X172970000Y-91490917D01*
X173039223Y-91560139D01*
X173159115Y-91609800D01*
X173980650Y-91609800D01*
X174062200Y-91528250D01*
X174062200Y-90597800D01*
X174417800Y-90597800D01*
X174417800Y-91528250D01*
X174499350Y-91609800D01*
X175320885Y-91609800D01*
X175440777Y-91560139D01*
X175510000Y-91490917D01*
X175579223Y-91560139D01*
X175699115Y-91609800D01*
X176520650Y-91609800D01*
X176602200Y-91528250D01*
X176602200Y-90597800D01*
X175519350Y-90597800D01*
X175510000Y-90607150D01*
X175500650Y-90597800D01*
X174417800Y-90597800D01*
X174062200Y-90597800D01*
X172979350Y-90597800D01*
X172970000Y-90607150D01*
X172960650Y-90597800D01*
X171877800Y-90597800D01*
X171522200Y-90597800D01*
X170439350Y-90597800D01*
X170435350Y-90601800D01*
X169468800Y-90601800D01*
X169113200Y-90601800D01*
X169093200Y-90601800D01*
X169093200Y-90246200D01*
X169113200Y-90246200D01*
X169113200Y-90226200D01*
X169468800Y-90226200D01*
X169468800Y-90246200D01*
X170551650Y-90246200D01*
X170555650Y-90242200D01*
X171522200Y-90242200D01*
X171522200Y-90222200D01*
X171877800Y-90222200D01*
X171877800Y-90242200D01*
G36*
X178608800Y-81453800D02*
X149358520Y-81453800D01*
X150044190Y-81317412D01*
X150929412Y-80725926D01*
X151520898Y-79840704D01*
X151728600Y-78796514D01*
X151728600Y-76459350D01*
X166463800Y-76459350D01*
X166463800Y-77114885D01*
X166513461Y-77234777D01*
X166605222Y-77326539D01*
X166725115Y-77376200D01*
X167380650Y-77376200D01*
X167462200Y-77294650D01*
X167462200Y-76377800D01*
X167817800Y-76377800D01*
X167817800Y-77294650D01*
X167899350Y-77376200D01*
X168554885Y-77376200D01*
X168674778Y-77326539D01*
X168766539Y-77234777D01*
X168816200Y-77114885D01*
X168816200Y-76459350D01*
X168734650Y-76377800D01*
X167817800Y-76377800D01*
X167462200Y-76377800D01*
X166545350Y-76377800D01*
X166463800Y-76459350D01*
X151728600Y-76459350D01*
X151728600Y-75285115D01*
X166463800Y-75285115D01*
X166463800Y-75940650D01*
X166545350Y-76022200D01*
X167462200Y-76022200D01*
X167462200Y-75105350D01*
X167817800Y-75105350D01*
X167817800Y-76022200D01*
X168734650Y-76022200D01*
X168816200Y-75940650D01*
X168816200Y-75285115D01*
X168766539Y-75165223D01*
X168674778Y-75073461D01*
X168554885Y-75023800D01*
X167899350Y-75023800D01*
X167817800Y-75105350D01*
X167462200Y-75105350D01*
X167380650Y-75023800D01*
X166725115Y-75023800D01*
X166605222Y-75073461D01*
X166513461Y-75165223D01*
X166463800Y-75285115D01*
X151728600Y-75285115D01*
X151728600Y-71413606D01*
X166561213Y-71413606D01*
X166725074Y-71810180D01*
X167028224Y-72113859D01*
X167424512Y-72278412D01*
X167853606Y-72278787D01*
X168250180Y-72114926D01*
X168553859Y-71811776D01*
X168718412Y-71415488D01*
X168718787Y-70986394D01*
X168554926Y-70589820D01*
X168251776Y-70286141D01*
X167855488Y-70121588D01*
X167426394Y-70121213D01*
X167029820Y-70285074D01*
X166726141Y-70588224D01*
X166561588Y-70984512D01*
X166561213Y-71413606D01*
X151728600Y-71413606D01*
X151728600Y-69003486D01*
X151520898Y-67959296D01*
X150929412Y-67074074D01*
X150044190Y-66482588D01*
X149000000Y-66274886D01*
X147955810Y-66482588D01*
X147070588Y-67074074D01*
X146479102Y-67959296D01*
X146271400Y-69003486D01*
X146271400Y-78796514D01*
X146479102Y-79840704D01*
X147070588Y-80725926D01*
X147955810Y-81317412D01*
X148641480Y-81453800D01*
X143358520Y-81453800D01*
X144044190Y-81317412D01*
X144929412Y-80725926D01*
X145520898Y-79840704D01*
X145728600Y-78796514D01*
X145728600Y-69003486D01*
X145520898Y-67959296D01*
X144929412Y-67074074D01*
X144044190Y-66482588D01*
X143000000Y-66274886D01*
X141955810Y-66482588D01*
X141070588Y-67074074D01*
X140479102Y-67959296D01*
X140271400Y-69003486D01*
X140271400Y-78796514D01*
X140479102Y-79840704D01*
X141070588Y-80725926D01*
X141955810Y-81317412D01*
X142641480Y-81453800D01*
X137358520Y-81453800D01*
X138044190Y-81317412D01*
X138929412Y-80725926D01*
X139520898Y-79840704D01*
X139728600Y-78796514D01*
X139728600Y-69003486D01*
X139520898Y-67959296D01*
X138929412Y-67074074D01*
X138044190Y-66482588D01*
X137000000Y-66274886D01*
X135955810Y-66482588D01*
X135070588Y-67074074D01*
X134479102Y-67959296D01*
X134271400Y-69003486D01*
X134271400Y-78796514D01*
X134479102Y-79840704D01*
X135070588Y-80725926D01*
X135955810Y-81317412D01*
X136641480Y-81453800D01*
X131358520Y-81453800D01*
X132044190Y-81317412D01*
X132929412Y-80725926D01*
X133520898Y-79840704D01*
X133728600Y-78796514D01*
X133728600Y-69003486D01*
X133520898Y-67959296D01*
X132929412Y-67074074D01*
X132044190Y-66482588D01*
X131000000Y-66274886D01*
X129955810Y-66482588D01*
X129070588Y-67074074D01*
X128479102Y-67959296D01*
X128271400Y-69003486D01*
X128271400Y-78796514D01*
X128479102Y-79840704D01*
X129070588Y-80725926D01*
X129955810Y-81317412D01*
X130641480Y-81453800D01*
X113356200Y-81453800D01*
X113356200Y-76459350D01*
X119473800Y-76459350D01*
X119473800Y-77114885D01*
X119523461Y-77234777D01*
X119615222Y-77326539D01*
X119735115Y-77376200D01*
X120390650Y-77376200D01*
X120472200Y-77294650D01*
X120472200Y-76377800D01*
X120827800Y-76377800D01*
X120827800Y-77294650D01*
X120909350Y-77376200D01*
X121564885Y-77376200D01*
X121684778Y-77326539D01*
X121776539Y-77234777D01*
X121826200Y-77114885D01*
X121826200Y-76459350D01*
X121744650Y-76377800D01*
X120827800Y-76377800D01*
X120472200Y-76377800D01*
X119555350Y-76377800D01*
X119473800Y-76459350D01*
X113356200Y-76459350D01*
X113356200Y-75285115D01*
X119473800Y-75285115D01*
X119473800Y-75940650D01*
X119555350Y-76022200D01*
X120472200Y-76022200D01*
X120472200Y-75105350D01*
X120827800Y-75105350D01*
X120827800Y-76022200D01*
X121744650Y-76022200D01*
X121826200Y-75940650D01*
X121826200Y-75285115D01*
X121776539Y-75165223D01*
X121684778Y-75073461D01*
X121564885Y-75023800D01*
X120909350Y-75023800D01*
X120827800Y-75105350D01*
X120472200Y-75105350D01*
X120390650Y-75023800D01*
X119735115Y-75023800D01*
X119615222Y-75073461D01*
X119523461Y-75165223D01*
X119473800Y-75285115D01*
X113356200Y-75285115D01*
X113356200Y-71413606D01*
X119571213Y-71413606D01*
X119735074Y-71810180D01*
X120038224Y-72113859D01*
X120434512Y-72278412D01*
X120863606Y-72278787D01*
X121260180Y-72114926D01*
X121563859Y-71811776D01*
X121728412Y-71415488D01*
X121728787Y-70986394D01*
X121564926Y-70589820D01*
X121261776Y-70286141D01*
X120865488Y-70121588D01*
X120436394Y-70121213D01*
X120039820Y-70285074D01*
X119736141Y-70588224D01*
X119571588Y-70984512D01*
X119571213Y-71413606D01*
X113356200Y-71413606D01*
X113356200Y-64461200D01*
X178608800Y-64461200D01*
X178608800Y-81453800D01*
X178608800Y-81453800D01*
G37*
X178608800Y-81453800D02*
X149358520Y-81453800D01*
X150044190Y-81317412D01*
X150929412Y-80725926D01*
X151520898Y-79840704D01*
X151728600Y-78796514D01*
X151728600Y-76459350D01*
X166463800Y-76459350D01*
X166463800Y-77114885D01*
X166513461Y-77234777D01*
X166605222Y-77326539D01*
X166725115Y-77376200D01*
X167380650Y-77376200D01*
X167462200Y-77294650D01*
X167462200Y-76377800D01*
X167817800Y-76377800D01*
X167817800Y-77294650D01*
X167899350Y-77376200D01*
X168554885Y-77376200D01*
X168674778Y-77326539D01*
X168766539Y-77234777D01*
X168816200Y-77114885D01*
X168816200Y-76459350D01*
X168734650Y-76377800D01*
X167817800Y-76377800D01*
X167462200Y-76377800D01*
X166545350Y-76377800D01*
X166463800Y-76459350D01*
X151728600Y-76459350D01*
X151728600Y-75285115D01*
X166463800Y-75285115D01*
X166463800Y-75940650D01*
X166545350Y-76022200D01*
X167462200Y-76022200D01*
X167462200Y-75105350D01*
X167817800Y-75105350D01*
X167817800Y-76022200D01*
X168734650Y-76022200D01*
X168816200Y-75940650D01*
X168816200Y-75285115D01*
X168766539Y-75165223D01*
X168674778Y-75073461D01*
X168554885Y-75023800D01*
X167899350Y-75023800D01*
X167817800Y-75105350D01*
X167462200Y-75105350D01*
X167380650Y-75023800D01*
X166725115Y-75023800D01*
X166605222Y-75073461D01*
X166513461Y-75165223D01*
X166463800Y-75285115D01*
X151728600Y-75285115D01*
X151728600Y-71413606D01*
X166561213Y-71413606D01*
X166725074Y-71810180D01*
X167028224Y-72113859D01*
X167424512Y-72278412D01*
X167853606Y-72278787D01*
X168250180Y-72114926D01*
X168553859Y-71811776D01*
X168718412Y-71415488D01*
X168718787Y-70986394D01*
X168554926Y-70589820D01*
X168251776Y-70286141D01*
X167855488Y-70121588D01*
X167426394Y-70121213D01*
X167029820Y-70285074D01*
X166726141Y-70588224D01*
X166561588Y-70984512D01*
X166561213Y-71413606D01*
X151728600Y-71413606D01*
X151728600Y-69003486D01*
X151520898Y-67959296D01*
X150929412Y-67074074D01*
X150044190Y-66482588D01*
X149000000Y-66274886D01*
X147955810Y-66482588D01*
X147070588Y-67074074D01*
X146479102Y-67959296D01*
X146271400Y-69003486D01*
X146271400Y-78796514D01*
X146479102Y-79840704D01*
X147070588Y-80725926D01*
X147955810Y-81317412D01*
X148641480Y-81453800D01*
X143358520Y-81453800D01*
X144044190Y-81317412D01*
X144929412Y-80725926D01*
X145520898Y-79840704D01*
X145728600Y-78796514D01*
X145728600Y-69003486D01*
X145520898Y-67959296D01*
X144929412Y-67074074D01*
X144044190Y-66482588D01*
X143000000Y-66274886D01*
X141955810Y-66482588D01*
X141070588Y-67074074D01*
X140479102Y-67959296D01*
X140271400Y-69003486D01*
X140271400Y-78796514D01*
X140479102Y-79840704D01*
X141070588Y-80725926D01*
X141955810Y-81317412D01*
X142641480Y-81453800D01*
X137358520Y-81453800D01*
X138044190Y-81317412D01*
X138929412Y-80725926D01*
X139520898Y-79840704D01*
X139728600Y-78796514D01*
X139728600Y-69003486D01*
X139520898Y-67959296D01*
X138929412Y-67074074D01*
X138044190Y-66482588D01*
X137000000Y-66274886D01*
X135955810Y-66482588D01*
X135070588Y-67074074D01*
X134479102Y-67959296D01*
X134271400Y-69003486D01*
X134271400Y-78796514D01*
X134479102Y-79840704D01*
X135070588Y-80725926D01*
X135955810Y-81317412D01*
X136641480Y-81453800D01*
X131358520Y-81453800D01*
X132044190Y-81317412D01*
X132929412Y-80725926D01*
X133520898Y-79840704D01*
X133728600Y-78796514D01*
X133728600Y-69003486D01*
X133520898Y-67959296D01*
X132929412Y-67074074D01*
X132044190Y-66482588D01*
X131000000Y-66274886D01*
X129955810Y-66482588D01*
X129070588Y-67074074D01*
X128479102Y-67959296D01*
X128271400Y-69003486D01*
X128271400Y-78796514D01*
X128479102Y-79840704D01*
X129070588Y-80725926D01*
X129955810Y-81317412D01*
X130641480Y-81453800D01*
X113356200Y-81453800D01*
X113356200Y-76459350D01*
X119473800Y-76459350D01*
X119473800Y-77114885D01*
X119523461Y-77234777D01*
X119615222Y-77326539D01*
X119735115Y-77376200D01*
X120390650Y-77376200D01*
X120472200Y-77294650D01*
X120472200Y-76377800D01*
X120827800Y-76377800D01*
X120827800Y-77294650D01*
X120909350Y-77376200D01*
X121564885Y-77376200D01*
X121684778Y-77326539D01*
X121776539Y-77234777D01*
X121826200Y-77114885D01*
X121826200Y-76459350D01*
X121744650Y-76377800D01*
X120827800Y-76377800D01*
X120472200Y-76377800D01*
X119555350Y-76377800D01*
X119473800Y-76459350D01*
X113356200Y-76459350D01*
X113356200Y-75285115D01*
X119473800Y-75285115D01*
X119473800Y-75940650D01*
X119555350Y-76022200D01*
X120472200Y-76022200D01*
X120472200Y-75105350D01*
X120827800Y-75105350D01*
X120827800Y-76022200D01*
X121744650Y-76022200D01*
X121826200Y-75940650D01*
X121826200Y-75285115D01*
X121776539Y-75165223D01*
X121684778Y-75073461D01*
X121564885Y-75023800D01*
X120909350Y-75023800D01*
X120827800Y-75105350D01*
X120472200Y-75105350D01*
X120390650Y-75023800D01*
X119735115Y-75023800D01*
X119615222Y-75073461D01*
X119523461Y-75165223D01*
X119473800Y-75285115D01*
X113356200Y-75285115D01*
X113356200Y-71413606D01*
X119571213Y-71413606D01*
X119735074Y-71810180D01*
X120038224Y-72113859D01*
X120434512Y-72278412D01*
X120863606Y-72278787D01*
X121260180Y-72114926D01*
X121563859Y-71811776D01*
X121728412Y-71415488D01*
X121728787Y-70986394D01*
X121564926Y-70589820D01*
X121261776Y-70286141D01*
X120865488Y-70121588D01*
X120436394Y-70121213D01*
X120039820Y-70285074D01*
X119736141Y-70588224D01*
X119571588Y-70984512D01*
X119571213Y-71413606D01*
X113356200Y-71413606D01*
X113356200Y-64461200D01*
X178608800Y-64461200D01*
X178608800Y-81453800D01*
G36*
X178608800Y-119148800D02*
X113356200Y-119148800D01*
X113356200Y-115805605D01*
X122451620Y-115805605D01*
X122609343Y-116187325D01*
X122901139Y-116479630D01*
X123282583Y-116638020D01*
X123695605Y-116638380D01*
X124077325Y-116480657D01*
X124369630Y-116188861D01*
X124528020Y-115807417D01*
X124528380Y-115394395D01*
X124430606Y-115157763D01*
X125677600Y-113910769D01*
X125677600Y-114622274D01*
X125442675Y-114719343D01*
X125150370Y-115011139D01*
X124991980Y-115392583D01*
X124991620Y-115805605D01*
X125149343Y-116187325D01*
X125441139Y-116479630D01*
X125822583Y-116638020D01*
X126235605Y-116638380D01*
X126617325Y-116480657D01*
X126909630Y-116188861D01*
X127057600Y-115832511D01*
X127057600Y-116210000D01*
X127084425Y-116344858D01*
X127149101Y-116441652D01*
X127160816Y-116459184D01*
X127660816Y-116959185D01*
X127729350Y-117004977D01*
X127775142Y-117035575D01*
X127910000Y-117062400D01*
X155400000Y-117062400D01*
X155534858Y-117035575D01*
X155649184Y-116959184D01*
X156067827Y-116540541D01*
X156302583Y-116638020D01*
X156715605Y-116638380D01*
X157097325Y-116480657D01*
X157389630Y-116188861D01*
X157548020Y-115807417D01*
X157548380Y-115394395D01*
X157411596Y-115063350D01*
X158324800Y-115063350D01*
X158324800Y-115668885D01*
X158374461Y-115788778D01*
X158466223Y-115880539D01*
X158586115Y-115930200D01*
X158891650Y-115930200D01*
X158973200Y-115848650D01*
X158973200Y-114981800D01*
X159328800Y-114981800D01*
X159328800Y-115848650D01*
X159410350Y-115930200D01*
X159715885Y-115930200D01*
X159835777Y-115880539D01*
X159927539Y-115788778D01*
X159977200Y-115668885D01*
X159977200Y-115063350D01*
X159895650Y-114981800D01*
X159328800Y-114981800D01*
X158973200Y-114981800D01*
X158406350Y-114981800D01*
X158324800Y-115063350D01*
X157411596Y-115063350D01*
X157390657Y-115012675D01*
X157098861Y-114720370D01*
X156717417Y-114561980D01*
X156304395Y-114561620D01*
X155922675Y-114719343D01*
X155630370Y-115011139D01*
X155471980Y-115392583D01*
X155471620Y-115805605D01*
X155569394Y-116042238D01*
X155254032Y-116357600D01*
X154779386Y-116357600D01*
X154879218Y-116257768D01*
X154811654Y-116190204D01*
X154960527Y-116099887D01*
X155076426Y-115682777D01*
X155023882Y-115253065D01*
X154960527Y-115100113D01*
X154811652Y-115009795D01*
X154221447Y-115600000D01*
X154235590Y-115614143D01*
X153984143Y-115865590D01*
X153970000Y-115851447D01*
X153955858Y-115865590D01*
X153704411Y-115614143D01*
X153718553Y-115600000D01*
X153128348Y-115009795D01*
X152979473Y-115100113D01*
X152863574Y-115517223D01*
X152916118Y-115946935D01*
X152979473Y-116099887D01*
X153128346Y-116190204D01*
X153060782Y-116257768D01*
X153160614Y-116357600D01*
X152140597Y-116357600D01*
X152309630Y-116188861D01*
X152468020Y-115807417D01*
X152468380Y-115394395D01*
X152310657Y-115012675D01*
X152056773Y-114758348D01*
X153379795Y-114758348D01*
X153970000Y-115348553D01*
X154560205Y-114758348D01*
X154469887Y-114609473D01*
X154052777Y-114493574D01*
X153623065Y-114546118D01*
X153470113Y-114609473D01*
X153379795Y-114758348D01*
X152056773Y-114758348D01*
X152018861Y-114720370D01*
X151637417Y-114561980D01*
X151224395Y-114561620D01*
X150842675Y-114719343D01*
X150550370Y-115011139D01*
X150391980Y-115392583D01*
X150391620Y-115805605D01*
X150549343Y-116187325D01*
X150719321Y-116357600D01*
X149600597Y-116357600D01*
X149769630Y-116188861D01*
X149861340Y-115968000D01*
X149959200Y-115968000D01*
X150059587Y-115949111D01*
X150151786Y-115889782D01*
X150213639Y-115799257D01*
X150235400Y-115691800D01*
X150235400Y-113939115D01*
X158324800Y-113939115D01*
X158324800Y-114544650D01*
X158406350Y-114626200D01*
X158973200Y-114626200D01*
X158973200Y-113759350D01*
X159328800Y-113759350D01*
X159328800Y-114626200D01*
X159895650Y-114626200D01*
X159977200Y-114544650D01*
X159977200Y-113939115D01*
X159927539Y-113819222D01*
X159835777Y-113727461D01*
X159715885Y-113677800D01*
X159410350Y-113677800D01*
X159328800Y-113759350D01*
X158973200Y-113759350D01*
X158891650Y-113677800D01*
X158586115Y-113677800D01*
X158466223Y-113727461D01*
X158374461Y-113819222D01*
X158324800Y-113939115D01*
X150235400Y-113939115D01*
X150235400Y-113456200D01*
X161837800Y-113456200D01*
X161837800Y-113722389D01*
X161651000Y-113722389D01*
X161548646Y-113741648D01*
X161454641Y-113802139D01*
X161391576Y-113894438D01*
X161369389Y-114004000D01*
X161369389Y-115604000D01*
X161388648Y-115706354D01*
X161449139Y-115800359D01*
X161541438Y-115863424D01*
X161651000Y-115885611D01*
X162651000Y-115885611D01*
X162753354Y-115866352D01*
X162847359Y-115805861D01*
X162910424Y-115713562D01*
X162932611Y-115604000D01*
X162932611Y-114004000D01*
X162913352Y-113901646D01*
X162852861Y-113807641D01*
X162760562Y-113744576D01*
X162651000Y-113722389D01*
X162644200Y-113722389D01*
X162644200Y-113456200D01*
X163910000Y-113456200D01*
X164010387Y-113437311D01*
X164102586Y-113377982D01*
X164164439Y-113287457D01*
X164186200Y-113180000D01*
X164186200Y-112921200D01*
X164441208Y-112921200D01*
X164542000Y-112941611D01*
X165142000Y-112941611D01*
X165244354Y-112922352D01*
X165338359Y-112861861D01*
X165401424Y-112769562D01*
X165423611Y-112660000D01*
X165423611Y-112260000D01*
X165404352Y-112157646D01*
X165376911Y-112115001D01*
X170915708Y-112115001D01*
X170996256Y-112309942D01*
X171145274Y-112459219D01*
X171340074Y-112540108D01*
X171551001Y-112540292D01*
X171745942Y-112459744D01*
X171843455Y-112362400D01*
X173423404Y-112362400D01*
X173256324Y-112474040D01*
X173009246Y-112843817D01*
X172922484Y-113280000D01*
X173009246Y-113716183D01*
X173256324Y-114085960D01*
X173626101Y-114333038D01*
X174062284Y-114419800D01*
X174417716Y-114419800D01*
X174853899Y-114333038D01*
X175161600Y-114127438D01*
X175161600Y-114554000D01*
X175185626Y-114674789D01*
X173224000Y-114674789D01*
X173121646Y-114694048D01*
X173027641Y-114754539D01*
X172964576Y-114846838D01*
X172942389Y-114956400D01*
X172942389Y-116683600D01*
X172961648Y-116785954D01*
X173022139Y-116879959D01*
X173114438Y-116943024D01*
X173224000Y-116965211D01*
X175256000Y-116965211D01*
X175358354Y-116945952D01*
X175452359Y-116885461D01*
X175510718Y-116800049D01*
X175562139Y-116879959D01*
X175654438Y-116943024D01*
X175764000Y-116965211D01*
X177796000Y-116965211D01*
X177898354Y-116945952D01*
X177992359Y-116885461D01*
X178055424Y-116793162D01*
X178077611Y-116683600D01*
X178077611Y-114956400D01*
X178058352Y-114854046D01*
X177997861Y-114760041D01*
X177905562Y-114696976D01*
X177796000Y-114674789D01*
X176133157Y-114674789D01*
X175866400Y-114408032D01*
X175866400Y-114132783D01*
X176166101Y-114333038D01*
X176602284Y-114419800D01*
X176957716Y-114419800D01*
X177393899Y-114333038D01*
X177763676Y-114085960D01*
X178010754Y-113716183D01*
X178097516Y-113280000D01*
X178010754Y-112843817D01*
X177763676Y-112474040D01*
X177393899Y-112226962D01*
X176957716Y-112140200D01*
X176602284Y-112140200D01*
X176215504Y-112217135D01*
X175866400Y-111868032D01*
X175866400Y-111592783D01*
X176166101Y-111793038D01*
X176602284Y-111879800D01*
X176957716Y-111879800D01*
X177393899Y-111793038D01*
X177763676Y-111545960D01*
X178010754Y-111176183D01*
X178097516Y-110740000D01*
X178010754Y-110303817D01*
X177763676Y-109934040D01*
X177393899Y-109686962D01*
X176957716Y-109600200D01*
X176602284Y-109600200D01*
X176215503Y-109677135D01*
X175153584Y-108615216D01*
X175100880Y-108580000D01*
X175070420Y-108559647D01*
X175493458Y-108559647D01*
X175651636Y-108877683D01*
X175985265Y-109199583D01*
X176416684Y-109369305D01*
X176602200Y-109306353D01*
X176602200Y-108377800D01*
X176957800Y-108377800D01*
X176957800Y-109306353D01*
X177143316Y-109369305D01*
X177574735Y-109199583D01*
X177908364Y-108877683D01*
X178066542Y-108559647D01*
X178026295Y-108377800D01*
X176957800Y-108377800D01*
X176602200Y-108377800D01*
X175533705Y-108377800D01*
X175493458Y-108559647D01*
X175070420Y-108559647D01*
X175039258Y-108538825D01*
X174904400Y-108512000D01*
X172304577Y-108512000D01*
X172207926Y-108415181D01*
X172013126Y-108334292D01*
X171802199Y-108334108D01*
X171607258Y-108414656D01*
X171457981Y-108563674D01*
X171377092Y-108758474D01*
X171376908Y-108969401D01*
X171457456Y-109164342D01*
X171487584Y-109194522D01*
X171457981Y-109224074D01*
X171377092Y-109418874D01*
X171376908Y-109629801D01*
X171457456Y-109824742D01*
X171606474Y-109974019D01*
X171801274Y-110054908D01*
X172012201Y-110055092D01*
X172207142Y-109974544D01*
X172304655Y-109877200D01*
X173303498Y-109877200D01*
X173111636Y-110062317D01*
X172953458Y-110380353D01*
X172993705Y-110562200D01*
X174062200Y-110562200D01*
X174062200Y-110542200D01*
X174417800Y-110542200D01*
X174417800Y-110562200D01*
X174437800Y-110562200D01*
X174437800Y-110917800D01*
X174417800Y-110917800D01*
X174417800Y-110937800D01*
X174062200Y-110937800D01*
X174062200Y-110917800D01*
X172993705Y-110917800D01*
X172953458Y-111099647D01*
X173111636Y-111417683D01*
X173360295Y-111657600D01*
X171843377Y-111657600D01*
X171746726Y-111560781D01*
X171551926Y-111479892D01*
X171340999Y-111479708D01*
X171146058Y-111560256D01*
X170996781Y-111709274D01*
X170915892Y-111904074D01*
X170915708Y-112115001D01*
X165376911Y-112115001D01*
X165343861Y-112063641D01*
X165264479Y-112009402D01*
X165338359Y-111961861D01*
X165401424Y-111869562D01*
X165423611Y-111760000D01*
X165423611Y-111360000D01*
X165404352Y-111257646D01*
X165343861Y-111163641D01*
X165251562Y-111100576D01*
X165142000Y-111078389D01*
X164930599Y-111078389D01*
X164815105Y-110962895D01*
X164684298Y-110875492D01*
X164681106Y-110874857D01*
X164530000Y-110844800D01*
X164052611Y-110844800D01*
X164052611Y-110803000D01*
X164033352Y-110700646D01*
X163976230Y-110611877D01*
X164030424Y-110532562D01*
X164052611Y-110423000D01*
X164052611Y-109533000D01*
X164033352Y-109430646D01*
X164002545Y-109382771D01*
X164047539Y-109337777D01*
X164097200Y-109217885D01*
X164097200Y-108967350D01*
X164015650Y-108885800D01*
X162418800Y-108885800D01*
X162418800Y-108905800D01*
X162063200Y-108905800D01*
X162063200Y-108885800D01*
X160466350Y-108885800D01*
X160384800Y-108967350D01*
X160384800Y-109217885D01*
X160434461Y-109337777D01*
X160479400Y-109382716D01*
X160451576Y-109423438D01*
X160429389Y-109533000D01*
X160429389Y-110423000D01*
X160448648Y-110525354D01*
X160505770Y-110614123D01*
X160451576Y-110693438D01*
X160429389Y-110803000D01*
X160429389Y-111653800D01*
X150235400Y-111653800D01*
X150235400Y-108731550D01*
X166301800Y-108731550D01*
X166301800Y-108864885D01*
X166351461Y-108984777D01*
X166443222Y-109076539D01*
X166563115Y-109126200D01*
X166671450Y-109126200D01*
X166753000Y-109044650D01*
X166753000Y-108650000D01*
X167003000Y-108650000D01*
X167003000Y-109044650D01*
X167084550Y-109126200D01*
X167192885Y-109126200D01*
X167312778Y-109076539D01*
X167404539Y-108984777D01*
X167454200Y-108864885D01*
X167454200Y-108731550D01*
X167372650Y-108650000D01*
X167003000Y-108650000D01*
X166753000Y-108650000D01*
X166383350Y-108650000D01*
X166301800Y-108731550D01*
X150235400Y-108731550D01*
X150235400Y-104230000D01*
X150216511Y-104129613D01*
X150157182Y-104037414D01*
X150066657Y-103975561D01*
X149959200Y-103953800D01*
X145210000Y-103953800D01*
X145109613Y-103972689D01*
X145056510Y-104006860D01*
X145004650Y-103955000D01*
X144610000Y-103955000D01*
X144610000Y-104026800D01*
X144310000Y-104026800D01*
X144310000Y-103955000D01*
X144262200Y-103955000D01*
X144262200Y-103705000D01*
X144310000Y-103705000D01*
X144310000Y-103335350D01*
X144610000Y-103335350D01*
X144610000Y-103705000D01*
X145004650Y-103705000D01*
X145086200Y-103623450D01*
X145086200Y-103515115D01*
X145036539Y-103395222D01*
X144944777Y-103303461D01*
X144824885Y-103253800D01*
X144691550Y-103253800D01*
X144610000Y-103335350D01*
X144310000Y-103335350D01*
X144228450Y-103253800D01*
X144095115Y-103253800D01*
X143975223Y-103303461D01*
X143883461Y-103395222D01*
X143877921Y-103408598D01*
X143861861Y-103383641D01*
X143769562Y-103320576D01*
X143763200Y-103319288D01*
X143763200Y-103160000D01*
X143749147Y-103089350D01*
X145683800Y-103089350D01*
X145683800Y-103394885D01*
X145733461Y-103514777D01*
X145825222Y-103606539D01*
X145945115Y-103656200D01*
X146550650Y-103656200D01*
X146632200Y-103574650D01*
X146632200Y-103007800D01*
X146987800Y-103007800D01*
X146987800Y-103574650D01*
X147069350Y-103656200D01*
X147674885Y-103656200D01*
X147794778Y-103606539D01*
X147886539Y-103514777D01*
X147936200Y-103394885D01*
X147936200Y-103089350D01*
X147854650Y-103007800D01*
X146987800Y-103007800D01*
X146632200Y-103007800D01*
X145765350Y-103007800D01*
X145683800Y-103089350D01*
X143749147Y-103089350D01*
X143732508Y-103005702D01*
X143718347Y-102984508D01*
X143645106Y-102874895D01*
X143035326Y-102265115D01*
X145683800Y-102265115D01*
X145683800Y-102570650D01*
X145765350Y-102652200D01*
X146632200Y-102652200D01*
X146632200Y-102085350D01*
X146987800Y-102085350D01*
X146987800Y-102652200D01*
X147854650Y-102652200D01*
X147936200Y-102570650D01*
X147936200Y-102265115D01*
X147886539Y-102145223D01*
X147794778Y-102053461D01*
X147674885Y-102003800D01*
X147069350Y-102003800D01*
X146987800Y-102085350D01*
X146632200Y-102085350D01*
X146550650Y-102003800D01*
X145945115Y-102003800D01*
X145825222Y-102053461D01*
X145733461Y-102145223D01*
X145683800Y-102265115D01*
X143035326Y-102265115D01*
X142313200Y-101542990D01*
X142313200Y-98670017D01*
X142388074Y-98701108D01*
X142599001Y-98701292D01*
X142793942Y-98620744D01*
X142943219Y-98471726D01*
X143024108Y-98276926D01*
X143024228Y-98139140D01*
X144648185Y-96515184D01*
X144648187Y-96515181D01*
X145103769Y-96059600D01*
X147701000Y-96059600D01*
X147835858Y-96032775D01*
X147950184Y-95956384D01*
X148608969Y-95297600D01*
X159157389Y-95297600D01*
X158603273Y-95850751D01*
X158294152Y-96595196D01*
X158293449Y-97401268D01*
X158601269Y-98146251D01*
X159170751Y-98716727D01*
X159915196Y-99025848D01*
X160721268Y-99026551D01*
X161466251Y-98718731D01*
X162036727Y-98149249D01*
X162345848Y-97404804D01*
X162346551Y-96598732D01*
X162038731Y-95853749D01*
X161483551Y-95297600D01*
X162744232Y-95297600D01*
X162944227Y-95497596D01*
X162944108Y-95634401D01*
X163024656Y-95829342D01*
X163173674Y-95978619D01*
X163368474Y-96059508D01*
X163579401Y-96059692D01*
X163774342Y-95979144D01*
X163803800Y-95949737D01*
X163803800Y-104113800D01*
X160524000Y-104113800D01*
X160423613Y-104132689D01*
X160331414Y-104192018D01*
X160269561Y-104282543D01*
X160247800Y-104390000D01*
X160247800Y-105406000D01*
X160266689Y-105506387D01*
X160326018Y-105598586D01*
X160416543Y-105660439D01*
X160441053Y-105665402D01*
X160429389Y-105723000D01*
X160429389Y-106613000D01*
X160448648Y-106715354D01*
X160505770Y-106804123D01*
X160451576Y-106883438D01*
X160429389Y-106993000D01*
X160429389Y-107883000D01*
X160448648Y-107985354D01*
X160479455Y-108033229D01*
X160434461Y-108078223D01*
X160384800Y-108198115D01*
X160384800Y-108448650D01*
X160466350Y-108530200D01*
X162063200Y-108530200D01*
X162063200Y-108510200D01*
X162418800Y-108510200D01*
X162418800Y-108530200D01*
X164015650Y-108530200D01*
X164097200Y-108448650D01*
X164097200Y-108198115D01*
X164047539Y-108078223D01*
X164002600Y-108033284D01*
X164030424Y-107992562D01*
X164052611Y-107883000D01*
X164052611Y-107841200D01*
X166390645Y-107841200D01*
X166426139Y-107896359D01*
X166457281Y-107917638D01*
X166443222Y-107923461D01*
X166351461Y-108015223D01*
X166301800Y-108135115D01*
X166301800Y-108268450D01*
X166383350Y-108350000D01*
X166753000Y-108350000D01*
X166753000Y-108302200D01*
X167003000Y-108302200D01*
X167003000Y-108350000D01*
X167372650Y-108350000D01*
X167454200Y-108268450D01*
X167454200Y-108135115D01*
X167427043Y-108069550D01*
X168406800Y-108069550D01*
X168406800Y-108152885D01*
X168456461Y-108272777D01*
X168548222Y-108364539D01*
X168668115Y-108414200D01*
X168801450Y-108414200D01*
X168883000Y-108332650D01*
X168883000Y-107988000D01*
X169183000Y-107988000D01*
X169183000Y-108332650D01*
X169264550Y-108414200D01*
X169397885Y-108414200D01*
X169517778Y-108364539D01*
X169609539Y-108272777D01*
X169659200Y-108152885D01*
X169659200Y-108069550D01*
X169577650Y-107988000D01*
X169183000Y-107988000D01*
X168883000Y-107988000D01*
X168488350Y-107988000D01*
X168406800Y-108069550D01*
X167427043Y-108069550D01*
X167404539Y-108015223D01*
X167312778Y-107923461D01*
X167299402Y-107917921D01*
X167324359Y-107901861D01*
X167366385Y-107840353D01*
X175493458Y-107840353D01*
X175533705Y-108022200D01*
X176602200Y-108022200D01*
X176602200Y-107093647D01*
X176957800Y-107093647D01*
X176957800Y-108022200D01*
X178026295Y-108022200D01*
X178066542Y-107840353D01*
X177908364Y-107522317D01*
X177574735Y-107200417D01*
X177143316Y-107030695D01*
X176957800Y-107093647D01*
X176602200Y-107093647D01*
X176416684Y-107030695D01*
X175985265Y-107200417D01*
X175651636Y-107522317D01*
X175493458Y-107840353D01*
X167366385Y-107840353D01*
X167387424Y-107809562D01*
X167409611Y-107700000D01*
X167409611Y-107100000D01*
X167390352Y-106997646D01*
X167329861Y-106903641D01*
X167237562Y-106840576D01*
X167128000Y-106818389D01*
X166628000Y-106818389D01*
X166525646Y-106837648D01*
X166431641Y-106898139D01*
X166368576Y-106990438D01*
X166359592Y-107034800D01*
X164052611Y-107034800D01*
X164052611Y-106993000D01*
X164033352Y-106890646D01*
X163976230Y-106801877D01*
X164030424Y-106722562D01*
X164052611Y-106613000D01*
X164052611Y-106571200D01*
X168559857Y-106571200D01*
X168536641Y-106586139D01*
X168473576Y-106678438D01*
X168451389Y-106788000D01*
X168451389Y-107188000D01*
X168470648Y-107290354D01*
X168531139Y-107384359D01*
X168562281Y-107405638D01*
X168548222Y-107411461D01*
X168456461Y-107503223D01*
X168406800Y-107623115D01*
X168406800Y-107706450D01*
X168488350Y-107788000D01*
X168883000Y-107788000D01*
X168883000Y-107690200D01*
X169183000Y-107690200D01*
X169183000Y-107788000D01*
X169577650Y-107788000D01*
X169659200Y-107706450D01*
X169659200Y-107623115D01*
X169609539Y-107503223D01*
X169517778Y-107411461D01*
X169504402Y-107405921D01*
X169529359Y-107389861D01*
X169592424Y-107297562D01*
X169614611Y-107188000D01*
X169614611Y-106788000D01*
X169595352Y-106685646D01*
X169534861Y-106591641D01*
X169442562Y-106528576D01*
X169424200Y-106524858D01*
X169424200Y-105157350D01*
X169706800Y-105157350D01*
X169706800Y-105762885D01*
X169756461Y-105882778D01*
X169848223Y-105974539D01*
X169968115Y-106024200D01*
X170273650Y-106024200D01*
X170355200Y-105942650D01*
X170355200Y-105075800D01*
X170710800Y-105075800D01*
X170710800Y-105942650D01*
X170792350Y-106024200D01*
X171097885Y-106024200D01*
X171108876Y-106019647D01*
X172953458Y-106019647D01*
X173111636Y-106337683D01*
X173445265Y-106659583D01*
X173876684Y-106829305D01*
X174062200Y-106766353D01*
X174062200Y-105837800D01*
X174417800Y-105837800D01*
X174417800Y-106766353D01*
X174603316Y-106829305D01*
X175034735Y-106659583D01*
X175368364Y-106337683D01*
X175511005Y-106050885D01*
X175655636Y-106341683D01*
X175989265Y-106663583D01*
X176420684Y-106833305D01*
X176606200Y-106770353D01*
X176606200Y-105841800D01*
X176961800Y-105841800D01*
X176961800Y-106770353D01*
X177147316Y-106833305D01*
X177578735Y-106663583D01*
X177912364Y-106341683D01*
X178070542Y-106023647D01*
X178030295Y-105841800D01*
X176961800Y-105841800D01*
X176606200Y-105841800D01*
X175537705Y-105841800D01*
X175512443Y-105955942D01*
X175486295Y-105837800D01*
X174417800Y-105837800D01*
X174062200Y-105837800D01*
X172993705Y-105837800D01*
X172953458Y-106019647D01*
X171108876Y-106019647D01*
X171217777Y-105974539D01*
X171309539Y-105882778D01*
X171359200Y-105762885D01*
X171359200Y-105157350D01*
X171277650Y-105075800D01*
X170710800Y-105075800D01*
X170355200Y-105075800D01*
X169788350Y-105075800D01*
X169706800Y-105157350D01*
X169424200Y-105157350D01*
X169424200Y-104033115D01*
X169706800Y-104033115D01*
X169706800Y-104638650D01*
X169788350Y-104720200D01*
X170355200Y-104720200D01*
X170355200Y-103853350D01*
X170710800Y-103853350D01*
X170710800Y-104720200D01*
X171277650Y-104720200D01*
X171359200Y-104638650D01*
X171359200Y-104033115D01*
X171309539Y-103913222D01*
X171217777Y-103821461D01*
X171097885Y-103771800D01*
X170792350Y-103771800D01*
X170710800Y-103853350D01*
X170355200Y-103853350D01*
X170273650Y-103771800D01*
X169968115Y-103771800D01*
X169848223Y-103821461D01*
X169756461Y-103913222D01*
X169706800Y-104033115D01*
X169424200Y-104033115D01*
X169424200Y-101515000D01*
X169393508Y-101360702D01*
X169345338Y-101288611D01*
X169306106Y-101229895D01*
X169146212Y-101070001D01*
X170360908Y-101070001D01*
X170441456Y-101264942D01*
X170538800Y-101362455D01*
X170538800Y-101777800D01*
X170565625Y-101912658D01*
X170620715Y-101995105D01*
X170642016Y-102026984D01*
X173105815Y-104490784D01*
X173172513Y-104535350D01*
X173220142Y-104567175D01*
X173355000Y-104594000D01*
X173614091Y-104594000D01*
X173445265Y-104660417D01*
X173111636Y-104982317D01*
X172953458Y-105300353D01*
X172993705Y-105482200D01*
X174062200Y-105482200D01*
X174062200Y-105462200D01*
X174417800Y-105462200D01*
X174417800Y-105482200D01*
X175486295Y-105482200D01*
X175511557Y-105368058D01*
X175537705Y-105486200D01*
X176606200Y-105486200D01*
X176606200Y-104557647D01*
X176961800Y-104557647D01*
X176961800Y-105486200D01*
X178030295Y-105486200D01*
X178070542Y-105304353D01*
X177912364Y-104986317D01*
X177578735Y-104664417D01*
X177147316Y-104494695D01*
X176961800Y-104557647D01*
X176606200Y-104557647D01*
X176420684Y-104494695D01*
X175989265Y-104664417D01*
X175655636Y-104986317D01*
X175512995Y-105273115D01*
X175368364Y-104982317D01*
X175034735Y-104660417D01*
X174865909Y-104594000D01*
X175666400Y-104594000D01*
X175801258Y-104567175D01*
X175915584Y-104490784D01*
X176219503Y-104186865D01*
X176606284Y-104263800D01*
X176961716Y-104263800D01*
X177397899Y-104177038D01*
X177767676Y-103929960D01*
X178014754Y-103560183D01*
X178101516Y-103124000D01*
X178014754Y-102687817D01*
X177767676Y-102318040D01*
X177397899Y-102070962D01*
X176961716Y-101984200D01*
X176606284Y-101984200D01*
X176170101Y-102070962D01*
X175800324Y-102318040D01*
X175553246Y-102687817D01*
X175512398Y-102893175D01*
X175470754Y-102683817D01*
X175223676Y-102314040D01*
X174853899Y-102066962D01*
X174417716Y-101980200D01*
X174062284Y-101980200D01*
X173675504Y-102057135D01*
X173072400Y-101454032D01*
X173072400Y-101110699D01*
X173256324Y-101385960D01*
X173626101Y-101633038D01*
X174062284Y-101719800D01*
X174417716Y-101719800D01*
X174853899Y-101633038D01*
X175223676Y-101385960D01*
X175470754Y-101016183D01*
X175511602Y-100810825D01*
X175553246Y-101020183D01*
X175800324Y-101389960D01*
X176170101Y-101637038D01*
X176606284Y-101723800D01*
X176961716Y-101723800D01*
X177397899Y-101637038D01*
X177767676Y-101389960D01*
X178014754Y-101020183D01*
X178101516Y-100584000D01*
X178014754Y-100147817D01*
X177767676Y-99778040D01*
X177397899Y-99530962D01*
X176961716Y-99444200D01*
X176606284Y-99444200D01*
X176170101Y-99530962D01*
X175800324Y-99778040D01*
X175553246Y-100147817D01*
X175512398Y-100353175D01*
X175470754Y-100143817D01*
X175223676Y-99774040D01*
X174853899Y-99526962D01*
X174417716Y-99440200D01*
X174062284Y-99440200D01*
X173626101Y-99526962D01*
X173448440Y-99645672D01*
X172437373Y-98634605D01*
X172437492Y-98497799D01*
X172393942Y-98392400D01*
X172992581Y-98392400D01*
X173009246Y-98476183D01*
X173256324Y-98845960D01*
X173626101Y-99093038D01*
X174062284Y-99179800D01*
X174417716Y-99179800D01*
X174853899Y-99093038D01*
X175223676Y-98845960D01*
X175470754Y-98476183D01*
X175511602Y-98270825D01*
X175553246Y-98480183D01*
X175800324Y-98849960D01*
X176170101Y-99097038D01*
X176606284Y-99183800D01*
X176961716Y-99183800D01*
X177397899Y-99097038D01*
X177767676Y-98849960D01*
X178014754Y-98480183D01*
X178101516Y-98044000D01*
X178014754Y-97607817D01*
X177767676Y-97238040D01*
X177397899Y-96990962D01*
X176961716Y-96904200D01*
X176606284Y-96904200D01*
X176170101Y-96990962D01*
X175800324Y-97238040D01*
X175553246Y-97607817D01*
X175512398Y-97813175D01*
X175470754Y-97603817D01*
X175223676Y-97234040D01*
X174853899Y-96986962D01*
X174417716Y-96900200D01*
X174062284Y-96900200D01*
X173626101Y-96986962D01*
X173256324Y-97234040D01*
X173009246Y-97603817D01*
X172992581Y-97687600D01*
X171944896Y-97687600D01*
X171801526Y-97543981D01*
X171606726Y-97463092D01*
X171395799Y-97462908D01*
X171200858Y-97543456D01*
X171051581Y-97692474D01*
X170970692Y-97887274D01*
X170970508Y-98098201D01*
X171051056Y-98293142D01*
X171200074Y-98442419D01*
X171377075Y-98515917D01*
X171376908Y-98707801D01*
X171457456Y-98902742D01*
X171500350Y-98945711D01*
X171381781Y-99064074D01*
X171300892Y-99258874D01*
X171300708Y-99469801D01*
X171381256Y-99664742D01*
X171530274Y-99814019D01*
X171725074Y-99894908D01*
X171862860Y-99895028D01*
X172367600Y-100399769D01*
X172367600Y-101600000D01*
X172394425Y-101734858D01*
X172438023Y-101800106D01*
X172470816Y-101849184D01*
X173127888Y-102506257D01*
X173009246Y-102683817D01*
X172922484Y-103120000D01*
X172969839Y-103358070D01*
X171243600Y-101631832D01*
X171243600Y-101362377D01*
X171340419Y-101265726D01*
X171421308Y-101070926D01*
X171421492Y-100859999D01*
X171340944Y-100665058D01*
X171191926Y-100515781D01*
X170997126Y-100434892D01*
X170786199Y-100434708D01*
X170591258Y-100515256D01*
X170441981Y-100664274D01*
X170361092Y-100859074D01*
X170360908Y-101070001D01*
X169146212Y-101070001D01*
X168694611Y-100618401D01*
X168694611Y-100407000D01*
X168675352Y-100304646D01*
X168614861Y-100210641D01*
X168522562Y-100147576D01*
X168413000Y-100125389D01*
X168013000Y-100125389D01*
X167910646Y-100144648D01*
X167816641Y-100205139D01*
X167762402Y-100284521D01*
X167714861Y-100210641D01*
X167622562Y-100147576D01*
X167513000Y-100125389D01*
X167113000Y-100125389D01*
X167023200Y-100142286D01*
X167023200Y-96602044D01*
X173094798Y-96609605D01*
X173114438Y-96623024D01*
X173224000Y-96645211D01*
X175256000Y-96645211D01*
X175358354Y-96625952D01*
X175379337Y-96612449D01*
X175637578Y-96612771D01*
X175658438Y-96627024D01*
X175768000Y-96649211D01*
X177800000Y-96649211D01*
X177902354Y-96629952D01*
X177924628Y-96615619D01*
X177989656Y-96615700D01*
X178090387Y-96596811D01*
X178182586Y-96537482D01*
X178244439Y-96446957D01*
X178266200Y-96339500D01*
X178266200Y-89430000D01*
X178247311Y-89329613D01*
X178187982Y-89237414D01*
X178097457Y-89175561D01*
X177990000Y-89153800D01*
X167990000Y-89153800D01*
X167889613Y-89172689D01*
X167797414Y-89232018D01*
X167735561Y-89322543D01*
X167713800Y-89430000D01*
X167713800Y-90817982D01*
X167568126Y-90757492D01*
X167357199Y-90757308D01*
X167162258Y-90837856D01*
X167064745Y-90935200D01*
X154897181Y-90935200D01*
X154906184Y-90929184D01*
X156615184Y-89220184D01*
X156646919Y-89172689D01*
X156691575Y-89105858D01*
X156718400Y-88971000D01*
X156718400Y-88825000D01*
X160121389Y-88825000D01*
X160121389Y-89475000D01*
X160140648Y-89577354D01*
X160201139Y-89671359D01*
X160293438Y-89734424D01*
X160403000Y-89756611D01*
X162103000Y-89756611D01*
X162205354Y-89737352D01*
X162299359Y-89676861D01*
X162362424Y-89584562D01*
X162384611Y-89475000D01*
X162384611Y-88825000D01*
X162365352Y-88722646D01*
X162304861Y-88628641D01*
X162212562Y-88565576D01*
X162103000Y-88543389D01*
X160403000Y-88543389D01*
X160300646Y-88562648D01*
X160206641Y-88623139D01*
X160143576Y-88715438D01*
X160121389Y-88825000D01*
X156718400Y-88825000D01*
X156718400Y-86285000D01*
X160121389Y-86285000D01*
X160121389Y-86935000D01*
X160140648Y-87037354D01*
X160201139Y-87131359D01*
X160293438Y-87194424D01*
X160403000Y-87216611D01*
X162103000Y-87216611D01*
X162205354Y-87197352D01*
X162299359Y-87136861D01*
X162362424Y-87044562D01*
X162379062Y-86962400D01*
X163467581Y-86962400D01*
X163495847Y-87104504D01*
X163775961Y-87523723D01*
X164195180Y-87803837D01*
X164439267Y-87852389D01*
X163915757Y-87852389D01*
X163694184Y-87630816D01*
X163640368Y-87594857D01*
X163579858Y-87554425D01*
X163445000Y-87527600D01*
X162379455Y-87527600D01*
X162365352Y-87452646D01*
X162304861Y-87358641D01*
X162212562Y-87295576D01*
X162103000Y-87273389D01*
X160403000Y-87273389D01*
X160300646Y-87292648D01*
X160206641Y-87353139D01*
X160143576Y-87445438D01*
X160121389Y-87555000D01*
X160121389Y-88205000D01*
X160140648Y-88307354D01*
X160201139Y-88401359D01*
X160293438Y-88464424D01*
X160403000Y-88486611D01*
X162103000Y-88486611D01*
X162205354Y-88467352D01*
X162299359Y-88406861D01*
X162362424Y-88314562D01*
X162379062Y-88232400D01*
X163299032Y-88232400D01*
X163417389Y-88350757D01*
X163417389Y-90166000D01*
X163436648Y-90268354D01*
X163497139Y-90362359D01*
X163589438Y-90425424D01*
X163699000Y-90447611D01*
X165731000Y-90447611D01*
X165833354Y-90428352D01*
X165927359Y-90367861D01*
X165990424Y-90275562D01*
X166012611Y-90166000D01*
X166012611Y-88243647D01*
X168004458Y-88243647D01*
X168162636Y-88561683D01*
X168496265Y-88883583D01*
X168927684Y-89053305D01*
X169113200Y-88990353D01*
X169113200Y-88061800D01*
X169468800Y-88061800D01*
X169468800Y-88990353D01*
X169654316Y-89053305D01*
X170085735Y-88883583D01*
X170419364Y-88561683D01*
X170496495Y-88406602D01*
X170571636Y-88557683D01*
X170905265Y-88879583D01*
X171336684Y-89049305D01*
X171522200Y-88986353D01*
X171522200Y-88057800D01*
X171877800Y-88057800D01*
X171877800Y-88986353D01*
X172063316Y-89049305D01*
X172494735Y-88879583D01*
X172828364Y-88557683D01*
X172970000Y-88272907D01*
X173111636Y-88557683D01*
X173445265Y-88879583D01*
X173876684Y-89049305D01*
X174062200Y-88986353D01*
X174062200Y-88057800D01*
X174417800Y-88057800D01*
X174417800Y-88986353D01*
X174603316Y-89049305D01*
X175034735Y-88879583D01*
X175368364Y-88557683D01*
X175510000Y-88272907D01*
X175651636Y-88557683D01*
X175985265Y-88879583D01*
X176416684Y-89049305D01*
X176602200Y-88986353D01*
X176602200Y-88057800D01*
X176957800Y-88057800D01*
X176957800Y-88986353D01*
X177143316Y-89049305D01*
X177574735Y-88879583D01*
X177908364Y-88557683D01*
X178066542Y-88239647D01*
X178026295Y-88057800D01*
X176957800Y-88057800D01*
X176602200Y-88057800D01*
X175533705Y-88057800D01*
X175510000Y-88164906D01*
X175486295Y-88057800D01*
X174417800Y-88057800D01*
X174062200Y-88057800D01*
X172993705Y-88057800D01*
X172970000Y-88164906D01*
X172946295Y-88057800D01*
X171877800Y-88057800D01*
X171522200Y-88057800D01*
X170453705Y-88057800D01*
X170452820Y-88061800D01*
X169468800Y-88061800D01*
X169113200Y-88061800D01*
X168044705Y-88061800D01*
X168004458Y-88243647D01*
X166012611Y-88243647D01*
X166012611Y-88134000D01*
X165993352Y-88031646D01*
X165932861Y-87937641D01*
X165840562Y-87874576D01*
X165731000Y-87852389D01*
X164990733Y-87852389D01*
X165234820Y-87803837D01*
X165653096Y-87524353D01*
X168004458Y-87524353D01*
X168044705Y-87706200D01*
X169113200Y-87706200D01*
X169113200Y-86777647D01*
X169468800Y-86777647D01*
X169468800Y-87706200D01*
X170537295Y-87706200D01*
X170538180Y-87702200D01*
X171522200Y-87702200D01*
X171522200Y-86773647D01*
X171877800Y-86773647D01*
X171877800Y-87702200D01*
X172946295Y-87702200D01*
X172970000Y-87595094D01*
X172993705Y-87702200D01*
X174062200Y-87702200D01*
X174062200Y-86773647D01*
X174417800Y-86773647D01*
X174417800Y-87702200D01*
X175486295Y-87702200D01*
X175510000Y-87595094D01*
X175533705Y-87702200D01*
X176602200Y-87702200D01*
X176602200Y-86773647D01*
X176957800Y-86773647D01*
X176957800Y-87702200D01*
X178026295Y-87702200D01*
X178066542Y-87520353D01*
X177908364Y-87202317D01*
X177574735Y-86880417D01*
X177143316Y-86710695D01*
X176957800Y-86773647D01*
X176602200Y-86773647D01*
X176416684Y-86710695D01*
X175985265Y-86880417D01*
X175651636Y-87202317D01*
X175510000Y-87487093D01*
X175368364Y-87202317D01*
X175034735Y-86880417D01*
X174603316Y-86710695D01*
X174417800Y-86773647D01*
X174062200Y-86773647D01*
X173876684Y-86710695D01*
X173445265Y-86880417D01*
X173111636Y-87202317D01*
X172970000Y-87487093D01*
X172828364Y-87202317D01*
X172494735Y-86880417D01*
X172063316Y-86710695D01*
X171877800Y-86773647D01*
X171522200Y-86773647D01*
X171336684Y-86710695D01*
X170905265Y-86880417D01*
X170571636Y-87202317D01*
X170494505Y-87357398D01*
X170419364Y-87206317D01*
X170085735Y-86884417D01*
X169654316Y-86714695D01*
X169468800Y-86777647D01*
X169113200Y-86777647D01*
X168927684Y-86714695D01*
X168496265Y-86884417D01*
X168162636Y-87206317D01*
X168004458Y-87524353D01*
X165653096Y-87524353D01*
X165654039Y-87523723D01*
X165934153Y-87104504D01*
X166032516Y-86610000D01*
X165934153Y-86115496D01*
X165654039Y-85696277D01*
X165234820Y-85416163D01*
X164740316Y-85317800D01*
X164689684Y-85317800D01*
X164195180Y-85416163D01*
X163775961Y-85696277D01*
X163495847Y-86115496D01*
X163467581Y-86257600D01*
X162379455Y-86257600D01*
X162365352Y-86182646D01*
X162304861Y-86088641D01*
X162212562Y-86025576D01*
X162103000Y-86003389D01*
X160403000Y-86003389D01*
X160300646Y-86022648D01*
X160206641Y-86083139D01*
X160143576Y-86175438D01*
X160121389Y-86285000D01*
X156718400Y-86285000D01*
X156718400Y-85179968D01*
X157061167Y-84837202D01*
X160190200Y-84837202D01*
X160143576Y-84905438D01*
X160121389Y-85015000D01*
X160121389Y-85665000D01*
X160140648Y-85767354D01*
X160201139Y-85861359D01*
X160293438Y-85924424D01*
X160403000Y-85946611D01*
X162103000Y-85946611D01*
X162205354Y-85927352D01*
X162299359Y-85866861D01*
X162362424Y-85774562D01*
X162384611Y-85665000D01*
X162384611Y-85015000D01*
X162365352Y-84912646D01*
X162316805Y-84837202D01*
X168107430Y-84837202D01*
X168060246Y-84907817D01*
X167973484Y-85344000D01*
X168060246Y-85780183D01*
X168307324Y-86149960D01*
X168677101Y-86397038D01*
X169113284Y-86483800D01*
X169468716Y-86483800D01*
X169904899Y-86397038D01*
X170274676Y-86149960D01*
X170496836Y-85817475D01*
X170716324Y-86145960D01*
X171086101Y-86393038D01*
X171522284Y-86479800D01*
X171877716Y-86479800D01*
X172313899Y-86393038D01*
X172683676Y-86145960D01*
X172930754Y-85776183D01*
X172970000Y-85578880D01*
X173009246Y-85776183D01*
X173256324Y-86145960D01*
X173626101Y-86393038D01*
X174062284Y-86479800D01*
X174417716Y-86479800D01*
X174853899Y-86393038D01*
X175223676Y-86145960D01*
X175470754Y-85776183D01*
X175510000Y-85578880D01*
X175549246Y-85776183D01*
X175796324Y-86145960D01*
X176166101Y-86393038D01*
X176602284Y-86479800D01*
X176957716Y-86479800D01*
X177393899Y-86393038D01*
X177763676Y-86145960D01*
X178010754Y-85776183D01*
X178097516Y-85340000D01*
X178010754Y-84903817D01*
X177763676Y-84534040D01*
X177393899Y-84286962D01*
X176957716Y-84200200D01*
X176602284Y-84200200D01*
X176215503Y-84277135D01*
X175259580Y-83321212D01*
X175206246Y-83285575D01*
X175145254Y-83244821D01*
X175010396Y-83217996D01*
X142769604Y-83217996D01*
X142634746Y-83244821D01*
X142573754Y-83285575D01*
X142520420Y-83321212D01*
X141341611Y-84500021D01*
X141341611Y-82680000D01*
X141322352Y-82577646D01*
X141261861Y-82483641D01*
X141169562Y-82420576D01*
X141060000Y-82398389D01*
X140660000Y-82398389D01*
X140557646Y-82417648D01*
X140463641Y-82478139D01*
X140400576Y-82570438D01*
X140378389Y-82680000D01*
X140378389Y-84680000D01*
X140383653Y-84707978D01*
X139660816Y-85430816D01*
X139660000Y-85432036D01*
X139659185Y-85430816D01*
X138936013Y-84707645D01*
X138941611Y-84680000D01*
X138941611Y-83939350D01*
X139133800Y-83939350D01*
X139133800Y-84744885D01*
X139183461Y-84864778D01*
X139275223Y-84956539D01*
X139395115Y-85006200D01*
X139478450Y-85006200D01*
X139560000Y-84924650D01*
X139560000Y-83857800D01*
X139760000Y-83857800D01*
X139760000Y-84924650D01*
X139841550Y-85006200D01*
X139924885Y-85006200D01*
X140044777Y-84956539D01*
X140136539Y-84864778D01*
X140186200Y-84744885D01*
X140186200Y-83939350D01*
X140104650Y-83857800D01*
X139760000Y-83857800D01*
X139560000Y-83857800D01*
X139215350Y-83857800D01*
X139133800Y-83939350D01*
X138941611Y-83939350D01*
X138941611Y-82680000D01*
X138929403Y-82615115D01*
X139133800Y-82615115D01*
X139133800Y-83420650D01*
X139215350Y-83502200D01*
X139560000Y-83502200D01*
X139560000Y-82435350D01*
X139760000Y-82435350D01*
X139760000Y-83502200D01*
X140104650Y-83502200D01*
X140186200Y-83420650D01*
X140186200Y-82615115D01*
X140136539Y-82495222D01*
X140044777Y-82403461D01*
X139924885Y-82353800D01*
X139841550Y-82353800D01*
X139760000Y-82435350D01*
X139560000Y-82435350D01*
X139478450Y-82353800D01*
X139395115Y-82353800D01*
X139275223Y-82403461D01*
X139183461Y-82495222D01*
X139133800Y-82615115D01*
X138929403Y-82615115D01*
X138922352Y-82577646D01*
X138861861Y-82483641D01*
X138769562Y-82420576D01*
X138660000Y-82398389D01*
X138260000Y-82398389D01*
X138157646Y-82417648D01*
X138063641Y-82478139D01*
X138000576Y-82570438D01*
X137978389Y-82680000D01*
X137978389Y-83355193D01*
X137892526Y-83269181D01*
X137697726Y-83188292D01*
X137486799Y-83188108D01*
X137296127Y-83266892D01*
X137261861Y-83213641D01*
X137169562Y-83150576D01*
X137060000Y-83128389D01*
X136826758Y-83128389D01*
X136409184Y-82710816D01*
X136363065Y-82680000D01*
X136294858Y-82634425D01*
X136160000Y-82607600D01*
X132264750Y-82607600D01*
X132129892Y-82634425D01*
X132072729Y-82672620D01*
X132015565Y-82710816D01*
X130845673Y-83880709D01*
X129172430Y-83880709D01*
X129070076Y-83899968D01*
X128976071Y-83960459D01*
X128913006Y-84052758D01*
X128890819Y-84162320D01*
X128890819Y-85762320D01*
X128910078Y-85864674D01*
X128970569Y-85958679D01*
X129062868Y-86021744D01*
X129172430Y-86043931D01*
X129910030Y-86043931D01*
X129910030Y-86739730D01*
X129765926Y-86679892D01*
X129554999Y-86679708D01*
X129360058Y-86760256D01*
X129210781Y-86909274D01*
X129129892Y-87104074D01*
X129129708Y-87315001D01*
X129210256Y-87509942D01*
X129359274Y-87659219D01*
X129554074Y-87740108D01*
X129557600Y-87740111D01*
X129557600Y-92180645D01*
X129420926Y-92123892D01*
X129209999Y-92123708D01*
X129015058Y-92204256D01*
X128865781Y-92353274D01*
X128784892Y-92548074D01*
X128784708Y-92759001D01*
X128837065Y-92885715D01*
X128828999Y-92885708D01*
X128634058Y-92966256D01*
X128484781Y-93115274D01*
X128403892Y-93310074D01*
X128403708Y-93521001D01*
X128484256Y-93715942D01*
X128633274Y-93865219D01*
X128815600Y-93940928D01*
X128815600Y-102306031D01*
X125410816Y-105710816D01*
X125334425Y-105825142D01*
X125307600Y-105960000D01*
X125307600Y-113284031D01*
X123932172Y-114659459D01*
X123697417Y-114561980D01*
X123284395Y-114561620D01*
X122902675Y-114719343D01*
X122610370Y-115011139D01*
X122451980Y-115392583D01*
X122451620Y-115805605D01*
X113356200Y-115805605D01*
X113356200Y-97401268D01*
X117653449Y-97401268D01*
X117961269Y-98146251D01*
X118530751Y-98716727D01*
X119275196Y-99025848D01*
X120081268Y-99026551D01*
X120826251Y-98718731D01*
X121396727Y-98149249D01*
X121705848Y-97404804D01*
X121706551Y-96598732D01*
X121398731Y-95853749D01*
X120829249Y-95283273D01*
X120084804Y-94974152D01*
X119278732Y-94973449D01*
X118533749Y-95281269D01*
X117963273Y-95850751D01*
X117654152Y-96595196D01*
X117653449Y-97401268D01*
X113356200Y-97401268D01*
X113356200Y-85217030D01*
X119641370Y-85217030D01*
X119641370Y-85822565D01*
X119691031Y-85942458D01*
X119782793Y-86034219D01*
X119902685Y-86083880D01*
X120798220Y-86083880D01*
X120879770Y-86002330D01*
X120879770Y-85135480D01*
X121235370Y-85135480D01*
X121235370Y-86002330D01*
X121316920Y-86083880D01*
X122212455Y-86083880D01*
X122332347Y-86034219D01*
X122424109Y-85942458D01*
X122473770Y-85822565D01*
X122473770Y-85217030D01*
X122392220Y-85135480D01*
X121235370Y-85135480D01*
X120879770Y-85135480D01*
X119722920Y-85135480D01*
X119641370Y-85217030D01*
X113356200Y-85217030D01*
X113356200Y-84092795D01*
X119641370Y-84092795D01*
X119641370Y-84698330D01*
X119722920Y-84779880D01*
X120879770Y-84779880D01*
X120879770Y-83913030D01*
X121235370Y-83913030D01*
X121235370Y-84779880D01*
X122392220Y-84779880D01*
X122473770Y-84698330D01*
X122473770Y-84092795D01*
X122424109Y-83972902D01*
X122332347Y-83881141D01*
X122212455Y-83831480D01*
X121316920Y-83831480D01*
X121235370Y-83913030D01*
X120879770Y-83913030D01*
X120798220Y-83831480D01*
X119902685Y-83831480D01*
X119782793Y-83881141D01*
X119691031Y-83972902D01*
X119641370Y-84092795D01*
X113356200Y-84092795D01*
X113356200Y-81987052D01*
X178608800Y-81860348D01*
X178608800Y-119148800D01*
X178608800Y-119148800D01*
G37*
X178608800Y-119148800D02*
X113356200Y-119148800D01*
X113356200Y-115805605D01*
X122451620Y-115805605D01*
X122609343Y-116187325D01*
X122901139Y-116479630D01*
X123282583Y-116638020D01*
X123695605Y-116638380D01*
X124077325Y-116480657D01*
X124369630Y-116188861D01*
X124528020Y-115807417D01*
X124528380Y-115394395D01*
X124430606Y-115157763D01*
X125677600Y-113910769D01*
X125677600Y-114622274D01*
X125442675Y-114719343D01*
X125150370Y-115011139D01*
X124991980Y-115392583D01*
X124991620Y-115805605D01*
X125149343Y-116187325D01*
X125441139Y-116479630D01*
X125822583Y-116638020D01*
X126235605Y-116638380D01*
X126617325Y-116480657D01*
X126909630Y-116188861D01*
X127057600Y-115832511D01*
X127057600Y-116210000D01*
X127084425Y-116344858D01*
X127149101Y-116441652D01*
X127160816Y-116459184D01*
X127660816Y-116959185D01*
X127729350Y-117004977D01*
X127775142Y-117035575D01*
X127910000Y-117062400D01*
X155400000Y-117062400D01*
X155534858Y-117035575D01*
X155649184Y-116959184D01*
X156067827Y-116540541D01*
X156302583Y-116638020D01*
X156715605Y-116638380D01*
X157097325Y-116480657D01*
X157389630Y-116188861D01*
X157548020Y-115807417D01*
X157548380Y-115394395D01*
X157411596Y-115063350D01*
X158324800Y-115063350D01*
X158324800Y-115668885D01*
X158374461Y-115788778D01*
X158466223Y-115880539D01*
X158586115Y-115930200D01*
X158891650Y-115930200D01*
X158973200Y-115848650D01*
X158973200Y-114981800D01*
X159328800Y-114981800D01*
X159328800Y-115848650D01*
X159410350Y-115930200D01*
X159715885Y-115930200D01*
X159835777Y-115880539D01*
X159927539Y-115788778D01*
X159977200Y-115668885D01*
X159977200Y-115063350D01*
X159895650Y-114981800D01*
X159328800Y-114981800D01*
X158973200Y-114981800D01*
X158406350Y-114981800D01*
X158324800Y-115063350D01*
X157411596Y-115063350D01*
X157390657Y-115012675D01*
X157098861Y-114720370D01*
X156717417Y-114561980D01*
X156304395Y-114561620D01*
X155922675Y-114719343D01*
X155630370Y-115011139D01*
X155471980Y-115392583D01*
X155471620Y-115805605D01*
X155569394Y-116042238D01*
X155254032Y-116357600D01*
X154779386Y-116357600D01*
X154879218Y-116257768D01*
X154811654Y-116190204D01*
X154960527Y-116099887D01*
X155076426Y-115682777D01*
X155023882Y-115253065D01*
X154960527Y-115100113D01*
X154811652Y-115009795D01*
X154221447Y-115600000D01*
X154235590Y-115614143D01*
X153984143Y-115865590D01*
X153970000Y-115851447D01*
X153955858Y-115865590D01*
X153704411Y-115614143D01*
X153718553Y-115600000D01*
X153128348Y-115009795D01*
X152979473Y-115100113D01*
X152863574Y-115517223D01*
X152916118Y-115946935D01*
X152979473Y-116099887D01*
X153128346Y-116190204D01*
X153060782Y-116257768D01*
X153160614Y-116357600D01*
X152140597Y-116357600D01*
X152309630Y-116188861D01*
X152468020Y-115807417D01*
X152468380Y-115394395D01*
X152310657Y-115012675D01*
X152056773Y-114758348D01*
X153379795Y-114758348D01*
X153970000Y-115348553D01*
X154560205Y-114758348D01*
X154469887Y-114609473D01*
X154052777Y-114493574D01*
X153623065Y-114546118D01*
X153470113Y-114609473D01*
X153379795Y-114758348D01*
X152056773Y-114758348D01*
X152018861Y-114720370D01*
X151637417Y-114561980D01*
X151224395Y-114561620D01*
X150842675Y-114719343D01*
X150550370Y-115011139D01*
X150391980Y-115392583D01*
X150391620Y-115805605D01*
X150549343Y-116187325D01*
X150719321Y-116357600D01*
X149600597Y-116357600D01*
X149769630Y-116188861D01*
X149861340Y-115968000D01*
X149959200Y-115968000D01*
X150059587Y-115949111D01*
X150151786Y-115889782D01*
X150213639Y-115799257D01*
X150235400Y-115691800D01*
X150235400Y-113939115D01*
X158324800Y-113939115D01*
X158324800Y-114544650D01*
X158406350Y-114626200D01*
X158973200Y-114626200D01*
X158973200Y-113759350D01*
X159328800Y-113759350D01*
X159328800Y-114626200D01*
X159895650Y-114626200D01*
X159977200Y-114544650D01*
X159977200Y-113939115D01*
X159927539Y-113819222D01*
X159835777Y-113727461D01*
X159715885Y-113677800D01*
X159410350Y-113677800D01*
X159328800Y-113759350D01*
X158973200Y-113759350D01*
X158891650Y-113677800D01*
X158586115Y-113677800D01*
X158466223Y-113727461D01*
X158374461Y-113819222D01*
X158324800Y-113939115D01*
X150235400Y-113939115D01*
X150235400Y-113456200D01*
X161837800Y-113456200D01*
X161837800Y-113722389D01*
X161651000Y-113722389D01*
X161548646Y-113741648D01*
X161454641Y-113802139D01*
X161391576Y-113894438D01*
X161369389Y-114004000D01*
X161369389Y-115604000D01*
X161388648Y-115706354D01*
X161449139Y-115800359D01*
X161541438Y-115863424D01*
X161651000Y-115885611D01*
X162651000Y-115885611D01*
X162753354Y-115866352D01*
X162847359Y-115805861D01*
X162910424Y-115713562D01*
X162932611Y-115604000D01*
X162932611Y-114004000D01*
X162913352Y-113901646D01*
X162852861Y-113807641D01*
X162760562Y-113744576D01*
X162651000Y-113722389D01*
X162644200Y-113722389D01*
X162644200Y-113456200D01*
X163910000Y-113456200D01*
X164010387Y-113437311D01*
X164102586Y-113377982D01*
X164164439Y-113287457D01*
X164186200Y-113180000D01*
X164186200Y-112921200D01*
X164441208Y-112921200D01*
X164542000Y-112941611D01*
X165142000Y-112941611D01*
X165244354Y-112922352D01*
X165338359Y-112861861D01*
X165401424Y-112769562D01*
X165423611Y-112660000D01*
X165423611Y-112260000D01*
X165404352Y-112157646D01*
X165376911Y-112115001D01*
X170915708Y-112115001D01*
X170996256Y-112309942D01*
X171145274Y-112459219D01*
X171340074Y-112540108D01*
X171551001Y-112540292D01*
X171745942Y-112459744D01*
X171843455Y-112362400D01*
X173423404Y-112362400D01*
X173256324Y-112474040D01*
X173009246Y-112843817D01*
X172922484Y-113280000D01*
X173009246Y-113716183D01*
X173256324Y-114085960D01*
X173626101Y-114333038D01*
X174062284Y-114419800D01*
X174417716Y-114419800D01*
X174853899Y-114333038D01*
X175161600Y-114127438D01*
X175161600Y-114554000D01*
X175185626Y-114674789D01*
X173224000Y-114674789D01*
X173121646Y-114694048D01*
X173027641Y-114754539D01*
X172964576Y-114846838D01*
X172942389Y-114956400D01*
X172942389Y-116683600D01*
X172961648Y-116785954D01*
X173022139Y-116879959D01*
X173114438Y-116943024D01*
X173224000Y-116965211D01*
X175256000Y-116965211D01*
X175358354Y-116945952D01*
X175452359Y-116885461D01*
X175510718Y-116800049D01*
X175562139Y-116879959D01*
X175654438Y-116943024D01*
X175764000Y-116965211D01*
X177796000Y-116965211D01*
X177898354Y-116945952D01*
X177992359Y-116885461D01*
X178055424Y-116793162D01*
X178077611Y-116683600D01*
X178077611Y-114956400D01*
X178058352Y-114854046D01*
X177997861Y-114760041D01*
X177905562Y-114696976D01*
X177796000Y-114674789D01*
X176133157Y-114674789D01*
X175866400Y-114408032D01*
X175866400Y-114132783D01*
X176166101Y-114333038D01*
X176602284Y-114419800D01*
X176957716Y-114419800D01*
X177393899Y-114333038D01*
X177763676Y-114085960D01*
X178010754Y-113716183D01*
X178097516Y-113280000D01*
X178010754Y-112843817D01*
X177763676Y-112474040D01*
X177393899Y-112226962D01*
X176957716Y-112140200D01*
X176602284Y-112140200D01*
X176215504Y-112217135D01*
X175866400Y-111868032D01*
X175866400Y-111592783D01*
X176166101Y-111793038D01*
X176602284Y-111879800D01*
X176957716Y-111879800D01*
X177393899Y-111793038D01*
X177763676Y-111545960D01*
X178010754Y-111176183D01*
X178097516Y-110740000D01*
X178010754Y-110303817D01*
X177763676Y-109934040D01*
X177393899Y-109686962D01*
X176957716Y-109600200D01*
X176602284Y-109600200D01*
X176215503Y-109677135D01*
X175153584Y-108615216D01*
X175100880Y-108580000D01*
X175070420Y-108559647D01*
X175493458Y-108559647D01*
X175651636Y-108877683D01*
X175985265Y-109199583D01*
X176416684Y-109369305D01*
X176602200Y-109306353D01*
X176602200Y-108377800D01*
X176957800Y-108377800D01*
X176957800Y-109306353D01*
X177143316Y-109369305D01*
X177574735Y-109199583D01*
X177908364Y-108877683D01*
X178066542Y-108559647D01*
X178026295Y-108377800D01*
X176957800Y-108377800D01*
X176602200Y-108377800D01*
X175533705Y-108377800D01*
X175493458Y-108559647D01*
X175070420Y-108559647D01*
X175039258Y-108538825D01*
X174904400Y-108512000D01*
X172304577Y-108512000D01*
X172207926Y-108415181D01*
X172013126Y-108334292D01*
X171802199Y-108334108D01*
X171607258Y-108414656D01*
X171457981Y-108563674D01*
X171377092Y-108758474D01*
X171376908Y-108969401D01*
X171457456Y-109164342D01*
X171487584Y-109194522D01*
X171457981Y-109224074D01*
X171377092Y-109418874D01*
X171376908Y-109629801D01*
X171457456Y-109824742D01*
X171606474Y-109974019D01*
X171801274Y-110054908D01*
X172012201Y-110055092D01*
X172207142Y-109974544D01*
X172304655Y-109877200D01*
X173303498Y-109877200D01*
X173111636Y-110062317D01*
X172953458Y-110380353D01*
X172993705Y-110562200D01*
X174062200Y-110562200D01*
X174062200Y-110542200D01*
X174417800Y-110542200D01*
X174417800Y-110562200D01*
X174437800Y-110562200D01*
X174437800Y-110917800D01*
X174417800Y-110917800D01*
X174417800Y-110937800D01*
X174062200Y-110937800D01*
X174062200Y-110917800D01*
X172993705Y-110917800D01*
X172953458Y-111099647D01*
X173111636Y-111417683D01*
X173360295Y-111657600D01*
X171843377Y-111657600D01*
X171746726Y-111560781D01*
X171551926Y-111479892D01*
X171340999Y-111479708D01*
X171146058Y-111560256D01*
X170996781Y-111709274D01*
X170915892Y-111904074D01*
X170915708Y-112115001D01*
X165376911Y-112115001D01*
X165343861Y-112063641D01*
X165264479Y-112009402D01*
X165338359Y-111961861D01*
X165401424Y-111869562D01*
X165423611Y-111760000D01*
X165423611Y-111360000D01*
X165404352Y-111257646D01*
X165343861Y-111163641D01*
X165251562Y-111100576D01*
X165142000Y-111078389D01*
X164930599Y-111078389D01*
X164815105Y-110962895D01*
X164684298Y-110875492D01*
X164681106Y-110874857D01*
X164530000Y-110844800D01*
X164052611Y-110844800D01*
X164052611Y-110803000D01*
X164033352Y-110700646D01*
X163976230Y-110611877D01*
X164030424Y-110532562D01*
X164052611Y-110423000D01*
X164052611Y-109533000D01*
X164033352Y-109430646D01*
X164002545Y-109382771D01*
X164047539Y-109337777D01*
X164097200Y-109217885D01*
X164097200Y-108967350D01*
X164015650Y-108885800D01*
X162418800Y-108885800D01*
X162418800Y-108905800D01*
X162063200Y-108905800D01*
X162063200Y-108885800D01*
X160466350Y-108885800D01*
X160384800Y-108967350D01*
X160384800Y-109217885D01*
X160434461Y-109337777D01*
X160479400Y-109382716D01*
X160451576Y-109423438D01*
X160429389Y-109533000D01*
X160429389Y-110423000D01*
X160448648Y-110525354D01*
X160505770Y-110614123D01*
X160451576Y-110693438D01*
X160429389Y-110803000D01*
X160429389Y-111653800D01*
X150235400Y-111653800D01*
X150235400Y-108731550D01*
X166301800Y-108731550D01*
X166301800Y-108864885D01*
X166351461Y-108984777D01*
X166443222Y-109076539D01*
X166563115Y-109126200D01*
X166671450Y-109126200D01*
X166753000Y-109044650D01*
X166753000Y-108650000D01*
X167003000Y-108650000D01*
X167003000Y-109044650D01*
X167084550Y-109126200D01*
X167192885Y-109126200D01*
X167312778Y-109076539D01*
X167404539Y-108984777D01*
X167454200Y-108864885D01*
X167454200Y-108731550D01*
X167372650Y-108650000D01*
X167003000Y-108650000D01*
X166753000Y-108650000D01*
X166383350Y-108650000D01*
X166301800Y-108731550D01*
X150235400Y-108731550D01*
X150235400Y-104230000D01*
X150216511Y-104129613D01*
X150157182Y-104037414D01*
X150066657Y-103975561D01*
X149959200Y-103953800D01*
X145210000Y-103953800D01*
X145109613Y-103972689D01*
X145056510Y-104006860D01*
X145004650Y-103955000D01*
X144610000Y-103955000D01*
X144610000Y-104026800D01*
X144310000Y-104026800D01*
X144310000Y-103955000D01*
X144262200Y-103955000D01*
X144262200Y-103705000D01*
X144310000Y-103705000D01*
X144310000Y-103335350D01*
X144610000Y-103335350D01*
X144610000Y-103705000D01*
X145004650Y-103705000D01*
X145086200Y-103623450D01*
X145086200Y-103515115D01*
X145036539Y-103395222D01*
X144944777Y-103303461D01*
X144824885Y-103253800D01*
X144691550Y-103253800D01*
X144610000Y-103335350D01*
X144310000Y-103335350D01*
X144228450Y-103253800D01*
X144095115Y-103253800D01*
X143975223Y-103303461D01*
X143883461Y-103395222D01*
X143877921Y-103408598D01*
X143861861Y-103383641D01*
X143769562Y-103320576D01*
X143763200Y-103319288D01*
X143763200Y-103160000D01*
X143749147Y-103089350D01*
X145683800Y-103089350D01*
X145683800Y-103394885D01*
X145733461Y-103514777D01*
X145825222Y-103606539D01*
X145945115Y-103656200D01*
X146550650Y-103656200D01*
X146632200Y-103574650D01*
X146632200Y-103007800D01*
X146987800Y-103007800D01*
X146987800Y-103574650D01*
X147069350Y-103656200D01*
X147674885Y-103656200D01*
X147794778Y-103606539D01*
X147886539Y-103514777D01*
X147936200Y-103394885D01*
X147936200Y-103089350D01*
X147854650Y-103007800D01*
X146987800Y-103007800D01*
X146632200Y-103007800D01*
X145765350Y-103007800D01*
X145683800Y-103089350D01*
X143749147Y-103089350D01*
X143732508Y-103005702D01*
X143718347Y-102984508D01*
X143645106Y-102874895D01*
X143035326Y-102265115D01*
X145683800Y-102265115D01*
X145683800Y-102570650D01*
X145765350Y-102652200D01*
X146632200Y-102652200D01*
X146632200Y-102085350D01*
X146987800Y-102085350D01*
X146987800Y-102652200D01*
X147854650Y-102652200D01*
X147936200Y-102570650D01*
X147936200Y-102265115D01*
X147886539Y-102145223D01*
X147794778Y-102053461D01*
X147674885Y-102003800D01*
X147069350Y-102003800D01*
X146987800Y-102085350D01*
X146632200Y-102085350D01*
X146550650Y-102003800D01*
X145945115Y-102003800D01*
X145825222Y-102053461D01*
X145733461Y-102145223D01*
X145683800Y-102265115D01*
X143035326Y-102265115D01*
X142313200Y-101542990D01*
X142313200Y-98670017D01*
X142388074Y-98701108D01*
X142599001Y-98701292D01*
X142793942Y-98620744D01*
X142943219Y-98471726D01*
X143024108Y-98276926D01*
X143024228Y-98139140D01*
X144648185Y-96515184D01*
X144648187Y-96515181D01*
X145103769Y-96059600D01*
X147701000Y-96059600D01*
X147835858Y-96032775D01*
X147950184Y-95956384D01*
X148608969Y-95297600D01*
X159157389Y-95297600D01*
X158603273Y-95850751D01*
X158294152Y-96595196D01*
X158293449Y-97401268D01*
X158601269Y-98146251D01*
X159170751Y-98716727D01*
X159915196Y-99025848D01*
X160721268Y-99026551D01*
X161466251Y-98718731D01*
X162036727Y-98149249D01*
X162345848Y-97404804D01*
X162346551Y-96598732D01*
X162038731Y-95853749D01*
X161483551Y-95297600D01*
X162744232Y-95297600D01*
X162944227Y-95497596D01*
X162944108Y-95634401D01*
X163024656Y-95829342D01*
X163173674Y-95978619D01*
X163368474Y-96059508D01*
X163579401Y-96059692D01*
X163774342Y-95979144D01*
X163803800Y-95949737D01*
X163803800Y-104113800D01*
X160524000Y-104113800D01*
X160423613Y-104132689D01*
X160331414Y-104192018D01*
X160269561Y-104282543D01*
X160247800Y-104390000D01*
X160247800Y-105406000D01*
X160266689Y-105506387D01*
X160326018Y-105598586D01*
X160416543Y-105660439D01*
X160441053Y-105665402D01*
X160429389Y-105723000D01*
X160429389Y-106613000D01*
X160448648Y-106715354D01*
X160505770Y-106804123D01*
X160451576Y-106883438D01*
X160429389Y-106993000D01*
X160429389Y-107883000D01*
X160448648Y-107985354D01*
X160479455Y-108033229D01*
X160434461Y-108078223D01*
X160384800Y-108198115D01*
X160384800Y-108448650D01*
X160466350Y-108530200D01*
X162063200Y-108530200D01*
X162063200Y-108510200D01*
X162418800Y-108510200D01*
X162418800Y-108530200D01*
X164015650Y-108530200D01*
X164097200Y-108448650D01*
X164097200Y-108198115D01*
X164047539Y-108078223D01*
X164002600Y-108033284D01*
X164030424Y-107992562D01*
X164052611Y-107883000D01*
X164052611Y-107841200D01*
X166390645Y-107841200D01*
X166426139Y-107896359D01*
X166457281Y-107917638D01*
X166443222Y-107923461D01*
X166351461Y-108015223D01*
X166301800Y-108135115D01*
X166301800Y-108268450D01*
X166383350Y-108350000D01*
X166753000Y-108350000D01*
X166753000Y-108302200D01*
X167003000Y-108302200D01*
X167003000Y-108350000D01*
X167372650Y-108350000D01*
X167454200Y-108268450D01*
X167454200Y-108135115D01*
X167427043Y-108069550D01*
X168406800Y-108069550D01*
X168406800Y-108152885D01*
X168456461Y-108272777D01*
X168548222Y-108364539D01*
X168668115Y-108414200D01*
X168801450Y-108414200D01*
X168883000Y-108332650D01*
X168883000Y-107988000D01*
X169183000Y-107988000D01*
X169183000Y-108332650D01*
X169264550Y-108414200D01*
X169397885Y-108414200D01*
X169517778Y-108364539D01*
X169609539Y-108272777D01*
X169659200Y-108152885D01*
X169659200Y-108069550D01*
X169577650Y-107988000D01*
X169183000Y-107988000D01*
X168883000Y-107988000D01*
X168488350Y-107988000D01*
X168406800Y-108069550D01*
X167427043Y-108069550D01*
X167404539Y-108015223D01*
X167312778Y-107923461D01*
X167299402Y-107917921D01*
X167324359Y-107901861D01*
X167366385Y-107840353D01*
X175493458Y-107840353D01*
X175533705Y-108022200D01*
X176602200Y-108022200D01*
X176602200Y-107093647D01*
X176957800Y-107093647D01*
X176957800Y-108022200D01*
X178026295Y-108022200D01*
X178066542Y-107840353D01*
X177908364Y-107522317D01*
X177574735Y-107200417D01*
X177143316Y-107030695D01*
X176957800Y-107093647D01*
X176602200Y-107093647D01*
X176416684Y-107030695D01*
X175985265Y-107200417D01*
X175651636Y-107522317D01*
X175493458Y-107840353D01*
X167366385Y-107840353D01*
X167387424Y-107809562D01*
X167409611Y-107700000D01*
X167409611Y-107100000D01*
X167390352Y-106997646D01*
X167329861Y-106903641D01*
X167237562Y-106840576D01*
X167128000Y-106818389D01*
X166628000Y-106818389D01*
X166525646Y-106837648D01*
X166431641Y-106898139D01*
X166368576Y-106990438D01*
X166359592Y-107034800D01*
X164052611Y-107034800D01*
X164052611Y-106993000D01*
X164033352Y-106890646D01*
X163976230Y-106801877D01*
X164030424Y-106722562D01*
X164052611Y-106613000D01*
X164052611Y-106571200D01*
X168559857Y-106571200D01*
X168536641Y-106586139D01*
X168473576Y-106678438D01*
X168451389Y-106788000D01*
X168451389Y-107188000D01*
X168470648Y-107290354D01*
X168531139Y-107384359D01*
X168562281Y-107405638D01*
X168548222Y-107411461D01*
X168456461Y-107503223D01*
X168406800Y-107623115D01*
X168406800Y-107706450D01*
X168488350Y-107788000D01*
X168883000Y-107788000D01*
X168883000Y-107690200D01*
X169183000Y-107690200D01*
X169183000Y-107788000D01*
X169577650Y-107788000D01*
X169659200Y-107706450D01*
X169659200Y-107623115D01*
X169609539Y-107503223D01*
X169517778Y-107411461D01*
X169504402Y-107405921D01*
X169529359Y-107389861D01*
X169592424Y-107297562D01*
X169614611Y-107188000D01*
X169614611Y-106788000D01*
X169595352Y-106685646D01*
X169534861Y-106591641D01*
X169442562Y-106528576D01*
X169424200Y-106524858D01*
X169424200Y-105157350D01*
X169706800Y-105157350D01*
X169706800Y-105762885D01*
X169756461Y-105882778D01*
X169848223Y-105974539D01*
X169968115Y-106024200D01*
X170273650Y-106024200D01*
X170355200Y-105942650D01*
X170355200Y-105075800D01*
X170710800Y-105075800D01*
X170710800Y-105942650D01*
X170792350Y-106024200D01*
X171097885Y-106024200D01*
X171108876Y-106019647D01*
X172953458Y-106019647D01*
X173111636Y-106337683D01*
X173445265Y-106659583D01*
X173876684Y-106829305D01*
X174062200Y-106766353D01*
X174062200Y-105837800D01*
X174417800Y-105837800D01*
X174417800Y-106766353D01*
X174603316Y-106829305D01*
X175034735Y-106659583D01*
X175368364Y-106337683D01*
X175511005Y-106050885D01*
X175655636Y-106341683D01*
X175989265Y-106663583D01*
X176420684Y-106833305D01*
X176606200Y-106770353D01*
X176606200Y-105841800D01*
X176961800Y-105841800D01*
X176961800Y-106770353D01*
X177147316Y-106833305D01*
X177578735Y-106663583D01*
X177912364Y-106341683D01*
X178070542Y-106023647D01*
X178030295Y-105841800D01*
X176961800Y-105841800D01*
X176606200Y-105841800D01*
X175537705Y-105841800D01*
X175512443Y-105955942D01*
X175486295Y-105837800D01*
X174417800Y-105837800D01*
X174062200Y-105837800D01*
X172993705Y-105837800D01*
X172953458Y-106019647D01*
X171108876Y-106019647D01*
X171217777Y-105974539D01*
X171309539Y-105882778D01*
X171359200Y-105762885D01*
X171359200Y-105157350D01*
X171277650Y-105075800D01*
X170710800Y-105075800D01*
X170355200Y-105075800D01*
X169788350Y-105075800D01*
X169706800Y-105157350D01*
X169424200Y-105157350D01*
X169424200Y-104033115D01*
X169706800Y-104033115D01*
X169706800Y-104638650D01*
X169788350Y-104720200D01*
X170355200Y-104720200D01*
X170355200Y-103853350D01*
X170710800Y-103853350D01*
X170710800Y-104720200D01*
X171277650Y-104720200D01*
X171359200Y-104638650D01*
X171359200Y-104033115D01*
X171309539Y-103913222D01*
X171217777Y-103821461D01*
X171097885Y-103771800D01*
X170792350Y-103771800D01*
X170710800Y-103853350D01*
X170355200Y-103853350D01*
X170273650Y-103771800D01*
X169968115Y-103771800D01*
X169848223Y-103821461D01*
X169756461Y-103913222D01*
X169706800Y-104033115D01*
X169424200Y-104033115D01*
X169424200Y-101515000D01*
X169393508Y-101360702D01*
X169345338Y-101288611D01*
X169306106Y-101229895D01*
X169146212Y-101070001D01*
X170360908Y-101070001D01*
X170441456Y-101264942D01*
X170538800Y-101362455D01*
X170538800Y-101777800D01*
X170565625Y-101912658D01*
X170620715Y-101995105D01*
X170642016Y-102026984D01*
X173105815Y-104490784D01*
X173172513Y-104535350D01*
X173220142Y-104567175D01*
X173355000Y-104594000D01*
X173614091Y-104594000D01*
X173445265Y-104660417D01*
X173111636Y-104982317D01*
X172953458Y-105300353D01*
X172993705Y-105482200D01*
X174062200Y-105482200D01*
X174062200Y-105462200D01*
X174417800Y-105462200D01*
X174417800Y-105482200D01*
X175486295Y-105482200D01*
X175511557Y-105368058D01*
X175537705Y-105486200D01*
X176606200Y-105486200D01*
X176606200Y-104557647D01*
X176961800Y-104557647D01*
X176961800Y-105486200D01*
X178030295Y-105486200D01*
X178070542Y-105304353D01*
X177912364Y-104986317D01*
X177578735Y-104664417D01*
X177147316Y-104494695D01*
X176961800Y-104557647D01*
X176606200Y-104557647D01*
X176420684Y-104494695D01*
X175989265Y-104664417D01*
X175655636Y-104986317D01*
X175512995Y-105273115D01*
X175368364Y-104982317D01*
X175034735Y-104660417D01*
X174865909Y-104594000D01*
X175666400Y-104594000D01*
X175801258Y-104567175D01*
X175915584Y-104490784D01*
X176219503Y-104186865D01*
X176606284Y-104263800D01*
X176961716Y-104263800D01*
X177397899Y-104177038D01*
X177767676Y-103929960D01*
X178014754Y-103560183D01*
X178101516Y-103124000D01*
X178014754Y-102687817D01*
X177767676Y-102318040D01*
X177397899Y-102070962D01*
X176961716Y-101984200D01*
X176606284Y-101984200D01*
X176170101Y-102070962D01*
X175800324Y-102318040D01*
X175553246Y-102687817D01*
X175512398Y-102893175D01*
X175470754Y-102683817D01*
X175223676Y-102314040D01*
X174853899Y-102066962D01*
X174417716Y-101980200D01*
X174062284Y-101980200D01*
X173675504Y-102057135D01*
X173072400Y-101454032D01*
X173072400Y-101110699D01*
X173256324Y-101385960D01*
X173626101Y-101633038D01*
X174062284Y-101719800D01*
X174417716Y-101719800D01*
X174853899Y-101633038D01*
X175223676Y-101385960D01*
X175470754Y-101016183D01*
X175511602Y-100810825D01*
X175553246Y-101020183D01*
X175800324Y-101389960D01*
X176170101Y-101637038D01*
X176606284Y-101723800D01*
X176961716Y-101723800D01*
X177397899Y-101637038D01*
X177767676Y-101389960D01*
X178014754Y-101020183D01*
X178101516Y-100584000D01*
X178014754Y-100147817D01*
X177767676Y-99778040D01*
X177397899Y-99530962D01*
X176961716Y-99444200D01*
X176606284Y-99444200D01*
X176170101Y-99530962D01*
X175800324Y-99778040D01*
X175553246Y-100147817D01*
X175512398Y-100353175D01*
X175470754Y-100143817D01*
X175223676Y-99774040D01*
X174853899Y-99526962D01*
X174417716Y-99440200D01*
X174062284Y-99440200D01*
X173626101Y-99526962D01*
X173448440Y-99645672D01*
X172437373Y-98634605D01*
X172437492Y-98497799D01*
X172393942Y-98392400D01*
X172992581Y-98392400D01*
X173009246Y-98476183D01*
X173256324Y-98845960D01*
X173626101Y-99093038D01*
X174062284Y-99179800D01*
X174417716Y-99179800D01*
X174853899Y-99093038D01*
X175223676Y-98845960D01*
X175470754Y-98476183D01*
X175511602Y-98270825D01*
X175553246Y-98480183D01*
X175800324Y-98849960D01*
X176170101Y-99097038D01*
X176606284Y-99183800D01*
X176961716Y-99183800D01*
X177397899Y-99097038D01*
X177767676Y-98849960D01*
X178014754Y-98480183D01*
X178101516Y-98044000D01*
X178014754Y-97607817D01*
X177767676Y-97238040D01*
X177397899Y-96990962D01*
X176961716Y-96904200D01*
X176606284Y-96904200D01*
X176170101Y-96990962D01*
X175800324Y-97238040D01*
X175553246Y-97607817D01*
X175512398Y-97813175D01*
X175470754Y-97603817D01*
X175223676Y-97234040D01*
X174853899Y-96986962D01*
X174417716Y-96900200D01*
X174062284Y-96900200D01*
X173626101Y-96986962D01*
X173256324Y-97234040D01*
X173009246Y-97603817D01*
X172992581Y-97687600D01*
X171944896Y-97687600D01*
X171801526Y-97543981D01*
X171606726Y-97463092D01*
X171395799Y-97462908D01*
X171200858Y-97543456D01*
X171051581Y-97692474D01*
X170970692Y-97887274D01*
X170970508Y-98098201D01*
X171051056Y-98293142D01*
X171200074Y-98442419D01*
X171377075Y-98515917D01*
X171376908Y-98707801D01*
X171457456Y-98902742D01*
X171500350Y-98945711D01*
X171381781Y-99064074D01*
X171300892Y-99258874D01*
X171300708Y-99469801D01*
X171381256Y-99664742D01*
X171530274Y-99814019D01*
X171725074Y-99894908D01*
X171862860Y-99895028D01*
X172367600Y-100399769D01*
X172367600Y-101600000D01*
X172394425Y-101734858D01*
X172438023Y-101800106D01*
X172470816Y-101849184D01*
X173127888Y-102506257D01*
X173009246Y-102683817D01*
X172922484Y-103120000D01*
X172969839Y-103358070D01*
X171243600Y-101631832D01*
X171243600Y-101362377D01*
X171340419Y-101265726D01*
X171421308Y-101070926D01*
X171421492Y-100859999D01*
X171340944Y-100665058D01*
X171191926Y-100515781D01*
X170997126Y-100434892D01*
X170786199Y-100434708D01*
X170591258Y-100515256D01*
X170441981Y-100664274D01*
X170361092Y-100859074D01*
X170360908Y-101070001D01*
X169146212Y-101070001D01*
X168694611Y-100618401D01*
X168694611Y-100407000D01*
X168675352Y-100304646D01*
X168614861Y-100210641D01*
X168522562Y-100147576D01*
X168413000Y-100125389D01*
X168013000Y-100125389D01*
X167910646Y-100144648D01*
X167816641Y-100205139D01*
X167762402Y-100284521D01*
X167714861Y-100210641D01*
X167622562Y-100147576D01*
X167513000Y-100125389D01*
X167113000Y-100125389D01*
X167023200Y-100142286D01*
X167023200Y-96602044D01*
X173094798Y-96609605D01*
X173114438Y-96623024D01*
X173224000Y-96645211D01*
X175256000Y-96645211D01*
X175358354Y-96625952D01*
X175379337Y-96612449D01*
X175637578Y-96612771D01*
X175658438Y-96627024D01*
X175768000Y-96649211D01*
X177800000Y-96649211D01*
X177902354Y-96629952D01*
X177924628Y-96615619D01*
X177989656Y-96615700D01*
X178090387Y-96596811D01*
X178182586Y-96537482D01*
X178244439Y-96446957D01*
X178266200Y-96339500D01*
X178266200Y-89430000D01*
X178247311Y-89329613D01*
X178187982Y-89237414D01*
X178097457Y-89175561D01*
X177990000Y-89153800D01*
X167990000Y-89153800D01*
X167889613Y-89172689D01*
X167797414Y-89232018D01*
X167735561Y-89322543D01*
X167713800Y-89430000D01*
X167713800Y-90817982D01*
X167568126Y-90757492D01*
X167357199Y-90757308D01*
X167162258Y-90837856D01*
X167064745Y-90935200D01*
X154897181Y-90935200D01*
X154906184Y-90929184D01*
X156615184Y-89220184D01*
X156646919Y-89172689D01*
X156691575Y-89105858D01*
X156718400Y-88971000D01*
X156718400Y-88825000D01*
X160121389Y-88825000D01*
X160121389Y-89475000D01*
X160140648Y-89577354D01*
X160201139Y-89671359D01*
X160293438Y-89734424D01*
X160403000Y-89756611D01*
X162103000Y-89756611D01*
X162205354Y-89737352D01*
X162299359Y-89676861D01*
X162362424Y-89584562D01*
X162384611Y-89475000D01*
X162384611Y-88825000D01*
X162365352Y-88722646D01*
X162304861Y-88628641D01*
X162212562Y-88565576D01*
X162103000Y-88543389D01*
X160403000Y-88543389D01*
X160300646Y-88562648D01*
X160206641Y-88623139D01*
X160143576Y-88715438D01*
X160121389Y-88825000D01*
X156718400Y-88825000D01*
X156718400Y-86285000D01*
X160121389Y-86285000D01*
X160121389Y-86935000D01*
X160140648Y-87037354D01*
X160201139Y-87131359D01*
X160293438Y-87194424D01*
X160403000Y-87216611D01*
X162103000Y-87216611D01*
X162205354Y-87197352D01*
X162299359Y-87136861D01*
X162362424Y-87044562D01*
X162379062Y-86962400D01*
X163467581Y-86962400D01*
X163495847Y-87104504D01*
X163775961Y-87523723D01*
X164195180Y-87803837D01*
X164439267Y-87852389D01*
X163915757Y-87852389D01*
X163694184Y-87630816D01*
X163640368Y-87594857D01*
X163579858Y-87554425D01*
X163445000Y-87527600D01*
X162379455Y-87527600D01*
X162365352Y-87452646D01*
X162304861Y-87358641D01*
X162212562Y-87295576D01*
X162103000Y-87273389D01*
X160403000Y-87273389D01*
X160300646Y-87292648D01*
X160206641Y-87353139D01*
X160143576Y-87445438D01*
X160121389Y-87555000D01*
X160121389Y-88205000D01*
X160140648Y-88307354D01*
X160201139Y-88401359D01*
X160293438Y-88464424D01*
X160403000Y-88486611D01*
X162103000Y-88486611D01*
X162205354Y-88467352D01*
X162299359Y-88406861D01*
X162362424Y-88314562D01*
X162379062Y-88232400D01*
X163299032Y-88232400D01*
X163417389Y-88350757D01*
X163417389Y-90166000D01*
X163436648Y-90268354D01*
X163497139Y-90362359D01*
X163589438Y-90425424D01*
X163699000Y-90447611D01*
X165731000Y-90447611D01*
X165833354Y-90428352D01*
X165927359Y-90367861D01*
X165990424Y-90275562D01*
X166012611Y-90166000D01*
X166012611Y-88243647D01*
X168004458Y-88243647D01*
X168162636Y-88561683D01*
X168496265Y-88883583D01*
X168927684Y-89053305D01*
X169113200Y-88990353D01*
X169113200Y-88061800D01*
X169468800Y-88061800D01*
X169468800Y-88990353D01*
X169654316Y-89053305D01*
X170085735Y-88883583D01*
X170419364Y-88561683D01*
X170496495Y-88406602D01*
X170571636Y-88557683D01*
X170905265Y-88879583D01*
X171336684Y-89049305D01*
X171522200Y-88986353D01*
X171522200Y-88057800D01*
X171877800Y-88057800D01*
X171877800Y-88986353D01*
X172063316Y-89049305D01*
X172494735Y-88879583D01*
X172828364Y-88557683D01*
X172970000Y-88272907D01*
X173111636Y-88557683D01*
X173445265Y-88879583D01*
X173876684Y-89049305D01*
X174062200Y-88986353D01*
X174062200Y-88057800D01*
X174417800Y-88057800D01*
X174417800Y-88986353D01*
X174603316Y-89049305D01*
X175034735Y-88879583D01*
X175368364Y-88557683D01*
X175510000Y-88272907D01*
X175651636Y-88557683D01*
X175985265Y-88879583D01*
X176416684Y-89049305D01*
X176602200Y-88986353D01*
X176602200Y-88057800D01*
X176957800Y-88057800D01*
X176957800Y-88986353D01*
X177143316Y-89049305D01*
X177574735Y-88879583D01*
X177908364Y-88557683D01*
X178066542Y-88239647D01*
X178026295Y-88057800D01*
X176957800Y-88057800D01*
X176602200Y-88057800D01*
X175533705Y-88057800D01*
X175510000Y-88164906D01*
X175486295Y-88057800D01*
X174417800Y-88057800D01*
X174062200Y-88057800D01*
X172993705Y-88057800D01*
X172970000Y-88164906D01*
X172946295Y-88057800D01*
X171877800Y-88057800D01*
X171522200Y-88057800D01*
X170453705Y-88057800D01*
X170452820Y-88061800D01*
X169468800Y-88061800D01*
X169113200Y-88061800D01*
X168044705Y-88061800D01*
X168004458Y-88243647D01*
X166012611Y-88243647D01*
X166012611Y-88134000D01*
X165993352Y-88031646D01*
X165932861Y-87937641D01*
X165840562Y-87874576D01*
X165731000Y-87852389D01*
X164990733Y-87852389D01*
X165234820Y-87803837D01*
X165653096Y-87524353D01*
X168004458Y-87524353D01*
X168044705Y-87706200D01*
X169113200Y-87706200D01*
X169113200Y-86777647D01*
X169468800Y-86777647D01*
X169468800Y-87706200D01*
X170537295Y-87706200D01*
X170538180Y-87702200D01*
X171522200Y-87702200D01*
X171522200Y-86773647D01*
X171877800Y-86773647D01*
X171877800Y-87702200D01*
X172946295Y-87702200D01*
X172970000Y-87595094D01*
X172993705Y-87702200D01*
X174062200Y-87702200D01*
X174062200Y-86773647D01*
X174417800Y-86773647D01*
X174417800Y-87702200D01*
X175486295Y-87702200D01*
X175510000Y-87595094D01*
X175533705Y-87702200D01*
X176602200Y-87702200D01*
X176602200Y-86773647D01*
X176957800Y-86773647D01*
X176957800Y-87702200D01*
X178026295Y-87702200D01*
X178066542Y-87520353D01*
X177908364Y-87202317D01*
X177574735Y-86880417D01*
X177143316Y-86710695D01*
X176957800Y-86773647D01*
X176602200Y-86773647D01*
X176416684Y-86710695D01*
X175985265Y-86880417D01*
X175651636Y-87202317D01*
X175510000Y-87487093D01*
X175368364Y-87202317D01*
X175034735Y-86880417D01*
X174603316Y-86710695D01*
X174417800Y-86773647D01*
X174062200Y-86773647D01*
X173876684Y-86710695D01*
X173445265Y-86880417D01*
X173111636Y-87202317D01*
X172970000Y-87487093D01*
X172828364Y-87202317D01*
X172494735Y-86880417D01*
X172063316Y-86710695D01*
X171877800Y-86773647D01*
X171522200Y-86773647D01*
X171336684Y-86710695D01*
X170905265Y-86880417D01*
X170571636Y-87202317D01*
X170494505Y-87357398D01*
X170419364Y-87206317D01*
X170085735Y-86884417D01*
X169654316Y-86714695D01*
X169468800Y-86777647D01*
X169113200Y-86777647D01*
X168927684Y-86714695D01*
X168496265Y-86884417D01*
X168162636Y-87206317D01*
X168004458Y-87524353D01*
X165653096Y-87524353D01*
X165654039Y-87523723D01*
X165934153Y-87104504D01*
X166032516Y-86610000D01*
X165934153Y-86115496D01*
X165654039Y-85696277D01*
X165234820Y-85416163D01*
X164740316Y-85317800D01*
X164689684Y-85317800D01*
X164195180Y-85416163D01*
X163775961Y-85696277D01*
X163495847Y-86115496D01*
X163467581Y-86257600D01*
X162379455Y-86257600D01*
X162365352Y-86182646D01*
X162304861Y-86088641D01*
X162212562Y-86025576D01*
X162103000Y-86003389D01*
X160403000Y-86003389D01*
X160300646Y-86022648D01*
X160206641Y-86083139D01*
X160143576Y-86175438D01*
X160121389Y-86285000D01*
X156718400Y-86285000D01*
X156718400Y-85179968D01*
X157061167Y-84837202D01*
X160190200Y-84837202D01*
X160143576Y-84905438D01*
X160121389Y-85015000D01*
X160121389Y-85665000D01*
X160140648Y-85767354D01*
X160201139Y-85861359D01*
X160293438Y-85924424D01*
X160403000Y-85946611D01*
X162103000Y-85946611D01*
X162205354Y-85927352D01*
X162299359Y-85866861D01*
X162362424Y-85774562D01*
X162384611Y-85665000D01*
X162384611Y-85015000D01*
X162365352Y-84912646D01*
X162316805Y-84837202D01*
X168107430Y-84837202D01*
X168060246Y-84907817D01*
X167973484Y-85344000D01*
X168060246Y-85780183D01*
X168307324Y-86149960D01*
X168677101Y-86397038D01*
X169113284Y-86483800D01*
X169468716Y-86483800D01*
X169904899Y-86397038D01*
X170274676Y-86149960D01*
X170496836Y-85817475D01*
X170716324Y-86145960D01*
X171086101Y-86393038D01*
X171522284Y-86479800D01*
X171877716Y-86479800D01*
X172313899Y-86393038D01*
X172683676Y-86145960D01*
X172930754Y-85776183D01*
X172970000Y-85578880D01*
X173009246Y-85776183D01*
X173256324Y-86145960D01*
X173626101Y-86393038D01*
X174062284Y-86479800D01*
X174417716Y-86479800D01*
X174853899Y-86393038D01*
X175223676Y-86145960D01*
X175470754Y-85776183D01*
X175510000Y-85578880D01*
X175549246Y-85776183D01*
X175796324Y-86145960D01*
X176166101Y-86393038D01*
X176602284Y-86479800D01*
X176957716Y-86479800D01*
X177393899Y-86393038D01*
X177763676Y-86145960D01*
X178010754Y-85776183D01*
X178097516Y-85340000D01*
X178010754Y-84903817D01*
X177763676Y-84534040D01*
X177393899Y-84286962D01*
X176957716Y-84200200D01*
X176602284Y-84200200D01*
X176215503Y-84277135D01*
X175259580Y-83321212D01*
X175206246Y-83285575D01*
X175145254Y-83244821D01*
X175010396Y-83217996D01*
X142769604Y-83217996D01*
X142634746Y-83244821D01*
X142573754Y-83285575D01*
X142520420Y-83321212D01*
X141341611Y-84500021D01*
X141341611Y-82680000D01*
X141322352Y-82577646D01*
X141261861Y-82483641D01*
X141169562Y-82420576D01*
X141060000Y-82398389D01*
X140660000Y-82398389D01*
X140557646Y-82417648D01*
X140463641Y-82478139D01*
X140400576Y-82570438D01*
X140378389Y-82680000D01*
X140378389Y-84680000D01*
X140383653Y-84707978D01*
X139660816Y-85430816D01*
X139660000Y-85432036D01*
X139659185Y-85430816D01*
X138936013Y-84707645D01*
X138941611Y-84680000D01*
X138941611Y-83939350D01*
X139133800Y-83939350D01*
X139133800Y-84744885D01*
X139183461Y-84864778D01*
X139275223Y-84956539D01*
X139395115Y-85006200D01*
X139478450Y-85006200D01*
X139560000Y-84924650D01*
X139560000Y-83857800D01*
X139760000Y-83857800D01*
X139760000Y-84924650D01*
X139841550Y-85006200D01*
X139924885Y-85006200D01*
X140044777Y-84956539D01*
X140136539Y-84864778D01*
X140186200Y-84744885D01*
X140186200Y-83939350D01*
X140104650Y-83857800D01*
X139760000Y-83857800D01*
X139560000Y-83857800D01*
X139215350Y-83857800D01*
X139133800Y-83939350D01*
X138941611Y-83939350D01*
X138941611Y-82680000D01*
X138929403Y-82615115D01*
X139133800Y-82615115D01*
X139133800Y-83420650D01*
X139215350Y-83502200D01*
X139560000Y-83502200D01*
X139560000Y-82435350D01*
X139760000Y-82435350D01*
X139760000Y-83502200D01*
X140104650Y-83502200D01*
X140186200Y-83420650D01*
X140186200Y-82615115D01*
X140136539Y-82495222D01*
X140044777Y-82403461D01*
X139924885Y-82353800D01*
X139841550Y-82353800D01*
X139760000Y-82435350D01*
X139560000Y-82435350D01*
X139478450Y-82353800D01*
X139395115Y-82353800D01*
X139275223Y-82403461D01*
X139183461Y-82495222D01*
X139133800Y-82615115D01*
X138929403Y-82615115D01*
X138922352Y-82577646D01*
X138861861Y-82483641D01*
X138769562Y-82420576D01*
X138660000Y-82398389D01*
X138260000Y-82398389D01*
X138157646Y-82417648D01*
X138063641Y-82478139D01*
X138000576Y-82570438D01*
X137978389Y-82680000D01*
X137978389Y-83355193D01*
X137892526Y-83269181D01*
X137697726Y-83188292D01*
X137486799Y-83188108D01*
X137296127Y-83266892D01*
X137261861Y-83213641D01*
X137169562Y-83150576D01*
X137060000Y-83128389D01*
X136826758Y-83128389D01*
X136409184Y-82710816D01*
X136363065Y-82680000D01*
X136294858Y-82634425D01*
X136160000Y-82607600D01*
X132264750Y-82607600D01*
X132129892Y-82634425D01*
X132072729Y-82672620D01*
X132015565Y-82710816D01*
X130845673Y-83880709D01*
X129172430Y-83880709D01*
X129070076Y-83899968D01*
X128976071Y-83960459D01*
X128913006Y-84052758D01*
X128890819Y-84162320D01*
X128890819Y-85762320D01*
X128910078Y-85864674D01*
X128970569Y-85958679D01*
X129062868Y-86021744D01*
X129172430Y-86043931D01*
X129910030Y-86043931D01*
X129910030Y-86739730D01*
X129765926Y-86679892D01*
X129554999Y-86679708D01*
X129360058Y-86760256D01*
X129210781Y-86909274D01*
X129129892Y-87104074D01*
X129129708Y-87315001D01*
X129210256Y-87509942D01*
X129359274Y-87659219D01*
X129554074Y-87740108D01*
X129557600Y-87740111D01*
X129557600Y-92180645D01*
X129420926Y-92123892D01*
X129209999Y-92123708D01*
X129015058Y-92204256D01*
X128865781Y-92353274D01*
X128784892Y-92548074D01*
X128784708Y-92759001D01*
X128837065Y-92885715D01*
X128828999Y-92885708D01*
X128634058Y-92966256D01*
X128484781Y-93115274D01*
X128403892Y-93310074D01*
X128403708Y-93521001D01*
X128484256Y-93715942D01*
X128633274Y-93865219D01*
X128815600Y-93940928D01*
X128815600Y-102306031D01*
X125410816Y-105710816D01*
X125334425Y-105825142D01*
X125307600Y-105960000D01*
X125307600Y-113284031D01*
X123932172Y-114659459D01*
X123697417Y-114561980D01*
X123284395Y-114561620D01*
X122902675Y-114719343D01*
X122610370Y-115011139D01*
X122451980Y-115392583D01*
X122451620Y-115805605D01*
X113356200Y-115805605D01*
X113356200Y-97401268D01*
X117653449Y-97401268D01*
X117961269Y-98146251D01*
X118530751Y-98716727D01*
X119275196Y-99025848D01*
X120081268Y-99026551D01*
X120826251Y-98718731D01*
X121396727Y-98149249D01*
X121705848Y-97404804D01*
X121706551Y-96598732D01*
X121398731Y-95853749D01*
X120829249Y-95283273D01*
X120084804Y-94974152D01*
X119278732Y-94973449D01*
X118533749Y-95281269D01*
X117963273Y-95850751D01*
X117654152Y-96595196D01*
X117653449Y-97401268D01*
X113356200Y-97401268D01*
X113356200Y-85217030D01*
X119641370Y-85217030D01*
X119641370Y-85822565D01*
X119691031Y-85942458D01*
X119782793Y-86034219D01*
X119902685Y-86083880D01*
X120798220Y-86083880D01*
X120879770Y-86002330D01*
X120879770Y-85135480D01*
X121235370Y-85135480D01*
X121235370Y-86002330D01*
X121316920Y-86083880D01*
X122212455Y-86083880D01*
X122332347Y-86034219D01*
X122424109Y-85942458D01*
X122473770Y-85822565D01*
X122473770Y-85217030D01*
X122392220Y-85135480D01*
X121235370Y-85135480D01*
X120879770Y-85135480D01*
X119722920Y-85135480D01*
X119641370Y-85217030D01*
X113356200Y-85217030D01*
X113356200Y-84092795D01*
X119641370Y-84092795D01*
X119641370Y-84698330D01*
X119722920Y-84779880D01*
X120879770Y-84779880D01*
X120879770Y-83913030D01*
X121235370Y-83913030D01*
X121235370Y-84779880D01*
X122392220Y-84779880D01*
X122473770Y-84698330D01*
X122473770Y-84092795D01*
X122424109Y-83972902D01*
X122332347Y-83881141D01*
X122212455Y-83831480D01*
X121316920Y-83831480D01*
X121235370Y-83913030D01*
X120879770Y-83913030D01*
X120798220Y-83831480D01*
X119902685Y-83831480D01*
X119782793Y-83881141D01*
X119691031Y-83972902D01*
X119641370Y-84092795D01*
X113356200Y-84092795D01*
X113356200Y-81987052D01*
X178608800Y-81860348D01*
X178608800Y-119148800D01*
G36*
X142365350Y-89105000D02*
X142577354Y-89105000D01*
X142610000Y-89111611D01*
X143557800Y-89111611D01*
X143557800Y-89248389D01*
X142610000Y-89248389D01*
X142574865Y-89255000D01*
X142365350Y-89255000D01*
X142283800Y-89336550D01*
X142283800Y-89394885D01*
X142332125Y-89511551D01*
X142328389Y-89530000D01*
X142328389Y-89830000D01*
X142347648Y-89932354D01*
X142348040Y-89932963D01*
X142328389Y-90030000D01*
X142328389Y-90330000D01*
X142347648Y-90432354D01*
X142348040Y-90432963D01*
X142328389Y-90530000D01*
X142328389Y-90830000D01*
X142347648Y-90932354D01*
X142348040Y-90932963D01*
X142328389Y-91030000D01*
X142328389Y-91330000D01*
X142347648Y-91432354D01*
X142348040Y-91432963D01*
X142328389Y-91530000D01*
X142328389Y-91827600D01*
X142307377Y-91827600D01*
X142210726Y-91730781D01*
X142015926Y-91649892D01*
X141804999Y-91649708D01*
X141610058Y-91730256D01*
X141460781Y-91879274D01*
X141379892Y-92074074D01*
X141379708Y-92285001D01*
X141397310Y-92327600D01*
X141057377Y-92327600D01*
X140960726Y-92230781D01*
X140765926Y-92149892D01*
X140554999Y-92149708D01*
X140360058Y-92230256D01*
X140210781Y-92379274D01*
X140129892Y-92574074D01*
X140129708Y-92785001D01*
X140147310Y-92827600D01*
X139807377Y-92827600D01*
X139710726Y-92730781D01*
X139515926Y-92649892D01*
X139304999Y-92649708D01*
X139110058Y-92730256D01*
X138960781Y-92879274D01*
X138879892Y-93074074D01*
X138879708Y-93285001D01*
X138960256Y-93479942D01*
X139109274Y-93629219D01*
X139304074Y-93710108D01*
X139515001Y-93710292D01*
X139709942Y-93629744D01*
X139807455Y-93532400D01*
X140647197Y-93532400D01*
X140629892Y-93574074D01*
X140629708Y-93785001D01*
X140710256Y-93979942D01*
X140859274Y-94129219D01*
X141054074Y-94210108D01*
X141265001Y-94210292D01*
X141459942Y-94129744D01*
X141557455Y-94032400D01*
X142328389Y-94032400D01*
X142328389Y-94330000D01*
X142347648Y-94432354D01*
X142387051Y-94493588D01*
X142321058Y-94520856D01*
X142200197Y-94641508D01*
X142169562Y-94620576D01*
X142060000Y-94598389D01*
X141760000Y-94598389D01*
X141741113Y-94601943D01*
X141624885Y-94553800D01*
X141566550Y-94553800D01*
X141485000Y-94635350D01*
X141485000Y-94847354D01*
X141478389Y-94880000D01*
X141478389Y-95827800D01*
X141341611Y-95827800D01*
X141341611Y-94880000D01*
X141335000Y-94844865D01*
X141335000Y-94635350D01*
X141253450Y-94553800D01*
X141195115Y-94553800D01*
X141078448Y-94602125D01*
X141060000Y-94598389D01*
X140760000Y-94598389D01*
X140657646Y-94617648D01*
X140657037Y-94618040D01*
X140560000Y-94598389D01*
X140260000Y-94598389D01*
X140157646Y-94617648D01*
X140157037Y-94618040D01*
X140060000Y-94598389D01*
X139760000Y-94598389D01*
X139657646Y-94617648D01*
X139657037Y-94618040D01*
X139560000Y-94598389D01*
X139260000Y-94598389D01*
X139157646Y-94617648D01*
X139157037Y-94618040D01*
X139060000Y-94598389D01*
X138760000Y-94598389D01*
X138657646Y-94617648D01*
X138657037Y-94618040D01*
X138560000Y-94598389D01*
X138260000Y-94598389D01*
X138157646Y-94617648D01*
X138157037Y-94618040D01*
X138060000Y-94598389D01*
X137760000Y-94598389D01*
X137657646Y-94617648D01*
X137657037Y-94618040D01*
X137560000Y-94598389D01*
X137260000Y-94598389D01*
X137157646Y-94617648D01*
X137157037Y-94618040D01*
X137060000Y-94598389D01*
X136760000Y-94598389D01*
X136657646Y-94617648D01*
X136657037Y-94618040D01*
X136560000Y-94598389D01*
X136260000Y-94598389D01*
X136157646Y-94617648D01*
X136063641Y-94678139D01*
X136000576Y-94770438D01*
X135978389Y-94880000D01*
X135978389Y-96380000D01*
X135982126Y-96399863D01*
X135804999Y-96399708D01*
X135610058Y-96480256D01*
X135460781Y-96629274D01*
X135409975Y-96751627D01*
X135359744Y-96630058D01*
X135210726Y-96480781D01*
X135015926Y-96399892D01*
X134804999Y-96399708D01*
X134610058Y-96480256D01*
X134460781Y-96629274D01*
X134379892Y-96824074D01*
X134379826Y-96899773D01*
X134304999Y-96899708D01*
X134110058Y-96980256D01*
X133960781Y-97129274D01*
X133879892Y-97324074D01*
X133879708Y-97535001D01*
X133960256Y-97729942D01*
X134057600Y-97827455D01*
X134057600Y-101536980D01*
X134000576Y-101620438D01*
X133978389Y-101730000D01*
X133978389Y-103230000D01*
X133997648Y-103332354D01*
X134058139Y-103426359D01*
X134150438Y-103489424D01*
X134260000Y-103511611D01*
X134560000Y-103511611D01*
X134662354Y-103492352D01*
X134662963Y-103491960D01*
X134760000Y-103511611D01*
X135060000Y-103511611D01*
X135162354Y-103492352D01*
X135162963Y-103491960D01*
X135260000Y-103511611D01*
X135560000Y-103511611D01*
X135662354Y-103492352D01*
X135662963Y-103491960D01*
X135760000Y-103511611D01*
X136060000Y-103511611D01*
X136162354Y-103492352D01*
X136162963Y-103491960D01*
X136260000Y-103511611D01*
X136560000Y-103511611D01*
X136662354Y-103492352D01*
X136662963Y-103491960D01*
X136760000Y-103511611D01*
X137060000Y-103511611D01*
X137162354Y-103492352D01*
X137162963Y-103491960D01*
X137260000Y-103511611D01*
X137560000Y-103511611D01*
X137662354Y-103492352D01*
X137662963Y-103491960D01*
X137760000Y-103511611D01*
X138060000Y-103511611D01*
X138162354Y-103492352D01*
X138162963Y-103491960D01*
X138260000Y-103511611D01*
X138560000Y-103511611D01*
X138662354Y-103492352D01*
X138662963Y-103491960D01*
X138760000Y-103511611D01*
X139060000Y-103511611D01*
X139162354Y-103492352D01*
X139162963Y-103491960D01*
X139260000Y-103511611D01*
X139560000Y-103511611D01*
X139662354Y-103492352D01*
X139662963Y-103491960D01*
X139760000Y-103511611D01*
X140060000Y-103511611D01*
X140162354Y-103492352D01*
X140256359Y-103431861D01*
X140319424Y-103339562D01*
X140341611Y-103230000D01*
X140341611Y-101730000D01*
X140322352Y-101627646D01*
X140262400Y-101534479D01*
X140262400Y-97453768D01*
X140820827Y-98012195D01*
X140820708Y-98149001D01*
X140901256Y-98343942D01*
X141050274Y-98493219D01*
X141245074Y-98574108D01*
X141456001Y-98574292D01*
X141506800Y-98553302D01*
X141506800Y-101710000D01*
X141534486Y-101849184D01*
X141537492Y-101864298D01*
X141624895Y-101995105D01*
X142951434Y-103321645D01*
X142863641Y-103378139D01*
X142800576Y-103470438D01*
X142789162Y-103526800D01*
X142228671Y-103526800D01*
X142219562Y-103520576D01*
X142110000Y-103498389D01*
X140610000Y-103498389D01*
X140507646Y-103517648D01*
X140413641Y-103578139D01*
X140350576Y-103670438D01*
X140328389Y-103780000D01*
X140328389Y-104080000D01*
X140347648Y-104182354D01*
X140348040Y-104182963D01*
X140328389Y-104280000D01*
X140328389Y-104580000D01*
X140347648Y-104682354D01*
X140348040Y-104682963D01*
X140328389Y-104780000D01*
X140328389Y-105080000D01*
X140347648Y-105182354D01*
X140408139Y-105276359D01*
X140500438Y-105339424D01*
X140610000Y-105361611D01*
X142110000Y-105361611D01*
X142212354Y-105342352D01*
X142305521Y-105282400D01*
X142778841Y-105282400D01*
X142797648Y-105382354D01*
X142858139Y-105476359D01*
X142950438Y-105539424D01*
X143060000Y-105561611D01*
X143660000Y-105561611D01*
X143762354Y-105542352D01*
X143856359Y-105481861D01*
X143877638Y-105450719D01*
X143883461Y-105464778D01*
X143975223Y-105556539D01*
X144026069Y-105577600D01*
X142303020Y-105577600D01*
X142219562Y-105520576D01*
X142110000Y-105498389D01*
X140610000Y-105498389D01*
X140507646Y-105517648D01*
X140413641Y-105578139D01*
X140350576Y-105670438D01*
X140328389Y-105780000D01*
X140328389Y-106080000D01*
X140347648Y-106182354D01*
X140348040Y-106182963D01*
X140328389Y-106280000D01*
X140328389Y-106580000D01*
X140347648Y-106682354D01*
X140348040Y-106682963D01*
X140328389Y-106780000D01*
X140328389Y-107080000D01*
X140347648Y-107182354D01*
X140348040Y-107182963D01*
X140328389Y-107280000D01*
X140328389Y-107580000D01*
X140347648Y-107682354D01*
X140348040Y-107682963D01*
X140328389Y-107780000D01*
X140328389Y-108080000D01*
X140347648Y-108182354D01*
X140348040Y-108182963D01*
X140328389Y-108280000D01*
X140328389Y-108580000D01*
X140347648Y-108682354D01*
X140348040Y-108682963D01*
X140328389Y-108780000D01*
X140328389Y-109080000D01*
X140347648Y-109182354D01*
X140348040Y-109182963D01*
X140328389Y-109280000D01*
X140328389Y-109580000D01*
X140347648Y-109682354D01*
X140408139Y-109776359D01*
X140500438Y-109839424D01*
X140610000Y-109861611D01*
X142110000Y-109861611D01*
X142212354Y-109842352D01*
X142305521Y-109782400D01*
X142778389Y-109782400D01*
X142778389Y-109980000D01*
X142797648Y-110082354D01*
X142858139Y-110176359D01*
X142950438Y-110239424D01*
X143060000Y-110261611D01*
X143660000Y-110261611D01*
X143762354Y-110242352D01*
X143856359Y-110181861D01*
X143877638Y-110150719D01*
X143883461Y-110164778D01*
X143975223Y-110256539D01*
X144095115Y-110306200D01*
X144228450Y-110306200D01*
X144310000Y-110224650D01*
X144310000Y-109855000D01*
X144610000Y-109855000D01*
X144610000Y-110224650D01*
X144691550Y-110306200D01*
X144824885Y-110306200D01*
X144944777Y-110256539D01*
X145036539Y-110164778D01*
X145086200Y-110044885D01*
X145086200Y-109936550D01*
X145004650Y-109855000D01*
X144610000Y-109855000D01*
X144310000Y-109855000D01*
X144262200Y-109855000D01*
X144262200Y-109605000D01*
X144310000Y-109605000D01*
X144310000Y-109532200D01*
X144610000Y-109532200D01*
X144610000Y-109605000D01*
X145004650Y-109605000D01*
X145086200Y-109523450D01*
X145086200Y-109415115D01*
X145052270Y-109333200D01*
X146042990Y-109333200D01*
X146358178Y-109648389D01*
X146010000Y-109648389D01*
X145907646Y-109667648D01*
X145813641Y-109728139D01*
X145750576Y-109820438D01*
X145728389Y-109930000D01*
X145728389Y-110930000D01*
X145747648Y-111032354D01*
X145808139Y-111126359D01*
X145900438Y-111189424D01*
X146010000Y-111211611D01*
X147559200Y-111211611D01*
X147559200Y-115691800D01*
X147578089Y-115792187D01*
X147637418Y-115884386D01*
X147727943Y-115946239D01*
X147835400Y-115968000D01*
X147918720Y-115968000D01*
X148009343Y-116187325D01*
X148179321Y-116357600D01*
X147060597Y-116357600D01*
X147229630Y-116188861D01*
X147388020Y-115807417D01*
X147388380Y-115394395D01*
X147230657Y-115012675D01*
X146938861Y-114720370D01*
X146557417Y-114561980D01*
X146144395Y-114561620D01*
X145958599Y-114638389D01*
X145462105Y-114141895D01*
X145331298Y-114054492D01*
X145177000Y-114023800D01*
X143550011Y-114023800D01*
X143160105Y-113633895D01*
X143029298Y-113546492D01*
X143023295Y-113545298D01*
X142875000Y-113515800D01*
X141518011Y-113515800D01*
X140313200Y-112310990D01*
X140313200Y-111748671D01*
X140319424Y-111739562D01*
X140341611Y-111630000D01*
X140341611Y-110130000D01*
X140322352Y-110027646D01*
X140261861Y-109933641D01*
X140169562Y-109870576D01*
X140060000Y-109848389D01*
X139760000Y-109848389D01*
X139657646Y-109867648D01*
X139657037Y-109868040D01*
X139560000Y-109848389D01*
X139260000Y-109848389D01*
X139241113Y-109851943D01*
X139124885Y-109803800D01*
X139066550Y-109803800D01*
X138985000Y-109885350D01*
X138985000Y-110097354D01*
X138978389Y-110130000D01*
X138978389Y-111630000D01*
X138985000Y-111665135D01*
X138985000Y-111874650D01*
X139006800Y-111896450D01*
X139006800Y-112740000D01*
X139030829Y-112860801D01*
X139037492Y-112894298D01*
X139124895Y-113025105D01*
X140130192Y-114030402D01*
X140097000Y-114023800D01*
X138769680Y-114023800D01*
X138856942Y-113987744D01*
X139006219Y-113838726D01*
X139087108Y-113643926D01*
X139087292Y-113432999D01*
X139006744Y-113238058D01*
X138857726Y-113088781D01*
X138813200Y-113070292D01*
X138813200Y-111896450D01*
X138835000Y-111874650D01*
X138835000Y-111662646D01*
X138841611Y-111630000D01*
X138841611Y-110130000D01*
X138835000Y-110094865D01*
X138835000Y-109885350D01*
X138753450Y-109803800D01*
X138695115Y-109803800D01*
X138578448Y-109852125D01*
X138560000Y-109848389D01*
X138260000Y-109848389D01*
X138157646Y-109867648D01*
X138157037Y-109868040D01*
X138060000Y-109848389D01*
X137760000Y-109848389D01*
X137741113Y-109851943D01*
X137624885Y-109803800D01*
X137566550Y-109803800D01*
X137485000Y-109885350D01*
X137485000Y-110097354D01*
X137478389Y-110130000D01*
X137478389Y-111630000D01*
X137485000Y-111665135D01*
X137485000Y-111874650D01*
X137506800Y-111896450D01*
X137506800Y-112788278D01*
X137482744Y-112730058D01*
X137333726Y-112580781D01*
X137313200Y-112572258D01*
X137313200Y-111896450D01*
X137335000Y-111874650D01*
X137335000Y-111662646D01*
X137341611Y-111630000D01*
X137341611Y-110130000D01*
X137335000Y-110094865D01*
X137335000Y-109885350D01*
X137253450Y-109803800D01*
X137195115Y-109803800D01*
X137078448Y-109852125D01*
X137060000Y-109848389D01*
X136760000Y-109848389D01*
X136657646Y-109867648D01*
X136657037Y-109868040D01*
X136560000Y-109848389D01*
X136260000Y-109848389D01*
X136157646Y-109867648D01*
X136157037Y-109868040D01*
X136060000Y-109848389D01*
X135760000Y-109848389D01*
X135657646Y-109867648D01*
X135657037Y-109868040D01*
X135560000Y-109848389D01*
X135260000Y-109848389D01*
X135241113Y-109851943D01*
X135124885Y-109803800D01*
X135066550Y-109803800D01*
X134985000Y-109885350D01*
X134985000Y-110097354D01*
X134978389Y-110130000D01*
X134978389Y-111630000D01*
X134985000Y-111665135D01*
X134985000Y-111874650D01*
X135006800Y-111896450D01*
X135006800Y-112989989D01*
X134480990Y-113515800D01*
X134208840Y-113515800D01*
X134261108Y-113389926D01*
X134261165Y-113324045D01*
X134695105Y-112890105D01*
X134782508Y-112759298D01*
X134788480Y-112729274D01*
X134813200Y-112605000D01*
X134813200Y-111896450D01*
X134835000Y-111874650D01*
X134835000Y-111662646D01*
X134841611Y-111630000D01*
X134841611Y-110130000D01*
X134835000Y-110094865D01*
X134835000Y-109885350D01*
X134753450Y-109803800D01*
X134695115Y-109803800D01*
X134578448Y-109852125D01*
X134560000Y-109848389D01*
X134260000Y-109848389D01*
X134157646Y-109867648D01*
X134063641Y-109928139D01*
X134000576Y-110020438D01*
X133978389Y-110130000D01*
X133978389Y-111630000D01*
X133997648Y-111732354D01*
X134006800Y-111746577D01*
X134006800Y-112437990D01*
X133691025Y-112753765D01*
X133625999Y-112753708D01*
X133431058Y-112834256D01*
X133281781Y-112983274D01*
X133200892Y-113178074D01*
X133200708Y-113389001D01*
X133253100Y-113515800D01*
X132207000Y-113515800D01*
X132058705Y-113545298D01*
X132052702Y-113546492D01*
X131921894Y-113633895D01*
X131531990Y-114023800D01*
X129743000Y-114023800D01*
X129588702Y-114054492D01*
X129560557Y-114073298D01*
X129457895Y-114141894D01*
X128961409Y-114638380D01*
X128777417Y-114561980D01*
X128364395Y-114561620D01*
X127982675Y-114719343D01*
X127762400Y-114939234D01*
X127762400Y-111355968D01*
X129835968Y-109282400D01*
X132016980Y-109282400D01*
X132100438Y-109339424D01*
X132210000Y-109361611D01*
X133710000Y-109361611D01*
X133812354Y-109342352D01*
X133906359Y-109281861D01*
X133969424Y-109189562D01*
X133991611Y-109080000D01*
X133991611Y-108780000D01*
X133972352Y-108677646D01*
X133971960Y-108677037D01*
X133991611Y-108580000D01*
X133991611Y-108280000D01*
X133972352Y-108177646D01*
X133971960Y-108177037D01*
X133991611Y-108080000D01*
X133991611Y-107780000D01*
X133972352Y-107677646D01*
X133971960Y-107677037D01*
X133991611Y-107580000D01*
X133991611Y-107280000D01*
X133972352Y-107177646D01*
X133971960Y-107177037D01*
X133991611Y-107080000D01*
X133991611Y-106780000D01*
X133972352Y-106677646D01*
X133971960Y-106677037D01*
X133991611Y-106580000D01*
X133991611Y-106280000D01*
X133972352Y-106177646D01*
X133971960Y-106177037D01*
X133991611Y-106080000D01*
X133991611Y-105780000D01*
X133972352Y-105677646D01*
X133971960Y-105677037D01*
X133991611Y-105580000D01*
X133991611Y-105280000D01*
X133972352Y-105177646D01*
X133971960Y-105177037D01*
X133991611Y-105080000D01*
X133991611Y-104780000D01*
X133988057Y-104761112D01*
X134036200Y-104644885D01*
X134036200Y-104586550D01*
X133954650Y-104505000D01*
X133742646Y-104505000D01*
X133710000Y-104498389D01*
X132210000Y-104498389D01*
X132174865Y-104505000D01*
X131965350Y-104505000D01*
X131892750Y-104577600D01*
X131582250Y-104577600D01*
X131519650Y-104515000D01*
X131125000Y-104515000D01*
X131125000Y-104577600D01*
X130825000Y-104577600D01*
X130825000Y-104515000D01*
X130777200Y-104515000D01*
X130777200Y-104265000D01*
X130825000Y-104265000D01*
X130825000Y-103895350D01*
X130743450Y-103813800D01*
X130610115Y-103813800D01*
X130490223Y-103863461D01*
X130398461Y-103955222D01*
X130392921Y-103968598D01*
X130376861Y-103943641D01*
X130284562Y-103880576D01*
X130175000Y-103858389D01*
X129575000Y-103858389D01*
X129512400Y-103870168D01*
X129512400Y-103855968D01*
X130159184Y-103209185D01*
X130197379Y-103152021D01*
X130235575Y-103094858D01*
X130262400Y-102960000D01*
X130262400Y-102810768D01*
X131265431Y-103813800D01*
X131206550Y-103813800D01*
X131125000Y-103895350D01*
X131125000Y-104265000D01*
X131519650Y-104265000D01*
X131601200Y-104183450D01*
X131601200Y-104149569D01*
X131630815Y-104179184D01*
X131711656Y-104233200D01*
X131745142Y-104255575D01*
X131880000Y-104282400D01*
X131892750Y-104282400D01*
X131965350Y-104355000D01*
X132177354Y-104355000D01*
X132210000Y-104361611D01*
X133710000Y-104361611D01*
X133745135Y-104355000D01*
X133954650Y-104355000D01*
X134036200Y-104273450D01*
X134036200Y-104215115D01*
X133987875Y-104098449D01*
X133991611Y-104080000D01*
X133991611Y-103780000D01*
X133972352Y-103677646D01*
X133911861Y-103583641D01*
X133819562Y-103520576D01*
X133710000Y-103498389D01*
X132210000Y-103498389D01*
X132107646Y-103517648D01*
X132021470Y-103573101D01*
X130614830Y-102166462D01*
X130614830Y-93411526D01*
X130804074Y-93490108D01*
X130879773Y-93490174D01*
X130879708Y-93565001D01*
X130960256Y-93759942D01*
X131109274Y-93909219D01*
X131304074Y-93990108D01*
X131441860Y-93990228D01*
X131880816Y-94429185D01*
X131949350Y-94474977D01*
X131995142Y-94505575D01*
X132130000Y-94532400D01*
X134016980Y-94532400D01*
X134100438Y-94589424D01*
X134210000Y-94611611D01*
X135710000Y-94611611D01*
X135812354Y-94592352D01*
X135826577Y-94583200D01*
X137190000Y-94583200D01*
X137344298Y-94552508D01*
X137475105Y-94465105D01*
X138195106Y-93745105D01*
X138282508Y-93614298D01*
X138313200Y-93460000D01*
X138313200Y-89083200D01*
X142343550Y-89083200D01*
X142365350Y-89105000D01*
X142365350Y-89105000D01*
G37*
X142365350Y-89105000D02*
X142577354Y-89105000D01*
X142610000Y-89111611D01*
X143557800Y-89111611D01*
X143557800Y-89248389D01*
X142610000Y-89248389D01*
X142574865Y-89255000D01*
X142365350Y-89255000D01*
X142283800Y-89336550D01*
X142283800Y-89394885D01*
X142332125Y-89511551D01*
X142328389Y-89530000D01*
X142328389Y-89830000D01*
X142347648Y-89932354D01*
X142348040Y-89932963D01*
X142328389Y-90030000D01*
X142328389Y-90330000D01*
X142347648Y-90432354D01*
X142348040Y-90432963D01*
X142328389Y-90530000D01*
X142328389Y-90830000D01*
X142347648Y-90932354D01*
X142348040Y-90932963D01*
X142328389Y-91030000D01*
X142328389Y-91330000D01*
X142347648Y-91432354D01*
X142348040Y-91432963D01*
X142328389Y-91530000D01*
X142328389Y-91827600D01*
X142307377Y-91827600D01*
X142210726Y-91730781D01*
X142015926Y-91649892D01*
X141804999Y-91649708D01*
X141610058Y-91730256D01*
X141460781Y-91879274D01*
X141379892Y-92074074D01*
X141379708Y-92285001D01*
X141397310Y-92327600D01*
X141057377Y-92327600D01*
X140960726Y-92230781D01*
X140765926Y-92149892D01*
X140554999Y-92149708D01*
X140360058Y-92230256D01*
X140210781Y-92379274D01*
X140129892Y-92574074D01*
X140129708Y-92785001D01*
X140147310Y-92827600D01*
X139807377Y-92827600D01*
X139710726Y-92730781D01*
X139515926Y-92649892D01*
X139304999Y-92649708D01*
X139110058Y-92730256D01*
X138960781Y-92879274D01*
X138879892Y-93074074D01*
X138879708Y-93285001D01*
X138960256Y-93479942D01*
X139109274Y-93629219D01*
X139304074Y-93710108D01*
X139515001Y-93710292D01*
X139709942Y-93629744D01*
X139807455Y-93532400D01*
X140647197Y-93532400D01*
X140629892Y-93574074D01*
X140629708Y-93785001D01*
X140710256Y-93979942D01*
X140859274Y-94129219D01*
X141054074Y-94210108D01*
X141265001Y-94210292D01*
X141459942Y-94129744D01*
X141557455Y-94032400D01*
X142328389Y-94032400D01*
X142328389Y-94330000D01*
X142347648Y-94432354D01*
X142387051Y-94493588D01*
X142321058Y-94520856D01*
X142200197Y-94641508D01*
X142169562Y-94620576D01*
X142060000Y-94598389D01*
X141760000Y-94598389D01*
X141741113Y-94601943D01*
X141624885Y-94553800D01*
X141566550Y-94553800D01*
X141485000Y-94635350D01*
X141485000Y-94847354D01*
X141478389Y-94880000D01*
X141478389Y-95827800D01*
X141341611Y-95827800D01*
X141341611Y-94880000D01*
X141335000Y-94844865D01*
X141335000Y-94635350D01*
X141253450Y-94553800D01*
X141195115Y-94553800D01*
X141078448Y-94602125D01*
X141060000Y-94598389D01*
X140760000Y-94598389D01*
X140657646Y-94617648D01*
X140657037Y-94618040D01*
X140560000Y-94598389D01*
X140260000Y-94598389D01*
X140157646Y-94617648D01*
X140157037Y-94618040D01*
X140060000Y-94598389D01*
X139760000Y-94598389D01*
X139657646Y-94617648D01*
X139657037Y-94618040D01*
X139560000Y-94598389D01*
X139260000Y-94598389D01*
X139157646Y-94617648D01*
X139157037Y-94618040D01*
X139060000Y-94598389D01*
X138760000Y-94598389D01*
X138657646Y-94617648D01*
X138657037Y-94618040D01*
X138560000Y-94598389D01*
X138260000Y-94598389D01*
X138157646Y-94617648D01*
X138157037Y-94618040D01*
X138060000Y-94598389D01*
X137760000Y-94598389D01*
X137657646Y-94617648D01*
X137657037Y-94618040D01*
X137560000Y-94598389D01*
X137260000Y-94598389D01*
X137157646Y-94617648D01*
X137157037Y-94618040D01*
X137060000Y-94598389D01*
X136760000Y-94598389D01*
X136657646Y-94617648D01*
X136657037Y-94618040D01*
X136560000Y-94598389D01*
X136260000Y-94598389D01*
X136157646Y-94617648D01*
X136063641Y-94678139D01*
X136000576Y-94770438D01*
X135978389Y-94880000D01*
X135978389Y-96380000D01*
X135982126Y-96399863D01*
X135804999Y-96399708D01*
X135610058Y-96480256D01*
X135460781Y-96629274D01*
X135409975Y-96751627D01*
X135359744Y-96630058D01*
X135210726Y-96480781D01*
X135015926Y-96399892D01*
X134804999Y-96399708D01*
X134610058Y-96480256D01*
X134460781Y-96629274D01*
X134379892Y-96824074D01*
X134379826Y-96899773D01*
X134304999Y-96899708D01*
X134110058Y-96980256D01*
X133960781Y-97129274D01*
X133879892Y-97324074D01*
X133879708Y-97535001D01*
X133960256Y-97729942D01*
X134057600Y-97827455D01*
X134057600Y-101536980D01*
X134000576Y-101620438D01*
X133978389Y-101730000D01*
X133978389Y-103230000D01*
X133997648Y-103332354D01*
X134058139Y-103426359D01*
X134150438Y-103489424D01*
X134260000Y-103511611D01*
X134560000Y-103511611D01*
X134662354Y-103492352D01*
X134662963Y-103491960D01*
X134760000Y-103511611D01*
X135060000Y-103511611D01*
X135162354Y-103492352D01*
X135162963Y-103491960D01*
X135260000Y-103511611D01*
X135560000Y-103511611D01*
X135662354Y-103492352D01*
X135662963Y-103491960D01*
X135760000Y-103511611D01*
X136060000Y-103511611D01*
X136162354Y-103492352D01*
X136162963Y-103491960D01*
X136260000Y-103511611D01*
X136560000Y-103511611D01*
X136662354Y-103492352D01*
X136662963Y-103491960D01*
X136760000Y-103511611D01*
X137060000Y-103511611D01*
X137162354Y-103492352D01*
X137162963Y-103491960D01*
X137260000Y-103511611D01*
X137560000Y-103511611D01*
X137662354Y-103492352D01*
X137662963Y-103491960D01*
X137760000Y-103511611D01*
X138060000Y-103511611D01*
X138162354Y-103492352D01*
X138162963Y-103491960D01*
X138260000Y-103511611D01*
X138560000Y-103511611D01*
X138662354Y-103492352D01*
X138662963Y-103491960D01*
X138760000Y-103511611D01*
X139060000Y-103511611D01*
X139162354Y-103492352D01*
X139162963Y-103491960D01*
X139260000Y-103511611D01*
X139560000Y-103511611D01*
X139662354Y-103492352D01*
X139662963Y-103491960D01*
X139760000Y-103511611D01*
X140060000Y-103511611D01*
X140162354Y-103492352D01*
X140256359Y-103431861D01*
X140319424Y-103339562D01*
X140341611Y-103230000D01*
X140341611Y-101730000D01*
X140322352Y-101627646D01*
X140262400Y-101534479D01*
X140262400Y-97453768D01*
X140820827Y-98012195D01*
X140820708Y-98149001D01*
X140901256Y-98343942D01*
X141050274Y-98493219D01*
X141245074Y-98574108D01*
X141456001Y-98574292D01*
X141506800Y-98553302D01*
X141506800Y-101710000D01*
X141534486Y-101849184D01*
X141537492Y-101864298D01*
X141624895Y-101995105D01*
X142951434Y-103321645D01*
X142863641Y-103378139D01*
X142800576Y-103470438D01*
X142789162Y-103526800D01*
X142228671Y-103526800D01*
X142219562Y-103520576D01*
X142110000Y-103498389D01*
X140610000Y-103498389D01*
X140507646Y-103517648D01*
X140413641Y-103578139D01*
X140350576Y-103670438D01*
X140328389Y-103780000D01*
X140328389Y-104080000D01*
X140347648Y-104182354D01*
X140348040Y-104182963D01*
X140328389Y-104280000D01*
X140328389Y-104580000D01*
X140347648Y-104682354D01*
X140348040Y-104682963D01*
X140328389Y-104780000D01*
X140328389Y-105080000D01*
X140347648Y-105182354D01*
X140408139Y-105276359D01*
X140500438Y-105339424D01*
X140610000Y-105361611D01*
X142110000Y-105361611D01*
X142212354Y-105342352D01*
X142305521Y-105282400D01*
X142778841Y-105282400D01*
X142797648Y-105382354D01*
X142858139Y-105476359D01*
X142950438Y-105539424D01*
X143060000Y-105561611D01*
X143660000Y-105561611D01*
X143762354Y-105542352D01*
X143856359Y-105481861D01*
X143877638Y-105450719D01*
X143883461Y-105464778D01*
X143975223Y-105556539D01*
X144026069Y-105577600D01*
X142303020Y-105577600D01*
X142219562Y-105520576D01*
X142110000Y-105498389D01*
X140610000Y-105498389D01*
X140507646Y-105517648D01*
X140413641Y-105578139D01*
X140350576Y-105670438D01*
X140328389Y-105780000D01*
X140328389Y-106080000D01*
X140347648Y-106182354D01*
X140348040Y-106182963D01*
X140328389Y-106280000D01*
X140328389Y-106580000D01*
X140347648Y-106682354D01*
X140348040Y-106682963D01*
X140328389Y-106780000D01*
X140328389Y-107080000D01*
X140347648Y-107182354D01*
X140348040Y-107182963D01*
X140328389Y-107280000D01*
X140328389Y-107580000D01*
X140347648Y-107682354D01*
X140348040Y-107682963D01*
X140328389Y-107780000D01*
X140328389Y-108080000D01*
X140347648Y-108182354D01*
X140348040Y-108182963D01*
X140328389Y-108280000D01*
X140328389Y-108580000D01*
X140347648Y-108682354D01*
X140348040Y-108682963D01*
X140328389Y-108780000D01*
X140328389Y-109080000D01*
X140347648Y-109182354D01*
X140348040Y-109182963D01*
X140328389Y-109280000D01*
X140328389Y-109580000D01*
X140347648Y-109682354D01*
X140408139Y-109776359D01*
X140500438Y-109839424D01*
X140610000Y-109861611D01*
X142110000Y-109861611D01*
X142212354Y-109842352D01*
X142305521Y-109782400D01*
X142778389Y-109782400D01*
X142778389Y-109980000D01*
X142797648Y-110082354D01*
X142858139Y-110176359D01*
X142950438Y-110239424D01*
X143060000Y-110261611D01*
X143660000Y-110261611D01*
X143762354Y-110242352D01*
X143856359Y-110181861D01*
X143877638Y-110150719D01*
X143883461Y-110164778D01*
X143975223Y-110256539D01*
X144095115Y-110306200D01*
X144228450Y-110306200D01*
X144310000Y-110224650D01*
X144310000Y-109855000D01*
X144610000Y-109855000D01*
X144610000Y-110224650D01*
X144691550Y-110306200D01*
X144824885Y-110306200D01*
X144944777Y-110256539D01*
X145036539Y-110164778D01*
X145086200Y-110044885D01*
X145086200Y-109936550D01*
X145004650Y-109855000D01*
X144610000Y-109855000D01*
X144310000Y-109855000D01*
X144262200Y-109855000D01*
X144262200Y-109605000D01*
X144310000Y-109605000D01*
X144310000Y-109532200D01*
X144610000Y-109532200D01*
X144610000Y-109605000D01*
X145004650Y-109605000D01*
X145086200Y-109523450D01*
X145086200Y-109415115D01*
X145052270Y-109333200D01*
X146042990Y-109333200D01*
X146358178Y-109648389D01*
X146010000Y-109648389D01*
X145907646Y-109667648D01*
X145813641Y-109728139D01*
X145750576Y-109820438D01*
X145728389Y-109930000D01*
X145728389Y-110930000D01*
X145747648Y-111032354D01*
X145808139Y-111126359D01*
X145900438Y-111189424D01*
X146010000Y-111211611D01*
X147559200Y-111211611D01*
X147559200Y-115691800D01*
X147578089Y-115792187D01*
X147637418Y-115884386D01*
X147727943Y-115946239D01*
X147835400Y-115968000D01*
X147918720Y-115968000D01*
X148009343Y-116187325D01*
X148179321Y-116357600D01*
X147060597Y-116357600D01*
X147229630Y-116188861D01*
X147388020Y-115807417D01*
X147388380Y-115394395D01*
X147230657Y-115012675D01*
X146938861Y-114720370D01*
X146557417Y-114561980D01*
X146144395Y-114561620D01*
X145958599Y-114638389D01*
X145462105Y-114141895D01*
X145331298Y-114054492D01*
X145177000Y-114023800D01*
X143550011Y-114023800D01*
X143160105Y-113633895D01*
X143029298Y-113546492D01*
X143023295Y-113545298D01*
X142875000Y-113515800D01*
X141518011Y-113515800D01*
X140313200Y-112310990D01*
X140313200Y-111748671D01*
X140319424Y-111739562D01*
X140341611Y-111630000D01*
X140341611Y-110130000D01*
X140322352Y-110027646D01*
X140261861Y-109933641D01*
X140169562Y-109870576D01*
X140060000Y-109848389D01*
X139760000Y-109848389D01*
X139657646Y-109867648D01*
X139657037Y-109868040D01*
X139560000Y-109848389D01*
X139260000Y-109848389D01*
X139241113Y-109851943D01*
X139124885Y-109803800D01*
X139066550Y-109803800D01*
X138985000Y-109885350D01*
X138985000Y-110097354D01*
X138978389Y-110130000D01*
X138978389Y-111630000D01*
X138985000Y-111665135D01*
X138985000Y-111874650D01*
X139006800Y-111896450D01*
X139006800Y-112740000D01*
X139030829Y-112860801D01*
X139037492Y-112894298D01*
X139124895Y-113025105D01*
X140130192Y-114030402D01*
X140097000Y-114023800D01*
X138769680Y-114023800D01*
X138856942Y-113987744D01*
X139006219Y-113838726D01*
X139087108Y-113643926D01*
X139087292Y-113432999D01*
X139006744Y-113238058D01*
X138857726Y-113088781D01*
X138813200Y-113070292D01*
X138813200Y-111896450D01*
X138835000Y-111874650D01*
X138835000Y-111662646D01*
X138841611Y-111630000D01*
X138841611Y-110130000D01*
X138835000Y-110094865D01*
X138835000Y-109885350D01*
X138753450Y-109803800D01*
X138695115Y-109803800D01*
X138578448Y-109852125D01*
X138560000Y-109848389D01*
X138260000Y-109848389D01*
X138157646Y-109867648D01*
X138157037Y-109868040D01*
X138060000Y-109848389D01*
X137760000Y-109848389D01*
X137741113Y-109851943D01*
X137624885Y-109803800D01*
X137566550Y-109803800D01*
X137485000Y-109885350D01*
X137485000Y-110097354D01*
X137478389Y-110130000D01*
X137478389Y-111630000D01*
X137485000Y-111665135D01*
X137485000Y-111874650D01*
X137506800Y-111896450D01*
X137506800Y-112788278D01*
X137482744Y-112730058D01*
X137333726Y-112580781D01*
X137313200Y-112572258D01*
X137313200Y-111896450D01*
X137335000Y-111874650D01*
X137335000Y-111662646D01*
X137341611Y-111630000D01*
X137341611Y-110130000D01*
X137335000Y-110094865D01*
X137335000Y-109885350D01*
X137253450Y-109803800D01*
X137195115Y-109803800D01*
X137078448Y-109852125D01*
X137060000Y-109848389D01*
X136760000Y-109848389D01*
X136657646Y-109867648D01*
X136657037Y-109868040D01*
X136560000Y-109848389D01*
X136260000Y-109848389D01*
X136157646Y-109867648D01*
X136157037Y-109868040D01*
X136060000Y-109848389D01*
X135760000Y-109848389D01*
X135657646Y-109867648D01*
X135657037Y-109868040D01*
X135560000Y-109848389D01*
X135260000Y-109848389D01*
X135241113Y-109851943D01*
X135124885Y-109803800D01*
X135066550Y-109803800D01*
X134985000Y-109885350D01*
X134985000Y-110097354D01*
X134978389Y-110130000D01*
X134978389Y-111630000D01*
X134985000Y-111665135D01*
X134985000Y-111874650D01*
X135006800Y-111896450D01*
X135006800Y-112989989D01*
X134480990Y-113515800D01*
X134208840Y-113515800D01*
X134261108Y-113389926D01*
X134261165Y-113324045D01*
X134695105Y-112890105D01*
X134782508Y-112759298D01*
X134788480Y-112729274D01*
X134813200Y-112605000D01*
X134813200Y-111896450D01*
X134835000Y-111874650D01*
X134835000Y-111662646D01*
X134841611Y-111630000D01*
X134841611Y-110130000D01*
X134835000Y-110094865D01*
X134835000Y-109885350D01*
X134753450Y-109803800D01*
X134695115Y-109803800D01*
X134578448Y-109852125D01*
X134560000Y-109848389D01*
X134260000Y-109848389D01*
X134157646Y-109867648D01*
X134063641Y-109928139D01*
X134000576Y-110020438D01*
X133978389Y-110130000D01*
X133978389Y-111630000D01*
X133997648Y-111732354D01*
X134006800Y-111746577D01*
X134006800Y-112437990D01*
X133691025Y-112753765D01*
X133625999Y-112753708D01*
X133431058Y-112834256D01*
X133281781Y-112983274D01*
X133200892Y-113178074D01*
X133200708Y-113389001D01*
X133253100Y-113515800D01*
X132207000Y-113515800D01*
X132058705Y-113545298D01*
X132052702Y-113546492D01*
X131921894Y-113633895D01*
X131531990Y-114023800D01*
X129743000Y-114023800D01*
X129588702Y-114054492D01*
X129560557Y-114073298D01*
X129457895Y-114141894D01*
X128961409Y-114638380D01*
X128777417Y-114561980D01*
X128364395Y-114561620D01*
X127982675Y-114719343D01*
X127762400Y-114939234D01*
X127762400Y-111355968D01*
X129835968Y-109282400D01*
X132016980Y-109282400D01*
X132100438Y-109339424D01*
X132210000Y-109361611D01*
X133710000Y-109361611D01*
X133812354Y-109342352D01*
X133906359Y-109281861D01*
X133969424Y-109189562D01*
X133991611Y-109080000D01*
X133991611Y-108780000D01*
X133972352Y-108677646D01*
X133971960Y-108677037D01*
X133991611Y-108580000D01*
X133991611Y-108280000D01*
X133972352Y-108177646D01*
X133971960Y-108177037D01*
X133991611Y-108080000D01*
X133991611Y-107780000D01*
X133972352Y-107677646D01*
X133971960Y-107677037D01*
X133991611Y-107580000D01*
X133991611Y-107280000D01*
X133972352Y-107177646D01*
X133971960Y-107177037D01*
X133991611Y-107080000D01*
X133991611Y-106780000D01*
X133972352Y-106677646D01*
X133971960Y-106677037D01*
X133991611Y-106580000D01*
X133991611Y-106280000D01*
X133972352Y-106177646D01*
X133971960Y-106177037D01*
X133991611Y-106080000D01*
X133991611Y-105780000D01*
X133972352Y-105677646D01*
X133971960Y-105677037D01*
X133991611Y-105580000D01*
X133991611Y-105280000D01*
X133972352Y-105177646D01*
X133971960Y-105177037D01*
X133991611Y-105080000D01*
X133991611Y-104780000D01*
X133988057Y-104761112D01*
X134036200Y-104644885D01*
X134036200Y-104586550D01*
X133954650Y-104505000D01*
X133742646Y-104505000D01*
X133710000Y-104498389D01*
X132210000Y-104498389D01*
X132174865Y-104505000D01*
X131965350Y-104505000D01*
X131892750Y-104577600D01*
X131582250Y-104577600D01*
X131519650Y-104515000D01*
X131125000Y-104515000D01*
X131125000Y-104577600D01*
X130825000Y-104577600D01*
X130825000Y-104515000D01*
X130777200Y-104515000D01*
X130777200Y-104265000D01*
X130825000Y-104265000D01*
X130825000Y-103895350D01*
X130743450Y-103813800D01*
X130610115Y-103813800D01*
X130490223Y-103863461D01*
X130398461Y-103955222D01*
X130392921Y-103968598D01*
X130376861Y-103943641D01*
X130284562Y-103880576D01*
X130175000Y-103858389D01*
X129575000Y-103858389D01*
X129512400Y-103870168D01*
X129512400Y-103855968D01*
X130159184Y-103209185D01*
X130197379Y-103152021D01*
X130235575Y-103094858D01*
X130262400Y-102960000D01*
X130262400Y-102810768D01*
X131265431Y-103813800D01*
X131206550Y-103813800D01*
X131125000Y-103895350D01*
X131125000Y-104265000D01*
X131519650Y-104265000D01*
X131601200Y-104183450D01*
X131601200Y-104149569D01*
X131630815Y-104179184D01*
X131711656Y-104233200D01*
X131745142Y-104255575D01*
X131880000Y-104282400D01*
X131892750Y-104282400D01*
X131965350Y-104355000D01*
X132177354Y-104355000D01*
X132210000Y-104361611D01*
X133710000Y-104361611D01*
X133745135Y-104355000D01*
X133954650Y-104355000D01*
X134036200Y-104273450D01*
X134036200Y-104215115D01*
X133987875Y-104098449D01*
X133991611Y-104080000D01*
X133991611Y-103780000D01*
X133972352Y-103677646D01*
X133911861Y-103583641D01*
X133819562Y-103520576D01*
X133710000Y-103498389D01*
X132210000Y-103498389D01*
X132107646Y-103517648D01*
X132021470Y-103573101D01*
X130614830Y-102166462D01*
X130614830Y-93411526D01*
X130804074Y-93490108D01*
X130879773Y-93490174D01*
X130879708Y-93565001D01*
X130960256Y-93759942D01*
X131109274Y-93909219D01*
X131304074Y-93990108D01*
X131441860Y-93990228D01*
X131880816Y-94429185D01*
X131949350Y-94474977D01*
X131995142Y-94505575D01*
X132130000Y-94532400D01*
X134016980Y-94532400D01*
X134100438Y-94589424D01*
X134210000Y-94611611D01*
X135710000Y-94611611D01*
X135812354Y-94592352D01*
X135826577Y-94583200D01*
X137190000Y-94583200D01*
X137344298Y-94552508D01*
X137475105Y-94465105D01*
X138195106Y-93745105D01*
X138282508Y-93614298D01*
X138313200Y-93460000D01*
X138313200Y-89083200D01*
X142343550Y-89083200D01*
X142365350Y-89105000D01*
G36*
X144610000Y-104905000D02*
X144657800Y-104905000D01*
X144657800Y-105155000D01*
X144610000Y-105155000D01*
X144610000Y-105227800D01*
X144310000Y-105227800D01*
X144310000Y-105155000D01*
X144262200Y-105155000D01*
X144262200Y-104905000D01*
X144310000Y-104905000D01*
X144310000Y-104833200D01*
X144610000Y-104833200D01*
X144610000Y-104905000D01*
X144610000Y-104905000D01*
G37*
X144610000Y-104905000D02*
X144657800Y-104905000D01*
X144657800Y-105155000D01*
X144610000Y-105155000D01*
X144610000Y-105227800D01*
X144310000Y-105227800D01*
X144310000Y-105155000D01*
X144262200Y-105155000D01*
X144262200Y-104905000D01*
X144310000Y-104905000D01*
X144310000Y-104833200D01*
X144610000Y-104833200D01*
X144610000Y-104905000D01*
G36*
X136756708Y-91545001D02*
X136837256Y-91739942D01*
X136986274Y-91889219D01*
X137181074Y-91970108D01*
X137392001Y-91970292D01*
X137506800Y-91922858D01*
X137506800Y-93292989D01*
X137022990Y-93776800D01*
X135976450Y-93776800D01*
X135954650Y-93755000D01*
X135742646Y-93755000D01*
X135710000Y-93748389D01*
X134210000Y-93748389D01*
X134174865Y-93755000D01*
X133965350Y-93755000D01*
X133892750Y-93827600D01*
X132275969Y-93827600D01*
X131940173Y-93491804D01*
X131940292Y-93354999D01*
X131859744Y-93160058D01*
X131710726Y-93010781D01*
X131515926Y-92929892D01*
X131440227Y-92929826D01*
X131440228Y-92928140D01*
X132076758Y-92291611D01*
X132310000Y-92291611D01*
X132412354Y-92272352D01*
X132506359Y-92211861D01*
X132569424Y-92119562D01*
X132587075Y-92032400D01*
X133928389Y-92032400D01*
X133928389Y-92330000D01*
X133947648Y-92432354D01*
X133948040Y-92432963D01*
X133928389Y-92530000D01*
X133928389Y-92830000D01*
X133947648Y-92932354D01*
X133948040Y-92932963D01*
X133928389Y-93030000D01*
X133928389Y-93330000D01*
X133931943Y-93348888D01*
X133883800Y-93465115D01*
X133883800Y-93523450D01*
X133965350Y-93605000D01*
X134177354Y-93605000D01*
X134210000Y-93611611D01*
X135710000Y-93611611D01*
X135745135Y-93605000D01*
X135954650Y-93605000D01*
X136036200Y-93523450D01*
X136036200Y-93465115D01*
X135987875Y-93348449D01*
X135991611Y-93330000D01*
X135991611Y-93030000D01*
X135972352Y-92927646D01*
X135971960Y-92927037D01*
X135991611Y-92830000D01*
X135991611Y-92530000D01*
X135972352Y-92427646D01*
X135971960Y-92427037D01*
X135991611Y-92330000D01*
X135991611Y-92030000D01*
X135972352Y-91927646D01*
X135971960Y-91927037D01*
X135991611Y-91830000D01*
X135991611Y-91532400D01*
X136756719Y-91532400D01*
X136756708Y-91545001D01*
X136756708Y-91545001D01*
G37*
X136756708Y-91545001D02*
X136837256Y-91739942D01*
X136986274Y-91889219D01*
X137181074Y-91970108D01*
X137392001Y-91970292D01*
X137506800Y-91922858D01*
X137506800Y-93292989D01*
X137022990Y-93776800D01*
X135976450Y-93776800D01*
X135954650Y-93755000D01*
X135742646Y-93755000D01*
X135710000Y-93748389D01*
X134210000Y-93748389D01*
X134174865Y-93755000D01*
X133965350Y-93755000D01*
X133892750Y-93827600D01*
X132275969Y-93827600D01*
X131940173Y-93491804D01*
X131940292Y-93354999D01*
X131859744Y-93160058D01*
X131710726Y-93010781D01*
X131515926Y-92929892D01*
X131440227Y-92929826D01*
X131440228Y-92928140D01*
X132076758Y-92291611D01*
X132310000Y-92291611D01*
X132412354Y-92272352D01*
X132506359Y-92211861D01*
X132569424Y-92119562D01*
X132587075Y-92032400D01*
X133928389Y-92032400D01*
X133928389Y-92330000D01*
X133947648Y-92432354D01*
X133948040Y-92432963D01*
X133928389Y-92530000D01*
X133928389Y-92830000D01*
X133947648Y-92932354D01*
X133948040Y-92932963D01*
X133928389Y-93030000D01*
X133928389Y-93330000D01*
X133931943Y-93348888D01*
X133883800Y-93465115D01*
X133883800Y-93523450D01*
X133965350Y-93605000D01*
X134177354Y-93605000D01*
X134210000Y-93611611D01*
X135710000Y-93611611D01*
X135745135Y-93605000D01*
X135954650Y-93605000D01*
X136036200Y-93523450D01*
X136036200Y-93465115D01*
X135987875Y-93348449D01*
X135991611Y-93330000D01*
X135991611Y-93030000D01*
X135972352Y-92927646D01*
X135971960Y-92927037D01*
X135991611Y-92830000D01*
X135991611Y-92530000D01*
X135972352Y-92427646D01*
X135971960Y-92427037D01*
X135991611Y-92330000D01*
X135991611Y-92030000D01*
X135972352Y-91927646D01*
X135971960Y-91927037D01*
X135991611Y-91830000D01*
X135991611Y-91532400D01*
X136756719Y-91532400D01*
X136756708Y-91545001D01*
G36*
X135978389Y-87980000D02*
X135997648Y-88082354D01*
X136058139Y-88176359D01*
X136150438Y-88239424D01*
X136260000Y-88261611D01*
X136557600Y-88261611D01*
X136557600Y-88304262D01*
X136504225Y-88384142D01*
X136477400Y-88519000D01*
X136477400Y-88925400D01*
X136504225Y-89060258D01*
X136579350Y-89172689D01*
X136580616Y-89174584D01*
X136756827Y-89350796D01*
X136756708Y-89487601D01*
X136837256Y-89682542D01*
X136918118Y-89763544D01*
X136913981Y-89767674D01*
X136889097Y-89827600D01*
X135991611Y-89827600D01*
X135991611Y-89530000D01*
X135972352Y-89427646D01*
X135971960Y-89427037D01*
X135991611Y-89330000D01*
X135991611Y-89030000D01*
X135972352Y-88927646D01*
X135971960Y-88927037D01*
X135991611Y-88830000D01*
X135991611Y-88530000D01*
X135972352Y-88427646D01*
X135911861Y-88333641D01*
X135819562Y-88270576D01*
X135710000Y-88248389D01*
X134210000Y-88248389D01*
X134107646Y-88267648D01*
X134013641Y-88328139D01*
X133950576Y-88420438D01*
X133928389Y-88530000D01*
X133928389Y-88830000D01*
X133947648Y-88932354D01*
X133948040Y-88932963D01*
X133928389Y-89030000D01*
X133928389Y-89330000D01*
X133947648Y-89432354D01*
X133948040Y-89432963D01*
X133928389Y-89530000D01*
X133928389Y-89830000D01*
X133947648Y-89932354D01*
X133948040Y-89932963D01*
X133928389Y-90030000D01*
X133928389Y-90330000D01*
X133947648Y-90432354D01*
X133948040Y-90432963D01*
X133928389Y-90530000D01*
X133928389Y-90830000D01*
X133947648Y-90932354D01*
X133948040Y-90932963D01*
X133928389Y-91030000D01*
X133928389Y-91327600D01*
X132576107Y-91327600D01*
X132572352Y-91307646D01*
X132511861Y-91213641D01*
X132419562Y-91150576D01*
X132310000Y-91128389D01*
X131910000Y-91128389D01*
X131807646Y-91147648D01*
X131713641Y-91208139D01*
X131692362Y-91239281D01*
X131686539Y-91225222D01*
X131594777Y-91133461D01*
X131474885Y-91083800D01*
X131391550Y-91083800D01*
X131310000Y-91165350D01*
X131310000Y-91560000D01*
X131407800Y-91560000D01*
X131407800Y-91860000D01*
X131310000Y-91860000D01*
X131310000Y-91907800D01*
X131110000Y-91907800D01*
X131110000Y-91860000D01*
X130765350Y-91860000D01*
X130683800Y-91941550D01*
X130683800Y-92074885D01*
X130733461Y-92194778D01*
X130825223Y-92286539D01*
X130945115Y-92336200D01*
X131028450Y-92336200D01*
X131032198Y-92332452D01*
X131032198Y-92336200D01*
X131035431Y-92336200D01*
X130941804Y-92429827D01*
X130804999Y-92429708D01*
X130614830Y-92508284D01*
X130614830Y-91345115D01*
X130683800Y-91345115D01*
X130683800Y-91478450D01*
X130765350Y-91560000D01*
X131110000Y-91560000D01*
X131110000Y-91165350D01*
X131028450Y-91083800D01*
X130945115Y-91083800D01*
X130825223Y-91133461D01*
X130733461Y-91225222D01*
X130683800Y-91345115D01*
X130614830Y-91345115D01*
X130614830Y-87661526D01*
X130804074Y-87740108D01*
X131015001Y-87740292D01*
X131209942Y-87659744D01*
X131287420Y-87582400D01*
X135978389Y-87582400D01*
X135978389Y-87980000D01*
X135978389Y-87980000D01*
G37*
X135978389Y-87980000D02*
X135997648Y-88082354D01*
X136058139Y-88176359D01*
X136150438Y-88239424D01*
X136260000Y-88261611D01*
X136557600Y-88261611D01*
X136557600Y-88304262D01*
X136504225Y-88384142D01*
X136477400Y-88519000D01*
X136477400Y-88925400D01*
X136504225Y-89060258D01*
X136579350Y-89172689D01*
X136580616Y-89174584D01*
X136756827Y-89350796D01*
X136756708Y-89487601D01*
X136837256Y-89682542D01*
X136918118Y-89763544D01*
X136913981Y-89767674D01*
X136889097Y-89827600D01*
X135991611Y-89827600D01*
X135991611Y-89530000D01*
X135972352Y-89427646D01*
X135971960Y-89427037D01*
X135991611Y-89330000D01*
X135991611Y-89030000D01*
X135972352Y-88927646D01*
X135971960Y-88927037D01*
X135991611Y-88830000D01*
X135991611Y-88530000D01*
X135972352Y-88427646D01*
X135911861Y-88333641D01*
X135819562Y-88270576D01*
X135710000Y-88248389D01*
X134210000Y-88248389D01*
X134107646Y-88267648D01*
X134013641Y-88328139D01*
X133950576Y-88420438D01*
X133928389Y-88530000D01*
X133928389Y-88830000D01*
X133947648Y-88932354D01*
X133948040Y-88932963D01*
X133928389Y-89030000D01*
X133928389Y-89330000D01*
X133947648Y-89432354D01*
X133948040Y-89432963D01*
X133928389Y-89530000D01*
X133928389Y-89830000D01*
X133947648Y-89932354D01*
X133948040Y-89932963D01*
X133928389Y-90030000D01*
X133928389Y-90330000D01*
X133947648Y-90432354D01*
X133948040Y-90432963D01*
X133928389Y-90530000D01*
X133928389Y-90830000D01*
X133947648Y-90932354D01*
X133948040Y-90932963D01*
X133928389Y-91030000D01*
X133928389Y-91327600D01*
X132576107Y-91327600D01*
X132572352Y-91307646D01*
X132511861Y-91213641D01*
X132419562Y-91150576D01*
X132310000Y-91128389D01*
X131910000Y-91128389D01*
X131807646Y-91147648D01*
X131713641Y-91208139D01*
X131692362Y-91239281D01*
X131686539Y-91225222D01*
X131594777Y-91133461D01*
X131474885Y-91083800D01*
X131391550Y-91083800D01*
X131310000Y-91165350D01*
X131310000Y-91560000D01*
X131407800Y-91560000D01*
X131407800Y-91860000D01*
X131310000Y-91860000D01*
X131310000Y-91907800D01*
X131110000Y-91907800D01*
X131110000Y-91860000D01*
X130765350Y-91860000D01*
X130683800Y-91941550D01*
X130683800Y-92074885D01*
X130733461Y-92194778D01*
X130825223Y-92286539D01*
X130945115Y-92336200D01*
X131028450Y-92336200D01*
X131032198Y-92332452D01*
X131032198Y-92336200D01*
X131035431Y-92336200D01*
X130941804Y-92429827D01*
X130804999Y-92429708D01*
X130614830Y-92508284D01*
X130614830Y-91345115D01*
X130683800Y-91345115D01*
X130683800Y-91478450D01*
X130765350Y-91560000D01*
X131110000Y-91560000D01*
X131110000Y-91165350D01*
X131028450Y-91083800D01*
X130945115Y-91083800D01*
X130825223Y-91133461D01*
X130733461Y-91225222D01*
X130683800Y-91345115D01*
X130614830Y-91345115D01*
X130614830Y-87661526D01*
X130804074Y-87740108D01*
X131015001Y-87740292D01*
X131209942Y-87659744D01*
X131287420Y-87582400D01*
X135978389Y-87582400D01*
X135978389Y-87980000D01*
G36*
X156116816Y-84784816D02*
X156040425Y-84899142D01*
X156013600Y-85034000D01*
X156013600Y-88825032D01*
X154511032Y-90327600D01*
X144858768Y-90327600D01*
X145683968Y-89502400D01*
X152826545Y-89502400D01*
X152840648Y-89577354D01*
X152901139Y-89671359D01*
X152993438Y-89734424D01*
X153103000Y-89756611D01*
X154803000Y-89756611D01*
X154905354Y-89737352D01*
X154999359Y-89676861D01*
X155062424Y-89584562D01*
X155084611Y-89475000D01*
X155084611Y-88825000D01*
X155065352Y-88722646D01*
X155004861Y-88628641D01*
X154912562Y-88565576D01*
X154803000Y-88543389D01*
X153103000Y-88543389D01*
X153070344Y-88549534D01*
X153109219Y-88510726D01*
X153119233Y-88486611D01*
X154803000Y-88486611D01*
X154905354Y-88467352D01*
X154999359Y-88406861D01*
X155062424Y-88314562D01*
X155084611Y-88205000D01*
X155084611Y-87555000D01*
X155065352Y-87452646D01*
X155004861Y-87358641D01*
X154912562Y-87295576D01*
X154803000Y-87273389D01*
X153103000Y-87273389D01*
X153000646Y-87292648D01*
X152906641Y-87353139D01*
X152843576Y-87445438D01*
X152830275Y-87511118D01*
X152704894Y-87594895D01*
X152620025Y-87679765D01*
X152554999Y-87679708D01*
X152367400Y-87757222D01*
X152367400Y-86898968D01*
X152412318Y-86854050D01*
X152776800Y-86854050D01*
X152776800Y-86999885D01*
X152826461Y-87119778D01*
X152918223Y-87211539D01*
X153038115Y-87261200D01*
X153693650Y-87261200D01*
X153775200Y-87179650D01*
X153775200Y-86772500D01*
X154130800Y-86772500D01*
X154130800Y-87179650D01*
X154212350Y-87261200D01*
X154867885Y-87261200D01*
X154987777Y-87211539D01*
X155079539Y-87119778D01*
X155129200Y-86999885D01*
X155129200Y-86854050D01*
X155047650Y-86772500D01*
X154130800Y-86772500D01*
X153775200Y-86772500D01*
X152858350Y-86772500D01*
X152776800Y-86854050D01*
X152412318Y-86854050D01*
X152838609Y-86427759D01*
X152858350Y-86447500D01*
X153775200Y-86447500D01*
X153775200Y-86040350D01*
X154130800Y-86040350D01*
X154130800Y-86447500D01*
X155047650Y-86447500D01*
X155129200Y-86365950D01*
X155129200Y-86220115D01*
X155079539Y-86100222D01*
X154987777Y-86008461D01*
X154867885Y-85958800D01*
X154212350Y-85958800D01*
X154130800Y-86040350D01*
X153775200Y-86040350D01*
X153693650Y-85958800D01*
X153307569Y-85958800D01*
X153319758Y-85946611D01*
X154803000Y-85946611D01*
X154905354Y-85927352D01*
X154999359Y-85866861D01*
X155062424Y-85774562D01*
X155084611Y-85665000D01*
X155084611Y-85015000D01*
X155065352Y-84912646D01*
X155004861Y-84818641D01*
X154912562Y-84755576D01*
X154803000Y-84733389D01*
X153103000Y-84733389D01*
X153000646Y-84752648D01*
X152906641Y-84813139D01*
X152843576Y-84905438D01*
X152821389Y-85015000D01*
X152821389Y-85448242D01*
X151765816Y-86503816D01*
X151689425Y-86618142D01*
X151662600Y-86753000D01*
X151662600Y-88037979D01*
X151609744Y-87910058D01*
X151460726Y-87760781D01*
X151265926Y-87679892D01*
X151054999Y-87679708D01*
X150860058Y-87760256D01*
X150813433Y-87806800D01*
X144834000Y-87806800D01*
X144679702Y-87837492D01*
X144548894Y-87924895D01*
X144205967Y-88267823D01*
X144110000Y-88248389D01*
X142610000Y-88248389D01*
X142507646Y-88267648D01*
X142493423Y-88276800D01*
X142313200Y-88276800D01*
X142313200Y-88098671D01*
X142319424Y-88089562D01*
X142341611Y-87980000D01*
X142341611Y-86480000D01*
X142322352Y-86377646D01*
X142261861Y-86283641D01*
X142169562Y-86220576D01*
X142060000Y-86198389D01*
X141762400Y-86198389D01*
X141762400Y-86075968D01*
X143305969Y-84532400D01*
X156369232Y-84532400D01*
X156116816Y-84784816D01*
X156116816Y-84784816D01*
G37*
X156116816Y-84784816D02*
X156040425Y-84899142D01*
X156013600Y-85034000D01*
X156013600Y-88825032D01*
X154511032Y-90327600D01*
X144858768Y-90327600D01*
X145683968Y-89502400D01*
X152826545Y-89502400D01*
X152840648Y-89577354D01*
X152901139Y-89671359D01*
X152993438Y-89734424D01*
X153103000Y-89756611D01*
X154803000Y-89756611D01*
X154905354Y-89737352D01*
X154999359Y-89676861D01*
X155062424Y-89584562D01*
X155084611Y-89475000D01*
X155084611Y-88825000D01*
X155065352Y-88722646D01*
X155004861Y-88628641D01*
X154912562Y-88565576D01*
X154803000Y-88543389D01*
X153103000Y-88543389D01*
X153070344Y-88549534D01*
X153109219Y-88510726D01*
X153119233Y-88486611D01*
X154803000Y-88486611D01*
X154905354Y-88467352D01*
X154999359Y-88406861D01*
X155062424Y-88314562D01*
X155084611Y-88205000D01*
X155084611Y-87555000D01*
X155065352Y-87452646D01*
X155004861Y-87358641D01*
X154912562Y-87295576D01*
X154803000Y-87273389D01*
X153103000Y-87273389D01*
X153000646Y-87292648D01*
X152906641Y-87353139D01*
X152843576Y-87445438D01*
X152830275Y-87511118D01*
X152704894Y-87594895D01*
X152620025Y-87679765D01*
X152554999Y-87679708D01*
X152367400Y-87757222D01*
X152367400Y-86898968D01*
X152412318Y-86854050D01*
X152776800Y-86854050D01*
X152776800Y-86999885D01*
X152826461Y-87119778D01*
X152918223Y-87211539D01*
X153038115Y-87261200D01*
X153693650Y-87261200D01*
X153775200Y-87179650D01*
X153775200Y-86772500D01*
X154130800Y-86772500D01*
X154130800Y-87179650D01*
X154212350Y-87261200D01*
X154867885Y-87261200D01*
X154987777Y-87211539D01*
X155079539Y-87119778D01*
X155129200Y-86999885D01*
X155129200Y-86854050D01*
X155047650Y-86772500D01*
X154130800Y-86772500D01*
X153775200Y-86772500D01*
X152858350Y-86772500D01*
X152776800Y-86854050D01*
X152412318Y-86854050D01*
X152838609Y-86427759D01*
X152858350Y-86447500D01*
X153775200Y-86447500D01*
X153775200Y-86040350D01*
X154130800Y-86040350D01*
X154130800Y-86447500D01*
X155047650Y-86447500D01*
X155129200Y-86365950D01*
X155129200Y-86220115D01*
X155079539Y-86100222D01*
X154987777Y-86008461D01*
X154867885Y-85958800D01*
X154212350Y-85958800D01*
X154130800Y-86040350D01*
X153775200Y-86040350D01*
X153693650Y-85958800D01*
X153307569Y-85958800D01*
X153319758Y-85946611D01*
X154803000Y-85946611D01*
X154905354Y-85927352D01*
X154999359Y-85866861D01*
X155062424Y-85774562D01*
X155084611Y-85665000D01*
X155084611Y-85015000D01*
X155065352Y-84912646D01*
X155004861Y-84818641D01*
X154912562Y-84755576D01*
X154803000Y-84733389D01*
X153103000Y-84733389D01*
X153000646Y-84752648D01*
X152906641Y-84813139D01*
X152843576Y-84905438D01*
X152821389Y-85015000D01*
X152821389Y-85448242D01*
X151765816Y-86503816D01*
X151689425Y-86618142D01*
X151662600Y-86753000D01*
X151662600Y-88037979D01*
X151609744Y-87910058D01*
X151460726Y-87760781D01*
X151265926Y-87679892D01*
X151054999Y-87679708D01*
X150860058Y-87760256D01*
X150813433Y-87806800D01*
X144834000Y-87806800D01*
X144679702Y-87837492D01*
X144548894Y-87924895D01*
X144205967Y-88267823D01*
X144110000Y-88248389D01*
X142610000Y-88248389D01*
X142507646Y-88267648D01*
X142493423Y-88276800D01*
X142313200Y-88276800D01*
X142313200Y-88098671D01*
X142319424Y-88089562D01*
X142341611Y-87980000D01*
X142341611Y-86480000D01*
X142322352Y-86377646D01*
X142261861Y-86283641D01*
X142169562Y-86220576D01*
X142060000Y-86198389D01*
X141762400Y-86198389D01*
X141762400Y-86075968D01*
X143305969Y-84532400D01*
X156369232Y-84532400D01*
X156116816Y-84784816D01*
G36*
X138557600Y-85855969D02*
X138557600Y-86286980D01*
X138500576Y-86370438D01*
X138478389Y-86480000D01*
X138478389Y-87980000D01*
X138497648Y-88082354D01*
X138558139Y-88176359D01*
X138650438Y-88239424D01*
X138760000Y-88261611D01*
X139060000Y-88261611D01*
X139162354Y-88242352D01*
X139162963Y-88241960D01*
X139260000Y-88261611D01*
X139560000Y-88261611D01*
X139662354Y-88242352D01*
X139662963Y-88241960D01*
X139760000Y-88261611D01*
X140060000Y-88261611D01*
X140162354Y-88242352D01*
X140162963Y-88241960D01*
X140260000Y-88261611D01*
X140560000Y-88261611D01*
X140662354Y-88242352D01*
X140662963Y-88241960D01*
X140760000Y-88261611D01*
X141060000Y-88261611D01*
X141162354Y-88242352D01*
X141162963Y-88241960D01*
X141260000Y-88261611D01*
X141506800Y-88261611D01*
X141506800Y-88276800D01*
X138313200Y-88276800D01*
X138313200Y-88098671D01*
X138319424Y-88089562D01*
X138341611Y-87980000D01*
X138341611Y-86480000D01*
X138322352Y-86377646D01*
X138262400Y-86284479D01*
X138262400Y-85710000D01*
X138235575Y-85575142D01*
X138168566Y-85474857D01*
X138159184Y-85460815D01*
X138010769Y-85312400D01*
X138014032Y-85312400D01*
X138557600Y-85855969D01*
X138557600Y-85855969D01*
G37*
X138557600Y-85855969D02*
X138557600Y-86286980D01*
X138500576Y-86370438D01*
X138478389Y-86480000D01*
X138478389Y-87980000D01*
X138497648Y-88082354D01*
X138558139Y-88176359D01*
X138650438Y-88239424D01*
X138760000Y-88261611D01*
X139060000Y-88261611D01*
X139162354Y-88242352D01*
X139162963Y-88241960D01*
X139260000Y-88261611D01*
X139560000Y-88261611D01*
X139662354Y-88242352D01*
X139662963Y-88241960D01*
X139760000Y-88261611D01*
X140060000Y-88261611D01*
X140162354Y-88242352D01*
X140162963Y-88241960D01*
X140260000Y-88261611D01*
X140560000Y-88261611D01*
X140662354Y-88242352D01*
X140662963Y-88241960D01*
X140760000Y-88261611D01*
X141060000Y-88261611D01*
X141162354Y-88242352D01*
X141162963Y-88241960D01*
X141260000Y-88261611D01*
X141506800Y-88261611D01*
X141506800Y-88276800D01*
X138313200Y-88276800D01*
X138313200Y-88098671D01*
X138319424Y-88089562D01*
X138341611Y-87980000D01*
X138341611Y-86480000D01*
X138322352Y-86377646D01*
X138262400Y-86284479D01*
X138262400Y-85710000D01*
X138235575Y-85575142D01*
X138168566Y-85474857D01*
X138159184Y-85460815D01*
X138010769Y-85312400D01*
X138014032Y-85312400D01*
X138557600Y-85855969D01*
M02*
